<?xml version="1.0" encoding="UTF-8"?><svg id="Btn_Phone-requests-received-default" xmlns="http://www.w3.org/2000/svg" xmlns:xlink="http://www.w3.org/1999/xlink" viewBox="0 0 256 256"><defs><style>.cls-1{fill:#fff;}.cls-2{fill:none;mix-blend-mode:multiply;opacity:.6;}.cls-3{fill:#4187e6;}.cls-4{fill:#adc1de;}.cls-5{fill:#3b56fd;}</style><symbol id="Btn_blue" viewBox="0 0 255.38 255.38"><circle id="Black" cx="127.69" cy="127.69" r="127.69"/><circle id="Orange" class="cls-3" cx="119.94" cy="130.44" r="114.94"/><path id="Shadow" class="cls-5" d="m139.94,215.38c-63.48,0-114.94-51.46-114.94-114.94,0-17.1,7.53-33.32,14.22-47.9-18.89,20.48-30.67,47.84-30.67,77.9,0,63.48,48,108.61,111.39,114.94,46.16,4.61,86.35-27.48,104.51-67.04-21,22.77-51.09,37.04-84.51,37.04Z"/></symbol><symbol id="Exclamation" viewBox="0 0 126.7 252.83"><g id="exclamation"><path d="m.17,213.55c-.65-5.94.64-11.47,3.23-16.84,5.45-11.31,14.2-18.64,26.29-21.42,12.3-2.83,23.63-.24,33.43,8.01,6.35,5.34,10.87,11.97,12.9,20.05,3.05,12.08.91,23.28-6.4,33.42-5.38,7.47-12.52,12.44-21.4,14.68-16.06,4.05-29.26-.99-39.91-13.28-4.38-5.05-7.26-10.96-8.1-17.68-.28-2.28-.04-4.62-.04-6.94Zm39.68,31.51c17.42-.04,32.57-13.96,32.63-32.99.06-18.29-14.69-33.03-32.94-32.92-17.15.11-32.68,13.77-32.49,33.15.21,21.59,17.52,32.85,32.81,32.76Z"/><path class="cls-1" d="m39.84,245.07c-15.29.09-32.6-11.17-32.81-32.76-.19-19.38,15.35-33.04,32.49-33.15,18.26-.12,33,14.63,32.94,32.92-.06,19.03-15.21,32.95-32.63,32.99Z"/><path d="m126.7,10.33c-4.42,11.79-8.81,23.47-13.2,35.16-5.6,14.93-11.19,29.86-16.78,44.79-6.11,16.34-12.23,32.68-18.32,49.02-4.23,11.33-8.44,22.66-12.61,34.01-.4,1.09-.92,1.28-1.98,1.11-5.31-.83-10.65-1.55-15.96-2.38-3.48-.54-6.93-1.21-10.4-1.78-2.08-.34-4.16-.63-6.25-.9-1.02-.13-1.41-.66-1.51-1.68-.91-8.81-1.85-17.62-2.81-26.42-.73-6.74-1.48-13.49-2.26-20.23-1.1-9.44-2.26-18.88-3.34-28.32-.87-7.63-1.64-15.27-2.51-22.9-.74-6.54-1.57-13.07-2.33-19.61-.62-5.37-1.19-10.74-1.8-16.11-1.11-9.73-2.23-19.46-3.36-29.18-.18-1.54-.15-1.64,1.45-1.75,11.27-.82,22.54-1.54,33.8-2.46,7.89-.64,15.78-.98,23.67-.41,10.41.75,20.87,1.12,31.19,2.89,8.71,1.49,17.29,3.43,25.32,7.15ZM49.22,165.09s0-.06,0-.08c4.73.3,9.46.57,14.19.93.97.08,1.31-.19,1.59-1.1,3.85-12.27,7.77-24.52,11.63-36.78,4.73-15.01,9.41-30.04,14.12-45.05,5.59-17.8,11.17-35.61,16.77-53.41,1.3-4.14,2.69-8.25,3.99-12.39.08-.27-.19-.86-.45-1-1.15-.58-2.34-1.1-3.55-1.56-12.92-4.84-26.4-6.74-40.08-7.27-7.15-.28-14.35-.22-21.49.25-7.95.52-15.85,1.69-23.77,2.53-1.1.12-1.32.58-1.23,1.57.47,5.06.92,10.12,1.35,15.18.78,9.07,1.55,18.14,2.31,27.22.52,6.2,1.02,12.4,1.54,18.59.77,9.15,1.57,18.31,2.34,27.46.55,6.52,1.06,13.05,1.6,19.57.75,9.03,1.53,18.06,2.28,27.1.45,5.43.86,10.86,1.29,16.29.05.63.08,1.12.99,1.16,4.86.22,9.71.51,14.56.78Z"/><path class="cls-1" d="m49.22,165.09c-4.85-.27-9.71-.57-14.56-.78-.91-.04-.94-.53-.99-1.16-.43-5.43-.84-10.86-1.29-16.29-.75-9.03-1.53-18.06-2.28-27.1-.54-6.52-1.05-13.05-1.6-19.57-.77-9.15-1.57-18.31-2.34-27.46-.52-6.2-1.02-12.4-1.54-18.59-.76-9.07-1.53-18.15-2.31-27.22-.43-5.06-.88-10.12-1.35-15.18-.09-.99.13-1.45,1.23-1.57,7.93-.83,15.83-2.01,23.77-2.53,7.14-.47,14.34-.53,21.49-.25,13.68.53,27.16,2.43,40.08,7.27,1.21.45,2.4.97,3.55,1.56.26.13.54.73.45,1-1.3,4.14-2.69,8.25-3.99,12.39-5.6,17.8-11.19,35.6-16.77,53.41-4.71,15.02-9.4,30.04-14.12,45.05-3.86,12.27-7.78,24.51-11.63,36.78-.28.91-.62,1.17-1.59,1.1-4.72-.37-9.46-.63-14.19-.93,0,.03,0,.06,0,.08Z"/></g></symbol><symbol id="Mail-open" viewBox="0 0 152.85 170.08"><g class="cls-2"><path d="m151.31,125.27l-7.76-58.55-22.82,33.47,30.58,25.08Zm-107.76,40.81l109.31-29.16-.6-4.56-34.29-28.12-16.04,23.52c-1.65,2.48-4.06,4.15-6.8,4.71-2.49.5-5.07.02-7.24-1.36l-22.39-13.65-24.24,41.48,2.3,7.12Zm-4.31-13.37l22.13-37.87-42.84-26.31,20.7,64.19Zm103.35-93.26l-44.71,65.59c-.91,1.33-2.27,2.27-3.75,2.57-1.29.26-2.56.03-3.69-.66L16.22,81.37l-4.22-12.66L58.56,2.68c.91-1.33,2.27-2.27,3.74-2.57,1.29-.26,2.56-.04,3.69.65l74.9,45.52,1.69,13.18Z"/></g><path class="cls-1" d="m139.31,129.27l-7.76-58.55-22.82,33.47,30.58,25.08Zm-107.76,40.81l109.31-29.16-.6-4.56-34.29-28.12-16.04,23.52c-1.65,2.48-4.06,4.15-6.8,4.71-2.49.5-5.07.02-7.24-1.36l-22.39-13.65-24.24,41.48,2.3,7.12Zm-4.31-13.37l22.13-37.87L6.53,92.53l20.7,64.19Zm103.35-93.26l-44.71,65.59c-.91,1.33-2.27,2.27-3.75,2.57-1.29.26-2.56.03-3.69-.66L4.22,85.37l-4.22-12.66L46.56,6.68c.91-1.33,2.27-2.27,3.74-2.57,1.29-.26,2.56-.04,3.69.65l74.9,45.52,1.69,13.18Z"/></symbol></defs><use width="255.38" height="255.38" transform="translate(.31 .31)" xlink:href="#Btn_blue"/><g id="lines"><path class="cls-4" d="m217.36,69.62c-.99-1.54-2.01-3.05-3.07-4.53l-54.75,55.29,57.82-50.76Z"/><path class="cls-4" d="m203.81,52.45c-3.12-3.25-6.41-6.3-9.87-9.15l-55.87,85.61,65.74-76.46Z"/><path class="cls-4" d="m139.68,18.57c-3.18-.53-6.39-.94-9.62-1.2l-28.02,118.16,37.64-116.95Z"/><path class="cls-4" d="m176.57,31.48c-2.98-1.65-6.03-3.18-9.15-4.57l-57.82,134.67L176.57,31.48Z"/></g><use width="152.85" height="170.08" transform="translate(27.19 63.69)" xlink:href="#Mail-open"/><use width="126.7" height="252.83" transform="translate(84.94 73.11) scale(.39)" xlink:href="#Exclamation"/></svg>