<?xml version="1.0" encoding="UTF-8"?><svg id="Btn_Arrow-left" xmlns="http://www.w3.org/2000/svg" xmlns:xlink="http://www.w3.org/1999/xlink" viewBox="0 0 256 256"><defs><style>.cls-1{fill:#fff;}.cls-1,.cls-2{fill-rule:evenodd;}.cls-3{fill:none;mix-blend-mode:multiply;opacity:.6;}.cls-4{fill:#ff8400;}.cls-5{fill:#ff440a;}</style><symbol id="Arrow-left" viewBox="0 0 130.18 193.49"><g id="arrow"><g class="cls-3"><polygon class="cls-2" points="130.18 148.04 94.73 189.49 12 100.67 94.73 0 130.18 35.53 65.19 94.74 130.18 148.04"/></g><polygon class="cls-1" points="118.18 152.04 82.73 193.49 0 104.67 82.73 4 118.18 39.53 53.19 98.74 118.18 152.04"/></g></symbol><symbol id="Btn_orange" viewBox="0 0 255.38 255.38"><circle id="Black" cx="127.69" cy="127.69" r="127.69"/><circle id="Orange" class="cls-4" cx="119.94" cy="130.44" r="114.94"/><path id="Shadow" class="cls-5" d="m139.94,215.38c-63.48,0-114.94-51.46-114.94-114.94,0-17.1,7.53-33.32,14.22-47.9-18.89,20.48-30.67,47.84-30.67,77.9,0,63.48,48,108.61,111.39,114.94,46.16,4.61,86.35-27.48,104.51-67.04-21,22.77-51.09,37.04-84.51,37.04Z"/></symbol></defs><use width="255.38" height="255.38" transform="translate(.31 .31)" xlink:href="#Btn_orange"/><use width="130.18" height="193.49" transform="translate(48.72 32.75)" xlink:href="#Arrow-left"/></svg>