<?xml version="1.0" encoding="UTF-8"?><svg id="Btn_Phone-friend-pending" xmlns="http://www.w3.org/2000/svg" xmlns:xlink="http://www.w3.org/1999/xlink" viewBox="0 0 256 256"><defs><style>.cls-1,.cls-2{fill:#fff;}.cls-2,.cls-3{fill-rule:evenodd;}.cls-4{fill:none;mix-blend-mode:multiply;opacity:.6;}.cls-5{fill:#ff9c0d;}.cls-6{fill:#fc0;}</style><symbol id="Btn-question" viewBox="0 0 88.74 147.26"><g id="question"><g class="cls-4"><path d="m9.5,121.4c-2.18,8.66,4.55,19.11,13.37,21.12,8.15,1.86,18.02-4.03,19.73-11.76,2.17-9.82-3.44-19.62-12.39-21.65-9.69-3.31-18.77,4.6-20.7,12.29Z"/><path d="m10.53,121.66c-1.98,9.09,6.27,17.94,15.02,18.76,2.79.23,5.8-.39,8.57-1.65,11.5-4.91,9.89-20.95.08-26.76-1.37-.79-2.85-1.34-4.38-1.69-1.92-.78-4.05-.94-6.09-.65-6.14.98-11.55,6.04-13.22,12h0Zm-2.06-.52c2.37-9.36,12.61-16.35,22.13-13.21,2.84.64,6.73,2.91,8.82,5.63,4.4,5.49,5.8,13.38,3.34,19.98-2.89,6.81-9.82,11.67-17.39,11.72-11.61-.09-19.41-13.56-16.9-24.12h0Z"/><path d="m67.78,77.03c8.24-3.29,13.1-9.51,16.28-17.48,3.38-8.47,3.81-17.35,3.34-26.23-.47-8.89-4.93-15.85-12.63-20.28-8.47-4.87-17.81-7.52-27.46-8.55-11.48-1.22-23.03-1.79-34.53-2.8-2.51-.22-3.08.72-2.81,2.89,1.35,10.71,2.68,21.42,4.05,32.12.13.98.54,1.93.94,3.28,3.39-1.75,6.36-3.44,9.46-4.85,7.15-3.26,14.48-4.8,22.23-2.01,6.82,2.46,9.69,8.83,6.71,15.42-2.91,6.44-8.14,10.56-14.34,13.43-13.38,6.19-17.83,17.99-20.09,31.28-.42,2.47.79,3.27,2.89,3.59,3.02.46,6.03.98,9.04,1.47,6.2,1.01,12.4,2.01,19.14,3.1.06-1.28.21-2.31.13-3.32-.25-3.38.74-6.28,2.61-9.14,3.72-5.69,8.9-9.46,15.05-11.91Z"/><path d="m66.88,74.78c14.86-5.38,19.86-20.68,19.54-35.37.39-12.37-3.11-21.02-14.66-26.65C54.91,4.04,35.38,5.4,16.97,3.69c-1.25-.05-4.09-.4-5.26-.31-.26.05-.22.09-.11-.02-.05.42.2,2.19.3,2.92,1.11,8.1,2.67,19.92,3.77,27.98.04.5.24,1.63.28,2.1.13,1.01.57,1.84.92,3.08,0,0-2.85-1.22-2.85-1.22,8.16-4.46,16.96-9.55,26.72-8.67,10.73.63,19.51,8.4,15.01,19.6-2.82,6.98-9.01,12.13-15.69,15.12-2.56,1.2-4.94,2.7-7.04,4.52-7.15,6.17-10.13,15.44-12.01,24.63-.15.69-.14,1.03-.09,1.12.5.42,1.74.46,2.41.64,0,0,8.96,1.71,8.96,1.71,5.96,1.15,11.94,2.18,17.92,3.18l-1.6,1.3c.09-1.36.21-2.57.08-3.97-.05-10.16,9.21-19.14,18.18-22.6h0Zm1.8,4.51c-7.27,2.9-17.05,9.41-17.19,18.04.12,1.71-.14,3.94-.18,5.69-9.2-1.47-19.27-2.89-28.55-4.11-2.05-.21-4.58-.6-5.54-2.8-.89-2.21-.14-3.77.05-5.71,1.94-13.1,8.1-25.08,20.69-30.71,6.74-3.04,14.92-9.87,14.03-17.74-.83-5.26-6.83-7.48-11.63-7.92-8.91-.86-16.5,3.66-24.47,7.75,0,0-2.22,1.13-2.22,1.13l-.63-2.35c-.35-1.17-.99-2.96-1.07-4.41,0,0-.17-1.4-.17-1.4-.43-3.63-1.54-13.1-1.98-16.83,0,0-1.32-11.22-1.32-11.22-.11-1.82-.82-3.51.41-5.38C10.22-.44,12.61,0,14.43.18c8.42.78,16.87,1.35,25.32,2.15,11.37.84,22.92,2.91,33.09,8.34,12.21,5.95,16.51,15.51,15.84,28.75-.19,14.43-5.23,33.88-20,39.87h0Z"/></g><path class="cls-1" d="m1.5,123.4c-2.18,8.66,4.55,19.11,13.37,21.12,8.15,1.86,18.02-4.03,19.73-11.76,2.17-9.82-3.44-19.62-12.39-21.65-9.69-3.31-18.77,4.6-20.7,12.29Z"/><path d="m2.53,123.66c-1.98,9.09,6.27,17.94,15.02,18.76,2.79.23,5.8-.39,8.57-1.65,11.5-4.91,9.89-20.95.08-26.76-1.37-.79-2.85-1.34-4.38-1.69-1.92-.78-4.05-.94-6.09-.65-6.14.98-11.55,6.04-13.22,12h0Zm-2.06-.52c2.37-9.36,12.61-16.35,22.13-13.21,2.84.64,6.73,2.91,8.82,5.63,4.4,5.49,5.8,13.38,3.34,19.98-2.89,6.81-9.82,11.67-17.39,11.72-11.61-.09-19.41-13.56-16.9-24.12H.47Z"/><path class="cls-1" d="m59.78,79.03c8.24-3.29,13.1-9.51,16.28-17.48,3.38-8.47,3.81-17.35,3.34-26.23-.47-8.89-4.93-15.85-12.63-20.28-8.47-4.87-17.81-7.52-27.46-8.55-11.48-1.22-23.03-1.79-34.53-2.8-2.51-.22-3.08.72-2.81,2.89,1.35,10.71,2.68,21.42,4.05,32.12.13.98.54,1.93.94,3.28,3.39-1.75,6.36-3.44,9.46-4.85,7.15-3.26,14.48-4.8,22.23-2.01,6.82,2.46,9.69,8.83,6.71,15.42-2.91,6.44-8.14,10.56-14.34,13.43-13.38,6.19-17.83,17.99-20.09,31.28-.42,2.47.79,3.27,2.89,3.59,3.02.46,6.03.98,9.04,1.47,6.2,1.01,12.4,2.01,19.14,3.1.06-1.28.21-2.31.13-3.32-.25-3.38.74-6.28,2.61-9.14,3.72-5.69,8.9-9.46,15.05-11.91Z"/><path d="m58.88,76.78c14.86-5.38,19.86-20.68,19.54-35.37.39-12.37-3.11-21.02-14.66-26.65C46.91,6.04,27.38,7.4,8.97,5.69c-1.25-.05-4.09-.4-5.26-.31-.26.05-.22.09-.11-.02-.05.42.2,2.19.3,2.92,1.11,8.1,2.67,19.92,3.77,27.98.04.5.24,1.63.28,2.1.13,1.01.57,1.84.92,3.08,0,0-2.85-1.22-2.85-1.22,8.16-4.46,16.96-9.55,26.72-8.67,10.73.63,19.51,8.4,15.01,19.6-2.82,6.98-9.01,12.13-15.69,15.12-2.56,1.2-4.94,2.7-7.04,4.52-7.15,6.17-10.13,15.44-12.01,24.63-.15.69-.14,1.03-.09,1.12.5.42,1.74.46,2.41.64,0,0,8.96,1.71,8.96,1.71,5.96,1.15,11.94,2.18,17.92,3.18l-1.6,1.3c.09-1.36.21-2.57.08-3.97-.05-10.16,9.21-19.14,18.18-22.6h0Zm1.8,4.51c-7.27,2.9-17.05,9.41-17.19,18.04.12,1.71-.14,3.94-.18,5.69-9.2-1.47-19.27-2.89-28.55-4.11-2.05-.21-4.58-.6-5.54-2.8-.89-2.21-.14-3.77.05-5.71,1.94-13.1,8.1-25.08,20.69-30.71,6.74-3.04,14.92-9.87,14.03-17.74-.83-5.26-6.83-7.48-11.63-7.92-8.91-.86-16.5,3.66-24.47,7.75,0,0-2.22,1.13-2.22,1.13l-.63-2.35c-.35-1.17-.99-2.96-1.07-4.41,0,0-.17-1.4-.17-1.4-.43-3.63-1.54-13.1-1.98-16.83,0,0-1.32-11.22-1.32-11.22-.11-1.82-.82-3.51.41-5.38,1.32-1.76,3.71-1.32,5.53-1.15,8.42.78,16.87,1.35,25.32,2.15,11.37.84,22.92,2.91,33.09,8.34,12.21,5.95,16.51,15.51,15.84,28.75-.19,14.43-5.23,33.88-20,39.87h0Z"/></g></symbol><symbol id="Btn_yellow" viewBox="0 0 255.38 255.38"><circle id="Black" cx="127.69" cy="127.69" r="127.69"/><circle id="Red" class="cls-6" cx="119.94" cy="130.44" r="114.94"/><path id="Shadow" class="cls-5" d="m139.94,215.38c-63.48,0-114.94-51.46-114.94-114.94,0-17.1,7.53-33.32,14.22-47.9-18.89,20.48-30.67,47.84-30.67,77.9,0,63.48,48,108.61,111.39,114.94,46.16,4.61,86.35-27.48,104.51-67.04-21,22.77-51.09,37.04-84.51,37.04Z"/></symbol><symbol id="Friend" viewBox="0 0 173.93 177.59"><g id="icon"><g class="cls-4"><path class="cls-3" d="m63.34,108.74c4.47-3.89,10.98-6.25,17.48-7.67-6.86-8.53-13.24-20.56-13.12-35.74.19-23.13,11.22-42.71,27.28-51.7C88.36,5.37,79.26.11,68.73,0,46.95.22,31.22,22.51,31.01,47.8c-.22,27.13,25.15,42.77,25.15,42.77,0,0-23.78-.21-32.69,7.55-12.39,10.79-12.87,42.93-10.06,50.32,1.46,3.82,18.82,5.97,35.36,6.93-.34-15.05,3-36.56,14.57-46.63Z"/><path class="cls-3" d="m172.52,163.52c-2.1,5.51-39.75,10.06-57.84,10.06s-53.23-2.04-55.32-7.55c-2.81-7.38-2.34-39.53,10.06-50.32,8.91-7.76,32.69-7.55,32.69-7.55,0,0-25.37-15.64-25.15-42.77.2-25.29,15.94-47.58,37.72-47.8,21.78.22,37.52,22.51,37.72,47.8.22,27.13-22.63,40.25-22.63,40.25,0,0,23.78-.21,32.69,7.55,12.39,10.79,12.87,42.93,10.06,50.32Z"/></g><path class="cls-2" d="m51.34,112.74c4.47-3.89,10.98-6.25,17.48-7.67-6.86-8.53-13.24-20.56-13.12-35.74.19-23.13,11.22-42.71,27.28-51.7-6.63-8.26-15.73-13.52-26.26-13.63-21.78.22-37.52,22.51-37.72,47.8-.22,27.13,25.15,42.77,25.15,42.77,0,0-23.78-.21-32.69,7.55C-.93,112.91-1.4,145.06,1.41,152.44c1.46,3.82,18.82,5.97,35.36,6.93-.34-15.05,3-36.56,14.57-46.63Z"/><use width="115.98" height="155.99" transform="translate(45.95 21.6)" xlink:href="#Person"/></g></symbol><symbol id="Person" viewBox="0 0 115.98 155.99"><path class="cls-2" d="m114.57,145.92c-2.1,5.51-39.75,10.06-57.84,10.06s-53.23-2.04-55.32-7.55c-2.81-7.38-2.34-39.53,10.06-50.32,8.91-7.76,32.69-7.55,32.69-7.55,0,0-25.37-15.64-25.15-42.77C19.22,22.51,34.95.22,56.73,0c21.78.22,37.52,22.51,37.72,47.8.22,27.13-22.63,40.25-22.63,40.25,0,0,23.78-.21,32.69,7.55,12.39,10.79,12.87,42.93,10.06,50.32Z"/></symbol></defs><use width="255.38" height="255.38" transform="translate(.31 .31)" xlink:href="#Btn_yellow"/><use width="173.93" height="177.59" transform="translate(37.02 37.1)" xlink:href="#Friend"/><use width="88.74" height="147.26" transform="translate(168.93 108.58)" xlink:href="#Btn-question"/></svg>