<?xml version="1.0" encoding="UTF-8"?><svg id="Btn_Checkbox-checked" xmlns="http://www.w3.org/2000/svg" xmlns:xlink="http://www.w3.org/1999/xlink" viewBox="0 0 255.38 255.38"><defs><style>.cls-1{fill:#fff;}.cls-2{fill:#bdd5f6;}.cls-3{fill:#29a25a;}.cls-4{fill:#60cb3d;}</style><symbol id="Btn_white" viewBox="0 0 255.38 255.38"><circle id="Black" cx="127.69" cy="127.69" r="127.69"/><circle id="Orange" class="cls-1" cx="119.94" cy="130.44" r="114.94"/><path id="Shadow" class="cls-2" d="m139.94,215.38c-63.48,0-114.94-51.46-114.94-114.94,0-17.1,7.53-33.32,14.22-47.9-18.89,20.48-30.67,47.84-30.67,77.9,0,63.48,48,108.61,111.39,114.94,46.16,4.61,86.35-27.48,104.51-67.04-21,22.77-51.09,37.04-84.51,37.04Z"/></symbol></defs><use width="255.38" height="255.38" transform="translate(0 24.8) scale(.9)" xlink:href="#Btn_white"/><g id="icon"><g id="bg"><polygon points="11.26 150.92 73.42 68.19 109.46 119.16 173.03 .94 255.02 76.36 122.2 225.64 11.26 150.92"/><polygon class="cls-3" points="20.71 143.99 71.22 76.77 108.39 129.33 173.19 8.8 241.81 71.92 118.87 210.1 20.71 143.99"/></g><polygon id="fg" class="cls-4" points="38.01 120.97 71.22 76.77 108.39 129.33 173.19 8.8 234.06 64.83 115.88 190.26 38.01 120.97"/><g id="highlights"><path class="cls-1" d="m217.78,49.85l-44.59-41.05-64.8,120.53s42.86-68.56,66.4-98.11c9.63-12.09,43,18.63,43,18.63Z"/><path class="cls-1" d="m101.94,120.22l-30.72-43.44-14.99,19.94s9.34-8.98,14.77-4.56c8.09,6.59,30.94,28.06,30.94,28.06Z"/></g></g></svg>