<?xml version="1.0" encoding="UTF-8"?><svg id="Btn_Phone-MySchool-selected" xmlns="http://www.w3.org/2000/svg" xmlns:xlink="http://www.w3.org/1999/xlink" viewBox="0 0 256 256"><defs><style>.cls-1{fill:#fff;filter:url(#drop-shadow-17);}.cls-2{fill:#ff8400;}.cls-3{fill:#ff440a;}</style><symbol id="Btn_orange" viewBox="0 0 255.38 255.38"><circle id="Black" cx="127.69" cy="127.69" r="127.69"/><circle id="Orange" class="cls-2" cx="119.94" cy="130.44" r="114.94"/><path id="Shadow" class="cls-3" d="m139.94,215.38c-63.48,0-114.94-51.46-114.94-114.94,0-17.1,7.53-33.32,14.22-47.9-18.89,20.48-30.67,47.84-30.67,77.9,0,63.48,48,108.61,111.39,114.94,46.16,4.61,86.35-27.48,104.51-67.04-21,22.77-51.09,37.04-84.51,37.04Z"/></symbol><filter id="drop-shadow-17" filterUnits="userSpaceOnUse"><feOffset dx="12" dy="-4"/><feGaussianBlur result="blur" stdDeviation="0"/><feFlood flood-color="#000" flood-opacity=".6"/><feComposite in2="blur" operator="in"/><feComposite in="SourceGraphic"/></filter></defs><use width="255.38" height="255.38" transform="translate(.31 .31)" xlink:href="#Btn_orange"/><path id="icon" class="cls-1" d="m189,90.83c-11.67-13.33-25.67-7.33-25.67-7.33l-18.17,50.67c-13.38-3.42-27.38-5.55-39.5-5.34l5.33-43,16,4-49-43.33-46.67,45.33,14-6,3,37.67-30.67,20.67,11-3.67,9.33,53.67,19.12-2.18,1.88,11.84,35.67.67,2.67-9.33c25.33,0,34.33,2,57.33,14.33l30.33-60c-9.23-5.34-22.35-10.55-36.38-14.41l.27.07,12.11-29.67s11.92-1.81,18.75,9.2c5.25,8.47,16.59,8.14,16.59,8.14,12-4.67,18-19.33,18-27.33,0,0-20.06,1.36-25.33-4.67Zm-103.02,67.62l-14.98-.29-1.67-23h19l-2.35,23.29Zm.69-46.95h-17.33l-2-28h21l-1.67,28Zm48.33,58h-13v-22.69l16.11,4.04-3.11,18.65Zm31.33-8.33l-10,21-13.33-7,7-20.67,16.33,6.67Z"/></svg>