<?xml version="1.0" encoding="UTF-8"?><svg id="Btn_arrow-tail-right-green" xmlns="http://www.w3.org/2000/svg" xmlns:xlink="http://www.w3.org/1999/xlink" viewBox="0 0 255.38 255.38"><defs><style>.cls-1{fill:#29a25a;}.cls-2{fill:#fff;fill-rule:evenodd;filter:url(#drop-shadow-31);}.cls-3{fill:#60cb3d;}</style><symbol id="Btn_green" viewBox="0 0 255.38 255.38"><circle id="Black" cx="127.69" cy="127.69" r="127.69"/><circle id="Red" class="cls-3" cx="119.94" cy="130.44" r="114.94"/><path id="Shadow" class="cls-1" d="m139.94,215.38c-63.48,0-114.94-51.46-114.94-114.94,0-17.1,7.53-33.32,14.22-47.9-18.89,20.48-30.67,47.84-30.67,77.9,0,63.48,48,108.61,111.39,114.94,46.16,4.61,86.35-27.48,104.51-67.04-21,22.77-51.09,37.04-84.51,37.04Z"/></symbol><filter id="drop-shadow-31" filterUnits="userSpaceOnUse"><feOffset dx="12" dy="-4"/><feGaussianBlur result="blur" stdDeviation="0"/><feFlood flood-color="#000" flood-opacity=".6"/><feComposite in2="blur" operator="in"/><feComposite in="SourceGraphic"/></filter></defs><use width="255.38" height="255.38" xlink:href="#Btn_green"/><polygon id="arrow" class="cls-2" points="24.06 134.33 118.77 149.77 118.77 203 209.32 134.33 138.81 54.38 134.01 113.18 24.06 111.76 24.06 134.33"/></svg>