<?xml version="1.0" encoding="UTF-8"?><svg id="Btn_Phone-trade" xmlns="http://www.w3.org/2000/svg" xmlns:xlink="http://www.w3.org/1999/xlink" viewBox="0 0 256 256"><defs><style>.cls-1{fill:#fff;}.cls-1,.cls-2{fill-rule:evenodd;}.cls-3{fill:none;mix-blend-mode:multiply;opacity:.6;}.cls-4{fill:#4187e6;}.cls-5{fill:#3b56fd;}</style><symbol id="Btn_blue" viewBox="0 0 255.38 255.38"><circle id="Black" cx="127.69" cy="127.69" r="127.69"/><circle id="Orange" class="cls-4" cx="119.94" cy="130.44" r="114.94"/><path id="Shadow" class="cls-5" d="m139.94,215.38c-63.48,0-114.94-51.46-114.94-114.94,0-17.1,7.53-33.32,14.22-47.9-18.89,20.48-30.67,47.84-30.67,77.9,0,63.48,48,108.61,111.39,114.94,46.16,4.61,86.35-27.48,104.51-67.04-21,22.77-51.09,37.04-84.51,37.04Z"/></symbol><symbol id="Trade" viewBox="0 0 160.03 211"><g id="arrow"><g class="cls-3"><polygon class="cls-2" points="160.03 63.89 84.36 76.23 84.36 118.76 12 63.89 68.34 0 72.18 46.99 160.03 45.85 160.03 63.89"/></g><polygon class="cls-1" points="148.03 67.89 72.36 80.23 72.36 122.76 0 67.89 56.34 4 60.18 50.99 148.03 49.85 148.03 67.89"/></g><g id="arrow-2"><g class="cls-3"><polygon class="cls-2" points="12 152.13 87.67 164.47 87.67 207 160.03 152.13 103.69 88.24 99.85 135.23 12 134.09 12 152.13"/></g><polygon class="cls-1" points="0 156.13 75.67 168.47 75.67 211 148.03 156.13 91.69 92.24 87.85 139.23 0 138.09 0 156.13"/></g></symbol></defs><use width="255.38" height="255.38" transform="translate(.31 .31)" xlink:href="#Btn_blue"/><use width="160.03" height="211" transform="translate(42.8 25.84)" xlink:href="#Trade"/></svg>