<?xml version="1.0" encoding="UTF-8"?><svg id="Btn_video-pause" xmlns="http://www.w3.org/2000/svg" xmlns:xlink="http://www.w3.org/1999/xlink" viewBox="0 0 256 256"><defs><style>.cls-1{fill:#ff9c0d;}.cls-2{filter:url(#drop-shadow-10);}.cls-2,.cls-3{fill:#fff;}.cls-4{fill:#fc0;}.cls-3{filter:url(#drop-shadow-11);}</style><symbol id="Btn_yellow" viewBox="0 0 255.38 255.38"><circle id="Black" cx="127.69" cy="127.69" r="127.69"/><circle id="Red" class="cls-4" cx="119.94" cy="130.44" r="114.94"/><path id="Shadow" class="cls-1" d="m139.94,215.38c-63.48,0-114.94-51.46-114.94-114.94,0-17.1,7.53-33.32,14.22-47.9-18.89,20.48-30.67,47.84-30.67,77.9,0,63.48,48,108.61,111.39,114.94,46.16,4.61,86.35-27.48,104.51-67.04-21,22.77-51.09,37.04-84.51,37.04Z"/></symbol><filter id="drop-shadow-10" filterUnits="userSpaceOnUse"><feOffset dx="12" dy="-4"/><feGaussianBlur result="blur" stdDeviation="0"/><feFlood flood-color="#000" flood-opacity=".6"/><feComposite in2="blur" operator="in"/><feComposite in="SourceGraphic"/></filter><filter id="drop-shadow-11" filterUnits="userSpaceOnUse"><feOffset dx="12" dy="-4"/><feGaussianBlur result="blur-2" stdDeviation="0"/><feFlood flood-color="#000" flood-opacity=".6"/><feComposite in2="blur-2" operator="in"/><feComposite in="SourceGraphic"/></filter></defs><use width="255.38" height="255.38" transform="translate(.31 .31)" xlink:href="#Btn_yellow"/><path id="Minus" class="cls-2" d="m68.87,203.15h40.99s-3.42-39.95-4.55-77.43c-1.14-37.67,0-72.88,0-72.88l-45.55,4.55s2.22,35.5,4.55,72.88c2.22,35.45,4.55,72.88,4.55,72.88Z"/><path id="Minus-2" class="cls-3" d="m131.25,203.15h40.99s-3.42-39.95-4.55-77.43c-1.14-37.67,0-72.88,0-72.88l-45.55,4.55s2.22,35.5,4.55,72.88c2.22,35.45,4.55,72.88,4.55,72.88Z"/></svg>