<?xml version="1.0" encoding="UTF-8"?><svg id="Btn_Farming-Dig" xmlns="http://www.w3.org/2000/svg" xmlns:xlink="http://www.w3.org/1999/xlink" viewBox="0 0 255.38 255.38"><defs><style>.cls-1{fill:#fff;filter:url(#drop-shadow-29);}.cls-2{fill:#860b0e;}.cls-3{fill:#bdd5f6;}.cls-4{fill:#f40b0e;}</style><symbol id="Btn_red" viewBox="0 0 255.38 255.38"><circle id="Black" cx="127.69" cy="127.69" r="127.69"/><circle id="Red" class="cls-4" cx="119.94" cy="130.44" r="114.94"/><path id="Shadow" class="cls-2" d="m139.94,215.38c-63.48,0-114.94-51.46-114.94-114.94,0-17.1,7.53-33.32,14.22-47.9-18.89,20.48-30.67,47.84-30.67,77.9,0,63.48,48,108.61,111.39,114.94,46.16,4.61,86.35-27.48,104.51-67.04-21,22.77-51.09,37.04-84.51,37.04Z"/></symbol><filter id="drop-shadow-29" filterUnits="userSpaceOnUse"><feOffset dx="8" dy="-2"/><feGaussianBlur result="blur" stdDeviation="0"/><feFlood flood-color="#000" flood-opacity=".6"/><feComposite in2="blur" operator="in"/><feComposite in="SourceGraphic"/></filter></defs><use width="255.38" height="255.38" xlink:href="#Btn_red"/><path class="cls-1" d="m121.04,151.01l64.76-116.49c-.23-6.03-8.78-9.29-13.88-5.58l-70.05,110.14c-.55.31-1.02.7-1.4,1.16,0,0-8.55-2.78-18.35-10.4-6.15.98-33.89,59.17-32.48,67.21,1.41,8.04,1.5,25.68,14.86,29.4,12.69,3.53,32.41.51,38.57-3.06,6.16-3.57,49.13-55.81,47.29-59.58-8.31-3.61-25.28-7.74-29.3-12.8Z"/><path id="shadow" class="cls-3" d="m183.06,30.82l-62.42,113.26,1.6,4.09,63.56-113.98c-.61-1.48-1.2-2.36-2.74-3.37Z"/><g id="shadows"><path class="cls-3" d="m125.25,157.39s-4.74-2.48-5.12-4.76c-.37-2.22-.02-5.6-2.86-7.47,0,0-27.81,45.65-32.43,55.91h.03s40.38-43.68,40.38-43.68Z"/><path class="cls-3" d="m147.06,163.6c-7,14.43-27.51,38.9-30.66,41.18-5.95,4.29-13.05,24.68-49.55,16.89-8.33-1.78-12.14-20.3-13.78-25.89,0,0-3.95,20.43,8.67,28.78,7.22,4.78,37.44,2,41.89-2.22,9.08-8.63,44.44-51.51,45.91-57.84l-2.47-.89Z"/><path class="cls-3" d="m94.01,144.7c.71,14.68-4.69,23.74-4.69,23.74l3.17-4.98,10.05-18.34s-3.01,3.73-8.53-.42Z"/></g></svg>