<?xml version="1.0" encoding="UTF-8"?><svg id="Btn_tts" xmlns="http://www.w3.org/2000/svg" xmlns:xlink="http://www.w3.org/1999/xlink" viewBox="0 0 256 256"><defs><style>.cls-1,.cls-2{fill:#fff;}.cls-3{fill:none;filter:url(#drop-shadow-4);}.cls-4{fill:#ff8400;}.cls-2{filter:url(#drop-shadow-3);}.cls-5{fill:#ff440a;}</style><symbol id="Btn_orange" viewBox="0 0 255.38 255.38"><circle id="Black" cx="127.69" cy="127.69" r="127.69"/><circle id="Orange" class="cls-4" cx="119.94" cy="130.44" r="114.94"/><path id="Shadow" class="cls-5" d="m139.94,215.38c-63.48,0-114.94-51.46-114.94-114.94,0-17.1,7.53-33.32,14.22-47.9-18.89,20.48-30.67,47.84-30.67,77.9,0,63.48,48,108.61,111.39,114.94,46.16,4.61,86.35-27.48,104.51-67.04-21,22.77-51.09,37.04-84.51,37.04Z"/></symbol><filter id="drop-shadow-3" filterUnits="userSpaceOnUse"><feOffset dx="12" dy="-4"/><feGaussianBlur result="blur" stdDeviation="0"/><feFlood flood-color="#000" flood-opacity=".6"/><feComposite in2="blur" operator="in"/><feComposite in="SourceGraphic"/></filter><filter id="drop-shadow-4" filterUnits="userSpaceOnUse"><feOffset dx="6" dy="-4"/><feGaussianBlur result="blur-2" stdDeviation="0"/><feFlood flood-color="#000" flood-opacity=".6"/><feComposite in2="blur-2" operator="in"/><feComposite in="SourceGraphic"/></filter></defs><use width="255.38" height="255.38" transform="translate(.31 .31)" xlink:href="#Btn_orange"/><g id="icon"><polygon id="speaker" class="cls-2" points="54.28 115.71 20.13 119.02 38.41 187.02 67.28 178.24 140.05 209.26 86.72 53.26 54.28 115.71"/><g id="waves" class="cls-3"><path class="cls-1" d="m120.89,94.63c8.3-.75,16.54,2.72,22.69,8.21,12.31,10.73,13.22,29.79,3.9,42.72-1.94,2.67-4.13,5.08-6.96,6.91,0,0-.9-.44-.9-.44,1.09-2.57,1.97-5.27,2.68-7.99,5.04-18.63,1.12-32.5-14.73-43.98-2.25-1.67-4.63-3.23-7.09-4.53l.42-.91h0Z"/><path class="cls-1" d="m138.05,72.72c9.42.27,18.14,4.34,25.47,10.16,5.62,4.4,10.32,10.57,13.48,17.1,6.89,15.21,5.55,33.43-2.21,48.02-2.19,4.05-4.72,7.83-8.14,11.04,0,0-1.13-.41-1.13-.41,4.52-15.35,6.83-32.66,2.51-48.28-3.2-11.81-11.19-21.81-20.51-29.51-3.14-2.61-6.5-5.02-10.02-7.04l.54-1.07h0Z"/><path class="cls-1" d="m153.31,48.2c12.41,1.91,23.6,8.08,33.06,16.29,7.26,6.21,13.31,14.48,17.46,23.23,9.15,20.61,7.36,44.71-1.71,64.92-2.57,5.59-5.56,10.94-9.59,15.66,0,0-1.12-.43-1.12-.43,7.1-22.19,10.75-49.12,2.99-71.53-5.12-14.84-15.54-27.4-27.56-37.28-4.41-3.63-9.12-6.98-14.06-9.79l.55-1.07h0Z"/></g></g></svg>