<?xml version="1.0" encoding="UTF-8"?><svg id="Btn_personalRoom-Edit-2" xmlns="http://www.w3.org/2000/svg" xmlns:xlink="http://www.w3.org/1999/xlink" viewBox="0 0 468 383"><defs><style>.cls-1{fill:#fff;}.cls-2{fill:#3165ad;}.cls-3{fill:none;stroke:#000;stroke-miterlimit:10;stroke-width:3px;}.cls-4{fill:#4187e6;}.cls-5{filter:url(#drop-shadow-32);}.cls-6{fill:url(#linear-gradient);}</style><symbol id="Btn_blue" viewBox="0 0 255.38 255.38"><circle id="Black" cx="127.69" cy="127.69" r="127.69"/><circle id="Orange" class="cls-4" cx="119.94" cy="130.44" r="114.94"/><path id="Shadow" class="cls-2" d="m139.94,215.38c-63.48,0-114.94-51.46-114.94-114.94,0-17.1,7.53-33.32,14.22-47.9-18.89,20.48-30.67,47.84-30.67,77.9,0,63.48,48,108.61,111.39,114.94,46.16,4.61,86.35-27.48,104.51-67.04-21,22.77-51.09,37.04-84.51,37.04Z"/></symbol><filter id="drop-shadow-32" filterUnits="userSpaceOnUse"><feOffset dx="12" dy="-4"/><feGaussianBlur result="blur" stdDeviation="0"/><feFlood flood-color="#000" flood-opacity=".6"/><feComposite in2="blur" operator="in"/><feComposite in="SourceGraphic"/></filter><linearGradient id="linear-gradient" x1="233.04" y1="162" x2="233.04" y2="1.81" gradientUnits="userSpaceOnUse"><stop offset="0" stop-color="#012257"/><stop offset=".82" stop-color="#bdd5f6"/><stop offset="1" stop-color="#fff"/></linearGradient></defs><use width="255.38" height="255.38" transform="translate(105.12 127.67)" xlink:href="#Btn_blue"/><g id="icon" class="cls-5"><path id="lamp" class="cls-1" d="m245.2,190.39s5.56-12.13,22.8-13.25,24.3,4.73,24.3,4.73c0,0-5.93,5.56-1.45,18.68,4.48,13.12,15.31,12.86,15.31,12.86-7.29,4.58-19.77,8.13-32.42,9.88l3.09,81.72c.13.01.26.02.39.04,15.36,1.53,27.39,7.12,26.85,12.47-.53,5.35-13.42,8.45-28.79,6.92-15.36-1.53-27.39-7.12-26.85-12.47.49-4.88,11.23-7.88,24.76-7.22l-6.86-80.65c-11.1.9-21.57.26-27.89-2.44,3.02-1.09,20.25-21.3,6.75-31.27Z"/><path id="chair" class="cls-1" d="m151.46,216.54l25.29.85c11.35.42,15.16,11.57,15.22,16.77-1.58,15.11-1,33.25-1,33.25-.1,3.36-1.28,6.04-4.07,7.76l-1.01,5.53c5.42-.16,10.86.16,16.24,1.02l26.23,4.15c7.89,1.44,4.28,12.37,3.09,12.16l-2.76,1.36,9.81,32.52-4.23-.77-11.47-28.83-7.47,3.7c-4.61,2.34-9.73,4.23-15.11,5.44l1.22,14.86-4.27-1.18-2.56-12.69c-3.15.41-6.35.56-9.56.43l-4.53,35.94-5.33-.98,2.93-35.71c-6.68-1.19-13.26-3.76-19.31-8.12l-6.73-3.96-5.85,29.62-4.95-.91,4.83-32.23-1.27-.75c-1.99-3.11-3.24-5.74-.41-8.44l1.4-7.64c-4.22-.59-4.13-2.46-4.43-5.6,0,0-1.73-30.11-4.08-41.9-.65-6.62,5.12-15.82,14.12-15.65Zm16.69,66.52c4.13-.99,8.33-1.68,12.54-2.05l.79-4.31c-10.43.71-18.97,1.56-30.44,2.76l-1.16,6.32,18.27-2.72Z"/></g><g id="edit"><path d="m124.58,28.44c3.67,8.93,7.34,17.86,11.01,26.79-20.49,8.01-40.22,18.64-58.7,31.91,2.98,4.06,5.95,8.13,8.93,12.19,14.71-10.8,30.32-19.83,46.53-27.08,2.81,7.15,5.64,14.3,8.51,21.42-14.52,6.31-28.56,14.19-41.86,23.66,2.83,3.87,5.67,7.74,8.5,11.61,13.57-9.96,28.03-18.16,43.06-24.6,3.44,8.71,6.9,17.4,10.41,26.08-21.57,9.01-41.88,22.18-59.71,39.59-24.79-26.12-49.21-52.61-73.24-79.46,28.79-27.6,61.68-48.28,96.58-62.11Zm43.59,103.66c-9.43-39.35-15.35-79.79-17.67-120.85,51.01-5.7,78.28,6.54,83.92,17.89,2.06,4.18,3.02,8.51,3.01,12.94-.02,7.92-3.21,15.9-8.7,24.24-8.2,13.08-35.03,31.54-60.56,65.78Zm19.27-94.89c-.34,11.27-.39,22.53-.15,33.75,13.97-9.23,21.81-15.77,21.43-21.6-.34-5.69-7.17-10.28-21.28-12.15Zm107.07-23.42c-9.12,35.39-17.49,70.95-25.11,106.65-8.37-2.56-16.96-4.55-25.73-5.94,1.96-17.57,3.63-35.04,4.43-52.47.81-17.43.76-34.78-.69-52.05,15.7.02,31.45,1.28,47.09,3.81Zm6.46,35.52c1.24-8,2.41-16.02,3.52-24.05,54.97,9.84,103.77,35.69,141.62,71.03-5.83,5.28-11.64,10.58-17.42,15.9-12.76-12.03-26.35-22.54-40.55-31.57-14.94,23.63-30.09,47.12-45.44,70.48-6.85-5.83-14.09-11.16-21.67-15.94,11.27-24.03,22.33-48.16,33.19-72.38-17.54-6.45-35.4-10.9-53.25-13.46Z"/><path class="cls-6" d="m120.58,20.44c3.67,8.93,7.34,17.86,11.01,26.79-20.49,8.01-40.22,18.64-58.7,31.91,2.98,4.06,5.95,8.13,8.93,12.19,14.71-10.8,30.32-19.83,46.53-27.08,2.81,7.15,5.64,14.3,8.51,21.42-14.52,6.31-28.56,14.19-41.86,23.66,2.83,3.87,5.67,7.74,8.5,11.61,13.57-9.96,28.03-18.16,43.06-24.6,3.44,8.71,6.9,17.4,10.41,26.08-21.57,9.01-41.88,22.18-59.71,39.59-24.79-26.12-49.21-52.61-73.24-79.46,28.79-27.6,61.68-48.28,96.58-62.11Zm43.59,103.66c-9.43-39.35-15.35-79.79-17.67-120.85,51.01-5.7,78.28,6.54,83.92,17.89,2.06,4.18,3.02,8.51,3.01,12.94-.02,7.92-3.21,15.9-8.7,24.24-8.2,13.08-35.03,31.54-60.56,65.78Zm19.27-94.89c-.34,11.27-.39,22.53-.15,33.75,13.97-9.23,21.81-15.77,21.43-21.6-.34-5.69-7.17-10.28-21.28-12.15Zm107.07-23.42c-9.12,35.39-17.49,70.95-25.11,106.65-8.37-2.56-16.96-4.55-25.73-5.94,1.96-17.57,3.63-35.04,4.43-52.47.81-17.43.76-34.78-.69-52.05,15.7.02,31.45,1.28,47.09,3.81Zm6.46,35.52c1.24-8,2.41-16.02,3.52-24.05,54.97,9.84,103.77,35.69,141.62,71.03-5.83,5.28-11.64,10.58-17.42,15.9-12.76-12.03-26.35-22.54-40.55-31.57-14.94,23.63-30.09,47.12-45.44,70.48-6.85-5.83-14.09-11.16-21.67-15.94,11.27-24.03,22.33-48.16,33.19-72.38-17.54-6.45-35.4-10.9-53.25-13.46Z"/><path class="cls-3" d="m120.58,20.44c3.67,8.93,7.34,17.86,11.01,26.79-20.49,8.01-40.22,18.64-58.7,31.91,2.98,4.06,5.95,8.13,8.93,12.19,14.71-10.8,30.32-19.83,46.53-27.08,2.81,7.15,5.64,14.3,8.51,21.42-14.52,6.31-28.56,14.19-41.86,23.66,2.83,3.87,5.67,7.74,8.5,11.61,13.57-9.96,28.03-18.16,43.06-24.6,3.44,8.71,6.9,17.4,10.41,26.08-21.57,9.01-41.88,22.18-59.71,39.59-24.79-26.12-49.21-52.61-73.24-79.46,28.79-27.6,61.68-48.28,96.58-62.11Zm43.59,103.66c-9.43-39.35-15.35-79.79-17.67-120.85,51.01-5.7,78.28,6.54,83.92,17.89,2.06,4.18,3.02,8.51,3.01,12.94-.02,7.92-3.21,15.9-8.7,24.24-8.2,13.08-35.03,31.54-60.56,65.78Zm19.27-94.89c-.34,11.27-.39,22.53-.15,33.75,13.97-9.23,21.81-15.77,21.43-21.6-.34-5.69-7.17-10.28-21.28-12.15Zm107.07-23.42c-9.12,35.39-17.49,70.95-25.11,106.65-8.37-2.56-16.96-4.55-25.73-5.94,1.96-17.57,3.63-35.04,4.43-52.47.81-17.43.76-34.78-.69-52.05,15.7.02,31.45,1.28,47.09,3.81Zm6.46,35.52c1.24-8,2.41-16.02,3.52-24.05,54.97,9.84,103.77,35.69,141.62,71.03-5.83,5.28-11.64,10.58-17.42,15.9-12.76-12.03-26.35-22.54-40.55-31.57-14.94,23.63-30.09,47.12-45.44,70.48-6.85-5.83-14.09-11.16-21.67-15.94,11.27-24.03,22.33-48.16,33.19-72.38-17.54-6.45-35.4-10.9-53.25-13.46Z"/></g></svg>