<?xml version="1.0" encoding="UTF-8"?><svg id="Btn_Checkbox-Xd" xmlns="http://www.w3.org/2000/svg" xmlns:xlink="http://www.w3.org/1999/xlink" viewBox="0 0 255.38 255.38"><defs><style>.cls-1{fill:#fff;}.cls-2{fill:#860b0e;}.cls-3{fill:#bdd5f6;}.cls-4{fill:#f40b0e;}</style><symbol id="Btn_white" viewBox="0 0 255.38 255.38"><circle id="Black" cx="127.69" cy="127.69" r="127.69"/><circle id="Orange" class="cls-1" cx="119.94" cy="130.44" r="114.94"/><path id="Shadow" class="cls-3" d="m139.94,215.38c-63.48,0-114.94-51.46-114.94-114.94,0-17.1,7.53-33.32,14.22-47.9-18.89,20.48-30.67,47.84-30.67,77.9,0,63.48,48,108.61,111.39,114.94,46.16,4.61,86.35-27.48,104.51-67.04-21,22.77-51.09,37.04-84.51,37.04Z"/></symbol></defs><use width="255.38" height="255.38" transform="translate(0 24.8) scale(.9)" xlink:href="#Btn_white"/><g id="icon"><polygon id="black" points="24.92 182.03 98.03 116.62 18.36 59.65 71.85 6.17 131.52 82.25 192.01 1.22 255.08 70.23 172.47 123.71 241.7 172.27 196.02 235.56 133.69 162.07 84.73 241.39 24.92 182.03"/><polygon id="X" class="cls-4" points="160.02 116.62 244.32 62.04 193.56 6.5 132.63 88.13 72.11 10.98 28.53 54.56 106.57 113.34 35.02 178.9 83.99 222.92 133.67 142.43 196.9 216.98 234.37 171.6 160.02 116.62"/><g id="shadow"><polygon class="cls-2" points="113.8 107.25 35.02 48.02 28.53 54.56 106.83 113.42 113.8 107.25"/><polygon class="cls-2" points="151.87 111.28 160.02 116.62 244.32 62.04 238.23 55.37 151.87 111.28"/><polygon class="cls-2" points="198.81 201.71 135.58 127.16 85.9 207.65 44.38 170.33 35.02 178.9 83.99 222.92 133.67 142.43 196.9 216.98 234.37 171.6 227.73 166.68 198.81 201.71"/></g><g id="highlights"><path class="cls-1" d="m104.4,52.15L71.59,10.73l-18.68,19.45s13.32-8.97,18.5-4.76c7.73,6.28,32.99,26.73,32.99,26.73Z"/><path class="cls-1" d="m161.19,49.86L193.37,6.5l18.67,20.28s-13.14-9.9-18.26-5.61c-7.63,6.39-32.58,28.68-32.58,28.68Z"/></g></g></svg>