<?xml version="1.0" encoding="UTF-8"?><svg id="Btn_personalRoom-Play" xmlns="http://www.w3.org/2000/svg" xmlns:xlink="http://www.w3.org/1999/xlink" viewBox="0 0 255.38 255.38"><defs><style>.cls-1{fill:#fff;}.cls-2{fill:#ff8400;}.cls-3{fill:#ff440a;}.cls-4{fill:none;filter:url(#drop-shadow-28);}.cls-5{fill:#f40b0e;}</style><symbol id="Btn_orange" viewBox="0 0 255.38 255.38"><circle id="Black" cx="127.69" cy="127.69" r="127.69"/><circle id="Orange" class="cls-2" cx="119.94" cy="130.44" r="114.94"/><path id="Shadow" class="cls-3" d="m139.94,215.38c-63.48,0-114.94-51.46-114.94-114.94,0-17.1,7.53-33.32,14.22-47.9-18.89,20.48-30.67,47.84-30.67,77.9,0,63.48,48,108.61,111.39,114.94,46.16,4.61,86.35-27.48,104.51-67.04-21,22.77-51.09,37.04-84.51,37.04Z"/></symbol><filter id="drop-shadow-28" filterUnits="userSpaceOnUse"><feOffset dx="12" dy="-4"/><feGaussianBlur result="blur" stdDeviation="0"/><feFlood flood-color="#000" flood-opacity=".6"/><feComposite in2="blur" operator="in"/><feComposite in="SourceGraphic"/></filter></defs><use width="255.38" height="255.38" xlink:href="#Btn_orange"/><g id="icon" class="cls-4"><path class="cls-5" d="m146,207.26s13.84,7.02,20.76,4.43,3.94-13.7,10.39-16.12c6.45-2.42,9.97,8.47,18.43,5.3s13.17-17.16,13.17-17.16c0,0-83.64-103.02-100.67-105.41-17.02-2.39-22.29,8.36-22.29,8.36,19.02,20.19,60.21,120.59,60.21,120.59Z"/><path class="cls-1" d="m55.08,102.01c6.57-6.48,13.85-13.49,20.65-20.14,3.63-2.77,9-1.46,13.28-1.31-28.83-8.44-23.94-46.22,2.24-48.43,28.46-2.1,37.07,39.39,6.13,48.43,4.28-.15,9.65-1.46,13.28,1.31,6.8,6.64,14.08,13.65,20.65,20.14,6.63,6.54,16.67,16.43-3.55,34.84-3.78,3.44-7.72,3.76-10.59.97-10.72-15.31,21.53-15.2-4.13-32.76.72,20.27,2.58,40.6,3.19,60.91.77,15.69,1.64,31.37,2.23,47.07.08,2.19-.7,4.73-1.9,6.58-4.98,7.28-17.15,3.12-17.09-5.89-3.14-20.27-.08-42.4-6.29-61.71-6.2,19.31-3.14,41.44-6.29,61.71-.32,13.05-19.91,12.21-18.99-.69,1.4-35.99,3.62-72.02,5.43-107.97-25.66,17.56,6.59,17.45-4.13,32.76-2.86,2.79-6.81,2.48-10.59-.97-20.22-18.41-10.19-28.3-3.55-34.84Z"/><path class="cls-5" d="m71.34,46.42c4.76-7.43,39.78-7.43,43.68-.4,2.54,4.58,2.28,14.06,1.43,15.44-2.58,4.19-45.85,2.38-46.61.1-1.43-4.29-1.05-11.15,1.51-15.14Zm29.91,14.28c3.37,0,6.1-2.73,6.1-6.1s-2.73-6.1-6.1-6.1-6.1,2.73-6.1,6.1,2.73,6.1,6.1,6.1Zm-16.45,0c3.37,0,6.1-2.73,6.1-6.1s-2.73-6.1-6.1-6.1-6.1,2.73-6.1,6.1,2.73,6.1,6.1,6.1Z"/></g></svg>