<?xml version="1.0" encoding="UTF-8"?><svg id="Btn_minimap-global" xmlns="http://www.w3.org/2000/svg" xmlns:xlink="http://www.w3.org/1999/xlink" viewBox="0 0 256 256"><defs><style>.cls-1{fill:#fff;}.cls-2{fill:none;mix-blend-mode:multiply;opacity:.6;}.cls-3{fill:#4187e6;}.cls-4{fill:#3b56fd;}</style><symbol id="Btn_blue" viewBox="0 0 255.38 255.38"><circle id="Black" cx="127.69" cy="127.69" r="127.69"/><circle id="Orange" class="cls-3" cx="119.94" cy="130.44" r="114.94"/><path id="Shadow" class="cls-4" d="m139.94,215.38c-63.48,0-114.94-51.46-114.94-114.94,0-17.1,7.53-33.32,14.22-47.9-18.89,20.48-30.67,47.84-30.67,77.9,0,63.48,48,108.61,111.39,114.94,46.16,4.61,86.35-27.48,104.51-67.04-21,22.77-51.09,37.04-84.51,37.04Z"/></symbol><symbol id="globe" viewBox="0 0 205.38 202.38"><g id="icon"><g class="cls-2"><path d="m106.19,0C51.41,0,7,44.41,7,99.19s44.41,99.19,99.19,99.19,99.19-44.41,99.19-99.19S160.97,0,106.19,0Zm88.73,116.83h-50.4c.85-7.4,1.31-15.17,1.31-23.19,0-12.36-1.08-24.13-3.03-34.87h48.14c4.57,10.65,7.1,22.4,7.1,34.74,0,8.07-1.09,15.89-3.12,23.32Zm-84.41,48.73c-10.18,0-19.04-16.55-23.6-40.94h47.19c-4.55,24.39-13.41,40.94-23.6,40.94Zm-24.86-48.73c-1.28-9.14-1.99-19.15-1.99-29.64s.65-19.61,1.83-28.42h50.04c1.18,8.81,1.83,18.39,1.83,28.42s-.71,20.49-1.99,29.64h-49.71ZM110.51,8.82c10.35,0,19.33,17.11,23.81,42.16h-47.62c4.48-25.05,13.46-42.16,23.81-42.16Zm76.62,42.16h-45.94c-5.08-21.79-13.93-38.28-24.55-44.9,30.36,1.89,56.5,19.52,70.5,44.9ZM93.35,7.76c-9.55,7.48-17.46,23.09-22.15,43.22h-35.92C47.33,29.14,68.37,13.03,93.35,7.76ZM31.48,58.77h38.11c-1.95,10.74-3.03,22.51-3.03,34.87,0,8.02.46,15.79,1.31,23.19H27.49c-2.03-7.42-3.12-15.24-3.12-23.32,0-12.34,2.54-24.09,7.1-34.74Zm-1.46,65.84h38.91c4.03,25.4,12.87,45.5,24,54.55-28.97-6.26-52.58-27.11-62.91-54.55Zm87.07,56.3c12.24-7.99,22.07-29.12,26.38-56.3h48.94c-11.77,31.27-40.78,53.97-75.32,56.3Z"/></g><path class="cls-1" d="m99.19,4C44.41,4,0,48.41,0,103.19s44.41,99.19,99.19,99.19,99.19-44.41,99.19-99.19S153.97,4,99.19,4Zm88.73,116.83h-50.4c.85-7.4,1.31-15.17,1.31-23.19,0-12.36-1.08-24.13-3.03-34.87h48.14c4.57,10.65,7.1,22.4,7.1,34.74,0,8.07-1.09,15.89-3.12,23.32Zm-84.41,48.73c-10.18,0-19.04-16.55-23.6-40.94h47.19c-4.55,24.39-13.41,40.94-23.6,40.94Zm-24.86-48.73c-1.28-9.14-1.99-19.15-1.99-29.64s.65-19.61,1.83-28.42h50.04c1.18,8.81,1.83,18.39,1.83,28.42s-.71,20.49-1.99,29.64h-49.71ZM103.51,12.82c10.35,0,19.33,17.11,23.81,42.16h-47.62c4.48-25.05,13.46-42.16,23.81-42.16Zm76.62,42.16h-45.94c-5.08-21.79-13.93-38.28-24.55-44.9,30.36,1.89,56.5,19.52,70.5,44.9ZM86.35,11.76c-9.55,7.48-17.46,23.09-22.15,43.22H28.28c12.05-21.85,33.09-37.95,58.07-43.22ZM24.48,62.77h38.11c-1.95,10.74-3.03,22.51-3.03,34.87,0,8.02.46,15.79,1.31,23.19H20.49c-2.03-7.42-3.12-15.24-3.12-23.32,0-12.34,2.54-24.09,7.1-34.74Zm-1.46,65.84h38.91c4.03,25.4,12.87,45.5,24,54.55-28.97-6.26-52.58-27.11-62.91-54.55Zm87.07,56.3c12.24-7.99,22.07-29.12,26.38-56.3h48.94c-11.77,31.27-40.78,53.97-75.32,56.3Z"/></g></symbol></defs><use width="255.38" height="255.38" transform="translate(.31 .31)" xlink:href="#Btn_blue"/><use width="205.38" height="202.38" transform="translate(21.06 27.56)" xlink:href="#globe"/></svg>