<?xml version="1.0" encoding="UTF-8"?><svg id="Icn_Effect-Time" xmlns="http://www.w3.org/2000/svg" xmlns:xlink="http://www.w3.org/1999/xlink" viewBox="0 0 256 256"><defs><style>.cls-1,.cls-2{fill:#fff;}.cls-3{stroke:#fff;stroke-miterlimit:10;stroke-width:15px;}.cls-3,.cls-4{fill:none;}.cls-2{opacity:.6;}</style><clipPath id="clippath"><path class="cls-4" d="m299-4V255.98h130V-4h-130Zm83.79,198.38c-.8-3.68.61-7.78-.03-9.62-.87-2.49-5.73-16.81-10.61-21.51-.61,2.82.3,17.08.81,18.82,1.82,8.44.36,17.1.51,25.63-.31,10.75.57,21.87.34,32.4,1.53,2.74,5.37,3.72,7.27,6.17.7,5.75-16.09.52-16.16-1.7-.16-.54-2.21-34.64-2.85-46.94-.19-.38-2-.38-2.19,0-.64,12.29-2.69,46.4-2.85,46.94-.07,2.22-16.86,7.45-16.16,1.7,1.9-2.45,5.74-3.42,7.27-6.17-.23-10.54.65-21.66.34-32.4.15-8.53-1.31-17.18.51-25.63.5-1.73,1.41-16,.81-18.82-4.88,4.69-9.74,19.01-10.61,21.51-.64,1.84.78,5.93-.03,9.62-2.18,9.99-11.18,2.42-9.76-3.22,1.08-4.29,3.18-7.66,4.81-11.59,3.15-7.59,5.89-15.31,9-22.9,5.09-12.62,10.02-6.98,14.08-11.17.11-.63.13-.62-.48-.83-3.9-1.37-8.31-2.94-10.5-6.72-.27-.48-.46-.8-1.11-.68-4.08-.74-6.96-13.56-1.83-12.2.22.06.26-.06.22-.26-.2-1.21-.33-2.44-.32-3.67-.04-7.99,7.58-16.55,16.04-16.72h3.27c8.46.18,16.08,8.73,16.04,16.72,0,1.23-.12,2.46-.32,3.67-.03.2,0,.32.22.26,5.14-1.36,2.26,11.46-1.83,12.2-.65-.12-.84.2-1.11.68-2.18,3.77-6.59,5.34-10.5,6.72-.61.2-.59.2-.48.83,4.06,4.19,8.99-1.45,14.08,11.17,3.11,7.59,5.85,15.31,9,22.9,1.63,3.92,3.73,7.29,4.81,11.59,1.42,5.64-7.58,13.21-9.76,3.22Z"/></clipPath></defs><circle class="cls-2" cx="128" cy="150.44" r="100.56"/><path class="cls-1" d="m128,54.88c52.69,0,95.56,42.87,95.56,95.56s-42.87,95.56-95.56,95.56-95.56-42.87-95.56-95.56,42.87-95.56,95.56-95.56m0-10c-58.3,0-105.56,47.26-105.56,105.56s47.26,105.56,105.56,105.56,105.56-47.26,105.56-105.56-47.26-105.56-105.56-105.56h0Z"/><polyline class="cls-3" points="160.73 181.78 128 150.77 128 72.33"/><path class="cls-1" d="m112.29,50.09v-19.93h-22.91c-2.27,0-4.11-1.84-4.11-4.11V4.11c0-2.27,1.84-4.11,4.11-4.11h75.08c2.27,0,4.11,1.84,4.11,4.11v21.94c0,2.27-1.84,4.11-4.11,4.11h-20.75v19.93h-31.42Z"/><path class="cls-1" d="m199.96,69.7l7.78-6.09c.96-.75,2.17-1.17,3.39-1.17,1.7,0,3.28.77,4.33,2.11l9.37,11.97c.9,1.15,1.3,2.59,1.13,4.05-.18,1.46-.91,2.76-2.07,3.66l-7.78,6.09-16.14-20.62Z"/><path class="cls-1" d="m211.12,67.44c.15,0,.29.06.39.19l9.37,11.97c.17.21.13.52-.08.69l-3.84,3.01-9.98-12.75,3.84-3.01c.09-.07.2-.1.3-.1m0-10h0c-2.33,0-4.63.79-6.46,2.23l-3.84,3.01-7.87,6.16,6.16,7.87,9.98,12.75,6.16,7.87,7.87-6.16,3.84-3.01c2.21-1.73,3.61-4.21,3.95-6.99.34-2.78-.43-5.53-2.15-7.74l-9.37-11.97c-2-2.56-5.01-4.03-8.26-4.03h0Z"/></svg>