<?xml version="1.0" encoding="UTF-8"?><svg id="Icn_Stat-Handling" xmlns="http://www.w3.org/2000/svg" xmlns:xlink="http://www.w3.org/1999/xlink" viewBox="0 0 256 256"><defs><style>.cls-1{opacity:.8;}.cls-1,.cls-2{fill:none;}.cls-3{fill:#6255d5;}.cls-4{fill:#e18de9;}</style><clipPath id="clippath"><path class="cls-2" d="m851-4V255.98h130V-4h-130Zm83.79,198.38c-.8-3.68.61-7.78-.03-9.62-.87-2.49-5.73-16.81-10.61-21.51-.61,2.82.3,17.08.81,18.82,1.82,8.44.36,17.1.51,25.63-.31,10.75.57,21.87.34,32.4,1.53,2.74,5.37,3.72,7.27,6.17.7,5.75-16.09.52-16.16-1.7-.16-.54-2.21-34.64-2.85-46.94-.19-.38-2-.38-2.19,0-.64,12.29-2.69,46.4-2.85,46.94-.07,2.22-16.86,7.45-16.16,1.7,1.9-2.45,5.74-3.42,7.27-6.17-.23-10.54.65-21.66.34-32.4.15-8.53-1.31-17.18.51-25.63.5-1.73,1.41-16,.81-18.82-4.88,4.69-9.74,19.01-10.61,21.51-.64,1.84.78,5.93-.03,9.62-2.18,9.99-11.18,2.42-9.76-3.22,1.08-4.29,3.18-7.66,4.81-11.59,3.15-7.59,5.89-15.31,9-22.9,5.09-12.62,10.02-6.98,14.08-11.17.11-.63.13-.62-.48-.83-3.9-1.37-8.31-2.94-10.5-6.72-.27-.48-.46-.8-1.11-.68-4.08-.74-6.96-13.56-1.83-12.2.22.06.26-.06.22-.26-.2-1.21-.33-2.44-.32-3.67-.04-7.99,7.58-16.55,16.04-16.72h3.27c8.46.18,16.08,8.73,16.04,16.72,0,1.23-.12,2.46-.32,3.67-.03.2,0,.32.22.26,5.14-1.36,2.26,11.46-1.83,12.2-.65-.12-.84.2-1.11.68-2.18,3.77-6.59,5.34-10.5,6.72-.61.2-.59.2-.48.83,4.06,4.19,8.99-1.45,14.08,11.17,3.11,7.59,5.85,15.31,9,22.9,1.63,3.92,3.73,7.29,4.81,11.59,1.42,5.64-7.58,13.21-9.76,3.22Z"/></clipPath></defs><g class="cls-1"><path class="cls-3" d="m149.87,251c-55.76,0-101.13-45.37-101.13-101.13s45.37-101.13,101.13-101.13,101.13,45.37,101.13,101.13-45.37,101.13-101.13,101.13Zm.04-30.08c1.8.15,3.6.23,5.39.23,29.97,0,56.47-21.56,64.52-51.86l-23.19-8.08c-2.71-.94-5.51-1.42-8.33-1.42-11.59,0-21.83,7.9-25.49,19.67l-12.9,41.46Zm-65.62-102.23c-3.45,8.45-7.01,17.19-7.01,26.05,0,31.65,20.26,54.87,39.59,66.62l7.81-27.43c7.16-25.78-9.39-53.62-28.99-61.27l-.17-.07-10.74-5.1c-.16.4-.33.8-.49,1.19Zm67.26,8.16c-7.22,0-13.09,6.88-13.09,15.34,0,10.71,9.15,11.87,13.09,11.87s13.09-1.16,13.09-11.87c0-8.46-5.87-15.34-13.09-15.34Zm71.47,9.88c-3.21-28.35-16.38-56.39-72.86-63.72-1.99-.26-4-.39-5.97-.39-18.46,0-33.53,11.48-45.21,23.27l124.03,40.84Z"/></g><path class="cls-4" d="m149.87,53.74c53.09,0,96.13,43.04,96.13,96.13s-43.04,96.13-96.13,96.13-96.13-43.04-96.13-96.13,43.04-96.13,96.13-96.13m78.78,90.11c-2.32-37.95-18.1-68.04-77.84-75.79-2.25-.29-4.46-.43-6.61-.43-24.24,0-42.34,17.5-54.26,30.55l138.72,45.67m-108.7,74.95l9.53-33.49c7.56-27.22-9.01-58.33-31.98-67.29l-15.4-7.32c-3.97,10.42-9.82,21.88-9.82,34.05,0,34.35,22.6,61.37,47.67,74.06m31.6-59.75c9.99,0,18.09-5.63,18.09-16.87s-8.1-20.34-18.09-20.34-18.09,9.11-18.09,20.34,8.1,16.87,18.09,16.87m3.75,67.1c34.56,0,63.43-25.75,70.41-60.1l-27.43-9.55c-3.31-1.15-6.67-1.7-9.97-1.7-13.39,0-25.85,9-30.27,23.18l-14.67,47.13c3.88.68,7.87,1.05,11.93,1.05m-5.43-182.42c-58.52,0-106.13,47.61-106.13,106.13s47.61,106.13,106.13,106.13,106.13-47.61,106.13-106.13-47.61-106.13-106.13-106.13h0Zm-41.41,50.01c10.08-9.01,21.84-16.12,35.74-16.12,1.76,0,3.55.12,5.33.35,47.94,6.22,62.69,27.25,67.36,51.47l-108.42-35.7h0Zm5.48,109.66c-16.28-11.83-31.65-32.09-31.65-58.67,0-6.67,2.42-13.62,5.14-20.45l5.79,2.75.32.15.33.13c8.89,3.47,16.95,11.45,22.11,21.91,5.34,10.83,6.76,22.98,3.88,33.36l-5.92,20.81h0Zm37.62-54.36c-8.09,0-8.09-4.99-8.09-6.87,0-5.6,3.7-10.34,8.09-10.34s8.09,4.74,8.09,10.34c0,1.88,0,6.87-8.09,6.87h0Zm5.09,67.08l10.95-35.19c3.01-9.66,11.33-16.15,20.72-16.15,2.26,0,4.5.38,6.68,1.14l18.66,6.5c-8.61,25.34-31.33,43.1-57.02,43.7h0Z"/><g id="arrow"><g class="cls-1"><path class="cls-3" d="m72.65,62.12c-3.88,0-6.7-2.77-7.82-5.58l-17.41-39.14c-1.45-2.81-1.48-7.03,1.85-9.96,2.23-1.96,4.48-2.38,5.97-2.38,1.25,0,2.21.28,2.77.51l26.32,9.87c1.8.5,5.47,1.9,6.97,5.18,1.49,3.28.26,6.77-.3,8.07l-9.77,26.6c-.66,2.87-2.98,5.9-6.98,6.67-.53.1-1.06.15-1.58.15h0Z"/></g><path class="cls-4" d="m55.24,10.07c.58,0,.95.16.95.16l26.61,9.98s3.19.82,3.95,2.49c.76,1.67-.38,4.11-.38,4.11l-9.97,27.13s-.37,2.59-3.1,3.12c-.22.04-.43.06-.64.06-2.27,0-3.21-2.51-3.21-2.51L51.91,15.21s-1.29-2.3.66-4.01c1.04-.92,2-1.13,2.67-1.13M55.24.07c-3.38,0-6.58,1.25-9.28,3.62-5.29,4.65-5.31,11.33-3.07,15.85l17.33,38.97c1.79,4.35,6.25,8.62,12.42,8.62.84,0,1.69-.08,2.53-.24,6.06-1.17,9.66-5.7,10.81-10.1l9.64-26.24c.85-2.03,2.45-7.02.2-11.97-2.28-5.01-7.32-7.1-9.95-7.87L59.81.91c-1.07-.42-2.63-.84-4.57-.84h0Z"/></g><path class="cls-4" d="m58.53,33.6C21.59,33.1.77,67.17,0,123l36.83-17.96c-11.63-22.32.2-58.56,27.26-63.15l-5.55-8.3Z"/></svg>