<?xml version="1.0" encoding="UTF-8"?><svg id="Icn_Stat-Speed" xmlns="http://www.w3.org/2000/svg" xmlns:xlink="http://www.w3.org/1999/xlink" viewBox="0 0 256 256"><defs><style>.cls-1{fill:none;}.cls-2{fill:#ffc766;}.cls-3{fill:#ff8000;opacity:.8;}</style><clipPath id="clippath"><path class="cls-1" d="m1127-4V255.98h130V-4h-130Zm83.79,198.38c-.8-3.68.61-7.78-.03-9.62-.87-2.49-5.73-16.81-10.61-21.51-.61,2.82.3,17.08.81,18.82,1.82,8.44.36,17.1.51,25.63-.31,10.75.57,21.87.34,32.4,1.53,2.74,5.37,3.72,7.27,6.17.7,5.75-16.09.52-16.16-1.7-.16-.54-2.21-34.64-2.85-46.94-.19-.38-2-.38-2.19,0-.64,12.29-2.69,46.4-2.85,46.94-.07,2.22-16.86,7.45-16.16,1.7,1.9-2.45,5.74-3.42,7.27-6.17-.23-10.54.65-21.66.34-32.4.15-8.53-1.31-17.18.51-25.63.5-1.73,1.41-16,.81-18.82-4.88,4.69-9.74,19.01-10.61,21.51-.64,1.84.78,5.93-.03,9.62-2.18,9.99-11.18,2.42-9.76-3.22,1.08-4.29,3.18-7.66,4.81-11.59,3.15-7.59,5.89-15.31,9-22.9,5.09-12.62,10.02-6.98,14.08-11.17.11-.63.13-.62-.48-.83-3.9-1.37-8.31-2.94-10.5-6.72-.27-.48-.46-.8-1.11-.68-4.08-.74-6.96-13.56-1.83-12.2.22.06.26-.06.22-.26-.2-1.21-.33-2.44-.32-3.67-.04-7.99,7.58-16.55,16.04-16.72h3.27c8.46.18,16.08,8.73,16.04,16.72,0,1.23-.12,2.46-.32,3.67-.03.2,0,.32.22.26,5.14-1.36,2.26,11.46-1.83,12.2-.65-.12-.84.2-1.11.68-2.18,3.77-6.59,5.34-10.5,6.72-.61.2-.59.2-.48.83,4.06,4.19,8.99-1.45,14.08,11.17,3.11,7.59,5.85,15.31,9,22.9,1.63,3.92,3.73,7.29,4.81,11.59,1.42,5.64-7.58,13.21-9.76,3.22Z"/></clipPath></defs><polygon class="cls-3" points="155.42 203.85 213.33 127.99 155.42 52.15 191.39 52.15 249.29 127.99 191.38 203.85 155.42 203.85"/><path class="cls-2" d="m188.91,57.15l54.09,70.84-54.1,70.86h-23.38l54.1-70.86-54.09-70.84h23.38m4.95-10h-48.54l12.27,16.07,49.45,64.77-49.46,64.79-12.27,16.07h48.54l3-3.93,54.1-70.86,4.63-6.07-4.63-6.07-54.09-70.84-3-3.93h0Z"/><polygon class="cls-3" points="82.65 203.85 140.57 127.99 82.66 52.15 118.62 52.15 176.53 127.99 118.62 203.85 82.65 203.85"/><path class="cls-2" d="m116.15,57.15l54.09,70.84-54.1,70.86h-23.38l54.1-70.86-54.09-70.84h23.38m4.95-10h-48.54l12.27,16.07,49.45,64.77-49.46,64.79-12.27,16.07h48.54l3-3.93,54.1-70.86,4.63-6.07-4.63-6.07-54.09-70.84-3-3.93h0Z"/><polygon class="cls-3" points="9.89 203.85 67.8 127.99 9.9 52.15 45.86 52.15 103.77 127.99 45.85 203.85 9.89 203.85"/><path class="cls-2" d="m43.39,57.15l54.09,70.84-54.1,70.86h-23.38l54.1-70.86L20.01,57.15h23.38m4.95-10H-.21l12.27,16.07,49.45,64.77L12.05,192.78-.22,208.85h48.54l3-3.93,54.1-70.86,4.63-6.07-4.63-6.07L51.34,51.08l-3-3.93h0Z"/></svg>