<?xml version="1.0" encoding="UTF-8"?><svg id="Icn_Stat-Defense" xmlns="http://www.w3.org/2000/svg" xmlns:xlink="http://www.w3.org/1999/xlink" viewBox="0 0 256 256"><defs><style>.cls-1{fill:#0970ae;opacity:.8;}.cls-2{fill:#6ff;}.cls-3{stroke:#6ff;stroke-miterlimit:10;stroke-width:10px;}.cls-3,.cls-4{fill:none;}</style><clipPath id="clippath"><path class="cls-4" d="m1679-4V255.98h130V-4h-130Zm83.79,198.38c-.8-3.68.61-7.78-.03-9.62-.87-2.49-5.73-16.81-10.61-21.51-.61,2.82.3,17.08.81,18.82,1.82,8.44.36,17.1.51,25.63-.31,10.75.57,21.87.34,32.4,1.53,2.74,5.37,3.72,7.27,6.17.7,5.75-16.09.52-16.16-1.7-.16-.54-2.21-34.64-2.85-46.94-.19-.38-2-.38-2.19,0-.64,12.29-2.69,46.4-2.85,46.94-.07,2.22-16.86,7.45-16.16,1.7,1.9-2.45,5.74-3.42,7.27-6.17-.23-10.54.65-21.66.34-32.4.15-8.53-1.31-17.18.51-25.63.5-1.73,1.41-16,.81-18.82-4.88,4.69-9.74,19.01-10.61,21.51-.64,1.84.78,5.93-.03,9.62-2.18,9.99-11.18,2.42-9.76-3.22,1.08-4.29,3.18-7.66,4.81-11.59,3.15-7.59,5.89-15.31,9-22.9,5.09-12.62,10.02-6.98,14.08-11.17.11-.63.13-.62-.48-.83-3.9-1.37-8.31-2.94-10.5-6.72-.27-.48-.46-.8-1.11-.68-4.08-.74-6.96-13.56-1.83-12.2.22.06.26-.06.22-.26-.2-1.21-.33-2.44-.32-3.67-.04-7.99,7.58-16.55,16.04-16.72h3.27c8.46.18,16.08,8.73,16.04,16.72,0,1.23-.12,2.46-.32,3.67-.03.2,0,.32.22.26,5.14-1.36,2.26,11.46-1.83,12.2-.65-.12-.84.2-1.11.68-2.18,3.77-6.59,5.34-10.5,6.72-.61.2-.59.2-.48.83,4.06,4.19,8.99-1.45,14.08,11.17,3.11,7.59,5.85,15.31,9,22.9,1.63,3.92,3.73,7.29,4.81,11.59,1.42,5.64-7.58,13.21-9.76,3.22Z"/></clipPath></defs><path class="cls-1" d="m181.11,251c-30.04,0-66.91-21.37-101.16-58.62-28.99-31.54-51.7-69.84-58.98-99.11,92.42-26.44,111.17-63.18,120.27-80.98,1.54-3.01,3.45-6.75,4.43-7.27.07,0,.22-.02.38-.02,1.92,0,5.4,2.57,9.8,5.82,11.18,8.26,31.77,23.48,78.17,36.78,5.44,32.4-1.3,83.8-9.64,121.9-4.81,21.99-10.67,42.22-16.49,56.98-8.59,21.77-13.61,23.11-13.66,23.12-4.2.93-8.61,1.4-13.11,1.4Z"/><path class="cls-2" d="m147.53,11.03c1.51.98,3.5,2.45,5.34,3.81,11.18,8.26,31.58,23.33,76.67,36.66,3.54,25.96.22,67.98-9.01,112.07-4.4,21.04-9.88,40.95-15.41,56.08-6.95,19-11.63,24.17-12.77,25.22-3.61.74-7.38,1.11-11.23,1.11-28.64,0-64.17-20.78-97.48-57.01-26.96-29.33-48.35-64.47-56.55-92.3,90.43-26.94,109.36-64.01,118.61-82.13.59-1.15,1.25-2.44,1.84-3.53M146.04,0c-.48,0-.96.05-1.45.14-12.57,2.51-4.7,55.24-129.54,89.59,12.17,61.05,95.71,166.26,166.06,166.26,4.8,0,9.54-.49,14.19-1.52,20.78-4.59,55.42-148.89,43.06-210.85C167.24,23.85,156.83,0,146.04,0h0Z"/><path class="cls-3" d="m193.78,249.89s9.11-49.59-4.73-126.3C175.22,46.9,144.48,4.28,144.48,4.28"/></svg>