<?xml version="1.0" encoding="UTF-8"?><svg id="Btn_right-green" xmlns="http://www.w3.org/2000/svg" xmlns:xlink="http://www.w3.org/1999/xlink" viewBox="0 0 256 256"><defs><style>.cls-1{fill:#fff;}.cls-2{fill:#60cb3d;}.cls-3{fill:url(#linear-gradient);}</style><linearGradient id="linear-gradient" x1="140.86" y1="66.59" x2="21.73" y2="185.72" gradientUnits="userSpaceOnUse"><stop offset="0" stop-color="#368a1b"/><stop offset=".21" stop-color="#34851a"/><stop offset=".43" stop-color="#2f7917"/><stop offset=".66" stop-color="#276413"/><stop offset=".88" stop-color="#1c470e"/><stop offset="1" stop-color="#15360b"/></linearGradient></defs><path d="m51,235.65V20.35c0-15.06,13.32-23.96,23.14-15.46l124.41,107.65c8.6,7.44,8.6,23.49,0,30.93l-124.41,107.65c-9.82,8.5-23.14-.41-23.14-15.46Z"/><path class="cls-3" d="m61.57,217.82V34.49c0-12.82,11.35-20.4,19.71-13.17l105.93,91.67c7.32,6.33,7.32,20,0,26.34l-105.93,91.67c-8.36,7.24-19.71-.35-19.71-13.17Z"/><path class="cls-2" d="m69.53,188.15V42.65c0-12.82,11.35-20.4,19.71-13.17l90.01,73.75c7.32,6.33,7.32,20,0,26.34l-90.01,71.76c-8.36,7.24-19.71-.35-19.71-13.17Z"/><path class="cls-1" d="m69.53,57.58v-13.14c0-12.82,11.35-20.4,19.71-13.17l90.01,73.75c7.32,6.33,7.32,20,0,26.34l-7.01,5.59s9.35-16.19-.98-24.17c-16.33-12.62-54.66-54.86-77.79-66.29-18.34-9.07-23.94,11.1-23.94,11.1Z"/></svg>