<?xml version="1.0" encoding="UTF-8"?><svg preserveAspectRatio="none" id="Tab_Reg-selected" xmlns="http://www.w3.org/2000/svg" xmlns:xlink="http://www.w3.org/1999/xlink" viewBox="0 0 256 90"><defs><style>.cls-1{fill:url(#linear-gradient);}.cls-2{fill:#fc7703;}</style><linearGradient id="linear-gradient" x1="129" y1="2.4" x2="129" y2="84.8" gradientUnits="userSpaceOnUse"><stop offset="0" stop-color="#fc0"/><stop offset="1" stop-color="#ff8400"/></linearGradient></defs><rect id="Black" width="256" height="90"/><polygon id="BG" class="cls-1" points="252.11 84.8 6.89 81.2 3.89 4.8 254.11 2.4 252.11 84.8"/><g id="rays"><polygon class="cls-2" points="116.22 82.81 128 40 108.44 82.69 116.22 82.81"/><polygon class="cls-2" points="97.79 82.53 128 40 86.2 82.36 97.79 82.53"/><polygon class="cls-2" points="67.04 82.08 128 40 40.14 81.69 67.04 82.08"/><polygon class="cls-2" points="6.52 71.68 128 40 5.72 51.52 6.52 71.68"/><polygon class="cls-2" points="4.82 28.39 128 40 4 7.66 4.82 28.39"/><polygon class="cls-2" points="52.82 4.33 128 40 76.01 4.11 52.82 4.33"/><polygon class="cls-2" points="92.43 3.95 128 40 102.33 3.86 92.43 3.95"/><polygon class="cls-2" points="111.4 3.77 128 40 118.01 3.71 111.4 3.77"/><polygon class="cls-2" points="125.06 3.64 128 40 130.94 3.58 125.06 3.64"/><polygon class="cls-2" points="138.04 3.51 128 40 144.75 3.45 138.04 3.51"/><polygon class="cls-2" points="154.02 3.36 128 40 164.25 3.26 154.02 3.36"/><polygon class="cls-2" points="181.46 3.1 128 40 206.28 2.86 181.46 3.1"/><polygon class="cls-2" points="254 7.14 128 40 253.49 28.18 254 7.14"/><polygon class="cls-2" points="252.91 51.77 128 40 252.41 72.45 252.91 51.77"/><polygon class="cls-2" points="221.47 84.35 128 40 191.61 83.91 221.47 84.35"/><polygon class="cls-2" points="171.03 83.61 128 40 158.84 83.43 171.03 83.61"/><polygon class="cls-2" points="147.83 83.27 128 40 139.87 83.15 147.83 83.27"/><polygon class="cls-2" points="131.48 83.03 128 40 124.53 82.93 131.48 83.03"/></g></svg>