<?xml version="1.0" encoding="UTF-8"?><svg preserveAspectRatio="none" xmlns="http://www.w3.org/2000/svg" xmlns:xlink="http://www.w3.org/1999/xlink" viewBox="0 0 256 90"><defs><style>.cls-1{fill:url(#linear-gradient);}.cls-1,.cls-2,.cls-3,.cls-4{stroke-width:0px;}.cls-5{isolation:isolate;}.cls-3{fill:none;}.cls-4{fill:#889ebd;}.cls-6{mix-blend-mode:darken;}</style><linearGradient id="linear-gradient" x1="129" y1="2.4" x2="129" y2="84.8" gradientUnits="userSpaceOnUse"><stop offset="0" stop-color="#bdd5f6"/><stop offset="1" stop-color="#90a8b9"/></linearGradient></defs><g class="cls-5"><g id="Tab_Reg-disabled"><rect id="Black" class="cls-2" width="256" height="90"/><polygon id="BG" class="cls-1" points="252.11 84.8 6.89 81.2 3.89 4.8 254.11 2.4 252.11 84.8"/><g id="Layer_8"><g id="Checkers-3" class="cls-6"><rect class="cls-4" x="234.67" y="71" width="21.33" height="19"/><rect class="cls-4" x="234.67" y="31" width="21.33" height="20"/><rect class="cls-4" x="234.67" y="6" width="21.33" height="10"/><rect class="cls-4" x="213.33" y="51" width="21.34" height="20"/><rect class="cls-4" x="213.33" y="16" width="21.34" height="15"/><rect class="cls-4" x="213.33" width="21.34" height="6"/><rect class="cls-4" x="192" y="71" width="21.33" height="19"/><rect class="cls-4" x="192" y="31" width="21.33" height="20"/><rect class="cls-4" x="192" y="6" width="21.33" height="10"/><rect class="cls-4" x="170.67" y="51" width="21.33" height="20"/><rect class="cls-4" x="170.67" y="16" width="21.33" height="15"/><rect class="cls-4" x="170.67" width="21.33" height="6"/><rect class="cls-4" x="149.33" y="71" width="21.34" height="19"/><rect class="cls-4" x="149.33" y="31" width="21.34" height="20"/><rect class="cls-4" x="149.33" y="6" width="21.34" height="10"/><rect class="cls-4" x="128" y="51" width="21.33" height="20"/><rect class="cls-4" x="128" y="16" width="21.33" height="15"/><rect class="cls-4" x="128" width="21.33" height="6"/><rect class="cls-4" x="106.67" y="71" width="21.33" height="19"/><rect class="cls-4" x="106.67" y="31" width="21.33" height="20"/><rect class="cls-4" x="106.67" y="6" width="21.33" height="10"/><rect class="cls-4" x="85.33" y="51" width="21.34" height="20"/><rect class="cls-4" x="85.33" y="16" width="21.34" height="15"/><rect class="cls-4" x="85.33" width="21.34" height="6"/><rect class="cls-4" x="64" y="71" width="21.33" height="19"/><rect class="cls-4" x="64" y="31" width="21.33" height="20"/><rect class="cls-4" x="64" y="6" width="21.33" height="10"/><rect class="cls-4" x="42.67" y="51" width="21.33" height="20"/><rect class="cls-4" x="42.67" y="16" width="21.33" height="15"/><rect class="cls-4" x="42.67" width="21.33" height="6"/><rect class="cls-4" x="21.33" y="71" width="21.34" height="19"/><rect class="cls-4" x="21.33" y="31" width="21.34" height="20"/><rect class="cls-4" x="21.33" y="6" width="21.34" height="10"/><rect class="cls-4" y="51" width="21.33" height="20"/><rect class="cls-4" y="16" width="21.33" height="15"/><rect class="cls-4" width="21.33" height="6"/></g><polygon id="BG-2" class="cls-3" points="252.11 84.8 6.89 81.2 3.89 4.8 254.11 2.4 252.11 84.8"/></g></g></g></svg>