<?xml version="1.0" encoding="UTF-8"?><svg id="Notification_orange" preserveAspectRatio="none" xmlns="http://www.w3.org/2000/svg" xmlns:xlink="http://www.w3.org/1999/xlink" viewBox="0 0 256 256"><defs><style>.cls-1{fill:url(#radial-gradient);}.cls-2{fill:none;}.cls-3{fill:#f40b0e;}</style><radialGradient id="radial-gradient" cx="128.17" cy="129.6" fx="128.17" fy="129.6" r="118.14" gradientUnits="userSpaceOnUse"><stop offset="0" stop-color="#fce000"/><stop offset=".1" stop-color="#fbd700"/><stop offset=".26" stop-color="#fabe02"/><stop offset=".45" stop-color="#f99604"/><stop offset=".69" stop-color="#f75f08"/><stop offset=".95" stop-color="#f41a0d"/><stop offset="1" stop-color="#f40b0e"/></radialGradient></defs><g id="burst"><polygon class="cls-1" points="146.3 207.41 139.68 236.39 127.91 207.82 108.32 246.18 101.71 204.89 84.21 223.18 82.65 198.12 57.97 221.97 63.94 183.6 25.86 193.98 52.42 162.45 8.77 161.61 44.87 139.78 14.14 129.27 44.04 117.31 22.42 94.85 50.87 94.85 36.4 59.95 66.43 76.63 64.06 48.99 83.85 62.44 83.85 19.74 108.14 54.55 112.9 26.82 127.32 50.86 138.1 12.73 150.64 52.86 165.31 30.46 173.4 55.54 190.18 38.76 194.86 66.04 220.58 41.98 215.3 81.59 246.23 90.19 220.31 108 247.57 123.69 221.19 131.11 237.73 147.65 213.41 152.52 231.26 182.28 206.3 174.22 222 208.93 186.79 187.63 193.07 216.72 172.37 202.64 171.52 246.46 146.3 207.41"/><path d="m138.22,21.5l11.61,37.15,14.71-22.45,7.74,23.99,16.26-16.25,4.64,27.09,24-22.45-4.64,34.83,27.87,7.74-24.77,17.03,25.55,14.71-24.77,6.97,16.26,16.25-23.22,4.64,16.26,27.09-24-7.74,14.71,32.51-33.29-20.12,6.19,28.64-19.35-13.16-.77,40.25-24-37.15-6.19,27.09-10.84-26.32-18.58,36.38-6.19-38.7-17.03,17.8-1.55-24.77-23.22,22.45,5.42-34.83-34.06,9.29,24.77-29.41-40.25-.77,33.29-20.12-29.42-10.06,27.09-10.84-20.13-20.9h26.32l-13.16-31.73,27.87,15.48-2.32-27.09,19.35,13.16V27.69l23.22,33.28,4.64-27.09,13.93,23.22,10.06-35.6m-.24-17.53l-4.57,16.17-6.92,24.47-7.98-13.3-6.94-11.56-2.28,13.29-2.59,15.08-16.25-23.29-9.1-13.04v45.93l-11.54-7.85-8.69-5.91.9,10.47,1.52,17.73-19.66-10.92-12.54-6.97,5.5,13.25,10.29,24.82h-30.59l8.16,8.47,14.97,15.55-20.2,8.08-12.52,5.01,12.76,4.36,19.28,6.6-24.12,14.58L.07,163.94l17.29.33,29.77.57-18.02,21.39-10.33,12.26,15.47-4.22,26.62-7.26-4.23,27.21-2.29,14.71,10.7-10.35,15.43-14.92.87,13.96.71,11.39,7.89-8.25,10.07-10.53,4.6,28.76,2.42,15.13,6.97-13.65,13.64-26.71,6.7,16.27,5.99,14.55,3.51-15.34,3.55-15.53,17.56,27.19,8.88,13.75.31-16.37.6-31.02,11.72,7.97,10.34,7.03-2.64-12.22-3.74-17.3,23.36,14.12,13.78,8.33-6.64-14.67-10.05-22.22,13.25,4.27,12.67,4.09-6.85-11.42-12.61-21.01,16.27-3.25,9.16-1.83-6.61-6.61-10.22-10.22,16.55-4.65,11.44-3.22-10.3-5.93-18.67-10.75,18.23-12.53,8.83-6.07-10.32-2.87-23.67-6.58,4.07-30.52,1.85-13.87-10.22,9.56-17.22,16.11-3.08-17.95-1.63-9.52-6.83,6.83-10.47,10.47-5.23-16.21-3.21-9.95-5.73,8.75-8.91,13.6-8.46-27.05-5.01-16.04h0Z"/></g><g id="dots-2"><path class="cls-2" d="m233.96,119.3c.56.02,1.1.15,1.59.36l-10.68-6.15c-.85,1.2-2.25,1.99-3.78,1.95-2.47-.06-4.51-2.16-4.47-4.6.01-.66.17-1.28.44-1.84l-1.43-.82,15.36-10.56c.26-1.35,1.43-2.36,2.86-2.37.18,0,.35.02.52.05l6.03-4.15-16.55-4.6c-.42,1.1-1.48,1.85-2.77,1.82-1.59-.04-2.8-1.29-2.79-2.89,0-.16.02-.31.05-.46l-5.79-1.61,4.64-34.83-24,22.45-4.64-27.09-15.8,15.79c.02.13.03.25.03.38-.02,1.36-1.08,2.4-2.45,2.39-1.36,0-2.41-1.06-2.42-2.42,0-1.41,1.09-2.48,2.51-2.45.43.01.82.13,1.16.33l-7.02-21.77-14.71,22.45-11.61-37.15-10.06,35.6-13.93-23.22-4.64,27.09-23.22-33.28v39.48l-19.35-13.16,2.32,27.09-27.87-15.48,13.16,31.73h-26.32l20.13,20.9-27.09,10.84,29.42,10.06-33.29,20.12,40.25.77-24.77,29.41,34.06-9.29-.59,3.8c.66-.48,1.46-.77,2.32-.75,2.13.04,3.88,1.84,3.86,3.96-.02,2.13-1.81,3.89-3.93,3.89-1.26,0-2.39-.64-3.11-1.59l-3.97,25.52,15.29-14.78c-.01-.14-.04-.28-.04-.43.04-2.47,2.13-4.51,4.58-4.49.17,0,.33.04.49.06l2.91-2.81.3,4.73c.52.74.83,1.62.83,2.57,0,.74-.21,1.44-.54,2.06l.96,15.4,3.14-3.28c-.15-.48-.25-.98-.25-1.51.01-2.67,2.13-4.79,4.79-4.8.46,0,.9.08,1.32.19l5.84-6.1c-.21-.62-.33-1.28-.33-1.97,0-3.32,2.66-5.94,6-5.92,3.27.02,5.87,2.66,5.86,5.94,0,3.32-2.66,5.94-6,5.92-.87,0-1.69-.2-2.43-.54l2.43,15.16s.04,0,.05,0c2.72,0,4.87,2.11,4.89,4.83.02,2.24-1.41,4.07-3.42,4.68l1.33,8.32,10.07-19.71c-.07,0-.14,0-.21,0-3.29-.03-5.89-2.64-5.89-5.94,0-3.35,2.62-5.98,5.97-5.97,2.06,0,3.84,1.01,4.9,2.56l2.5-4.89c-1.03-1.23-1.65-2.8-1.62-4.51.07-3.82,3.2-6.88,6.97-6.83,3.81.05,6.88,3.16,6.85,6.95-.03,3.8-3.13,6.89-6.92,6.88-.76,0-1.49-.13-2.17-.36l6.02,14.61c1.16,1.05,1.89,2.57,1.88,4.28,0,.08,0,.17-.01.25l1.08,2.61,2.3-10.07c-1.79-1.17-2.97-3.19-2.97-5.51,0-3.39,2.47-6.13,5.73-6.55l1.13-4.96,4.39,6.8c.65.65,1.16,1.44,1.5,2.32l5.86,9.08c.22-.03.44-.04.67-.04,3.32-.01,6.07,2.73,6.06,6.06,0,1.12-.32,2.17-.86,3.07l3.84,5.94c.71-.71,1.63-1.23,2.64-1.44l.26-13.74c-3.3-.38-5.81-3.13-5.82-6.54,0-3.5,2.64-6.31,6.07-6.58l.15-8.02,6.71,4.57c-.35-.83-.54-1.74-.54-2.69,0-3.84,3.19-6.98,7-6.91.83.02,1.61.18,2.35.46l-2.36-10.91,5.89,3.56c.51-3.29,3.31-5.75,6.76-5.74,3.84,0,6.85,3.05,6.83,6.9-.02,2.23-1.08,4.18-2.72,5.41l4.63,2.8c1.07-.94,2.48-1.52,4.05-1.5,3.32.03,5.9,2.72,5.85,6.08,0,.45-.07.89-.17,1.3l2.18,1.32-9.96-22.01c-2.62-.87-4.52-3.35-4.49-6.22,0-.89.2-1.74.54-2.52l-.8-1.77,1.54.5c1.19-1.62,3.1-2.67,5.24-2.67,3.54.01,6.45,2.92,6.48,6.45l10.74,3.46-6.34-10.56c-2.3-.77-4-2.94-4.04-5.49,0-.37.03-.73.09-1.08l-3.71-6.18c-.96.56-2.07.88-3.27.88-3.55-.01-6.36-2.85-6.35-6.41.01-3.55,2.85-6.36,6.41-6.35,3.55.01,6.36,2.85,6.35,6.41,0,.21-.01.42-.03.63l14.71-2.94c.43-.8,1.06-1.47,1.84-1.94l-5.57-5.57c-.97,1.52-2.65,2.54-4.56,2.56-3.02.03-5.52-2.45-5.52-5.47,0-1.93,1.03-3.63,2.56-4.61l-1.85-1.85,13.86-3.9c-.46-.7-.73-1.53-.71-2.41.05-2.37,2.07-4.32,4.41-4.26Zm-25.51-48.95c1.37,0,2.43,1.04,2.44,2.41.01,1.37-1.02,2.44-2.38,2.47-1.41.03-2.5-1.05-2.49-2.46.01-1.36,1.07-2.41,2.43-2.41Zm-.03,23.37c2.5-.02,4.52,2,4.51,4.5-.02,2.47-1.98,4.43-4.45,4.45-2.46.02-4.46-1.93-4.51-4.39-.05-2.5,1.94-4.54,4.45-4.56Zm-12.64-12.39c2.25.02,4.1,1.87,4.12,4.12.02,2.3-1.85,4.2-4.15,4.2-2.3,0-4.18-1.87-4.18-4.17,0-2.3,1.9-4.17,4.2-4.15Zm.03,23.9c3.13.04,5.68,2.69,5.6,5.81-.07,3.09-2.67,5.59-5.75,5.55-3.13-.04-5.68-2.69-5.6-5.81.07-3.09,2.67-5.59,5.75-5.55Zm-6.19,18.36c0,3.68-2.9,6.61-6.57,6.62-3.68,0-6.61-2.9-6.62-6.57,0-3.68,2.9-6.61,6.57-6.62,3.68,0,6.61,2.9,6.62,6.57Zm-64.89,25.4c.01-4.12,3.32-7.42,7.44-7.43,4.18,0,7.5,3.32,7.48,7.5-.01,4.12-3.32,7.42-7.44,7.43-4.18,0-7.5-3.32-7.48-7.5Zm1.87,12.78c-.03,3.93-3.19,7.08-7.12,7.07-3.97,0-7.16-3.24-7.1-7.2.06-3.94,3.26-7.06,7.17-7.02,3.93.04,7.07,3.23,7.05,7.15Zm36.29-25.46c0-4.09,3.4-7.45,7.49-7.42,4.05.04,7.37,3.39,7.36,7.44,0,4.09-3.4,7.45-7.49,7.42-4.05-.04-7.37-3.39-7.36-7.44Zm2.78,12.77c-.04,4.44-3.76,8.09-8.17,8-4.41-.08-7.99-3.74-7.95-8.11.04-4.44,3.76-8.09,8.17-8,4.41.08,7.99,3.74,7.95,8.11Zm-8.07-18.49c-3.81,0-6.97-3.18-6.96-6.99,0-3.81,3.18-6.97,6.99-6.96,3.81,0,6.97,3.18,6.96,6.99,0,3.81-3.18,6.97-6.99,6.96Zm-5.27,5.78c-.03,4.05-3.37,7.38-7.42,7.38-4.09,0-7.46-3.39-7.44-7.48.03-4.05,3.37-7.38,7.42-7.38,4.09,0,7.46,3.39,7.44,7.48Zm-7.46,17.23c4.53-.01,8.15,3.57,8.17,8.08.02,4.58-3.59,8.21-8.16,8.2-4.52,0-8.12-3.61-8.12-8.13,0-4.52,3.59-8.13,8.11-8.15Zm12.79,12.55c4.54.03,8.28,3.81,8.24,8.35-.03,4.54-3.81,8.28-8.35,8.24-4.54-.03-8.28-3.81-8.24-8.35.03-4.54,3.81-8.28,8.35-8.24Zm4.51-4.38c-.01-4.53,3.57-8.15,8.09-8.17,4.53-.02,8.16,3.55,8.19,8.06.03,4.58-3.57,8.22-8.14,8.22-4.52,0-8.13-3.59-8.14-8.11Zm13.38-12.78c.01-4.13,3.32-7.43,7.46-7.43,4.19,0,7.5,3.32,7.49,7.51-.01,4.13-3.32,7.43-7.46,7.43-4.19,0-7.5-3.32-7.49-7.51Zm7.44-79.71c1.97-.02,3.55,1.56,3.54,3.53,0,1.92-1.55,3.47-3.47,3.49-1.97.02-3.55-1.56-3.54-3.53,0-1.92,1.55-3.47,3.47-3.49Zm.05,23.61c2.99,0,5.32,2.37,5.3,5.36-.02,2.98-2.4,5.31-5.39,5.27-2.98-.03-5.29-2.42-5.24-5.42.05-2.94,2.39-5.23,5.34-5.22Zm-12.71-12.14c2.59.02,4.74,2.19,4.73,4.77-.02,2.59-2.19,4.74-4.77,4.73-2.59-.02-4.74-2.19-4.73-4.77.02-2.59,2.19-4.74,4.77-4.73Zm-.1,23.93c3.45-.06,6.28,2.71,6.32,6.18.04,3.46-2.74,6.27-6.21,6.29-3.46.02-6.26-2.77-6.26-6.24,0-3.42,2.72-6.18,6.15-6.24Zm-12.53-35.67c2.09.04,3.7,1.7,3.69,3.8,0,2.14-1.69,3.79-3.83,3.77-2.14-.02-3.78-1.71-3.74-3.86.03-2.13,1.74-3.76,3.89-3.72Zm-.16,23.56c3.07-.05,5.67,2.52,5.7,5.61.03,3.07-2.55,5.67-5.63,5.67-3.08,0-5.66-2.59-5.64-5.66.02-3.05,2.52-5.57,5.58-5.62Zm-12.68-34.9c1.35-.02,2.44,1.04,2.45,2.39.02,1.35-1.04,2.44-2.39,2.45-1.35.02-2.44-1.04-2.45-2.39-.02-1.35,1.04-2.44,2.39-2.45Zm.03,23.09c2.59,0,4.75,2.16,4.75,4.75,0,2.59-2.16,4.75-4.75,4.75-2.59,0-4.75-2.16-4.75-4.75,0-2.59,2.16-4.75,4.75-4.75Zm.16,23.93c3.49.11,6.2,2.97,6.07,6.42-.13,3.49-3,6.19-6.44,6.04-3.45-.14-6.11-2.95-6.02-6.36.09-3.49,2.94-6.21,6.39-6.1Zm-12.81-35.39c1.91.03,3.45,1.6,3.45,3.51,0,1.95-1.61,3.53-3.56,3.5-1.91-.03-3.45-1.6-3.45-3.51,0-1.95,1.61-3.53,3.56-3.5Zm.02,23.61c2.94.04,5.24,2.38,5.23,5.33-.01,2.99-2.38,5.32-5.39,5.28-2.94-.04-5.24-2.38-5.23-5.33.01-2.99,2.38-5.32,5.39-5.28Zm-.06,24.13c3.67,0,6.58,2.94,6.57,6.62,0,3.67-2.94,6.58-6.62,6.57-3.67,0-6.58-2.94-6.57-6.62,0-3.67,2.94-6.58,6.62-6.57Zm-12.73-58.71c1.02,0,1.79.78,1.77,1.8-.01,1.02-.81,1.77-1.83,1.75-1.01-.03-1.76-.83-1.72-1.85.04-.97.79-1.69,1.77-1.69Zm-.05,23.03c2.3-.03,4.2,1.84,4.21,4.14.01,2.3-1.86,4.19-4.16,4.19-2.26,0-4.12-1.83-4.16-4.08-.04-2.3,1.81-4.22,4.11-4.24Zm.09,23.9c3.09.02,5.64,2.6,5.63,5.68,0,3.09-2.57,5.65-5.66,5.66-3.08,0-5.66-2.54-5.69-5.63-.03-3.12,2.59-5.74,5.71-5.71Zm-.04,24.46c3.72,0,6.66,2.95,6.63,6.68-.02,3.68-2.94,6.58-6.62,6.58-3.72,0-6.66-2.95-6.63-6.68.02-3.68,2.94-6.58,6.62-6.58Zm-12.71-59.34c1.37,0,2.43,1.04,2.44,2.41.01,1.37-1.02,2.44-2.38,2.47-1.41.03-2.5-1.05-2.49-2.46.01-1.36,1.07-2.41,2.43-2.41Zm-.05,23.37c2.5-.03,4.53,1.98,4.53,4.48,0,2.47-1.96,4.44-4.43,4.47-2.5.03-4.53-1.98-4.53-4.48,0-2.47,1.96-4.44,4.43-4.47Zm.11,24.2c3.1.02,5.63,2.57,5.64,5.67,0,3.15-2.55,5.72-5.7,5.72-3.15,0-5.7-2.57-5.69-5.73.01-3.15,2.6-5.69,5.75-5.66Zm.05,24.75c3.48.04,6.27,2.91,6.25,6.42-.02,3.54-2.91,6.35-6.48,6.3-3.48-.04-6.27-2.91-6.25-6.42.02-3.54,2.91-6.35,6.48-6.3Zm-12.87-60.04c1.64-.02,2.92,1.24,2.92,2.87,0,1.59-1.23,2.84-2.82,2.87-1.64.02-2.92-1.24-2.92-2.87,0-1.59,1.23-2.84,2.82-2.87Zm.06,23.74c2.46,0,4.53,2.07,4.54,4.53.02,2.45-2.03,4.53-4.5,4.57-2.49.04-4.62-2.09-4.6-4.58.02-2.46,2.1-4.52,4.55-4.51Zm.04,24.5c2.98.02,5.43,2.5,5.42,5.48,0,2.97-2.47,5.44-5.45,5.44-3.02,0-5.51-2.51-5.47-5.53.04-2.98,2.53-5.41,5.5-5.39Zm-12.78-35.55c1.65-.01,2.91,1.24,2.92,2.88,0,1.64-1.26,2.9-2.91,2.89-1.64-.01-2.88-1.29-2.86-2.94.02-1.59,1.26-2.82,2.85-2.83Zm.17,24.02c2.4.1,4.27,2.12,4.14,4.47-.13,2.36-2.09,4.18-4.41,4.09-2.4-.1-4.27-2.12-4.14-4.47.13-2.36,2.09-4.18,4.41-4.09Zm-.03,24.79c2.71.06,4.82,2.24,4.79,4.95-.03,2.75-2.25,4.91-5.01,4.85-2.71-.06-4.82-2.24-4.79-4.95.03-2.75,2.25-4.91,5.01-4.85Zm-12.7-35.84c1.39.06,2.52,1.26,2.5,2.65-.02,1.44-1.25,2.62-2.68,2.59-1.43-.03-2.61-1.28-2.56-2.71.05-1.43,1.3-2.6,2.73-2.53Zm-.14,24.31c2.08-.01,3.77,1.67,3.75,3.75-.01,2.03-1.66,3.68-3.7,3.7-2.08.01-3.77-1.67-3.75-3.75.01-2.03,1.66-3.68,3.7-3.7Zm-12.64-10.97c1.08.02,1.93.86,1.95,1.94.02,1.13-.84,2.02-1.97,2.03-1.13,0-2.01-.87-2.01-2,0-1.13.89-2,2.02-1.98Zm-.08,30.17c-1.51-.03-2.78-1.35-2.73-2.84.05-1.52,1.38-2.77,2.87-2.7,1.48.06,2.69,1.32,2.68,2.79-.01,1.51-1.31,2.79-2.82,2.76Zm-.04,25.48c-1.57-.05-2.82-1.39-2.75-2.96.07-1.57,1.42-2.8,2.98-2.72,1.52.08,2.73,1.38,2.7,2.9-.03,1.57-1.37,2.83-2.93,2.78Zm12.85-11.42c-2.26.04-4.2-1.89-4.18-4.15.02-2.23,1.9-4.1,4.13-4.1,2.23,0,4.11,1.87,4.13,4.1.02,2.22-1.84,4.12-4.07,4.16Zm12.64,13.59c-2.74,0-5.03-2.31-5-5.05.02-2.7,2.27-4.94,4.97-4.97,2.74-.03,5.04,2.25,5.06,4.99.01,2.74-2.28,5.03-5.02,5.03Zm12.67,13.33c-3.05-.04-5.56-2.56-5.59-5.61-.02-3.07,2.56-5.67,5.64-5.67,3.08,0,5.66,2.59,5.64,5.66-.02,3.09-2.63,5.66-5.69,5.61Zm.01-25.25c-3.24-.03-5.83-2.68-5.76-5.9.07-3.2,2.66-5.74,5.84-5.71,3.24.03,5.83,2.68,5.76,5.9-.07,3.2-2.66,5.74-5.84,5.71Zm12.57,13.36c-3.61-.13-6.42-3.12-6.27-6.67.15-3.57,3.07-6.34,6.58-6.25,3.6.09,6.44,3.06,6.33,6.61-.11,3.61-3.09,6.43-6.64,6.3Zm12.9,13.08c-3.84,0-6.86-3.04-6.84-6.88.02-3.79,3.03-6.78,6.83-6.78,3.84,0,6.86,3.04,6.84,6.88-.02,3.79-3.03,6.78-6.83,6.78Zm12.67-11.9c-4.16-.02-7.59-3.45-7.61-7.61-.02-4.2,3.47-7.68,7.67-7.66,4.16.02,7.59,3.45,7.61,7.61.02,4.2-3.47,7.68-7.67,7.66Zm12.72,12.76c-4.28,0-7.68-3.44-7.67-7.73.02-4.27,3.46-7.66,7.76-7.64,4.22.02,7.61,3.44,7.61,7.68,0,4.29-3.42,7.7-7.71,7.69Zm12.65,12.3c-4.02-.03-7.2-3.24-7.21-7.27,0-4.07,3.22-7.3,7.3-7.29,4.07,0,7.28,3.25,7.26,7.32-.02,4.07-3.27,7.27-7.35,7.23Zm12.83-12.3c-4.3.02-7.73-3.38-7.74-7.66,0-4.29,3.4-7.71,7.69-7.71,4.24,0,7.66,3.38,7.69,7.61.03,4.3-3.36,7.75-7.63,7.77Zm12.69-12.76c-4.2.02-7.69-3.46-7.67-7.66.01-4.16,3.45-7.6,7.61-7.62,4.2-.02,7.69,3.46,7.67,7.66-.01,4.16-3.45,7.6-7.61,7.62Zm19.81-20.33c-.02,3.95-3.29,7.18-7.21,7.12-3.92-.06-7.08-3.26-7.06-7.15.02-3.95,3.29-7.18,7.21-7.12,3.92.06,7.08,3.26,7.06,7.15Zm-7.31-18.78c-3.72-.11-6.61-3.16-6.48-6.86.12-3.68,3.11-6.53,6.77-6.46,3.72.08,6.63,3.11,6.54,6.8-.09,3.72-3.13,6.62-6.83,6.51Zm12.78-13.67c-3.13-.04-5.64-2.64-5.59-5.8.04-3.13,2.64-5.64,5.8-5.59,3.13.04,5.64,2.64,5.59,5.8-.04,3.13-2.64,5.64-5.8,5.59Z"/><path class="cls-2" d="m183.01,206.77s-.08,0-.13,0l6.43,4.37-1.38-6.4c-1.26,1.27-3,2.05-4.92,2.03Z"/><path class="cls-2" d="m238.19,123.62s-.01.08-.01.12l3-.84-4.78-2.75c1.08.79,1.8,2.06,1.79,3.48Z"/><path class="cls-3" d="m157.57,182.74c4.54.03,8.32-3.7,8.35-8.24.03-4.54-3.7-8.32-8.24-8.35-4.54-.03-8.32,3.7-8.35,8.24-.03,4.54,3.7,8.32,8.24,8.35Z"/><path class="cls-3" d="m178.47,161.66c-.03-4.51-3.66-8.08-8.19-8.06-4.51.02-8.1,3.64-8.09,8.17.01,4.52,3.62,8.11,8.14,8.11,4.57,0,8.17-3.64,8.14-8.22Z"/><path class="cls-3" d="m144.9,169.88c4.57,0,8.19-3.62,8.16-8.2-.02-4.51-3.64-8.09-8.17-8.08-4.52.01-8.11,3.62-8.11,8.15,0,4.52,3.6,8.13,8.12,8.13Z"/><path class="cls-3" d="m157.74,140.97c-4.4-.08-8.13,3.57-8.17,8-.04,4.37,3.54,8.03,7.95,8.11,4.4.08,8.13-3.57,8.17-8,.04-4.37-3.54-8.03-7.95-8.11Z"/><path class="cls-3" d="m170.33,179.46c-4.29,0-7.7,3.42-7.69,7.71,0,4.28,3.44,7.68,7.74,7.66,4.27-.02,7.66-3.47,7.63-7.77-.03-4.22-3.45-7.61-7.69-7.61Z"/><path class="cls-3" d="m152.61,187.14c0-4.24-3.39-7.65-7.61-7.68-4.3-.02-7.75,3.37-7.76,7.64-.02,4.3,3.39,7.73,7.67,7.73,4.29,0,7.71-3.41,7.71-7.69Z"/><path class="cls-3" d="m183.01,166.81c-4.16.02-7.59,3.46-7.61,7.62-.01,4.2,3.48,7.68,7.67,7.66,4.16-.02,7.59-3.46,7.61-7.62.01-4.2-3.48-7.68-7.67-7.66Z"/><path class="cls-3" d="m139.85,174.42c-.02-4.16-3.45-7.59-7.61-7.61-4.2-.02-7.68,3.47-7.67,7.66.02,4.16,3.45,7.59,7.61,7.61,4.2.02,7.68-3.47,7.67-7.66Z"/><path class="cls-3" d="m190.51,149.07c.01-4.19-3.3-7.52-7.49-7.51-4.14,0-7.45,3.3-7.46,7.43-.01,4.19,3.3,7.52,7.49,7.51,4.14,0,7.45-3.3,7.46-7.43Z"/><path class="cls-3" d="m132.23,156.49c4.12,0,7.43-3.31,7.44-7.43.01-4.18-3.31-7.5-7.48-7.5-4.12,0-7.43,3.31-7.44,7.43-.01,4.18,3.31,7.5,7.48,7.5Z"/><path class="cls-3" d="m177.76,136.33c0-4.05-3.32-7.4-7.36-7.44-4.09-.04-7.49,3.33-7.49,7.42,0,4.05,3.32,7.4,7.36,7.44,4.09.04,7.49-3.33,7.49-7.42Z"/><path class="cls-3" d="m144.91,128.89c-4.05,0-7.4,3.33-7.42,7.38-.03,4.09,3.35,7.48,7.44,7.48,4.05,0,7.4-3.33,7.42-7.38.03-4.09-3.35-7.48-7.44-7.48Z"/><path class="cls-3" d="m157.64,192.58c-4.07,0-7.3,3.22-7.3,7.29,0,4.03,3.19,7.24,7.21,7.27,4.08.03,7.33-3.17,7.35-7.23.02-4.08-3.19-7.31-7.26-7.32Z"/><path class="cls-3" d="m195.82,154.6c-3.92-.06-7.19,3.17-7.21,7.12-.02,3.9,3.14,7.09,7.06,7.15,3.92.06,7.19-3.17,7.21-7.12.02-3.9-3.14-7.09-7.06-7.15Z"/><path class="cls-3" d="m119.57,154.63c-3.92-.04-7.11,3.08-7.17,7.02-.06,3.96,3.13,7.19,7.1,7.2,3.93,0,7.09-3.14,7.12-7.07.03-3.92-3.11-7.1-7.05-7.15Z"/><path class="cls-3" d="m157.64,116.64c-3.81,0-6.98,3.15-6.99,6.96,0,3.81,3.15,6.98,6.96,6.99,3.81,0,6.98-3.15,6.99-6.96,0-3.81-3.15-6.98-6.96-6.99Z"/><path class="cls-3" d="m139.12,199.89c.03-3.79-3.04-6.9-6.85-6.95-3.78-.05-6.9,3.01-6.97,6.83-.03,1.71.58,3.28,1.62,4.51l1.24-2.44,1.88,4.57c.68.23,1.41.36,2.17.36,3.79,0,6.89-3.08,6.92-6.88Z"/><path class="cls-3" d="m176.13,199.85c0,.95.19,1.86.54,2.69l6.21,4.22s.08,0,.13,0c1.92.01,3.66-.77,4.92-2.03l-2.45-11.33c-.73-.28-1.52-.44-2.35-.46-3.81-.07-7,3.07-7,6.91Z"/><path class="cls-3" d="m119.5,180.32c-3.79,0-6.81,3-6.83,6.78-.02,3.84,3,6.88,6.84,6.88,3.79,0,6.81-3,6.83-6.78.02-3.84-3-6.88-6.84-6.88Z"/><path class="cls-3" d="m202.59,187.22c.03-3.85-2.99-6.9-6.83-6.9-3.45,0-6.24,2.46-6.76,5.74l10.87,6.57c1.64-1.23,2.7-3.18,2.72-5.41Z"/><path class="cls-3" d="m195.87,129.66c-3.66-.07-6.65,2.78-6.77,6.46-.12,3.7,2.76,6.75,6.48,6.86,3.7.11,6.74-2.79,6.83-6.51.09-3.7-2.82-6.73-6.54-6.8Z"/><path class="cls-3" d="m163.73,212.57c0,3.41,2.52,6.16,5.82,6.54l.25-13.12c-3.43.27-6.07,3.08-6.07,6.58Z"/><path class="cls-3" d="m119.51,142.95c3.68,0,6.6-2.9,6.62-6.58.02-3.73-2.91-6.68-6.63-6.68-3.68,0-6.6,2.9-6.62,6.58-.02,3.73,2.91,6.68,6.63,6.68Z"/><path class="cls-3" d="m132.19,130.21c3.68,0,6.61-2.9,6.62-6.57,0-3.68-2.9-6.61-6.57-6.62-3.68,0-6.61,2.9-6.62,6.57,0,3.68,2.9,6.61,6.57,6.62Z"/><path class="cls-3" d="m183.02,117.02c-3.67,0-6.58,2.94-6.57,6.62,0,3.67,2.94,6.58,6.62,6.57,3.67,0,6.58-2.94,6.57-6.62,0-3.67-2.94-6.58-6.62-6.57Z"/><path class="cls-3" d="m138.32,212.58c0,2.33,1.18,4.34,2.97,5.51l2.76-12.06c-3.26.42-5.73,3.16-5.73,6.55Z"/><path class="cls-3" d="m149.58,207.87l1.5,2.32c-.33-.88-.84-1.67-1.5-2.32Z"/><path class="cls-3" d="m206.45,180.61l-3.95-8.73c-.34.78-.53,1.63-.54,2.52-.03,2.86,1.87,5.35,4.49,6.22Z"/><path class="cls-3" d="m208.47,167.94c-2.13,0-4.04,1.05-5.24,2.67l11.72,3.78c-.03-3.53-2.95-6.43-6.48-6.45Z"/><path class="cls-3" d="m106.92,167.99c-3.51-.09-6.43,2.68-6.58,6.25-.15,3.55,2.66,6.53,6.27,6.67,3.55.13,6.53-2.69,6.64-6.3.11-3.55-2.73-6.52-6.33-6.61Z"/><path class="cls-3" d="m208.49,142.65c-3.56-.01-6.4,2.79-6.41,6.35-.01,3.56,2.79,6.4,6.35,6.41,1.2,0,2.32-.32,3.27-.88l-2.26-3.77,5.37-1.07c.02-.21.03-.41.03-.63.01-3.56-2.79-6.4-6.35-6.41Z"/><path class="cls-3" d="m106.68,155.39c3.57.04,6.45-2.77,6.48-6.3.02-3.51-2.77-6.38-6.25-6.42-3.57-.04-6.45,2.77-6.48,6.3-.02,3.51,2.77,6.38,6.25,6.42Z"/><path class="cls-3" d="m144.71,117.14c3.44.14,6.32-2.55,6.44-6.04.12-3.45-2.58-6.31-6.07-6.42-3.45-.11-6.3,2.62-6.39,6.1-.09,3.41,2.57,6.22,6.02,6.36Z"/><path class="cls-3" d="m170.36,117.14c3.47-.02,6.25-2.83,6.21-6.29-.04-3.47-2.86-6.24-6.32-6.18-3.43.06-6.15,2.81-6.15,6.24,0,3.47,2.8,6.25,6.26,6.24Z"/><path class="cls-3" d="m157.61,219.23c-.23,0-.45.02-.67.04l5.87,9.08c.54-.9.86-1.95.86-3.07.01-3.32-2.74-6.07-6.06-6.06Z"/><path class="cls-3" d="m119.51,206.61c-3.35,0-5.97,2.63-5.97,5.97,0,3.3,2.6,5.91,5.89,5.94.07,0,.14,0,.21,0l4.77-9.35c-1.06-1.55-2.85-2.56-4.9-2.56Z"/><path class="cls-3" d="m112.73,199.87c0-3.28-2.6-5.92-5.86-5.94-3.34-.02-5.99,2.6-6,5.92,0,.69.12,1.35.33,1.97l2.19-2.29.92,5.72c.74.34,1.56.54,2.43.54,3.34.02,5.99-2.6,6-5.92Z"/><path class="cls-3" d="m208.54,193.92c-1.56-.01-2.98.56-4.05,1.5l9.73,5.88c.1-.42.16-.85.17-1.3.05-3.36-2.53-6.05-5.85-6.08Z"/><path class="cls-3" d="m219.35,167.29l-3.94-6.57c-.06.35-.1.71-.09,1.08.04,2.55,1.73,4.72,4.04,5.49Z"/><path class="cls-3" d="m94.13,155.93c-3.18-.03-5.78,2.51-5.84,5.71-.07,3.21,2.53,5.87,5.76,5.9,3.18.03,5.78-2.51,5.84-5.71.07-3.21-2.53-5.87-5.76-5.9Z"/><path class="cls-3" d="m136.05,221.02l1.87,4.53c0-.08.01-.17.01-.25,0-1.72-.72-3.23-1.88-4.28Z"/><path class="cls-3" d="m208.56,117.92c-3.16-.04-5.76,2.46-5.8,5.59-.04,3.16,2.46,5.76,5.59,5.8,3.16.04,5.76-2.46,5.8-5.59.04-3.16-2.46-5.76-5.59-5.8Z"/><path class="cls-3" d="m106.79,129.31c3.15,0,5.71-2.56,5.7-5.72,0-3.1-2.54-5.65-5.64-5.67-3.16-.03-5.74,2.52-5.75,5.66-.01,3.15,2.54,5.72,5.69,5.73Z"/><path class="cls-3" d="m195.68,116.59c3.08.04,5.68-2.46,5.75-5.55.07-3.12-2.48-5.76-5.6-5.81-3.08-.04-5.68,2.46-5.75,5.55-.07,3.12,2.48,5.76,5.6,5.81Z"/><path class="cls-3" d="m119.52,116.58c3.09,0,5.65-2.57,5.66-5.66,0-3.08-2.55-5.66-5.63-5.68-3.12-.02-5.74,2.59-5.71,5.71.03,3.09,2.6,5.64,5.69,5.63Z"/><path class="cls-3" d="m94.08,181.51c-3.08,0-5.66,2.59-5.64,5.67.02,3.05,2.53,5.57,5.59,5.61,3.07.04,5.67-2.53,5.69-5.61.02-3.07-2.56-5.67-5.64-5.66Z"/><path class="cls-3" d="m157.63,103.84c3.08,0,5.66-2.6,5.63-5.67-.03-3.09-2.63-5.65-5.7-5.61-3.06.05-5.56,2.57-5.58,5.62-.02,3.07,2.57,5.67,5.64,5.66Z"/><path class="cls-3" d="m215.7,136.32c0,3.02,2.49,5.5,5.52,5.47,1.91-.02,3.6-1.04,4.56-2.56l-7.52-7.52c-1.53.97-2.55,2.68-2.56,4.61Z"/><path class="cls-3" d="m94.1,141.78c2.97,0,5.44-2.47,5.45-5.44,0-2.97-2.44-5.45-5.42-5.48-2.97-.02-5.46,2.41-5.5,5.39-.04,3.02,2.45,5.54,5.47,5.53Z"/><path class="cls-3" d="m182.97,103.52c2.99.03,5.37-2.29,5.39-5.27.02-2.99-2.31-5.35-5.3-5.36-2.95,0-5.29,2.28-5.34,5.22-.05,3,2.26,5.38,5.24,5.42Z"/><path class="cls-3" d="m132.13,103.51c3.01.04,5.38-2.29,5.39-5.28.01-2.96-2.28-5.3-5.23-5.33-3.01-.04-5.38,2.29-5.39,5.28-.01,2.96,2.28,5.3,5.23,5.33Z"/><path class="cls-3" d="m169.18,238.22l.1-5.37c-1.01.21-1.93.73-2.64,1.44l2.54,3.93Z"/><path class="cls-3" d="m81.33,169.43c-2.7.03-4.94,2.27-4.97,4.97-.02,2.74,2.26,5.04,5,5.05,2.74,0,5.03-2.29,5.02-5.03-.01-2.74-2.32-5.02-5.06-4.99Z"/><path class="cls-3" d="m229.51,146.75l3.15-.63-1.31-1.31c-.78.47-1.41,1.14-1.84,1.94Z"/><path class="cls-3" d="m81.27,153.93c2.75.06,4.98-2.09,5.01-4.85.03-2.71-2.08-4.89-4.79-4.95-2.75-.06-4.98,2.09-5.01,4.85-.03,2.71,2.08,4.89,4.79,4.95Z"/><path class="cls-3" d="m111.67,225.23c-.02-2.72-2.17-4.84-4.89-4.83-.02,0-.04,0-.05,0l1.52,9.51c2.01-.61,3.44-2.44,3.42-4.68Z"/><path class="cls-3" d="m89.25,212.53c0,.53.1,1.03.25,1.51l5.86-6.13c-.42-.11-.86-.19-1.32-.19-2.66.02-4.78,2.14-4.79,4.8Z"/><path class="cls-3" d="m170.31,90.24c2.58.02,4.75-2.14,4.77-4.73.02-2.58-2.14-4.75-4.73-4.77-2.58-.02-4.75,2.14-4.77,4.73-.02,2.58,2.14,4.75,4.73,4.77Z"/><path class="cls-3" d="m144.92,90.24c2.59,0,4.75-2.17,4.75-4.75,0-2.59-2.17-4.75-4.75-4.75-2.59,0-4.75,2.17-4.75,4.75,0,2.59,2.17,4.75,4.75,4.75Z"/><path class="cls-3" d="m85.1,197.29l.29,4.63c.33-.62.53-1.32.54-2.06,0-.95-.31-1.83-.83-2.57Z"/><path class="cls-3" d="m76.83,199.8c0,.15.03.29.04.43l5.03-4.86c-.16-.02-.32-.05-.49-.06-2.45-.02-4.53,2.02-4.58,4.49Z"/><path class="cls-3" d="m221.08,115.46c1.53.04,2.93-.75,3.78-1.95l-7.81-4.49c-.27.56-.43,1.19-.44,1.84-.04,2.44,1.99,4.54,4.47,4.6Z"/><path class="cls-3" d="m94.14,115.46c2.47-.04,4.52-2.12,4.5-4.57-.02-2.46-2.09-4.52-4.54-4.53-2.45,0-4.53,2.05-4.55,4.51-.03,2.49,2.11,4.62,4.6,4.58Z"/><path class="cls-3" d="m106.85,102.68c2.47-.03,4.42-2.01,4.43-4.47,0-2.51-2.03-4.51-4.53-4.48-2.47.03-4.42,2.01-4.43,4.47,0,2.51,2.03,4.51,4.53,4.48Z"/><path class="cls-3" d="m208.49,102.68c2.47-.02,4.43-1.99,4.45-4.45.02-2.5-2-4.52-4.51-4.5-2.51.02-4.5,2.06-4.45,4.56.05,2.47,2.04,4.41,4.51,4.39Z"/><path class="cls-3" d="m236.4,120.14l-.85-.49c-.49-.21-1.02-.34-1.59-.36-2.34-.07-4.36,1.89-4.41,4.26-.02.88.25,1.71.71,2.41l7.91-2.22s.01-.08.01-.12c0-1.41-.71-2.68-1.79-3.48Z"/><path class="cls-3" d="m81.24,127.89c2.32.09,4.28-1.73,4.41-4.09.13-2.35-1.74-4.37-4.14-4.47-2.32-.09-4.28,1.73-4.41,4.09-.13,2.35,1.74,4.37,4.14,4.47Z"/><path class="cls-3" d="m119.5,89.66c2.3,0,4.18-1.89,4.16-4.19-.01-2.3-1.91-4.16-4.21-4.14-2.29.03-4.15,1.94-4.11,4.24.04,2.25,1.9,4.08,4.16,4.08Z"/><path class="cls-3" d="m195.77,89.66c2.3,0,4.17-1.9,4.15-4.2-.02-2.25-1.87-4.1-4.12-4.12-2.3-.02-4.19,1.85-4.2,4.15,0,2.3,1.88,4.18,4.18,4.17Z"/><path class="cls-3" d="m68.67,157.61c-2.23,0-4.11,1.87-4.13,4.1-.02,2.26,1.92,4.19,4.18,4.15,2.23-.04,4.09-1.93,4.07-4.16-.02-2.23-1.9-4.1-4.13-4.1Z"/><path class="cls-3" d="m68.66,191.07c2.12,0,3.91-1.76,3.93-3.89.02-2.12-1.73-3.92-3.86-3.96-.86-.02-1.66.27-2.32.75l-.86,5.51c.72.95,1.85,1.59,3.11,1.59Z"/><path class="cls-3" d="m157.58,76.57c2.15.02,3.82-1.63,3.83-3.77,0-2.1-1.6-3.76-3.69-3.8-2.15-.05-3.85,1.58-3.89,3.72-.03,2.15,1.61,3.84,3.74,3.86Z"/><path class="cls-3" d="m68.7,140.05c2.03-.01,3.68-1.66,3.7-3.7.01-2.08-1.67-3.76-3.75-3.75-2.03.01-3.68,1.66-3.7,3.7-.01,2.08,1.67,3.76,3.75,3.75Z"/><path class="cls-3" d="m132.15,76.29c1.95.03,3.56-1.55,3.56-3.5,0-1.91-1.54-3.48-3.45-3.51-1.95-.03-3.56,1.55-3.56,3.5,0,1.91,1.54,3.48,3.45,3.51Z"/><path class="cls-3" d="m183.08,76.3c1.92-.02,3.46-1.57,3.47-3.49,0-1.97-1.57-3.54-3.54-3.53-1.92.02-3.46,1.57-3.47,3.49,0,1.97,1.57,3.54,3.54,3.53Z"/><path class="cls-3" d="m230.99,97.63l3.38-2.33c-.17-.03-.34-.05-.52-.05-1.44.01-2.6,1.03-2.86,2.37Z"/><path class="cls-3" d="m221.07,88.38c1.29.03,2.35-.71,2.77-1.82l-5.52-1.53c-.02.15-.04.3-.05.46,0,1.6,1.21,2.86,2.79,2.89Z"/><path class="cls-3" d="m81.36,101.09c1.65.01,2.91-1.24,2.91-2.89,0-1.64-1.27-2.89-2.92-2.88-1.6.01-2.83,1.24-2.85,2.83-.02,1.65,1.22,2.93,2.86,2.94Z"/><path class="cls-3" d="m94.14,88.36c1.58-.02,2.82-1.28,2.82-2.87,0-1.63-1.29-2.9-2.92-2.87-1.58.02-2.82,1.28-2.82,2.87,0,1.63,1.29,2.9,2.92,2.87Z"/><path class="cls-3" d="m56.11,171.61c-1.56-.08-2.92,1.16-2.98,2.72-.07,1.56,1.19,2.9,2.75,2.96,1.56.05,2.89-1.21,2.93-2.78.03-1.52-1.17-2.82-2.7-2.9Z"/><path class="cls-3" d="m58.74,149.05c.01-1.46-1.2-2.72-2.68-2.79-1.5-.07-2.82,1.18-2.87,2.7-.05,1.5,1.22,2.82,2.73,2.84,1.5.03,2.81-1.25,2.82-2.76Z"/><path class="cls-3" d="m68.61,113.53c1.43.03,2.66-1.15,2.68-2.59.02-1.39-1.11-2.59-2.5-2.65-1.43-.07-2.68,1.1-2.73,2.53-.05,1.43,1.12,2.67,2.56,2.71Z"/><path class="cls-3" d="m208.52,75.22c1.36-.03,2.39-1.1,2.38-2.47-.01-1.36-1.07-2.41-2.44-2.41-1.36,0-2.42,1.05-2.43,2.41-.01,1.41,1.08,2.49,2.49,2.46Z"/><path class="cls-3" d="m106.85,75.22c1.36-.03,2.39-1.1,2.38-2.47-.01-1.36-1.07-2.41-2.44-2.41-1.36,0-2.42,1.05-2.43,2.41-.01,1.41,1.08,2.49,2.49,2.46Z"/><path class="cls-3" d="m167.9,60.09c0,1.36,1.06,2.42,2.42,2.42,1.37,0,2.43-1.03,2.45-2.39,0-.13-.01-.26-.03-.38l-.46.46-.72-2.23c-.34-.19-.73-.32-1.16-.33-1.41-.03-2.51,1.04-2.51,2.45Z"/><path class="cls-3" d="m144.95,62.5c1.35-.02,2.4-1.1,2.39-2.45-.02-1.35-1.1-2.4-2.45-2.39-1.35.02-2.4,1.1-2.39,2.45.02,1.35,1.1,2.4,2.45,2.39Z"/><path class="cls-3" d="m55.98,125.6c1.13,0,1.99-.9,1.97-2.03-.02-1.08-.87-1.92-1.95-1.94-1.13-.02-2.02.85-2.02,1.98,0,1.13.88,2.01,2.01,2Z"/><path class="cls-3" d="m119.45,61.85c1.02.03,1.81-.73,1.83-1.75.01-1.02-.75-1.8-1.77-1.8-.98,0-1.73.72-1.77,1.69-.04,1.02.71,1.83,1.72,1.85Z"/></g></svg>