<?xml version="1.0" encoding="UTF-8"?><svg id="Btn-search-list" xmlns="http://www.w3.org/2000/svg" xmlns:xlink="http://www.w3.org/1999/xlink" viewBox="0 0 256 256"><defs><style>.cls-1{fill:#ff8400;}.cls-2{filter:url(#drop-shadow-9);}.cls-2,.cls-3,.cls-4,.cls-5{fill:#fff;}.cls-3{filter:url(#drop-shadow-8);}.cls-6{fill:#ff440a;}.cls-4{filter:url(#drop-shadow-7);}.cls-5{filter:url(#drop-shadow-6);}</style><symbol id="Btn_orange" viewBox="0 0 255.38 255.38"><circle id="Black" cx="127.69" cy="127.69" r="127.69"/><circle id="Orange" class="cls-1" cx="119.94" cy="130.44" r="114.94"/><path id="Shadow" class="cls-6" d="m139.94,215.38c-63.48,0-114.94-51.46-114.94-114.94,0-17.1,7.53-33.32,14.22-47.9-18.89,20.48-30.67,47.84-30.67,77.9,0,63.48,48,108.61,111.39,114.94,46.16,4.61,86.35-27.48,104.51-67.04-21,22.77-51.09,37.04-84.51,37.04Z"/></symbol><filter id="drop-shadow-6" filterUnits="userSpaceOnUse"><feOffset dx="8" dy="-2"/><feGaussianBlur result="blur" stdDeviation="0"/><feFlood flood-color="#000" flood-opacity=".6"/><feComposite in2="blur" operator="in"/><feComposite in="SourceGraphic"/></filter><filter id="drop-shadow-7" filterUnits="userSpaceOnUse"><feOffset dx="8" dy="-2"/><feGaussianBlur result="blur-2" stdDeviation="0"/><feFlood flood-color="#000" flood-opacity=".6"/><feComposite in2="blur-2" operator="in"/><feComposite in="SourceGraphic"/></filter><filter id="drop-shadow-8" filterUnits="userSpaceOnUse"><feOffset dx="8" dy="-2"/><feGaussianBlur result="blur-3" stdDeviation="0"/><feFlood flood-color="#000" flood-opacity=".6"/><feComposite in2="blur-3" operator="in"/><feComposite in="SourceGraphic"/></filter><filter id="drop-shadow-9" filterUnits="userSpaceOnUse"><feOffset dx="12" dy="-4"/><feGaussianBlur result="blur-4" stdDeviation="0"/><feFlood flood-color="#000" flood-opacity=".6"/><feComposite in2="blur-4" operator="in"/><feComposite in="SourceGraphic"/></filter></defs><use width="255.38" height="255.38" transform="translate(.31 .31)" xlink:href="#Btn_orange"/><g id="list"><path class="cls-5" d="m116.74,174.58c37-3.11,82.81-4.31,93.66-.31v-11.39l-93.66-7.28v18.98Z"/><path class="cls-4" d="m116.74,118.35v19.31c37.33-3.23,84.62-4.56,95.67-.48v-11.39s-95.67-7.44-95.67-7.44Z"/><path class="cls-3" d="m116.74,100.4c37-3.11,82.81-4.31,93.66-.31v-11.39l-93.66-7.28v18.98Z"/></g><path id="icon" class="cls-2" d="m91.58,154.74c21.16-10.46,34.07-35.41,26.3-58.34-8.9-26.27-38.5-41.69-66.11-34.44-27.61,7.25-42.77,34.41-33.86,60.68,8.38,24.73,35.1,39.84,61.24,35.48l25.26,59.14,23.58-.27-36.41-62.25Zm-62.06-35.14c-6.84-20.17,4.8-41.03,26-46.59,21.2-5.56,43.92,6.28,50.75,26.44,6.84,20.17-4.8,41.03-26,46.59-21.2,5.56-43.92-6.28-50.75-26.44Z"/></svg>