<?xml version="1.0" encoding="UTF-8"?><svg id="Btn_random" xmlns="http://www.w3.org/2000/svg" xmlns:xlink="http://www.w3.org/1999/xlink" viewBox="0 0 256 256"><defs><style>.cls-1{fill:#4187e6;}.cls-2{filter:url(#drop-shadow-9);}.cls-2,.cls-3{fill:#fff;fill-rule:evenodd;}.cls-3{filter:url(#drop-shadow-8);}.cls-4{fill:#3b56fd;}</style><symbol id="Btn_blue" viewBox="0 0 255.38 255.38"><circle id="Black" cx="127.69" cy="127.69" r="127.69"/><circle id="Orange" class="cls-1" cx="119.94" cy="130.44" r="114.94"/><path id="Shadow" class="cls-4" d="m139.94,215.38c-63.48,0-114.94-51.46-114.94-114.94,0-17.1,7.53-33.32,14.22-47.9-18.89,20.48-30.67,47.84-30.67,77.9,0,63.48,48,108.61,111.39,114.94,46.16,4.61,86.35-27.48,104.51-67.04-21,22.77-51.09,37.04-84.51,37.04Z"/></symbol><filter id="drop-shadow-8" filterUnits="userSpaceOnUse"><feOffset dx="12" dy="-4"/><feGaussianBlur result="blur" stdDeviation="0"/><feFlood flood-color="#000" flood-opacity=".6"/><feComposite in2="blur" operator="in"/><feComposite in="SourceGraphic"/></filter><filter id="drop-shadow-9" filterUnits="userSpaceOnUse"><feOffset dx="12" dy="-4"/><feGaussianBlur result="blur-2" stdDeviation="0"/><feFlood flood-color="#000" flood-opacity=".6"/><feComposite in2="blur-2" operator="in"/><feComposite in="SourceGraphic"/></filter></defs><use width="255.38" height="255.38" transform="translate(.31 .31)" xlink:href="#Btn_blue"/><g id="arrows"><path id="bottom" class="cls-3" d="m165.08,133l-13.47,13.49,20.81,18.96c-4.03.64-10.89-.02-20.15-7.23-44.49-34.64-16.92-86.74-112.78-85.56,0,0,13.01,35.66,13,35.67,78-11.33,39.67,36.33,94.67,60.65,10.52,4.65,18.78,4.88,24.04,4.18l-19.59,16.07,13.47,15.74,31.42-33.73-31.42-38.23Z"/><path id="top" class="cls-2" d="m162.86,51.03l-13.47,13.49,20.01,18.23c-5.26-.41-12.85.22-22.23,4.37-55,24.32-16.67,71.98-94.67,60.65.01,0-13,35.67-13,35.67,95.86,1.18,68.28-50.91,112.78-85.56,7.52-5.86,13.46-7.39,17.58-7.41l-20.47,16.79,13.47,15.74,31.42-33.73-31.42-38.23Z"/></g></svg>