<?xml version="1.0" encoding="UTF-8"?><svg id="Btn_History" xmlns="http://www.w3.org/2000/svg" xmlns:xlink="http://www.w3.org/1999/xlink" viewBox="0 0 255.38 255.38"><defs><style>.cls-1{filter:url(#drop-shadow-36);}.cls-1,.cls-2,.cls-3,.cls-4,.cls-5,.cls-6,.cls-7{fill:#fff;}.cls-2{filter:url(#drop-shadow-30);}.cls-8{fill:#ff8400;}.cls-3{filter:url(#drop-shadow-32);}.cls-9{fill:#ff440a;}.cls-4{filter:url(#drop-shadow-34);}.cls-5{filter:url(#drop-shadow-31);}.cls-6{filter:url(#drop-shadow-33);}.cls-7{filter:url(#drop-shadow-35);}</style><symbol id="Btn_orange" viewBox="0 0 255.38 255.38"><circle id="Black" cx="127.69" cy="127.69" r="127.69"/><circle id="Orange" class="cls-8" cx="119.94" cy="130.44" r="114.94"/><path id="Shadow" class="cls-9" d="m139.94,215.38c-63.48,0-114.94-51.46-114.94-114.94,0-17.1,7.53-33.32,14.22-47.9-18.89,20.48-30.67,47.84-30.67,77.9,0,63.48,48,108.61,111.39,114.94,46.16,4.61,86.35-27.48,104.51-67.04-21,22.77-51.09,37.04-84.51,37.04Z"/></symbol><filter id="drop-shadow-30" filterUnits="userSpaceOnUse"><feOffset dx="12" dy="-4"/><feGaussianBlur result="blur" stdDeviation="0"/><feFlood flood-color="#000" flood-opacity=".6"/><feComposite in2="blur" operator="in"/><feComposite in="SourceGraphic"/></filter><filter id="drop-shadow-31" filterUnits="userSpaceOnUse"><feOffset dx="12" dy="-4"/><feGaussianBlur result="blur-2" stdDeviation="0"/><feFlood flood-color="#000" flood-opacity=".6"/><feComposite in2="blur-2" operator="in"/><feComposite in="SourceGraphic"/></filter><filter id="drop-shadow-32" filterUnits="userSpaceOnUse"><feOffset dx="12" dy="-4"/><feGaussianBlur result="blur-3" stdDeviation="0"/><feFlood flood-color="#000" flood-opacity=".6"/><feComposite in2="blur-3" operator="in"/><feComposite in="SourceGraphic"/></filter><filter id="drop-shadow-33" filterUnits="userSpaceOnUse"><feOffset dx="12" dy="-4"/><feGaussianBlur result="blur-4" stdDeviation="0"/><feFlood flood-color="#000" flood-opacity=".6"/><feComposite in2="blur-4" operator="in"/><feComposite in="SourceGraphic"/></filter><filter id="drop-shadow-34" filterUnits="userSpaceOnUse"><feOffset dx="12" dy="-4"/><feGaussianBlur result="blur-5" stdDeviation="0"/><feFlood flood-color="#000" flood-opacity=".6"/><feComposite in2="blur-5" operator="in"/><feComposite in="SourceGraphic"/></filter><filter id="drop-shadow-35" filterUnits="userSpaceOnUse"><feOffset dx="12" dy="-4"/><feGaussianBlur result="blur-6" stdDeviation="0"/><feFlood flood-color="#000" flood-opacity=".6"/><feComposite in2="blur-6" operator="in"/><feComposite in="SourceGraphic"/></filter><filter id="drop-shadow-36" filterUnits="userSpaceOnUse"><feOffset dx="12" dy="-4"/><feGaussianBlur result="blur-7" stdDeviation="0"/><feFlood flood-color="#000" flood-opacity=".6"/><feComposite in2="blur-7" operator="in"/><feComposite in="SourceGraphic"/></filter></defs><use width="255.38" height="255.38" xlink:href="#Btn_orange"/><g id="list"><path class="cls-2" d="m115.34,82.33l-44.81-3.14v20.82c15.52-1.18,32.32-2.1,48.2-2.63l-3.4-15.04Z"/><path class="cls-5" d="m124.87,124.55l-.24-1.05-54.1-3.8v21.18c20.38-1.59,43.21-2.76,63.4-3.16-5.68-2.87-8.56-8.29-9.06-13.18Z"/><path class="cls-3" d="m23.89,188.88c4.99-1.68,15.6-3.36,29.23-4.88v-25.4l-25.13-1.76s-4.09,32.04-4.09,32.05Z"/><path class="cls-6" d="m162.71,178.56c1.9-3.48,3.63-7.23,5.03-11.17l-97.21-6.82v20.82c31.59-2.39,68.46-3.76,92.18-2.84Z"/><path class="cls-4" d="m26.34,148.18c4.69-1.58,14.33-3.16,26.77-4.6v-25.85l-22.68-1.59s-4.09,32.04-4.09,32.05Z"/><path class="cls-7" d="m23.89,107.48c4.99-1.68,15.6-3.36,29.23-4.88v-25.4l-25.13-1.76s-4.09,32.04-4.09,32.05Z"/></g><path id="arrow" class="cls-1" d="m123.6,73.51l11.19,49.58s.06,4.6,4.69,6.15c4.63,1.54,7.26-3.38,7.26-3.38l8.2-13.96s25.42-6.87,26.22,35.67c.66,35.17-31.03,63.43-31.03,63.43,0,0,55.44-19.4,65.1-68.31,9.99-50.54-37.37-66.62-37.37-66.62l8.43-14.92s2.78-3.71-.23-7.15c-3.01-3.44-6.08-2.51-6.08-2.51l-48.67,11.32s-5.74.69-7.45,3.43-.27,7.26-.27,7.26Z"/></svg>