<?xml version="1.0" encoding="UTF-8"?><svg id="Btn_Phone-group-leave" xmlns="http://www.w3.org/2000/svg" xmlns:xlink="http://www.w3.org/1999/xlink" viewBox="0 0 256 256"><defs><style>.cls-1{fill:#fff;}.cls-2{fill:none;mix-blend-mode:multiply;opacity:.6;}.cls-3{fill:#ff8400;}.cls-4{fill:#ff440a;}</style><symbol id="Btn-minus" viewBox="0 0 135.14 38.33"><g id="minus"><g class="cls-2"><path d="m73.57,1.13c-14.31.7-63.87.62-63.87.62v32.72s48.38-6,63.87-6.37c15.49-.37,60.32,4.14,60.32,4.14l-2.97-31.11s-43.04-.7-57.35,0Z"/><path d="m73.61,2.02c-9.29.4-22.56.56-31.97.69,0,0-31.95.24-31.95.24,0,0,1.2-1.2,1.2-1.2l.47,32.72-1.87-1.66c20.67-2.67,41.3-5.76,62.12-7.15,10.6-.13,20.9,1.07,31.37,2.02,10.36,1.03,20.69,2.2,31.02,3.45l-1.21,1.2c-.49-9.02-1.79-22.01-2.55-31.15,0,0,.67.62.67.61-18.77-.14-38.53-.47-57.3.2h0Zm-.09-1.77c18.85-.54,38.58-.07,57.41.2,0,0,.6.01.6.01l.06.6c.86,9.72,2.43,22.81,3.54,32.37-21.02-1.38-42.28-3.41-63.32-2.76-20.57,1.04-41.37,3.3-61.91,5.44,0,0-1.9.21-1.9.21l.03-1.86.47-32.72.02-1.2s1.19,0,1.19,0c18.51.02,45.59.32,63.83-.3h0Z"/></g><path class="cls-1" d="m65.57,3.13C51.26,3.83,1.69,3.75,1.69,3.75v32.72s48.38-6,63.87-6.37c15.49-.37,60.32,4.14,60.32,4.14l-2.97-31.11s-43.04-.7-57.35,0Z"/><path d="m65.61,4.02c-9.29.4-22.56.56-31.97.69,0,0-31.95.24-31.95.24,0,0,1.2-1.2,1.2-1.2l.47,32.72-1.87-1.66c20.67-2.67,41.3-5.76,62.12-7.15,10.6-.13,20.9,1.07,31.37,2.02,10.36,1.03,20.69,2.2,31.02,3.45l-1.21,1.2c-.49-9.02-1.79-22.01-2.55-31.15,0,0,.67.62.67.61-18.77-.14-38.53-.47-57.3.2h0Zm-.09-1.77c18.85-.54,38.58-.07,57.41.2,0,0,.6.01.6.01l.06.6c.86,9.72,2.43,22.81,3.54,32.37-21.02-1.38-42.28-3.41-63.32-2.76-20.57,1.04-41.37,3.3-61.91,5.44,0,0-1.9.21-1.9.21l.03-1.86L.49,3.75l.02-1.2s1.19,0,1.19,0c18.51.02,45.59.32,63.83-.3h0Z"/></g></symbol><symbol id="Btn_orange" viewBox="0 0 255.38 255.38"><circle id="Black" cx="127.69" cy="127.69" r="127.69"/><circle id="Orange" class="cls-3" cx="119.94" cy="130.44" r="114.94"/><path id="Shadow" class="cls-4" d="m139.94,215.38c-63.48,0-114.94-51.46-114.94-114.94,0-17.1,7.53-33.32,14.22-47.9-18.89,20.48-30.67,47.84-30.67,77.9,0,63.48,48,108.61,111.39,114.94,46.16,4.61,86.35-27.48,104.51-67.04-21,22.77-51.09,37.04-84.51,37.04Z"/></symbol></defs><use width="255.38" height="255.38" transform="translate(.31 .31)" xlink:href="#Btn_orange"/><g id="fist_bump"><g id="fist"><path d="m53.31,255.43c-1.8,0-3.37-.74-4.7-1.43l-.83-.43c-5-2.6-10.16-5.29-14.97-8.62-9.93-6.88-17.11-13.68-22.6-21.4-1.18-1.66-2.08-3.35-2.95-4.99-.35-.66-.7-1.32-1.07-1.97-.77-1.36-2.18-4.91,1.38-8.52,4.24-4.31,8.9-9.6,11.31-16.17.96-2.62.92-4.61-.15-6.65-2.87-5.45-3.77-11.57-2.78-18.7.75-5.32,1.59-11.35,1.79-17.13.31-8.97,13.99-41.24,26.73-41.24,1.04,0,2.05.19,3,.58,3.81,1.54,6.17,3.22,8.46,4.84.21.15.42.3.63.45,1.91-2.15,4.81-5.59,7.92-9.55,2.01-2.55,4.62-4.74,7.37-6.14,1.72-.88,3.85-1.37,6-1.37,1.12,0,2.21.13,3.22.39,5.63,1.44,10.23,4.77,13.61,7.52,1.45,1.18,2.55,2.61,3.24,4.19.32,0,.65.02.99.05,7.05.66,12.67,3.74,16.26,8.91,2.15,3.09,3.85,6.37,5.5,9.55.39.75.77,1.49,1.17,2.23,1.07.24,2.12.69,3.41,1.23l.15.06c5.27,2.23,8.78,5.65,10.72,10.46.34.85.84,1.76,1.37,2.73.28.51.56,1.02.83,1.54,1.96,3.79,1.83,7.82-.26,11.19.24.17.49.33.73.5,2.04,1.39,4.15,2.82,6.09,4.68,5.05,4.83,5.5,13.47.99,18.86-3.03,3.62-8.86,9.55-10.01,10.71-.72.85-4.49,5.32-4.49,5.32l-.09.1c-1.02,1.11-2.04,2.23-3.06,3.35-2.31,2.55-4.71,5.19-7.2,7.72-2.19,2.22-4.47,4.36-6.67,6.44-1.55,1.46-3.11,2.93-4.64,4.42-.62.61-1.24,1.23-1.86,1.86-3.08,3.11-6.27,6.33-10.63,8.56-2.32,1.19-4.89,2.11-7.63,2.74-2.5.58-4.97.88-7.37,1.17l-1.45.18c-4.58.58-8.08,2.34-11.01,5.54-1.01,1.11-2.05,2.17-3.06,3.19-2.6,2.65-5.06,5.14-6.67,8.1-.88,1.61-2.7,4.97-6.71,4.97Z"/><path class="cls-1" d="m119.52,129.84c-2.06-3.84-3.97-7.8-6.45-11.34-2.98-4.25-7.48-6.24-12.63-6.71-1.03-.1-1.88.04-2.59.76h0s-2.1-.9-2.1-.9c.23-1.89-.49-3.75-2.22-5.14-3.5-2.82-7.29-5.38-11.69-6.49-1.78-.45-4.11-.24-5.73.58-2.16,1.09-4.2,2.82-5.71,4.73-5.19,6.55-10.82,12.97-11.27,12.7-4.56-2.76-6.47-4.92-11.52-6.94-7.52-3.01-22.54,26.39-22.87,35.79-.21,5.84-1.02,11.68-1.84,17.49-.77,5.43-.35,10.59,2.24,15.47,1.86,3.5,1.78,7.01.42,10.66-2.61,7.03-7.28,12.59-12.45,17.8-.76.77-1.15,1.43-.58,2.43,1.24,2.16,2.29,4.45,3.74,6.46,5.79,8.06,13.27,14.42,21.37,19.98,4.8,3.3,10.07,5.96,15.26,8.64,2.76,1.42,3.29,1.17,4.73-1.46,2.64-4.81,6.81-8.24,10.44-12.16,3.84-4.15,8.53-6.36,14.06-7.05,2.79-.35,5.6-.62,8.33-1.24,2.22-.51,4.45-1.27,6.48-2.3,4.46-2.26,7.74-6.02,11.27-9.45,3.71-3.6,7.59-7.02,11.24-10.68,3.49-3.5,6.77-7.22,10.14-10.84.13-.16,4.57-5.35,4.57-5.35.08-.08,6.69-6.67,9.86-10.43,2.82-3.35,2.55-8.83-.61-11.82-2.32-2.2-5.16-3.85-7.78-5.72-.37-.26-.7-.36-1.02-.34,0,0,0,0,0,0l-1.39-2.51s0,0,0,0c.56-.56,1.12-1.12,1.66-1.69,1.97-2.07,2.36-4.62.97-7.27-.81-1.55-1.73-3.04-2.39-4.65-1.54-3.78-4.36-6.1-8.02-7.63-2.56-1.07-3.38-1.44-4.56-.71l-1.54-1.71c.17-.36.27-.73.17-.93Zm-72.22,2.14"/><path id="fingers" d="m118.85,131.53c-2.53,2.68-5.21,5.22-7.66,7.96-2.79,3.12-5.31,6.47-8.1,9.59-4.08,4.56-8.31,8.99-12.45,13.51-1.02,1.12-2.25,1.44-3.7,1.38-10.51-.45-15.42-8.1-14.01-17.68.29-1.97,2.13-3.71,3.26-5.55.08.05.16.1.25.15,2.49-3.36,4.95-6.75,7.48-10.07,3.07-4.02,6.21-7.99,9.3-11.99,1.41-1.83,2.9-3.61,4.09-5.58.43-.72.93-1.11,1.5-1.31-.9-.86-2.02-1.46-3.13-2.07.35,1.66-.1,3.46-1.33,5.07-3.15,4.12-6.39,8.16-9.56,12.27-3.05,3.95-6.04,7.95-9.11,11.89-.6.78-1.37,1.46-2.15,2.06-2.65,2-4.63,2.11-7.41.39-2.71-1.68-5.33-3.41-6.88-6.42-1.84-3.56-1.53-7.17.16-10.43,1.76-3.4,4.32-6.38,6.46-9.6,1.76-2.64,3.44-5.35,5.12-8.04.24-.39.32-.87.48-1.31l-.45-.3c-.93,1.24-1.85,2.48-2.79,3.71-2.79,3.67-5.52,7.4-8.41,11-2.94,3.68-4.42,7.87-4.06,12.49.48,6.12,8.84,13.5,15.55,11.84-.73,5.9-.5,11.64,3.55,16.4,4.14,4.86,9.67,5.65,15.7,4.77.03.09.15.27.12.43-.49,3.72,1.44,6.14,4.09,8.44,3.99,3.48,8.2,5.89,13.93,4.49-1.68,5.36,2.27,7.7,5.12,10.58.52.53,1.25.85,1.77,1.37,1.6,1.62,3.42,1.76,5.51,1.16,2.68-.77,5.4-1.38,8.11-2.06.13.17.26.34.39.51l3.99-4.8c-.78.64-1.86,1.04-2.85,1.36-3.44,1.1-6.91,2.16-10.41,3.07-.93.24-2.25.22-2.98-.28-2.04-1.39-4.07-2.91-5.73-4.72-3-3.27-2.76-5.82,1.71-10.4,4.23-3.62,9.88-8.43,15.51-13.25,1.52-1.3,3.08-2.56,4.51-3.94.76-.73,1.44-.97,2.29-.36-.29-1.67.22-3.41-.3-5.06-.14.18-.28.36-.44.53-2.62,2.74-5.44,5.3-8.29,7.81-4.5,3.95-9.11,7.77-13.64,11.69-.93.81-1.79,1.77-2.48,2.79-1.8,2.68-4.34,2.84-7.12,2.29-3.55-.7-5.92-3.27-8.52-5.47-1.34-1.14-2.49-2.33-2.4-4.37.08-1.72.27-3.15,1.55-4.56,3.28-3.59,6.33-7.38,9.48-11.09,0,0,.01.01.02.02,4.31-5.09,8.62-10.19,12.95-15.27.69-.8,1.5-1.5,2.26-2.23,1.65-1.57,2.37-2.24,3.34-2.27-.7-.91-1.62-1.56-2.53-2.22.15.37-.29,1.24-.68,1.66Z"/><path d="m106.14,188.27c-8.07-3.27-15.53-8.48-25.01-7.32,0-.28,0-.55,0-.83.61-.2,1.23-.63,1.82-.57,2.72.26,5.5.36,8.12,1.06,5.52,1.48,10.35,4.47,15.08,7.66Z"/><path d="m72.45,186.13c.04-2.48.04-4.88.11-7.27.18-6.32-.01-12.6-1.82-18.72-2.17-7.32-6.15-13.42-12.01-18.32-.53-.44-.84-1.15-1.26-1.73.75.24,1.64.29,2.22.74,5.76,4.43,9.61,10.27,11.92,17.07,3.12,9.2,3.07,18.61,1.22,28.07,0,.03-.1.05-.38.16Z"/><path class="cls-1" d="m59.75,117.28c5.89,4.47,10.64,8.68,16.53,13.15,2.8,2.12,16.29,13.83,18.06,16.85,4.88,8.32-6.9,10.79-13.08,10.32-15.22-1.17-28.97-14.05-30.39-19.81"/><path d="m59.17,118.91c4.21,3.2,8.25,6.61,12.38,9.91,2.36,1.89,4.78,3.69,7.09,5.65,4.6,3.9,9.25,7.88,13.36,12.29.52.56,1.07,1.15,1.48,1.82.32.53.59,1.14.72,1.75.1.48.11.77,0,1.09-.82,2.27-3.93,3.27-6.08,3.79-7.11,1.69-14.59-.44-20.9-3.77-3.81-2.01-7.35-4.59-10.43-7.61-1.19-1.17-2.3-2.42-3.27-3.79-.32-.46-.7-1.04-.93-1.46-.14-.27-.27-.55-.39-.83-.04-.1-.08-.21-.12-.32-.13-.36.05.23-.05-.16-.18-.68-.69-1.59-1.53-1.26-.79.31-.98,1.61-.8,2.31.73,2.81,2.59,5.17,4.51,7.28,2.62,2.88,5.7,5.35,8.99,7.43,6.82,4.32,15.19,7.46,23.37,6.2,2.91-.45,6.21-1.32,8.29-3.56,2.43-2.61,2.18-6.29.56-9.25-1.18-2.17-3.22-3.93-4.98-5.62-2.52-2.43-5.12-4.77-7.76-7.07-2.35-2.05-4.73-4.04-7.2-5.95-5.12-3.96-10.03-8.19-15.17-12.11-1.6-1.22-2.37,2.31-1.15,3.24h0Z"/><path d="m39.53,151.97c3.15.26,6.4.4,9.49-.39s5.6-2.47,7.82-4.62c.3-.29.18-1.16.15-1.53-.01-.12-.12-1.08-.35-.86-2.24,2.17-4.84,3.85-7.89,4.58s-6.19.59-9.28.33c-.32-.03-.41,2.44.06,2.48h0Z"/></g><g id="fist-2"><path d="m182.75,150.81c-2.95,0-5.82-.94-8.07-2.66-2.13-1.63-3.88-3.49-5.57-5.29-.2-.22-.41-.43-.61-.65-1.99,1.78-4.44,2.74-7.1,2.74-1.24,0-2.52-.21-3.79-.63-.55-.18-1.1-.37-1.64-.57-1.03-.37-2-.71-2.89-.91-5.02-1.15-8.94-4.08-11.98-8.96l-.09-.14c-.64-1.03-1.29-2.07-1.74-3.18-.8-.27-1.6-.54-2.39-.8-3.37-1.12-6.85-2.28-10.23-3.91-5.64-2.72-9.57-7.82-11.38-14.73-.09-.33-.16-.66-.21-.98-1.67-.43-3.24-1.29-4.63-2.54-3.24-2.92-7.26-6.95-9.58-12.32-1.24-2.87-1.46-6.45-.56-9.34.92-2.96,2.62-5.93,4.78-8.35,3.36-3.75,6.24-7.2,8.03-9.46-.18-.19-.36-.37-.54-.56-1.96-2.01-3.98-4.09-6.11-7.63-1.06-1.76-1.95-4.74-.14-8.91,4.52-10.43,26.15-25.58,34.96-27.39,5.6-1.15,11.36-2.98,16.44-4.6,3.6-1.15,6.93-1.71,10.18-1.71,2.92,0,5.79.47,8.54,1.4.78.26,1.51.39,2.24.39,1.33,0,2.73-.43,4.27-1.33,6.02-3.49,10.42-9,13.93-13.93,1.52-2.14,3.43-3.23,5.66-3.23.81,0,1.62.15,2.43.45.7.26,1.4.5,2.11.74,1.74.6,3.54,1.21,5.36,2.12,8.43,4.2,16.26,10.23,24.61,19,4.04,4.24,7.52,8.95,10.88,13.5l.56.76c3.44,4.66,2.95,8.34-1.58,11.95-2.62,2.09-4.66,4.95-6.82,7.98-.83,1.17-1.69,2.38-2.61,3.57-2.65,3.45-3.79,7.22-3.6,11.88l.06,1.47c.11,2.43.23,4.95.07,7.54-.17,2.84-.65,5.55-1.42,8.05-1.46,4.71-4.08,8.42-6.61,12-.51.72-1.01,1.43-1.51,2.16-1.21,1.77-2.38,3.56-3.56,5.35-1.66,2.53-3.37,5.15-5.18,7.69-2.06,2.9-4.25,5.72-6.36,8.45-.92,1.19-1.85,2.39-2.76,3.59l-.08.1s-3.75,4.5-4.46,5.36c-1.17,1.65-5.82,8.18-8.81,11.73-2.52,2.99-6.45,4.78-10.51,4.78Z"/><path class="cls-1" d="m139.07,128.32c-4.12-1.4-8.34-2.63-12.25-4.5-4.68-2.24-7.38-6.35-8.7-11.35-.26-1-.27-1.86.32-2.68h0s-1.23-1.93-1.23-1.93c-1.82.54-3.78.13-5.43-1.34-3.36-2.99-6.51-6.31-8.33-10.47-.74-1.68-.91-4.02-.37-5.75.72-2.31,2.09-4.6,3.72-6.41,5.6-6.2,11.02-12.81,10.68-13.2-3.47-4.05-5.92-5.58-8.74-10.22-4.21-6.92,22.33-26.57,31.54-28.44,5.73-1.16,11.36-2.92,16.95-4.69,5.23-1.65,10.39-2.09,15.62-.33,3.76,1.26,7.21.6,10.59-1.34,6.5-3.73,11.22-9.25,15.51-15.21.63-.88,1.22-1.37,2.3-.97,2.33.86,4.77,1.53,6.99,2.62,8.91,4.39,16.41,10.72,23.22,17.79,4.04,4.2,7.54,8.95,11.03,13.63,1.86,2.49,1.7,3.05-.67,4.91-4.31,3.39-7,8.07-10.28,12.3-3.47,4.47-4.87,9.46-4.64,15.03.12,2.81.31,5.62.14,8.42-.14,2.28-.52,4.6-1.2,6.77-1.5,4.77-4.67,8.62-7.46,12.67-2.94,4.25-5.68,8.64-8.69,12.84-2.88,4.02-6.01,7.86-9.02,11.78-.13.15-4.53,5.38-4.53,5.38-.06.09-5.48,7.69-8.67,11.44-2.84,3.34-8.29,3.97-11.76,1.34-2.55-1.93-4.64-4.45-6.93-6.73-.32-.32-.47-.63-.5-.95,0,0,0,0,0,0l-2.7-.96s0,0,0,0c-.46.65-.92,1.29-1.39,1.92-1.71,2.28-4.17,3.08-7.01,2.16-1.66-.54-3.29-1.21-4.98-1.59-3.98-.9-6.73-3.29-8.85-6.66-1.48-2.35-1.98-3.1-1.45-4.38l-1.94-1.24c-.33.23-.68.39-.89.32Zm-9.77-71.59"/><path id="fingers-2" d="m140.62,127.39c2.23-2.93,4.29-6,6.59-8.87,2.61-3.26,5.51-6.31,8.12-9.57,3.83-4.78,7.51-9.68,11.28-14.5.94-1.19,1.05-2.45.75-3.87-2.17-10.3-10.53-13.88-19.74-10.91-1.89.61-3.31,2.72-4.94,4.13.06.07.13.14.19.22-2.9,3.01-5.84,5.99-8.71,9.04-3.46,3.69-6.86,7.44-10.3,11.14-1.57,1.69-3.09,3.46-4.83,4.96-.63.54-.94,1.1-1.04,1.69-.99-.75-1.77-1.76-2.56-2.75,1.7.07,3.4-.67,4.78-2.15,3.54-3.79,7-7.65,10.53-11.45,3.39-3.66,6.85-7.27,10.23-10.94.67-.72,1.22-1.59,1.68-2.46,1.54-2.94,1.32-4.91-.83-7.37-2.1-2.39-4.24-4.69-7.46-5.73-3.82-1.23-7.33-.33-10.26,1.87-3.07,2.3-5.59,5.31-8.4,7.95-2.32,2.17-4.71,4.27-7.09,6.37-.34.3-.81.46-1.22.69l-.37-.39c1.07-1.12,2.14-2.23,3.2-3.36,3.16-3.36,6.39-6.67,9.47-10.1,3.15-3.51,7.03-5.66,11.66-6.06,6.12-.54,14.77,6.5,14.23,13.39,5.7-1.69,11.4-2.41,16.76.8,5.48,3.28,7.17,8.6,7.29,14.7.09.01.29.1.45.05,3.59-1.1,6.29.41,9,2.64,4.09,3.36,7.16,7.12,6.72,13,5.01-2.54,7.97.97,11.28,3.31.61.43,1.04,1.09,1.65,1.52,1.86,1.31,2.3,3.08,2.06,5.25-.32,2.77-.47,5.56-.7,8.34.19.1.38.2.57.3l-4.08,4.72c.51-.88.72-2.01.87-3.04.52-3.58.99-7.17,1.31-10.77.08-.96-.15-2.25-.76-2.89-1.71-1.78-3.54-3.54-5.59-4.88-3.72-2.42-6.19-1.77-9.98,3.4-2.87,4.77-6.69,11.13-10.52,17.48-1.03,1.71-2.01,3.45-3.14,5.1-.6.87-.72,1.58.02,2.32-1.7,0-3.33.78-5.04.53.15-.17.31-.33.45-.52,2.28-3.03,4.34-6.24,6.34-9.46,3.16-5.09,6.16-10.27,9.29-15.37.65-1.05,1.45-2.06,2.35-2.9,2.35-2.22,2.09-4.75,1.09-7.4-1.27-3.39-4.2-5.31-6.8-7.51-1.34-1.14-2.7-2.08-4.7-1.65-1.69.36-3.07.78-4.24,2.28-3,3.83-6.24,7.46-9.38,11.18,0,0,.02.01.02.02-4.31,5.09-8.64,10.18-12.93,15.29-.68.81-1.23,1.72-1.83,2.6-1.27,1.88-1.82,2.71-1.69,3.67-1.01-.54-1.8-1.34-2.61-2.13.39.09,1.18-.49,1.52-.94Z"/><path d="m194.5,105.52c-4.55-7.43-10.92-13.92-11.34-23.47-.27.05-.55.09-.82.14-.1.63-.42,1.32-.27,1.89.71,2.64,1.26,5.37,2.38,7.83,2.37,5.2,6.11,9.48,10.04,13.61Z"/><path d="m186.85,72.63c-2.44.44-4.8.85-7.15,1.31-6.21,1.22-12.43,2.06-18.77,1.28-7.58-.93-14.25-3.86-20.04-8.83-.52-.45-1.27-.64-1.91-.95.36.7.56,1.57,1.1,2.07,5.31,4.95,11.71,7.79,18.8,8.95,9.59,1.57,18.86-.04,27.89-3.41.03-.01.03-.11.09-.41Z"/><path class="cls-1" d="m116.85,71.43c5.38,5.07,10.31,9.07,15.69,14.14,2.55,2.41,16.32,13.79,19.6,15.04,9,3.44,9.51-8.58,8.02-14.59-3.65-14.82-18.62-26.27-24.54-26.72"/><path d="m116.27,73.05c4.31,4.05,8.83,7.86,13.21,11.84,2.23,2.03,4.43,4.05,6.74,5.97,2.78,2.32,5.6,4.59,8.48,6.78,2.12,1.62,4.32,3.43,6.75,4.59,2.6,1.24,5.84,1.21,7.84-1.05,2.12-2.39,2.63-5.87,2.72-8.95.24-8-3.46-15.71-8.37-21.84-2.78-3.48-6.02-6.64-9.68-9.18-2.46-1.71-5.32-3.5-8.38-3.78-1.6-.14-1.58,3.57.09,3.72,2.18.19,4.5,1.55,6.35,2.76,2.98,1.96,5.69,4.35,8.11,6.97,4.81,5.23,9.03,12.18,9.42,19.38.13,2.41.07,5.29-1.31,7.37s-4.11,1.99-6.22.98c-2.21-1.06-4.21-2.75-6.15-4.23-2.64-2.01-5.22-4.08-7.77-6.19-2.37-1.96-4.65-4-6.92-6.08-4.54-4.16-9.25-8.11-13.74-12.33-.66-.62-1.41.07-1.65.71-.32.82-.15,1.92.5,2.53h0Z"/><path d="m146.17,47.72c.34,1.35.66,2.7.86,4.07.06.37.07.46.1.73,0,.09.08,1.04.06.63,0,.09,0,1.04.01.6,0,.33-.02.43-.03.52-.24,2.56-1.46,4.99-2.93,7.11-.53.77-.38,2.18-.3,3.06.02.19.36,2.21.71,1.72,2.09-3.04,3.32-6.38,3.57-10.07.27-4.03-.4-8-1.38-11.9-.02-.1-.16-.72-.4-.72s-.34.64-.36.74c-.22,1.1-.19,2.42.09,3.51h0Z"/></g></g><use width="135.14" height="38.33" transform="translate(120.7 187.65)" xlink:href="#Btn-minus"/></svg>