<?xml version="1.0" encoding="UTF-8"?><svg id="Btn_Phone-blocked-default" xmlns="http://www.w3.org/2000/svg" xmlns:xlink="http://www.w3.org/1999/xlink" viewBox="0 0 256 256"><defs><style>.cls-1{fill:#fff;fill-rule:evenodd;}.cls-2{fill:#bdd5f6;filter:url(#drop-shadow-21);}.cls-3{fill:#4187e6;}.cls-4{fill:#3b56fd;}</style><symbol id="Btn_blue" viewBox="0 0 255.38 255.38"><circle id="Black" cx="127.69" cy="127.69" r="127.69"/><circle id="Orange" class="cls-3" cx="119.94" cy="130.44" r="114.94"/><path id="Shadow" class="cls-4" d="m139.94,215.38c-63.48,0-114.94-51.46-114.94-114.94,0-17.1,7.53-33.32,14.22-47.9-18.89,20.48-30.67,47.84-30.67,77.9,0,63.48,48,108.61,111.39,114.94,46.16,4.61,86.35-27.48,104.51-67.04-21,22.77-51.09,37.04-84.51,37.04Z"/></symbol><symbol id="Person" viewBox="0 0 115.98 155.99"><path class="cls-1" d="m114.57,145.92c-2.1,5.51-39.75,10.06-57.84,10.06s-53.23-2.04-55.32-7.55c-2.81-7.38-2.34-39.53,10.06-50.32,8.91-7.76,32.69-7.55,32.69-7.55,0,0-25.37-15.64-25.15-42.77C19.22,22.51,34.95.22,56.73,0c21.78.22,37.52,22.51,37.72,47.8.22,27.13-22.63,40.25-22.63,40.25,0,0,23.78-.21,32.69,7.55,12.39,10.79,12.87,42.93,10.06,50.32Z"/></symbol><filter id="drop-shadow-21" filterUnits="userSpaceOnUse"><feOffset dx="8" dy="-2"/><feGaussianBlur result="blur" stdDeviation="0"/><feFlood flood-color="#000" flood-opacity=".6"/><feComposite in2="blur" operator="in"/><feComposite in="SourceGraphic"/></filter></defs><use width="255.38" height="255.38" transform="translate(.31 .31)" xlink:href="#Btn_blue"/><use width="115.98" height="155.99" transform="translate(60.01 50.01)" xlink:href="#Person"/><path id="block" class="cls-2" d="m153.57,34.27C102.37,15.64,44.93,44.28,25.29,98.26c-19.64,53.97,5.94,112.84,57.14,131.47,51.2,18.64,108.64-10.01,128.28-63.98,19.64-53.97-5.94-112.84-57.14-131.47Zm-114.61,62.81c17.46-47.98,68.55-73.43,114.1-56.85,16.17,5.89,29.47,16.28,39.12,29.38L41.29,168.48c-9.67-21.4-11.22-46.96-2.33-71.39Zm50.87,116.89c-13.46-4.9-24.92-12.92-33.95-23.02l140.05-115.83c14.52,23.21,18.42,53.38,8,82-17.46,47.98-68.55,73.43-114.1,56.85Z"/></svg>