<?xml version="1.0" encoding="UTF-8"?><svg id="Btn_home" xmlns="http://www.w3.org/2000/svg" xmlns:xlink="http://www.w3.org/1999/xlink" viewBox="0 0 256 256"><defs><style>.cls-1{fill:#fff;}.cls-2{fill:none;mix-blend-mode:multiply;opacity:.6;}.cls-3{fill:#ff8400;}.cls-4{fill:#ff440a;}</style><symbol id="Btn_orange" viewBox="0 0 255.38 255.38"><circle id="Black" cx="127.69" cy="127.69" r="127.69"/><circle id="Orange" class="cls-3" cx="119.94" cy="130.44" r="114.94"/><path id="Shadow" class="cls-4" d="m139.94,215.38c-63.48,0-114.94-51.46-114.94-114.94,0-17.1,7.53-33.32,14.22-47.9-18.89,20.48-30.67,47.84-30.67,77.9,0,63.48,48,108.61,111.39,114.94,46.16,4.61,86.35-27.48,104.51-67.04-21,22.77-51.09,37.04-84.51,37.04Z"/></symbol><symbol id="house" viewBox="0 0 202.86 156.83"><g class="cls-2"><polygon points="12 82.77 87.64 0 202.86 61.97 168.87 64.7 160.52 151.74 127.62 152.83 131.44 95.77 90.91 104.86 99.55 151.67 63.11 152.47 56.53 73.64 12 82.77"/></g><polygon class="cls-1" points="0 86.77 75.64 4 190.86 65.97 156.87 68.7 148.52 155.74 115.62 156.83 119.44 99.77 78.91 108.86 87.55 155.67 51.11 156.47 44.53 77.64 0 86.77"/></symbol></defs><use width="255.38" height="255.38" transform="translate(.31 .31)" xlink:href="#Btn_orange"/><use width="202.86" height="156.83" transform="translate(21.55 44.5)" xlink:href="#house"/></svg>