<?xml version="1.0" encoding="UTF-8"?><svg id="Btn_plus-green" xmlns="http://www.w3.org/2000/svg" xmlns:xlink="http://www.w3.org/1999/xlink" viewBox="0 0 256 256"><defs><style>.cls-1{fill:#fff;}.cls-2{fill:none;mix-blend-mode:multiply;opacity:.6;}.cls-3{fill:#29a25a;}.cls-4{fill:#60cb3d;}</style><symbol id="Btn_green" viewBox="0 0 255.38 255.38"><circle id="Black" cx="127.69" cy="127.69" r="127.69"/><circle id="Red" class="cls-4" cx="119.94" cy="130.44" r="114.94"/><path id="Shadow" class="cls-3" d="m139.94,215.38c-63.48,0-114.94-51.46-114.94-114.94,0-17.1,7.53-33.32,14.22-47.9-18.89,20.48-30.67,47.84-30.67,77.9,0,63.48,48,108.61,111.39,114.94,46.16,4.61,86.35-27.48,104.51-67.04-21,22.77-51.09,37.04-84.51,37.04Z"/></symbol><symbol id="Plus" viewBox="0 0 164.67 152"><g id="plus"><g class="cls-2"><path d="m67.52,0h41.64v55.5l50.89-9.25,4.63,41.63-55.52-4.63,4.63,64.75h-46.26l4.63-64.75-60.14,18.5v-46.25h60.14L67.52,0Z"/></g><path class="cls-1" d="m55.52,4h41.64v55.5l50.89-9.25,4.63,41.63-55.52-4.63,4.63,64.75h-46.26l4.63-64.75L0,105.75v-46.25h60.14l-4.63-55.5Z"/></g></symbol></defs><use width="255.38" height="255.38" transform="translate(.31 .31)" xlink:href="#Btn_green"/><use width="164.67" height="152" transform="translate(39.67 54.75)" xlink:href="#Plus"/></svg>