<?xml version="1.0" encoding="UTF-8"?><svg id="Btn_Close" xmlns="http://www.w3.org/2000/svg" xmlns:xlink="http://www.w3.org/1999/xlink" viewBox="0 0 256 256"><defs><style>.cls-1{fill:#fff;}.cls-2{fill:#860b0e;}.cls-3{fill:none;mix-blend-mode:multiply;opacity:.6;}.cls-4{fill:#f40b0e;}</style><symbol id="Btn_red" viewBox="0 0 255.38 255.38"><circle id="Black" cx="127.69" cy="127.69" r="127.69"/><circle id="Red" class="cls-4" cx="119.94" cy="130.44" r="114.94"/><path id="Shadow" class="cls-2" d="m139.94,215.38c-63.48,0-114.94-51.46-114.94-114.94,0-17.1,7.53-33.32,14.22-47.9-18.89,20.48-30.67,47.84-30.67,77.9,0,63.48,48,108.61,111.39,114.94,46.16,4.61,86.35-27.48,104.51-67.04-21,22.77-51.09,37.04-84.51,37.04Z"/></symbol><symbol id="X" viewBox="0 0 157.25 149.68"><g id="X-2"><g class="cls-3"><polygon points="100.51 74.12 157.25 37.38 123.09 0 82.07 54.95 41.33 3.01 12 32.35 64.53 71.92 16.37 116.05 49.33 145.68 82.78 91.5 125.33 141.68 150.56 111.13 100.51 74.12"/></g><polygon class="cls-1" points="88.51 78.12 145.25 41.38 111.09 4 70.07 58.95 29.33 7.01 0 36.35 52.53 75.92 4.37 120.05 37.33 149.68 70.78 95.5 113.33 145.68 138.56 115.13 88.51 78.12"/></g></symbol></defs><use width="255.38" height="255.38" transform="translate(.31 .31)" xlink:href="#Btn_red"/><use width="157.25" height="149.68" transform="translate(54.78 52.65)" xlink:href="#X"/></svg>