<?xml version="1.0" encoding="UTF-8"?><svg id="Btn_zoom-out" xmlns="http://www.w3.org/2000/svg" xmlns:xlink="http://www.w3.org/1999/xlink" viewBox="0 0 256 256"><defs><style>.cls-1{fill:#ff8400;}.cls-2{filter:url(#drop-shadow-4);}.cls-2,.cls-3{fill:#fff;}.cls-3{filter:url(#drop-shadow-5);}.cls-4{fill:#ff440a;}</style><symbol id="Btn_orange" viewBox="0 0 255.38 255.38"><circle id="Black" cx="127.69" cy="127.69" r="127.69"/><circle id="Orange" class="cls-1" cx="119.94" cy="130.44" r="114.94"/><path id="Shadow" class="cls-4" d="m139.94,215.38c-63.48,0-114.94-51.46-114.94-114.94,0-17.1,7.53-33.32,14.22-47.9-18.89,20.48-30.67,47.84-30.67,77.9,0,63.48,48,108.61,111.39,114.94,46.16,4.61,86.35-27.48,104.51-67.04-21,22.77-51.09,37.04-84.51,37.04Z"/></symbol><filter id="drop-shadow-4" filterUnits="userSpaceOnUse"><feOffset dx="12" dy="-4"/><feGaussianBlur result="blur" stdDeviation="0"/><feFlood flood-color="#000" flood-opacity=".6"/><feComposite in2="blur" operator="in"/><feComposite in="SourceGraphic"/></filter><filter id="drop-shadow-5" filterUnits="userSpaceOnUse"><feOffset dx="6" dy="-3"/><feGaussianBlur result="blur-2" stdDeviation="0"/><feFlood flood-color="#000" flood-opacity=".6"/><feComposite in2="blur-2" operator="in"/><feComposite in="SourceGraphic"/></filter></defs><use width="255.38" height="255.38" transform="translate(.31 .31)" xlink:href="#Btn_orange"/><path id="icon" class="cls-2" d="m127.57,146.43c24.24-12.93,38.36-42.44,28.5-68.83-11.31-30.24-46.3-47.12-78.16-37.69-31.86,9.43-48.52,41.59-37.21,71.83,10.65,28.47,42.28,45.09,72.54,39.07l31.53,67.9,27.43-1.17-44.61-71.11Zm-73.48-38.65c-8.68-23.22,4.11-47.91,28.57-55.15,24.46-7.24,51.33,5.72,60.01,28.94,8.68,23.22-4.11,47.91-28.57,55.15-24.46,7.24-51.33-5.72-60.01-28.94Z"/><path id="minus" class="cls-3" d="m98.84,85.13c-8.3.41-37.07.36-37.07.36v18.99s28.08-3.48,37.07-3.7c8.99-.22,35.01,2.4,35.01,2.4l-1.72-18.05s-24.98-.41-33.28,0Z"/></svg>