<?xml version="1.0" encoding="UTF-8"?><svg id="Btn_left-green" xmlns="http://www.w3.org/2000/svg" xmlns:xlink="http://www.w3.org/1999/xlink" viewBox="0 0 256 256"><defs><style>.cls-1{fill:#fff;}.cls-2{fill:#60cb3d;}.cls-3{fill:url(#linear-gradient);}</style><linearGradient id="linear-gradient" x1="234.42" y1="66.09" x2="115.27" y2="185.24" gradientUnits="userSpaceOnUse"><stop offset="0" stop-color="#368a1b"/><stop offset=".21" stop-color="#34851a"/><stop offset=".43" stop-color="#2f7917"/><stop offset=".66" stop-color="#276413"/><stop offset=".88" stop-color="#1c470e"/><stop offset="1" stop-color="#15360b"/></linearGradient></defs><path d="m205.85,236.83V19.17c0-15.22-13.47-24.23-23.4-15.63L56.67,112.37c-8.69,7.52-8.69,23.75,0,31.27l125.77,108.83c9.93,8.59,23.4-.41,23.4-15.63Z"/><path class="cls-3" d="m194.58,217.35V33.98c0-12.83-11.35-20.41-19.71-13.17l-105.96,91.69c-7.32,6.33-7.32,20.01,0,26.34l105.96,91.69c8.36,7.24,19.71-.35,19.71-13.17Z"/><path class="cls-2" d="m194.58,186.55V29.86c0-10.96-12.37-17.03-19.71-10.85l-90.59,77.94c-6.43,5.41-6.43,20.1,0,25.51l93,75.34c7.34,6.18,17.3-.3,17.3-11.25Z"/><path class="cls-1" d="m186.8,44.21c0-11.05-11.21-20.17-19.48-13.01,0,0-56.43,48.39-.82,20.03,13.14-6.7,19.6,136.22,19.76,128.46,1.71-84.29.54-124.43.54-135.48Z"/></svg>