<?xml version="1.0" encoding="UTF-8"?><svg id="Btn_personalRoom-Play-2" xmlns="http://www.w3.org/2000/svg" xmlns:xlink="http://www.w3.org/1999/xlink" viewBox="0 0 468 383"><defs><style>.cls-1{fill:#fff;}.cls-2{filter:url(#drop-shadow-33);}.cls-3{fill:#3165ad;}.cls-4{fill:none;stroke:#000;stroke-miterlimit:10;stroke-width:3px;}.cls-5{fill:#4187e6;}.cls-6{fill:#f40b0e;}.cls-7{fill:url(#linear-gradient);}</style><symbol id="Btn_blue" viewBox="0 0 255.38 255.38"><circle id="Black" cx="127.69" cy="127.69" r="127.69"/><circle id="Orange" class="cls-5" cx="119.94" cy="130.44" r="114.94"/><path id="Shadow" class="cls-3" d="m139.94,215.38c-63.48,0-114.94-51.46-114.94-114.94,0-17.1,7.53-33.32,14.22-47.9-18.89,20.48-30.67,47.84-30.67,77.9,0,63.48,48,108.61,111.39,114.94,46.16,4.61,86.35-27.48,104.51-67.04-21,22.77-51.09,37.04-84.51,37.04Z"/></symbol><filter id="drop-shadow-33" filterUnits="userSpaceOnUse"><feOffset dx="12" dy="-4"/><feGaussianBlur result="blur" stdDeviation="0"/><feFlood flood-color="#000" flood-opacity=".6"/><feComposite in2="blur" operator="in"/><feComposite in="SourceGraphic"/></filter><linearGradient id="linear-gradient" x1="230.99" y1="181.69" x2="230.99" y2="2.56" gradientUnits="userSpaceOnUse"><stop offset="0" stop-color="#012257"/><stop offset=".76" stop-color="#bdd5f6"/><stop offset="1" stop-color="#fff"/></linearGradient></defs><use width="255.38" height="255.38" transform="translate(103.9 126.22)" xlink:href="#Btn_blue"/><g id="icon" class="cls-2"><path class="cls-6" d="m249.91,333.92s13.84,7.02,20.76,4.43,3.94-13.7,10.39-16.12c6.45-2.42,9.97,8.47,18.43,5.3,8.45-3.17,13.17-17.16,13.17-17.16,0,0-83.64-103.02-100.67-105.41-17.02-2.39-22.29,8.36-22.29,8.36,19.02,20.19,60.21,120.59,60.21,120.59Z"/><path class="cls-1" d="m158.98,228.67c6.57-6.48,13.85-13.49,20.65-20.14,3.63-2.77,9-1.46,13.28-1.31-28.83-8.44-23.94-46.22,2.24-48.43,28.46-2.1,37.07,39.39,6.13,48.43,4.28-.15,9.65-1.46,13.28,1.31,6.8,6.64,14.08,13.65,20.65,20.14,6.63,6.54,16.67,16.43-3.55,34.84-3.78,3.44-7.72,3.76-10.59.97-10.72-15.31,21.53-15.2-4.13-32.76.72,20.27,2.58,40.6,3.19,60.91.77,15.69,1.64,31.37,2.23,47.07.08,2.19-.7,4.73-1.9,6.58-4.98,7.28-17.15,3.12-17.09-5.89-3.14-20.27-.08-42.4-6.29-61.71-6.2,19.31-3.14,41.44-6.29,61.71-.32,13.05-19.91,12.21-18.99-.69,1.4-35.99,3.62-72.02,5.43-107.97-25.66,17.56,6.59,17.45-4.13,32.76-2.86,2.79-6.81,2.48-10.59-.97-20.22-18.41-10.19-28.3-3.55-34.84Z"/><path class="cls-6" d="m175.24,173.09c4.76-7.43,39.78-7.43,43.68-.4,2.54,4.58,2.28,14.06,1.43,15.44-2.58,4.19-45.85,2.38-46.61.1-1.43-4.29-1.05-11.15,1.51-15.14Zm29.91,14.28c3.37,0,6.1-2.73,6.1-6.1s-2.73-6.1-6.1-6.1-6.1,2.73-6.1,6.1,2.73,6.1,6.1,6.1Zm-16.45,0c3.37,0,6.1-2.73,6.1-6.1s-2.73-6.1-6.1-6.1-6.1,2.73-6.1,6.1,2.73,6.1,6.1,6.1Z"/></g><g id="play"><path d="m40.71,71.35c31.06-23.06,57.88-25.95,74.18-15.83,4.43,2.73,7.31,5.89,8.79,9.34,6.13,14.73-10.63,32.4-39.07,63.71,8.68,12.9,17.48,25.72,26.37,38.46-7.82,5.61-15.36,11.82-22.57,18.65-26.5-27.82-52.64-55.98-78.42-84.49,10.09-12.32,20.55-22.2,30.73-29.85Zm46.16,9c-2.26-3-11.76-1.48-28,7.1,3.98,6.24,7.99,12.45,12.03,18.65,12.25-14.58,18.34-22.59,15.98-25.76ZM160.29,9.86c2.21,18.74,5.45,35.4,9.17,50.11,3.71,14.64,7.91,27.35,12.25,38.24,15.11-5.28,30.82-9.1,46.89-11.39.09,9.76.22,19.53.39,29.29-23.72,1.66-47.13,7.12-69.23,16.3-15.78-36.32-32.32-72.33-49.6-108.01,16.43-6.19,33.19-11.03,50.12-14.54Zm116.75,74.81c-5.76,12.18-10.94,24.54-15.54,37.03-9.17-2.25-18.56-3.92-28.1-4.97,10.85-38,27.86-75.21,50.82-110.16,14.12,1.9,28.15,4.7,41.98,8.41,9.31,39.64,12.23,79.3,9.01,117.41-10.89-2.47-21.73-4.04-32.42-4.77.46-12.53.39-25.15-.2-37.83-8.44-2.14-16.97-3.85-25.54-5.11Zm24.14-14.66c-.78-8.33-1.79-16.68-3.04-25.03-4.4,7.39-8.58,14.87-12.53,22.43,5.2.72,10.4,1.58,15.57,2.6Zm93.39-23.82c.11,15.61-.7,31.01-2.39,46.13,13.56-6.77,27.88-12.67,42.9-17.58,11.67,10.37,22.67,21.63,32.92,33.74-28.13,1.71-54.52,7.39-78.55,16.23-9.64,11.28-19.09,22.7-28.35,34.26-7.83-6.64-16.11-12.7-24.77-18.15,8.54-11.38,17.52-22.48,26.93-33.3-2.18-24.82-7.67-50.19-16.57-75.36,16.04,3.35,32.06,8,47.9,14.02Z"/><path class="cls-7" d="m32.71,67.35c31.06-23.06,57.88-25.95,74.18-15.83,4.43,2.73,7.31,5.89,8.79,9.34,6.13,14.73-10.63,32.4-39.07,63.71,8.68,12.9,17.48,25.72,26.37,38.46-7.82,5.61-15.36,11.82-22.57,18.65C53.9,153.87,27.76,125.7,1.98,97.19c10.09-12.32,20.55-22.2,30.73-29.85Zm46.16,9c-2.26-3-11.76-1.48-28,7.1,3.98,6.24,7.99,12.45,12.03,18.65,12.25-14.58,18.34-22.59,15.98-25.76ZM152.29,5.86c2.21,18.74,5.45,35.4,9.17,50.11,3.71,14.64,7.91,27.35,12.25,38.24,15.11-5.28,30.82-9.1,46.89-11.39.09,9.76.22,19.53.39,29.29-23.72,1.66-47.13,7.12-69.23,16.3-15.78-36.32-32.32-72.33-49.6-108.01,16.43-6.19,33.19-11.03,50.12-14.54Zm116.75,74.81c-5.76,12.18-10.94,24.54-15.54,37.03-9.17-2.25-18.56-3.92-28.1-4.97,10.85-38,27.86-75.21,50.82-110.16,14.12,1.9,28.15,4.7,41.98,8.41,9.31,39.64,12.23,79.3,9.01,117.41-10.89-2.47-21.73-4.04-32.42-4.77.46-12.53.39-25.15-.2-37.83-8.44-2.14-16.97-3.85-25.54-5.11Zm24.14-14.66c-.78-8.33-1.79-16.68-3.04-25.03-4.4,7.39-8.58,14.87-12.53,22.43,5.2.72,10.4,1.58,15.57,2.6Zm93.39-23.82c.11,15.61-.7,31.01-2.39,46.13,13.56-6.77,27.88-12.67,42.9-17.58,11.67,10.37,22.67,21.63,32.92,33.74-28.13,1.71-54.52,7.39-78.55,16.23-9.64,11.28-19.09,22.7-28.35,34.26-7.83-6.64-16.11-12.7-24.77-18.15,8.54-11.38,17.52-22.48,26.93-33.3-2.18-24.82-7.67-50.19-16.57-75.36,16.04,3.35,32.06,8,47.9,14.02Z"/><path class="cls-4" d="m32.71,67.35c31.06-23.06,57.88-25.95,74.18-15.83,4.43,2.73,7.31,5.89,8.79,9.34,6.13,14.73-10.63,32.4-39.07,63.71,8.68,12.9,17.48,25.72,26.37,38.46-7.82,5.61-15.36,11.82-22.57,18.65C53.9,153.87,27.76,125.7,1.98,97.19c10.09-12.32,20.55-22.2,30.73-29.85Zm46.16,9c-2.26-3-11.76-1.48-28,7.1,3.98,6.24,7.99,12.45,12.03,18.65,12.25-14.58,18.34-22.59,15.98-25.76ZM152.29,5.86c2.21,18.74,5.45,35.4,9.17,50.11,3.71,14.64,7.91,27.35,12.25,38.24,15.11-5.28,30.82-9.1,46.89-11.39.09,9.76.22,19.53.39,29.29-23.72,1.66-47.13,7.12-69.23,16.3-15.78-36.32-32.32-72.33-49.6-108.01,16.43-6.19,33.19-11.03,50.12-14.54Zm116.75,74.81c-5.76,12.18-10.94,24.54-15.54,37.03-9.17-2.25-18.56-3.92-28.1-4.97,10.85-38,27.86-75.21,50.82-110.16,14.12,1.9,28.15,4.7,41.98,8.41,9.31,39.64,12.23,79.3,9.01,117.41-10.89-2.47-21.73-4.04-32.42-4.77.46-12.53.39-25.15-.2-37.83-8.44-2.14-16.97-3.85-25.54-5.11Zm24.14-14.66c-.78-8.33-1.79-16.68-3.04-25.03-4.4,7.39-8.58,14.87-12.53,22.43,5.2.72,10.4,1.58,15.57,2.6Zm93.39-23.82c.11,15.61-.7,31.01-2.39,46.13,13.56-6.77,27.88-12.67,42.9-17.58,11.67,10.37,22.67,21.63,32.92,33.74-28.13,1.71-54.52,7.39-78.55,16.23-9.64,11.28-19.09,22.7-28.35,34.26-7.83-6.64-16.11-12.7-24.77-18.15,8.54-11.38,17.52-22.48,26.93-33.3-2.18-24.82-7.67-50.19-16.57-75.36,16.04,3.35,32.06,8,47.9,14.02Z"/></g></svg>