<?xml version="1.0" encoding="UTF-8"?><svg id="Btn_screen-small" xmlns="http://www.w3.org/2000/svg" xmlns:xlink="http://www.w3.org/1999/xlink" viewBox="0 0 256 256"><defs><style>.cls-1{filter:url(#drop-shadow-15);}.cls-1,.cls-2,.cls-3,.cls-4{fill:#fff;fill-rule:evenodd;}.cls-2{filter:url(#drop-shadow-12);}.cls-5{fill:#ff8400;}.cls-6{fill:#ff440a;}.cls-3{filter:url(#drop-shadow-13);}.cls-4{filter:url(#drop-shadow-14);}</style><symbol id="Btn_orange" viewBox="0 0 255.38 255.38"><circle id="Black" cx="127.69" cy="127.69" r="127.69"/><circle id="Orange" class="cls-5" cx="119.94" cy="130.44" r="114.94"/><path id="Shadow" class="cls-6" d="m139.94,215.38c-63.48,0-114.94-51.46-114.94-114.94,0-17.1,7.53-33.32,14.22-47.9-18.89,20.48-30.67,47.84-30.67,77.9,0,63.48,48,108.61,111.39,114.94,46.16,4.61,86.35-27.48,104.51-67.04-21,22.77-51.09,37.04-84.51,37.04Z"/></symbol><filter id="drop-shadow-12" filterUnits="userSpaceOnUse"><feOffset dx="8" dy="-2"/><feGaussianBlur result="blur" stdDeviation="0"/><feFlood flood-color="#000" flood-opacity=".6"/><feComposite in2="blur" operator="in"/><feComposite in="SourceGraphic"/></filter><filter id="drop-shadow-13" filterUnits="userSpaceOnUse"><feOffset dx="8" dy="-2"/><feGaussianBlur result="blur-2" stdDeviation="0"/><feFlood flood-color="#000" flood-opacity=".6"/><feComposite in2="blur-2" operator="in"/><feComposite in="SourceGraphic"/></filter><filter id="drop-shadow-14" filterUnits="userSpaceOnUse"><feOffset dx="8" dy="-2"/><feGaussianBlur result="blur-3" stdDeviation="0"/><feFlood flood-color="#000" flood-opacity=".6"/><feComposite in2="blur-3" operator="in"/><feComposite in="SourceGraphic"/></filter><filter id="drop-shadow-15" filterUnits="userSpaceOnUse"><feOffset dx="8" dy="-2"/><feGaussianBlur result="blur-4" stdDeviation="0"/><feFlood flood-color="#000" flood-opacity=".6"/><feComposite in2="blur-4" operator="in"/><feComposite in="SourceGraphic"/></filter></defs><use width="255.38" height="255.38" transform="translate(.31 .31)" xlink:href="#Btn_orange"/><polygon class="cls-2" points="80.76 65.33 80.9 87.61 49.33 50.78 49.18 50.93 32.12 68.74 68.64 98.56 44.76 95.22 42.81 116 97 115.73 103.45 65.66 80.76 65.33"/><polygon class="cls-3" points="162.11 96.27 197.75 65.72 179.61 47.92 150.52 85.1 150.5 61.41 129.65 62.38 137.48 116 187.95 115.4 185.12 92.89 162.11 96.27"/><polygon class="cls-4" points="197.75 196.69 155.11 159.08 179.58 161.28 180.5 140.43 126.39 143.38 122.43 193.7 145.1 192.92 143.84 170.39 179.94 213.14 197.75 196.69"/><polygon class="cls-1" points="104.43 198.41 100.72 144.34 50.34 141.1 51.45 163.75 72.75 162.27 32.12 195.25 49.64 213.14 49.78 212.99 49.7 212.89 85.55 171.55 83.57 197.78 104.43 198.41"/></svg>