<?xml version="1.0" encoding="UTF-8"?><svg id="Btn_Phone-friend-remove" xmlns="http://www.w3.org/2000/svg" xmlns:xlink="http://www.w3.org/1999/xlink" viewBox="0 0 256 256"><defs><style>.cls-1,.cls-2{fill:#fff;}.cls-2,.cls-3{fill-rule:evenodd;}.cls-4{fill:none;mix-blend-mode:multiply;opacity:.6;}.cls-5{fill:#ff8400;}.cls-6{fill:#ff440a;}</style><symbol id="Btn-minus" viewBox="0 0 135.14 38.33"><g id="minus"><g class="cls-4"><path d="m73.57,1.13c-14.31.7-63.87.62-63.87.62v32.72s48.38-6,63.87-6.37c15.49-.37,60.32,4.14,60.32,4.14l-2.97-31.11s-43.04-.7-57.35,0Z"/><path d="m73.61,2.02c-9.29.4-22.56.56-31.97.69,0,0-31.95.24-31.95.24,0,0,1.2-1.2,1.2-1.2l.47,32.72-1.87-1.66c20.67-2.67,41.3-5.76,62.12-7.15,10.6-.13,20.9,1.07,31.37,2.02,10.36,1.03,20.69,2.2,31.02,3.45l-1.21,1.2c-.49-9.02-1.79-22.01-2.55-31.15,0,0,.67.62.67.61-18.77-.14-38.53-.47-57.3.2h0Zm-.09-1.77c18.85-.54,38.58-.07,57.41.2,0,0,.6.01.6.01l.06.6c.86,9.72,2.43,22.81,3.54,32.37-21.02-1.38-42.28-3.41-63.32-2.76-20.57,1.04-41.37,3.3-61.91,5.44,0,0-1.9.21-1.9.21l.03-1.86.47-32.72.02-1.2s1.19,0,1.19,0c18.51.02,45.59.32,63.83-.3h0Z"/></g><path class="cls-1" d="m65.57,3.13C51.26,3.83,1.69,3.75,1.69,3.75v32.72s48.38-6,63.87-6.37c15.49-.37,60.32,4.14,60.32,4.14l-2.97-31.11s-43.04-.7-57.35,0Z"/><path d="m65.61,4.02c-9.29.4-22.56.56-31.97.69,0,0-31.95.24-31.95.24,0,0,1.2-1.2,1.2-1.2l.47,32.72-1.87-1.66c20.67-2.67,41.3-5.76,62.12-7.15,10.6-.13,20.9,1.07,31.37,2.02,10.36,1.03,20.69,2.2,31.02,3.45l-1.21,1.2c-.49-9.02-1.79-22.01-2.55-31.15,0,0,.67.62.67.61-18.77-.14-38.53-.47-57.3.2h0Zm-.09-1.77c18.85-.54,38.58-.07,57.41.2,0,0,.6.01.6.01l.06.6c.86,9.72,2.43,22.81,3.54,32.37-21.02-1.38-42.28-3.41-63.32-2.76-20.57,1.04-41.37,3.3-61.91,5.44,0,0-1.9.21-1.9.21l.03-1.86L.49,3.75l.02-1.2s1.19,0,1.19,0c18.51.02,45.59.32,63.83-.3h0Z"/></g></symbol><symbol id="Btn_orange" viewBox="0 0 255.38 255.38"><circle id="Black" cx="127.69" cy="127.69" r="127.69"/><circle id="Orange" class="cls-5" cx="119.94" cy="130.44" r="114.94"/><path id="Shadow" class="cls-6" d="m139.94,215.38c-63.48,0-114.94-51.46-114.94-114.94,0-17.1,7.53-33.32,14.22-47.9-18.89,20.48-30.67,47.84-30.67,77.9,0,63.48,48,108.61,111.39,114.94,46.16,4.61,86.35-27.48,104.51-67.04-21,22.77-51.09,37.04-84.51,37.04Z"/></symbol><symbol id="Friend" viewBox="0 0 173.93 177.59"><g id="icon"><g class="cls-4"><path class="cls-3" d="m63.34,108.74c4.47-3.89,10.98-6.25,17.48-7.67-6.86-8.53-13.24-20.56-13.12-35.74.19-23.13,11.22-42.71,27.28-51.7C88.36,5.37,79.26.11,68.73,0,46.95.22,31.22,22.51,31.01,47.8c-.22,27.13,25.15,42.77,25.15,42.77,0,0-23.78-.21-32.69,7.55-12.39,10.79-12.87,42.93-10.06,50.32,1.46,3.82,18.82,5.97,35.36,6.93-.34-15.05,3-36.56,14.57-46.63Z"/><path class="cls-3" d="m172.52,163.52c-2.1,5.51-39.75,10.06-57.84,10.06s-53.23-2.04-55.32-7.55c-2.81-7.38-2.34-39.53,10.06-50.32,8.91-7.76,32.69-7.55,32.69-7.55,0,0-25.37-15.64-25.15-42.77.2-25.29,15.94-47.58,37.72-47.8,21.78.22,37.52,22.51,37.72,47.8.22,27.13-22.63,40.25-22.63,40.25,0,0,23.78-.21,32.69,7.55,12.39,10.79,12.87,42.93,10.06,50.32Z"/></g><path class="cls-2" d="m51.34,112.74c4.47-3.89,10.98-6.25,17.48-7.67-6.86-8.53-13.24-20.56-13.12-35.74.19-23.13,11.22-42.71,27.28-51.7-6.63-8.26-15.73-13.52-26.26-13.63-21.78.22-37.52,22.51-37.72,47.8-.22,27.13,25.15,42.77,25.15,42.77,0,0-23.78-.21-32.69,7.55C-.93,112.91-1.4,145.06,1.41,152.44c1.46,3.82,18.82,5.97,35.36,6.93-.34-15.05,3-36.56,14.57-46.63Z"/><use width="115.98" height="155.99" transform="translate(45.95 21.6)" xlink:href="#Person"/></g></symbol><symbol id="Person" viewBox="0 0 115.98 155.99"><path class="cls-2" d="m114.57,145.92c-2.1,5.51-39.75,10.06-57.84,10.06s-53.23-2.04-55.32-7.55c-2.81-7.38-2.34-39.53,10.06-50.32,8.91-7.76,32.69-7.55,32.69-7.55,0,0-25.37-15.64-25.15-42.77C19.22,22.51,34.95.22,56.73,0c21.78.22,37.52,22.51,37.72,47.8.22,27.13-22.63,40.25-22.63,40.25,0,0,23.78-.21,32.69,7.55,12.39,10.79,12.87,42.93,10.06,50.32Z"/></symbol></defs><use width="255.38" height="255.38" transform="translate(.31 .31)" xlink:href="#Btn_orange"/><use width="173.93" height="177.59" transform="translate(37.03 36.65)" xlink:href="#Friend"/><use width="135.14" height="38.33" transform="translate(121.25 168.44)" xlink:href="#Btn-minus"/></svg>