<?xml version="1.0" encoding="UTF-8"?><svg id="Btn_minus-red" xmlns="http://www.w3.org/2000/svg" xmlns:xlink="http://www.w3.org/1999/xlink" viewBox="0 0 256 256"><defs><style>.cls-1{fill:#fff;}.cls-2{fill:#860b0e;}.cls-3{fill:none;mix-blend-mode:multiply;opacity:.6;}.cls-4{fill:#f40b0e;}</style><symbol id="Btn_red" viewBox="0 0 255.38 255.38"><circle id="Black" cx="127.69" cy="127.69" r="127.69"/><circle id="Red" class="cls-4" cx="119.94" cy="130.44" r="114.94"/><path id="Shadow" class="cls-2" d="m139.94,215.38c-63.48,0-114.94-51.46-114.94-114.94,0-17.1,7.53-33.32,14.22-47.9-18.89,20.48-30.67,47.84-30.67,77.9,0,63.48,48,108.61,111.39,114.94,46.16,4.61,86.35-27.48,104.51-67.04-21,22.77-51.09,37.04-84.51,37.04Z"/></symbol><symbol id="minus" viewBox="0 0 192.45 64.15"><g id="Minus"><g class="cls-3"><path d="m12,10.94v49.21s47.96-4.1,92.96-5.47c45.23-1.37,87.49,0,87.49,0L186.98,0s-42.62,2.66-87.49,5.47C56.94,8.13,12,10.94,12,10.94Z"/></g><path class="cls-1" d="m0,14.94v49.21s47.96-4.1,92.96-5.47c45.23-1.37,87.49,0,87.49,0l-5.47-54.68s-42.62,2.66-87.49,5.47C44.94,12.13,0,14.94,0,14.94Z"/></g></symbol></defs><use width="255.38" height="255.38" transform="translate(.31 .31)" xlink:href="#Btn_red"/><use width="192.45" height="64.15" transform="translate(31.77 90.61)" xlink:href="#minus"/></svg>