<?xml version="1.0" encoding="UTF-8"?><svg id="Btn_check-green" xmlns="http://www.w3.org/2000/svg" xmlns:xlink="http://www.w3.org/1999/xlink" viewBox="0 0 256 256"><defs><style>.cls-1{fill:#fff;}.cls-2{fill:none;mix-blend-mode:multiply;opacity:.6;}.cls-3{fill:#29a25a;}.cls-4{fill:#60cb3d;}</style><symbol id="Btn_green" viewBox="0 0 255.38 255.38"><circle id="Black" cx="127.69" cy="127.69" r="127.69"/><circle id="Red" class="cls-4" cx="119.94" cy="130.44" r="114.94"/><path id="Shadow" class="cls-3" d="m139.94,215.38c-63.48,0-114.94-51.46-114.94-114.94,0-17.1,7.53-33.32,14.22-47.9-18.89,20.48-30.67,47.84-30.67,77.9,0,63.48,48,108.61,111.39,114.94,46.16,4.61,86.35-27.48,104.51-67.04-21,22.77-51.09,37.04-84.51,37.04Z"/></symbol><symbol id="check" viewBox="0 0 180.94 157.82"><g id="icon"><g class="cls-2"><polygon points="12 103.3 50.6 51.94 79 92.1 128.51 0 180.94 48.23 87.01 153.82 12 103.3"/></g><polygon class="cls-1" points="0 107.3 38.6 55.94 67 96.1 116.51 4 168.94 52.23 75.01 157.82 0 107.3"/></g></symbol></defs><use width="255.38" height="255.38" transform="translate(.31 .31)" xlink:href="#Btn_green"/><use width="180.94" height="157.82" transform="translate(31.53 53.09)" xlink:href="#check"/></svg>