<?xml version="1.0" encoding="UTF-8"?><svg id="Btn_feedback-2" xmlns="http://www.w3.org/2000/svg" xmlns:xlink="http://www.w3.org/1999/xlink" viewBox="0 0 256 256"><defs><style>.cls-1{fill:#fff;}.cls-2{fill:none;mix-blend-mode:multiply;opacity:.6;}.cls-3{fill:#00719b;}.cls-4{fill:#00a8e8;}</style><symbol id="Btn_feedback" viewBox="0 0 255.38 255.38"><circle id="Black" cx="127.69" cy="127.69" r="127.69"/><circle id="Orange" class="cls-4" cx="119.94" cy="130.44" r="114.94"/><path id="Shadow" class="cls-3" d="m139.94,215.38c-63.48,0-114.94-51.46-114.94-114.94,0-17.1,7.53-33.32,14.22-47.9-18.89,20.48-30.67,47.84-30.67,77.9,0,63.48,48,108.61,111.39,114.94,46.16,4.61,86.35-27.48,104.51-67.04-21,22.77-51.09,37.04-84.51,37.04Z"/></symbol><symbol id="Feedback" viewBox="0 0 189.03 165.36"><g id="megaphone"><g class="cls-2"><path id="exclamation" d="m176.39,62.53c15.57-.33,18.03,26.66.12,25.14-15.5-.18-17.56-24.76-.12-25.14Zm-6.79-3.94c3.6-1.27,3.05-4.09,2.26-6.87-6.38-15.9,2.01-54.33-24.05-51.59-25.47,12.92,10.18,38.36,15.64,54.61,1.11,2.72,2.61,5.09,6.15,3.84Z"/><path id="meagaphone" d="m22.96,122.7c7.19,4.25,13.78,2.69,20.44-.34,11.75-5.34,24.13-8.4,36.71-10.92,20.97-4.19,40.81-2.23,58.84,10.33,16.03,11.82,26.58.62,24.63-17.44-.83-20.21-6.83-41.83-17.29-59.58-6.74-15.22-41.06-65.37-50.94-28.5-4.87,36.28-40.07,54.95-70.2,68.68-17.7,4.81-16.63,30.39-2.19,37.75ZM106.35,22.94c2.14-12.32,18.95,12.9,21.51,16.82,12.86,20.51,23.23,44.28,21.35,69.01-.59,3.17-2.15,4.22-4.87,1.84-25.84-21.15-38.17-54.73-37.99-87.67Zm10.1,37.04c-.24-2.77-.33-4.46,2.07-5.88,3.77-2.24,8.91-1.83,11.57,1.73,3.55,4.75,5.71,10.25,6.79,15.69-.09,2.55-.59,4.58-1.6,6.37-1.47,2.62-4.22,3.38-6.93,3.83-3.99.67-11.28-14.48-11.91-21.72Zm-38.84,55.8c5.64-1.28,9.06,11.79,10.5,15.73,3.58,9.82,12.08,11.1,11.62,18.31-1.5,7.43-13.75,6.71-19.41,10.33-16.9,8.38-16.06-29.84-28.42-32.04-12.04-6.59,22.14-10.27,25.71-12.33Z"/></g><path id="exclamation-2" class="cls-1" d="m164.39,66.53c15.57-.33,18.03,26.66.12,25.14-15.5-.18-17.56-24.76-.12-25.14Zm-6.79-3.94c3.6-1.27,3.05-4.09,2.26-6.87-6.38-15.9,2.01-54.33-24.05-51.59-25.47,12.92,10.18,38.36,15.64,54.61,1.11,2.72,2.61,5.09,6.15,3.84Z"/><path id="meagaphone-2" class="cls-1" d="m10.96,126.7c7.19,4.25,13.78,2.69,20.44-.34,11.75-5.34,24.13-8.4,36.71-10.92,20.97-4.19,40.81-2.23,58.84,10.33,16.03,11.82,26.58.62,24.63-17.44-.83-20.21-6.83-41.83-17.29-59.58-6.74-15.22-41.06-65.37-50.94-28.5-4.87,36.28-40.07,54.95-70.2,68.68-17.7,4.81-16.63,30.39-2.19,37.75ZM94.35,26.94c2.14-12.32,18.95,12.9,21.51,16.82,12.86,20.51,23.23,44.28,21.35,69.01-.59,3.17-2.15,4.22-4.87,1.84-25.84-21.15-38.17-54.73-37.99-87.67Zm10.1,37.04c-.24-2.77-.33-4.46,2.07-5.88,3.77-2.24,8.91-1.83,11.57,1.73,3.55,4.75,5.71,10.25,6.79,15.69-.09,2.55-.59,4.58-1.6,6.37-1.47,2.62-4.22,3.38-6.93,3.83-3.99.67-11.28-14.48-11.91-21.72Zm-38.84,55.8c5.64-1.28,9.06,11.79,10.5,15.73,3.58,9.82,12.08,11.1,11.62,18.31-1.5,7.43-13.75,6.71-19.41,10.33-16.9,8.38-16.06-29.84-28.42-32.04-12.04-6.59,22.14-10.27,25.71-12.33Z"/></g></symbol></defs><use width="255.38" height="255.38" transform="translate(.31 .31)" xlink:href="#Btn_feedback"/><use width="189.03" height="165.36" transform="translate(22.45 45.58)" xlink:href="#Feedback"/></svg>