<?xml version="1.0" encoding="UTF-8"?><svg id="Btn_Phone-MyFriends-selected" xmlns="http://www.w3.org/2000/svg" xmlns:xlink="http://www.w3.org/1999/xlink" viewBox="0 0 256 256"><defs><style>.cls-1{fill:#fff;}.cls-1,.cls-2{fill-rule:evenodd;}.cls-3{fill:none;mix-blend-mode:multiply;opacity:.6;}.cls-4{fill:#ff8400;}.cls-5{fill:#ff440a;}</style><symbol id="Btn_orange" viewBox="0 0 255.38 255.38"><circle id="Black" cx="127.69" cy="127.69" r="127.69"/><circle id="Orange" class="cls-4" cx="119.94" cy="130.44" r="114.94"/><path id="Shadow" class="cls-5" d="m139.94,215.38c-63.48,0-114.94-51.46-114.94-114.94,0-17.1,7.53-33.32,14.22-47.9-18.89,20.48-30.67,47.84-30.67,77.9,0,63.48,48,108.61,111.39,114.94,46.16,4.61,86.35-27.48,104.51-67.04-21,22.77-51.09,37.04-84.51,37.04Z"/></symbol><symbol id="Friend" viewBox="0 0 173.93 177.59"><g id="icon"><g class="cls-3"><path class="cls-2" d="m63.34,108.74c4.47-3.89,10.98-6.25,17.48-7.67-6.86-8.53-13.24-20.56-13.12-35.74.19-23.13,11.22-42.71,27.28-51.7C88.36,5.37,79.26.11,68.73,0,46.95.22,31.22,22.51,31.01,47.8c-.22,27.13,25.15,42.77,25.15,42.77,0,0-23.78-.21-32.69,7.55-12.39,10.79-12.87,42.93-10.06,50.32,1.46,3.82,18.82,5.97,35.36,6.93-.34-15.05,3-36.56,14.57-46.63Z"/><path class="cls-2" d="m172.52,163.52c-2.1,5.51-39.75,10.06-57.84,10.06s-53.23-2.04-55.32-7.55c-2.81-7.38-2.34-39.53,10.06-50.32,8.91-7.76,32.69-7.55,32.69-7.55,0,0-25.37-15.64-25.15-42.77.2-25.29,15.94-47.58,37.72-47.8,21.78.22,37.52,22.51,37.72,47.8.22,27.13-22.63,40.25-22.63,40.25,0,0,23.78-.21,32.69,7.55,12.39,10.79,12.87,42.93,10.06,50.32Z"/></g><path class="cls-1" d="m51.34,112.74c4.47-3.89,10.98-6.25,17.48-7.67-6.86-8.53-13.24-20.56-13.12-35.74.19-23.13,11.22-42.71,27.28-51.7-6.63-8.26-15.73-13.52-26.26-13.63-21.78.22-37.52,22.51-37.72,47.8-.22,27.13,25.15,42.77,25.15,42.77,0,0-23.78-.21-32.69,7.55C-.93,112.91-1.4,145.06,1.41,152.44c1.46,3.82,18.82,5.97,35.36,6.93-.34-15.05,3-36.56,14.57-46.63Z"/><use width="115.98" height="155.99" transform="translate(45.95 21.6)" xlink:href="#Person"/></g></symbol><symbol id="Person" viewBox="0 0 115.98 155.99"><path class="cls-1" d="m114.57,145.92c-2.1,5.51-39.75,10.06-57.84,10.06s-53.23-2.04-55.32-7.55c-2.81-7.38-2.34-39.53,10.06-50.32,8.91-7.76,32.69-7.55,32.69-7.55,0,0-25.37-15.64-25.15-42.77C19.22,22.51,34.95.22,56.73,0c21.78.22,37.52,22.51,37.72,47.8.22,27.13-22.63,40.25-22.63,40.25,0,0,23.78-.21,32.69,7.55,12.39,10.79,12.87,42.93,10.06,50.32Z"/></symbol></defs><use width="255.38" height="255.38" transform="translate(.31 .31)" xlink:href="#Btn_orange"/><use width="173.93" height="177.59" transform="translate(32.03 34.21)" xlink:href="#Friend"/></svg>