<?xml version="1.0" encoding="UTF-8"?><svg id="Btn_minimap-local" xmlns="http://www.w3.org/2000/svg" xmlns:xlink="http://www.w3.org/1999/xlink" viewBox="0 0 256 256"><defs><style>.cls-1{fill:#fff;}.cls-1,.cls-2{fill-rule:evenodd;}.cls-3{fill:none;mix-blend-mode:multiply;opacity:.6;}.cls-4{fill:#29a25a;}.cls-5{fill:#60cb3d;}</style><symbol id="Btn_green" viewBox="0 0 255.38 255.38"><circle id="Black" cx="127.69" cy="127.69" r="127.69"/><circle id="Red" class="cls-5" cx="119.94" cy="130.44" r="114.94"/><path id="Shadow" class="cls-4" d="m139.94,215.38c-63.48,0-114.94-51.46-114.94-114.94,0-17.1,7.53-33.32,14.22-47.9-18.89,20.48-30.67,47.84-30.67,77.9,0,63.48,48,108.61,111.39,114.94,46.16,4.61,86.35-27.48,104.51-67.04-21,22.77-51.09,37.04-84.51,37.04Z"/></symbol><symbol id="expand" viewBox="0 0 216.87 213.9"><g class="cls-3"><path class="cls-2" d="m183,58.08l-14.52,14.55,22.32,20.33-60.59-4.66-5.66-56.07,13.26,16.17,16.97-14.52L118.4,0l-41.23,33.88,14.55,14.52,18.14-19.91-4.6,59.82-66.81,4.75,21.95-18-14.52-16.97L12,94.46l33.88,41.23,14.52-14.55-15.59-14.21,60.78,6.32,4.28,68.15-18.13-19.9-14.55,14.52,41.23,33.88,36.37-33.88-16.97-14.52-13.3,16.22,5.39-63.83,52.24-6.37-13.65,11.19,14.52,16.97,33.88-36.37-33.88-41.23ZM115.97,21.78h0s0,0,0,0h0Z"/></g><path class="cls-1" d="m171,62.08l-14.52,14.55,22.32,20.33-60.59-4.66-5.66-56.07,13.26,16.17,16.97-14.52L106.4,4l-41.23,33.88,14.55,14.52,18.14-19.91-4.6,59.82-66.81,4.75,21.95-18-14.52-16.97L0,98.46l33.88,41.23,14.52-14.55-15.59-14.21,60.78,6.32,4.28,68.15-18.13-19.9-14.55,14.52,41.23,33.88,36.37-33.88-16.97-14.52-13.3,16.22,5.39-63.83,52.24-6.37-13.65,11.19,14.52,16.97,33.88-36.37-33.88-41.23ZM103.97,25.78h0s0,0,0,0h0Z"/></symbol></defs><use width="255.38" height="255.38" transform="translate(.31 .31)" xlink:href="#Btn_green"/><use width="216.87" height="213.9" transform="translate(13.56 21.05)" xlink:href="#expand"/></svg>