<?xml version="1.0" encoding="UTF-8"?><svg id="Btn_Arrow-down" xmlns="http://www.w3.org/2000/svg" xmlns:xlink="http://www.w3.org/1999/xlink" viewBox="0 0 256 256"><defs><style>.cls-1{fill:#fff;}.cls-1,.cls-2{fill-rule:evenodd;}.cls-3{fill:none;mix-blend-mode:multiply;opacity:.6;}.cls-4{fill:#ff8400;}.cls-5{fill:#ff440a;}</style><symbol id="Arrow-down" viewBox="0 0 201.49 122.18"><g id="arrow"><g class="cls-3"><polygon class="cls-2" points="160.04 0 201.49 35.46 112.67 118.18 12 35.46 47.53 0 106.74 65 160.04 0"/></g><polygon class="cls-1" points="148.04 4 189.49 39.46 100.67 122.18 0 39.46 35.53 4 94.74 69 148.04 4"/></g></symbol><symbol id="Btn_orange" viewBox="0 0 255.38 255.38"><circle id="Black" cx="127.69" cy="127.69" r="127.69"/><circle id="Orange" class="cls-4" cx="119.94" cy="130.44" r="114.94"/><path id="Shadow" class="cls-5" d="m139.94,215.38c-63.48,0-114.94-51.46-114.94-114.94,0-17.1,7.53-33.32,14.22-47.9-18.89,20.48-30.67,47.84-30.67,77.9,0,63.48,48,108.61,111.39,114.94,46.16,4.61,86.35-27.48,104.51-67.04-21,22.77-51.09,37.04-84.51,37.04Z"/></symbol></defs><use width="255.38" height="255.38" transform="translate(.31 .31)" xlink:href="#Btn_orange"/><use width="201.49" height="122.18" transform="translate(21.92 80.91)" xlink:href="#Arrow-down"/></svg>
