<?xml version="1.0" encoding="UTF-8"?><svg id="Btn_Slider-handle" xmlns="http://www.w3.org/2000/svg" xmlns:xlink="http://www.w3.org/1999/xlink" viewBox="0 0 255.38 255.38"><defs><style>.cls-1{filter:url(#drop-shadow-32);}.cls-1,.cls-2,.cls-3,.cls-4{fill:#ff8400;}.cls-5{fill:#ff440a;}.cls-3{filter:url(#drop-shadow-31);}.cls-4{filter:url(#drop-shadow-30);}.cls-6{fill:#ffb566;}</style><symbol id="Btn_orange" viewBox="0 0 255.38 255.38"><circle id="Black" cx="127.69" cy="127.69" r="127.69"/><circle id="Orange" class="cls-2" cx="119.94" cy="130.44" r="114.94"/><path id="Shadow" class="cls-5" d="m139.94,215.38c-63.48,0-114.94-51.46-114.94-114.94,0-17.1,7.53-33.32,14.22-47.9-18.89,20.48-30.67,47.84-30.67,77.9,0,63.48,48,108.61,111.39,114.94,46.16,4.61,86.35-27.48,104.51-67.04-21,22.77-51.09,37.04-84.51,37.04Z"/></symbol><filter id="drop-shadow-30" filterUnits="userSpaceOnUse"><feOffset dx="12" dy="-4"/><feGaussianBlur result="blur" stdDeviation="0"/><feFlood flood-color="#000" flood-opacity=".6"/><feComposite in2="blur" operator="in"/><feComposite in="SourceGraphic"/></filter><filter id="drop-shadow-31" filterUnits="userSpaceOnUse"><feOffset dx="12" dy="-4"/><feGaussianBlur result="blur-2" stdDeviation="0"/><feFlood flood-color="#000" flood-opacity=".6"/><feComposite in2="blur-2" operator="in"/><feComposite in="SourceGraphic"/></filter><filter id="drop-shadow-32" filterUnits="userSpaceOnUse"><feOffset dx="12" dy="-4"/><feGaussianBlur result="blur-3" stdDeviation="0"/><feFlood flood-color="#000" flood-opacity=".6"/><feComposite in2="blur-3" operator="in"/><feComposite in="SourceGraphic"/></filter></defs><use width="255.38" height="255.38" xlink:href="#Btn_orange"/><g id="lines"><path id="line" class="cls-4" d="m162.38,214.09h15.51c-8.68-19.28.61-137.42,9.7-157.45,0,0-39.78,3.76-39.78,3.76l14.57,153.69Z"/><path id="line-2" class="cls-3" d="m111.87,58.89h15.51c-8.68,19.28.61,137.42,9.7,157.45,0,0-39.78-3.76-39.78-3.76l14.57-153.69Z"/><path id="line-3" class="cls-1" d="m61.36,214.09h15.51c-8.68-19.28.61-137.42,9.7-157.45,0,0-39.78,3.76-39.78,3.76l14.57,153.69Z"/></g><g id="highlights"><path class="cls-6" d="m46.79,60.4s28.57-2.7,39.78-3.76l-44.43-.24,14.57,153.69,4.66,4-14.57-153.69Z"/><polygon class="cls-6" points="111.87 58.89 127.38 58.89 107.21 54.89 92.64 208.58 97.3 212.58 111.87 58.89"/><path class="cls-6" d="m147.81,60.4s28.57-2.7,39.78-3.76l-44.43-.24,14.57,153.69,4.66,4-14.57-153.69Z"/></g></svg>