<?xml version="1.0" encoding="UTF-8"?><svg id="Btn_list" xmlns="http://www.w3.org/2000/svg" xmlns:xlink="http://www.w3.org/1999/xlink" viewBox="0 0 256 256"><defs><style>.cls-1{fill:#ff8400;}.cls-2{filter:url(#drop-shadow-4);}.cls-2,.cls-3,.cls-4,.cls-5,.cls-6,.cls-7{fill:#fff;}.cls-3{filter:url(#drop-shadow-3);}.cls-4{filter:url(#drop-shadow-8);}.cls-5{filter:url(#drop-shadow-5);}.cls-8{fill:#ff440a;}.cls-6{filter:url(#drop-shadow-7);}.cls-7{filter:url(#drop-shadow-6);}</style><symbol id="Btn_orange" viewBox="0 0 255.38 255.38"><circle id="Black" cx="127.69" cy="127.69" r="127.69"/><circle id="Orange" class="cls-1" cx="119.94" cy="130.44" r="114.94"/><path id="Shadow" class="cls-8" d="m139.94,215.38c-63.48,0-114.94-51.46-114.94-114.94,0-17.1,7.53-33.32,14.22-47.9-18.89,20.48-30.67,47.84-30.67,77.9,0,63.48,48,108.61,111.39,114.94,46.16,4.61,86.35-27.48,104.51-67.04-21,22.77-51.09,37.04-84.51,37.04Z"/></symbol><filter id="drop-shadow-3" filterUnits="userSpaceOnUse"><feOffset dx="12" dy="-4"/><feGaussianBlur result="blur" stdDeviation="0"/><feFlood flood-color="#000" flood-opacity=".6"/><feComposite in2="blur" operator="in"/><feComposite in="SourceGraphic"/></filter><filter id="drop-shadow-4" filterUnits="userSpaceOnUse"><feOffset dx="12" dy="-4"/><feGaussianBlur result="blur-2" stdDeviation="0"/><feFlood flood-color="#000" flood-opacity=".6"/><feComposite in2="blur-2" operator="in"/><feComposite in="SourceGraphic"/></filter><filter id="drop-shadow-5" filterUnits="userSpaceOnUse"><feOffset dx="12" dy="-4"/><feGaussianBlur result="blur-3" stdDeviation="0"/><feFlood flood-color="#000" flood-opacity=".6"/><feComposite in2="blur-3" operator="in"/><feComposite in="SourceGraphic"/></filter><filter id="drop-shadow-6" filterUnits="userSpaceOnUse"><feOffset dx="12" dy="-4"/><feGaussianBlur result="blur-4" stdDeviation="0"/><feFlood flood-color="#000" flood-opacity=".6"/><feComposite in2="blur-4" operator="in"/><feComposite in="SourceGraphic"/></filter><filter id="drop-shadow-7" filterUnits="userSpaceOnUse"><feOffset dx="12" dy="-4"/><feGaussianBlur result="blur-5" stdDeviation="0"/><feFlood flood-color="#000" flood-opacity=".6"/><feComposite in2="blur-5" operator="in"/><feComposite in="SourceGraphic"/></filter><filter id="drop-shadow-8" filterUnits="userSpaceOnUse"><feOffset dx="12" dy="-4"/><feGaussianBlur result="blur-6" stdDeviation="0"/><feFlood flood-color="#000" flood-opacity=".6"/><feComposite in2="blur-6" operator="in"/><feComposite in="SourceGraphic"/></filter></defs><use width="255.38" height="255.38" transform="translate(.31 .31)" xlink:href="#Btn_orange"/><g id="list"><path class="cls-3" d="m86.17,177.24c44.97-3.41,100.66-4.73,113.85-.33v-12.5l-113.85-7.99v20.82Z"/><path class="cls-2" d="m86.17,115.55v21.18c45.38-3.55,102.87-5,116.3-.52v-12.5s-116.3-8.16-116.3-8.16Z"/><path class="cls-5" d="m86.17,95.85c44.97-3.41,100.66-4.73,113.85-.33v-12.5l-113.85-7.99v20.82Z"/><path class="cls-7" d="m68.75,154.44l-25.13-1.76s-4.09,32.04-4.09,32.05c4.99-1.68,15.6-3.36,29.23-4.88v-25.4Z"/><path class="cls-6" d="m68.75,139.42v-25.85l-22.68-1.59s-4.09,32.04-4.09,32.05c4.69-1.58,14.33-3.16,26.77-4.6Z"/><path class="cls-4" d="m68.75,73.04l-25.13-1.76s-4.09,32.04-4.09,32.05c4.99-1.68,15.6-3.36,29.23-4.88v-25.4Z"/></g></svg>