<?xml version="1.0" encoding="UTF-8"?><svg id="Btn_Phone-report" xmlns="http://www.w3.org/2000/svg" xmlns:xlink="http://www.w3.org/1999/xlink" viewBox="0 0 256 256"><defs><style>.cls-1{fill:#fce000;}.cls-2{fill:#860b0e;}.cls-3{fill:#fff;filter:url(#drop-shadow-25);}.cls-4{fill:none;filter:url(#drop-shadow-26);}.cls-5{fill:#f40b0e;}</style><symbol id="Btn_red" viewBox="0 0 255.38 255.38"><circle id="Black" cx="127.69" cy="127.69" r="127.69"/><circle id="Red" class="cls-5" cx="119.94" cy="130.44" r="114.94"/><path id="Shadow" class="cls-2" d="m139.94,215.38c-63.48,0-114.94-51.46-114.94-114.94,0-17.1,7.53-33.32,14.22-47.9-18.89,20.48-30.67,47.84-30.67,77.9,0,63.48,48,108.61,111.39,114.94,46.16,4.61,86.35-27.48,104.51-67.04-21,22.77-51.09,37.04-84.51,37.04Z"/></symbol><filter id="drop-shadow-25" filterUnits="userSpaceOnUse"><feOffset dx="12" dy="-4"/><feGaussianBlur result="blur" stdDeviation="0"/><feFlood flood-color="#000" flood-opacity=".6"/><feComposite in2="blur" operator="in"/><feComposite in="SourceGraphic"/></filter><filter id="drop-shadow-26" filterUnits="userSpaceOnUse"><feOffset dx="8" dy="-2"/><feGaussianBlur result="blur-2" stdDeviation="0"/><feFlood flood-color="#000" flood-opacity=".6"/><feComposite in2="blur-2" operator="in"/><feComposite in="SourceGraphic"/></filter></defs><use width="255.38" height="255.38" transform="translate(.31 .31)" xlink:href="#Btn_red"/><path id="hand" class="cls-3" d="m119.87,229.86c-9.07,0-17.78-2.05-25.88-6.08-15.69-7.82-26.14-20.45-31.05-37.52-1.36-4.74-2.05-9.73-2.04-14.84.02-16.49.02-32.98.01-49.47v-19.6c0-2.58,1.24-3.97,3.8-4.24.47-.05.95-.08,1.41-.08,3.82,0,7.12,1.7,9.8,5.06,3.28,4.1,4.99,8.67,5.1,13.57.17,7.65.22,15.43.27,22.96.02,3.41.04,6.81.07,10.22,0,.87.05,1.51.15,2.1.14.88.92,1.51,1.87,1.51,1.05,0,1.83-.65,1.89-1.55.14-1.91.17-3.83.17-5.45,0-4.7,0-9.4,0-14.1,0-4.03,0-8.06,0-12.08l.02-23.19c.02-15.85.03-31.71.03-47.56,0-2.33.25-5.04,2.15-7.5,1.93-2.51,4.83-3.95,7.94-3.95,1.04,0,2.09.16,3.11.47,4.1,1.24,7.06,4.99,7.21,9.12.06,1.72.06,3.46.06,5.15,0,0,0,53.36,0,67.79,0,.68.01,1.46.15,2.16.18.9.98,1.54,1.96,1.54h.14c.93-.06,1.63-.75,1.68-1.67.06-1.07.05-2.18.04-3.26,0-.43,0-.87,0-1.3v-18.36c0-19.2,0-38.4.03-57.59v-.23c0-2.61,0-5.31.49-7.92.88-4.7,4.92-7.98,9.83-7.98.49,0,.99.03,1.49.09,4.97.61,8.73,4.86,8.73,9.88.02,16.25.03,32.5.04,48.75,0,10.68.01,21.37.02,32.05,0,1.56.02,3.62.16,5.68.08,1.12.84,1.85,1.94,1.85,1.07,0,1.88-.79,1.99-1.9.06-.71.05-1.44.04-2.21,0-.29,0-.57,0-.86v-16.66c-.01-17.28-.02-34.56-.01-51.84,0-1.62,0-3.29.38-4.92,1.01-4.37,4.83-7.59,9.29-7.83.2,0,.39-.02.58-.02,4.32,0,8.07,2.55,9.55,6.49.4,1.07.62,2.18.63,3.19.08,12.39.14,25.77.19,42.09.02,6.22.02,12.45.03,18.67,0,4.5,0,8.99.02,13.49,0,.63.17,2.13,1.68,2.3.09,0,.17.01.26.01h0c1.14,0,2-.89,2.03-2.12.04-1.55.04-3.1.04-4.65v-14.2c0-8.53,0-17.07.01-25.6,0-4.77,3.26-8.87,7.91-9.96.79-.18,1.59-.28,2.39-.28,5.19,0,9.52,3.89,10.07,9.06.14,1.28.21,2.52.21,3.7.01,11.92,0,23.83,0,35.75v10.39h0c0,4.31.02,8.61.04,12.92.04,10.24.09,20.83-.09,31.24-.38,21.52-9.7,38.38-27.7,50.13-6.6,4.3-14.17,7.13-22.51,8.39-3.3.5-6.6.76-9.79.76h0Z"/><g id="exclamation" class="cls-4"><path class="cls-1" d="m115.54,212.85c-8.17-.91-16.7-8.01-15.46-19.55,1.12-10.36,10.27-16.67,19.43-15.65,9.75,1.09,16.7,9.89,15.52,19.64-1.23,10.16-10.19,16.63-19.49,15.56Z"/><path class="cls-1" d="m125.58,170.74c-2.57-.45-5.15-.91-7.72-1.33-.48-.08-.47-.34-.46-.68.11-2.93.23-5.85.33-8.78.17-4.87.32-9.74.48-14.61.12-3.52.26-7.03.37-10.55.16-4.94.31-9.87.48-14.81.11-3.34.24-6.68.35-10.02.16-4.89.32-9.78.48-14.68.09-2.73.17-5.46.23-8.19.01-.53.16-.77.76-.76,4.28.05,8.58-.08,12.85.14,3.84.2,7.69.62,11.49,1.22,7.27,1.14,14.35,3.01,20.94,6.4.62.32,1.22.67,1.8,1.05.13.09.24.42.18.56-.95,2.13-1.95,4.23-2.91,6.36-4.11,9.15-8.21,18.3-12.31,27.46-3.46,7.72-6.91,15.45-10.37,23.17-2.83,6.31-5.69,12.6-8.52,18.91-.21.47-.4.59-.92.49-2.5-.49-5.01-.93-7.52-1.39,0,.01,0,.03,0,.04Z"/></g></svg>