<?xml version="1.0" encoding="UTF-8"?><svg id="Btn_Leave" xmlns="http://www.w3.org/2000/svg" xmlns:xlink="http://www.w3.org/1999/xlink" viewBox="0 0 256 256"><defs><style>.cls-1{fill:#ff8400;}.cls-2{fill:#ff440a;}.cls-3{fill:#fff;filter:url(#drop-shadow-1);}</style><symbol id="Btn_orange" viewBox="0 0 255.38 255.38"><circle id="Black" cx="127.69" cy="127.69" r="127.69"/><circle id="Orange" class="cls-1" cx="119.94" cy="130.44" r="114.94"/><path id="Shadow" class="cls-2" d="m139.94,215.38c-63.48,0-114.94-51.46-114.94-114.94,0-17.1,7.53-33.32,14.22-47.9-18.89,20.48-30.67,47.84-30.67,77.9,0,63.48,48,108.61,111.39,114.94,46.16,4.61,86.35-27.48,104.51-67.04-21,22.77-51.09,37.04-84.51,37.04Z"/></symbol><filter id="drop-shadow-1" filterUnits="userSpaceOnUse"><feOffset dx="12" dy="-4"/><feGaussianBlur result="blur" stdDeviation="0"/><feFlood flood-color="#000" flood-opacity=".6"/><feComposite in2="blur" operator="in"/><feComposite in="SourceGraphic"/></filter></defs><use width="255.38" height="255.38" transform="translate(.31 .31)" xlink:href="#Btn_orange"/><path id="icon" class="cls-3" d="m82.67,49.11l9.64,69.39h-21.92v-25.64l-21.25,21.66-21.25,21.66,21.25,21.66,21.25,21.66v-27.58h26.56l7.64,54.98h66.47l17.06-147.16-105.44-10.61Zm77.43,150.71h-24.92l-3.77-108.59,45.73-13.63-17.04,122.23Z"/></svg>