<?xml version="1.0" encoding="UTF-8"?><svg id="Btn_teleport" xmlns="http://www.w3.org/2000/svg" xmlns:xlink="http://www.w3.org/1999/xlink" viewBox="0 0 256 256"><defs><style>.cls-1{fill:#fff;}.cls-2{fill:none;mix-blend-mode:multiply;opacity:.6;}.cls-3{fill:#4187e6;}.cls-4{fill:#3b56fd;}</style><symbol id="Btn_blue" viewBox="0 0 255.38 255.38"><circle id="Black" cx="127.69" cy="127.69" r="127.69"/><circle id="Orange" class="cls-3" cx="119.94" cy="130.44" r="114.94"/><path id="Shadow" class="cls-4" d="m139.94,215.38c-63.48,0-114.94-51.46-114.94-114.94,0-17.1,7.53-33.32,14.22-47.9-18.89,20.48-30.67,47.84-30.67,77.9,0,63.48,48,108.61,111.39,114.94,46.16,4.61,86.35-27.48,104.51-67.04-21,22.77-51.09,37.04-84.51,37.04Z"/></symbol><symbol id="pin" viewBox="0 0 124.38 185.34"><g class="cls-2"><path d="m123.06,53.18C113.36,16.73,81.26-6.39,51.37,1.57,21.47,9.52,5.1,45.52,14.79,81.98c9.7,36.46,71.38,99.36,71.38,99.36,0,0,46.58-91.69,36.89-128.15Zm-54.07,22.6c-14.93,2.15-28.59-6.9-30.5-20.21-1.91-13.31,8.64-25.84,23.58-27.98,14.93-2.15,28.59,6.9,30.5,20.21,1.91,13.31-8.64,25.84-23.58,27.98Z"/></g><path class="cls-1" d="m111.06,57.18C101.36,20.73,69.26-2.39,39.37,5.57,9.47,13.52-6.9,49.52,2.79,85.98c9.7,36.46,71.38,99.36,71.38,99.36,0,0,46.58-91.69,36.89-128.15Zm-54.07,22.6c-14.93,2.15-28.59-6.9-30.5-20.21-1.91-13.31,8.64-25.84,23.58-27.98,14.93-2.15,28.59,6.9,30.5,20.21,1.91,13.31-8.64,25.84-23.58,27.98Z"/></symbol></defs><use width="255.38" height="255.38" transform="translate(.31 .31)" xlink:href="#Btn_blue"/><use width="124.38" height="185.34" transform="translate(57.83 34.66)" xlink:href="#pin"/></svg>