<?xml version="1.0" encoding="UTF-8"?><svg id="Btn_Phone-message-send" xmlns="http://www.w3.org/2000/svg" xmlns:xlink="http://www.w3.org/1999/xlink" viewBox="0 0 256 256"><defs><style>.cls-1{fill:#fff;}.cls-1,.cls-2{fill-rule:evenodd;}.cls-3{fill:none;mix-blend-mode:multiply;opacity:.6;}.cls-4{fill:#29a25a;}.cls-5{fill:#60cb3d;}</style><symbol id="Btn_green" viewBox="0 0 255.38 255.38"><circle id="Black" cx="127.69" cy="127.69" r="127.69"/><circle id="Red" class="cls-5" cx="119.94" cy="130.44" r="114.94"/><path id="Shadow" class="cls-4" d="m139.94,215.38c-63.48,0-114.94-51.46-114.94-114.94,0-17.1,7.53-33.32,14.22-47.9-18.89,20.48-30.67,47.84-30.67,77.9,0,63.48,48,108.61,111.39,114.94,46.16,4.61,86.35-27.48,104.51-67.04-21,22.77-51.09,37.04-84.51,37.04Z"/></symbol><symbol id="Send" viewBox="0 0 183.43 158.51"><g id="icon"><g class="cls-3"><polygon class="cls-2" points="183.43 65.31 41.47 0 12 2.3 27.22 58.38 113.72 70.76 32.48 96.5 23.25 146.26 48.99 154.51 183.43 65.31"/></g><polygon class="cls-1" points="171.43 69.31 29.47 4 0 6.3 15.22 62.38 101.72 74.76 20.48 100.5 11.25 150.26 36.99 158.51 171.43 69.31"/></g></symbol></defs><use width="255.38" height="255.38" transform="translate(.31 .31)" xlink:href="#Btn_green"/><use width="183.43" height="158.51" transform="translate(39.23 52.08)" xlink:href="#Send"/></svg>