<?xml version="1.0" encoding="UTF-8"?><svg id="Btn_Phone-requests-sent-default" xmlns="http://www.w3.org/2000/svg" xmlns:xlink="http://www.w3.org/1999/xlink" viewBox="0 0 256 256"><defs><style>.cls-1,.cls-2{fill:#fff;}.cls-2{fill-rule:evenodd;}.cls-3{mix-blend-mode:multiply;opacity:.6;}.cls-3,.cls-4{fill:none;}.cls-5{fill:#4187e6;}.cls-4{filter:url(#drop-shadow-18);}.cls-6{fill:#adc1de;}.cls-7{fill:#3b56fd;}</style><symbol id="Btn_blue" viewBox="0 0 255.38 255.38"><circle id="Black" cx="127.69" cy="127.69" r="127.69"/><circle id="Orange" class="cls-5" cx="119.94" cy="130.44" r="114.94"/><path id="Shadow" class="cls-7" d="m139.94,215.38c-63.48,0-114.94-51.46-114.94-114.94,0-17.1,7.53-33.32,14.22-47.9-18.89,20.48-30.67,47.84-30.67,77.9,0,63.48,48,108.61,111.39,114.94,46.16,4.61,86.35-27.48,104.51-67.04-21,22.77-51.09,37.04-84.51,37.04Z"/></symbol><symbol id="Mail" viewBox="0 0 162.34 131.76"><g id="mail"><g class="cls-3"><path d="m98.19,85.74c-1.41.29-2.8.04-4.03-.72L13.1,35.23l-1.1-3.42L149.62,0l1.5,11.29-48.84,71.65c-.99,1.46-2.48,2.48-4.09,2.8Zm62.46-2.56l-8.48-63.95-24.92,36.56,33.4,27.39Zm-117.7,44.58l119.39-31.85-.66-4.98-37.45-30.71-17.52,25.69c-1.8,2.71-4.44,4.54-7.43,5.14-2.72.55-5.54.02-7.91-1.48l-24.46-14.91-26.48,45.31,2.51,7.78Zm-4.71-14.6l24.18-41.37L15.62,43.05l22.61,70.11Z"/></g><path class="cls-1" d="m86.19,89.74c-1.41.29-2.8.04-4.03-.72L1.1,39.23l-1.1-3.42L137.62,4l1.5,11.29-48.84,71.65c-.99,1.46-2.48,2.48-4.09,2.8Zm62.46-2.56l-8.48-63.95-24.92,36.56,33.4,27.39Zm-117.7,44.58l119.39-31.85-.66-4.98-37.45-30.71-17.52,25.69c-1.8,2.71-4.44,4.54-7.43,5.14-2.72.55-5.54.02-7.91-1.48l-24.46-14.91-26.48,45.31,2.51,7.78Zm-4.71-14.6l24.18-41.37L3.62,47.05l22.61,70.11Z"/></g></symbol><filter id="drop-shadow-18" filterUnits="userSpaceOnUse"><feOffset dx="4" dy="-1"/><feGaussianBlur result="blur" stdDeviation="0"/><feFlood flood-color="#000" flood-opacity=".6"/><feComposite in2="blur" operator="in"/><feComposite in="SourceGraphic"/></filter></defs><use width="255.38" height="255.38" transform="translate(.31 .31)" xlink:href="#Btn_blue"/><g id="lines"><path class="cls-6" d="m8.37,157.19c.42,1.78.88,3.55,1.38,5.29l70.09-33.8-71.47,28.5Z"/><path class="cls-6" d="m15.4,177.9c1.85,4.11,3.94,8.08,6.24,11.92l81.28-62L15.4,177.9Z"/><path class="cls-6" d="m64.5,231.28c2.82,1.57,5.71,3.02,8.66,4.35l65.92-101.99-74.58,97.64Z"/><path class="cls-6" d="m34.05,206.77c2.26,2.56,4.62,5.01,7.09,7.36l99.52-107.59-106.62,100.22Z"/></g><use width="162.34" height="131.76" transform="translate(57.34 30.84)" xlink:href="#Mail"/><g id="icon" class="cls-4"><path class="cls-2" d="m121.42,73.81c1.86-1.62,4.57-2.6,7.28-3.2-2.86-3.55-5.51-8.56-5.46-14.88.08-9.63,4.67-17.78,11.36-21.53-2.76-3.44-6.55-5.63-10.93-5.68-9.07.09-15.62,9.38-15.71,19.91-.09,11.3,10.47,17.81,10.47,17.81,0,0-9.9-.09-13.61,3.14-5.16,4.49-5.36,17.88-4.19,20.95.61,1.59,7.84,2.49,14.72,2.89-.14-6.27,1.25-15.23,6.07-19.42Z"/><path d="m120.77,73.06c2.23-1.87,4.98-2.76,7.73-3.38,0,0-.54,1.54-.54,1.54-9.51-11.08-6.43-30.36,6.28-37.67,0,0-.22,1.13-.22,1.13-7.46-9.54-19.48-5.89-23.83,4.52-1.75,4.06-2.51,8.79-1.59,13.16,1.44,5.99,5.76,11.01,10.92,14.2-2.48,0-4.99.15-7.43.55-4.47.67-8.06,2.15-9.65,6.71-1.84,5.09-2.48,10.97-1.26,16.27.33.49,1,.65,1.63.87,4.04,1.09,8.42,1.27,12.61,1.52,0,0-.8.77-.8.77-.06-7.03.84-15.03,6.17-20.19h0Zm1.31,1.51c-4.94,4.65-5.86,12.15-5.97,18.65,0,0,0,.83,0,.83l-.81-.06c-4.35-.37-8.66-.62-12.9-1.87-.82-.27-2-.71-2.35-1.63-1.42-6.04-.22-18.7,5.62-22.18,3.94-2.06,8.41-2.28,12.75-2.39,0,0-.17.6-.17.6-9.48-6.54-13.13-16.79-8.77-27.62,4.44-11.35,17.5-15.19,25.7-5.17,0,0,.56.69.56.69l-.79.45c-11.7,6.93-14.48,24.93-5.52,35.15,0,0,.97,1.19.97,1.19-2.92.62-6.17,1.46-8.34,3.36h0Z"/><path class="cls-2" d="m166.89,96.63c-.87,2.29-16.55,4.19-24.09,4.19s-22.17-.85-23.04-3.14c-1.17-3.07-.97-16.46,4.19-20.95,3.71-3.23,13.61-3.14,13.61-3.14,0,0-10.56-6.51-10.47-17.81.09-10.53,6.64-19.82,15.71-19.91,9.07.09,15.62,9.38,15.71,19.91.09,11.3-9.42,16.76-9.42,16.76,0,0,9.9-.09,13.61,3.14,5.16,4.49,5.36,17.88,4.19,20.95Z"/><path d="m167.82,96.99c-1.64,3.45-17.35,4.33-21.37,4.64-7.15.26-14.21-.13-21.29-1.15-1.99-.42-4.04-.53-5.75-1.92-1.05-1.41-.89-3.7-1-5.38.1-6.6,1.06-16.44,8.53-18.68,3.49-1.1,7.06-1.36,10.63-1.38l-.25.86c-1.75-1.18-3.28-2.56-4.67-4.09-4.25-4.5-6.6-10.88-5.54-17.03.77-7.99,6.27-16.71,14.96-17.27,11.24-.54,17.67,12.06,16.83,21.99-.45,6.33-4.19,12.08-9.49,15.51,0,0-.33-1.21-.33-1.21,3.09,0,6.14.24,9.19.97,7.13,1.19,9.22,8.46,9.9,14.66.29,3.18.53,6.32-.35,9.47h0Zm-1.87-.71c1.22-5.43.52-11.92-1.67-17.05-2.53-5.73-9.79-5.7-15.19-6.05,0,0-2.18-.04-2.18-.04l1.85-1.16c11.09-6.83,12.05-21.58,3.88-31.12-5.79-6.55-15.45-5.95-20.67,1-4.86,6.26-6.2,15.62-2.25,22.65,1.95,3.47,4.82,6.48,8.11,8.64l1.38.91-1.66.04c-3.45.09-7.01.43-10.23,1.53-1.59.53-2.99,1.36-3.97,2.74-2.9,4.22-3.36,9.75-3.38,14.77.04,1.42.11,2.91.55,4.25.54.49,1.48.72,2.37.96,11.12,2.06,22.72,2.03,33.89.35,3.05-.55,6.59-.92,9.16-2.43h0Z"/></g></svg>