<?xml version="1.0" encoding="UTF-8"?><svg id="Icn_Stat-Weight" xmlns="http://www.w3.org/2000/svg" xmlns:xlink="http://www.w3.org/1999/xlink" viewBox="0 0 256 256"><defs><style>.cls-1{fill:#fda2a7;}.cls-2{opacity:.8;}.cls-2,.cls-3{fill:none;}.cls-4{fill:#ff4245;}</style><clipPath id="clippath"><path class="cls-3" d="m575-4V255.98h130V-4h-130Zm83.79,198.38c-.8-3.68.61-7.78-.03-9.62-.87-2.49-5.73-16.81-10.61-21.51-.61,2.82.3,17.08.81,18.82,1.82,8.44.36,17.1.51,25.63-.31,10.75.57,21.87.34,32.4,1.53,2.74,5.37,3.72,7.27,6.17.7,5.75-16.09.52-16.16-1.7-.16-.54-2.21-34.64-2.85-46.94-.19-.38-2-.38-2.19,0-.64,12.29-2.69,46.4-2.85,46.94-.07,2.22-16.86,7.45-16.16,1.7,1.9-2.45,5.74-3.42,7.27-6.17-.23-10.54.65-21.66.34-32.4.15-8.53-1.31-17.18.51-25.63.5-1.73,1.41-16,.81-18.82-4.88,4.69-9.74,19.01-10.61,21.51-.64,1.84.78,5.93-.03,9.62-2.18,9.99-11.18,2.42-9.76-3.22,1.08-4.29,3.18-7.66,4.81-11.59,3.15-7.59,5.89-15.31,9-22.9,5.09-12.62,10.02-6.98,14.08-11.17.11-.63.13-.62-.48-.83-3.9-1.37-8.31-2.94-10.5-6.72-.27-.48-.46-.8-1.11-.68-4.08-.74-6.96-13.56-1.83-12.2.22.06.26-.06.22-.26-.2-1.21-.33-2.44-.32-3.67-.04-7.99,7.58-16.55,16.04-16.72h3.27c8.46.18,16.08,8.73,16.04,16.72,0,1.23-.12,2.46-.32,3.67-.03.2,0,.32.22.26,5.14-1.36,2.26,11.46-1.83,12.2-.65-.12-.84.2-1.11.68-2.18,3.77-6.59,5.34-10.5,6.72-.61.2-.59.2-.48.83,4.06,4.19,8.99-1.45,14.08,11.17,3.11,7.59,5.85,15.31,9,22.9,1.63,3.92,3.73,7.29,4.81,11.59,1.42,5.64-7.58,13.21-9.76,3.22Z"/></clipPath></defs><g class="cls-2"><path class="cls-4" d="m6.55,251L48.72,97.17l37.32-3.52-5.44-7.16c-6.42-8.46-9.82-18.55-9.82-29.18,0-26.64,21.67-48.3,48.3-48.3s48.3,21.67,48.3,48.3c0,7.53-1.69,14.75-5.04,21.47l-4,8.05,29.35-2.77,61.14,166.94H6.55ZM119.09,34.92c-12.34,0-22.38,10.04-22.38,22.39s10.04,22.38,22.38,22.38,22.38-10.04,22.38-22.38-10.04-22.39-22.38-22.39Z"/></g><path class="cls-1" d="m119.09,14c23.88,0,43.3,19.43,43.3,43.3,0,6.75-1.52,13.23-4.51,19.25l-8.01,16.1,17.9-1.69,16.56-1.56,57.35,156.6H13.11L52.63,101.82l24.93-2.35,17.9-1.69-10.87-14.32c-5.76-7.58-8.8-16.62-8.8-26.16,0-23.88,19.43-43.3,43.3-43.3m0,70.69c15.1,0,27.39-12.28,27.39-27.38s-12.28-27.39-27.39-27.39-27.39,12.28-27.39,27.39,12.28,27.38,27.39,27.38m0-80.69c-29.44,0-53.3,23.87-53.3,53.3,0,12.1,4.04,23.26,10.84,32.21l-31.81,3L0,256h256l-64.93-177.28-24.24,2.29c3.55-7.14,5.56-15.18,5.56-23.7,0-29.44-23.87-53.3-53.3-53.3h0Zm0,70.69c-9.6,0-17.39-7.78-17.39-17.38s7.78-17.39,17.39-17.39,17.39,7.78,17.39,17.39-7.78,17.38-17.39,17.38h0Z"/></svg>