<?xml version="1.0" encoding="UTF-8"?><svg id="Icn_Effect-Size-down" xmlns="http://www.w3.org/2000/svg" xmlns:xlink="http://www.w3.org/1999/xlink" viewBox="0 0 256 256"><defs><style>.cls-1{opacity:.7;}.cls-1,.cls-2,.cls-3{fill:none;}.cls-4{fill:#6b94c7;}.cls-5{fill:#084ca1;opacity:.8;}.cls-3{clip-path:url(#clippath-1);}</style><clipPath id="clippath"><path class="cls-2" d="m-253-4V255.98H-123V-4h-130Zm83.79,198.38c-.8-3.68.61-7.78-.03-9.62-.87-2.49-5.73-16.81-10.61-21.51-.61,2.82.3,17.08.81,18.82,1.82,8.44.36,17.1.51,25.63-.31,10.75.57,21.87.34,32.4,1.53,2.74,5.37,3.72,7.27,6.17.7,5.75-16.09.52-16.16-1.7-.16-.54-2.21-34.64-2.85-46.94-.19-.38-2-.38-2.19,0-.64,12.29-2.69,46.4-2.85,46.94-.07,2.22-16.86,7.45-16.16,1.7,1.9-2.45,5.74-3.42,7.27-6.17-.23-10.54.65-21.66.34-32.4.15-8.53-1.31-17.18.51-25.63.5-1.73,1.41-16,.81-18.82-4.88,4.69-9.74,19.01-10.61,21.51-.64,1.84.78,5.93-.03,9.62-2.18,9.99-11.18,2.42-9.76-3.22,1.08-4.29,3.18-7.66,4.81-11.59,3.15-7.59,5.89-15.31,9-22.9,5.09-12.62,10.02-6.98,14.08-11.17.11-.63.13-.62-.48-.83-3.9-1.37-8.31-2.94-10.5-6.72-.27-.48-.46-.8-1.11-.68-4.08-.74-6.96-13.56-1.83-12.2.22.06.26-.06.22-.26-.2-1.21-.33-2.44-.32-3.67-.04-7.99,7.58-16.55,16.04-16.72h3.27c8.46.18,16.08,8.73,16.04,16.72,0,1.23-.12,2.46-.32,3.67-.03.2,0,.32.22.26,5.14-1.36,2.26,11.46-1.83,12.2-.65-.12-.84.2-1.11.68-2.18,3.77-6.59,5.34-10.5,6.72-.61.2-.59.2-.48.83,4.06,4.19,8.99-1.45,14.08,11.17,3.11,7.59,5.85,15.31,9,22.9,1.63,3.92,3.73,7.29,4.81,11.59,1.42,5.64-7.58,13.21-9.76,3.22Z"/></clipPath><clipPath id="clippath-1"><path class="cls-2" d="m23-4V255.98h130V-4H23Zm83.79,198.38c-.8-3.68.61-7.78-.03-9.62-.87-2.49-5.73-16.81-10.61-21.51-.61,2.82.3,17.08.81,18.82,1.82,8.44.36,17.1.51,25.63-.31,10.75.57,21.87.34,32.4,1.53,2.74,5.37,3.72,7.27,6.17.7,5.75-16.09.52-16.16-1.7-.16-.54-2.21-34.64-2.85-46.94-.19-.38-2-.38-2.19,0-.64,12.29-2.69,46.4-2.85,46.94-.07,2.22-16.86,7.45-16.16,1.7,1.9-2.45,5.74-3.42,7.27-6.17-.23-10.54.65-21.66.34-32.4.15-8.53-1.31-17.18.51-25.63.5-1.73,1.41-16,.81-18.82-4.88,4.69-9.74,19.01-10.61,21.51-.64,1.84.78,5.93-.03,9.62-2.18,9.99-11.18,2.42-9.76-3.22,1.08-4.29,3.18-7.66,4.81-11.59,3.15-7.59,5.89-15.31,9-22.9,5.09-12.62,10.02-6.98,14.08-11.17.11-.63.13-.62-.48-.83-3.9-1.37-8.31-2.94-10.5-6.72-.27-.48-.46-.8-1.11-.68-4.08-.74-6.96-13.56-1.83-12.2.22.06.26-.06.22-.26-.2-1.21-.33-2.44-.32-3.67-.04-7.99,7.58-16.55,16.04-16.72h3.27c8.46.18,16.08,8.73,16.04,16.72,0,1.23-.12,2.46-.32,3.67-.03.2,0,.32.22.26,5.14-1.36,2.26,11.46-1.83,12.2-.65-.12-.84.2-1.11.68-2.18,3.77-6.59,5.34-10.5,6.72-.61.2-.59.2-.48.83,4.06,4.19,8.99-1.45,14.08,11.17,3.11,7.59,5.85,15.31,9,22.9,1.63,3.92,3.73,7.29,4.81,11.59,1.42,5.64-7.58,13.21-9.76,3.22Z"/></clipPath></defs><g id="grow-2"><g class="cls-3"><g id="big-2" class="cls-1"><path class="cls-4" d="m87.73,7.99c14.17.3,26.93,14.62,26.87,28,0,2.06-.2,4.11-.54,6.14-.05.28-.01.46.21.46.05,0,.1,0,.16-.02.43-.11.83-.17,1.2-.17,6.91,0,2.24,19.43-4.25,20.6-.15-.03-.29-.04-.42-.04-.76,0-1.05.49-1.44,1.19-3.66,6.32-11.04,8.95-17.58,11.25-1.02.34-.98.33-.8,1.38,6.8,7.01,15.06-2.43,23.58,18.71,5.21,12.72,9.8,25.64,15.07,38.35,2.72,6.57,6.25,12.21,8.06,19.4,1.54,6.1-4.21,13.55-9.46,13.55-2.87,0-5.6-2.24-6.89-8.16-1.35-6.17,1.03-13.03-.04-16.11-1.45-4.17-9.59-28.15-17.76-36.01-1.01,4.72.51,28.61,1.35,31.51,3.05,14.14.6,28.63.86,42.92-.52,18,.95,36.62.57,54.26,2.55,4.59,8.99,6.22,12.17,10.33.39,3.2-2.44,4.37-6.42,4.37-7.99,0-20.56-4.74-20.64-7.22-.27-.9-3.7-58.01-4.77-78.6-.16-.32-1-.48-1.83-.48s-1.67.16-1.83.48c-1.07,20.59-4.5,77.7-4.77,78.6-.07,2.48-12.65,7.22-20.64,7.22-3.97,0-6.81-1.17-6.42-4.37,3.18-4.1,9.61-5.73,12.17-10.33-.38-17.65,1.09-36.27.57-54.26.26-14.29-2.19-28.78.86-42.92.84-2.9,2.37-26.79,1.35-31.51-8.17,7.86-16.31,31.84-17.76,36.01-1.07,3.08,1.3,9.94-.04,16.11-1.29,5.92-4.01,8.16-6.89,8.16-5.25,0-11-7.45-9.46-13.55,1.81-7.19,5.33-12.83,8.06-19.4,5.27-12.72,9.86-25.63,15.07-38.35,8.52-21.14,16.78-11.69,23.58-18.71.18-1.05.21-1.04-.8-1.38-6.54-2.3-13.92-4.93-17.58-11.25-.38-.69-.68-1.19-1.44-1.19-.13,0-.26.01-.42.04-6.5-1.17-11.17-20.6-4.25-20.6.37,0,.77.05,1.2.17.06.02.12.02.16.02.22,0,.25-.19.21-.46-.34-2.03-.55-4.08-.54-6.14-.06-13.38,12.69-27.71,26.87-28h5.48m.07-7h-5.7c-8.52.18-17.18,4.3-23.74,11.31-6.37,6.81-10.01,15.44-9.98,23.69,0,.46,0,.93.02,1.4-2.28,1.72-4.02,4.59-4.4,8.76-.36,4,.57,9.02,2.48,13.41,2.19,5.04,5.35,8.46,9.02,9.83,1.81,2.57,4.05,4.61,6.46,6.27-4.6,2.4-9.13,7.11-13.2,17.21-2.51,6.13-4.92,12.4-7.25,18.48-2.5,6.53-5.09,13.27-7.8,19.81-.84,2.04-1.78,3.99-2.77,6.06-2.08,4.36-4.24,8.86-5.61,14.31-1.27,5.04.13,10.82,3.75,15.46,3.37,4.32,7.92,6.79,12.5,6.79,2.52,0,10.96-.99,13.73-13.66.97-4.46.53-8.74.17-12.19-.12-1.17-.28-2.74-.25-3.41l.05-.13c.95-2.75,1.87-5.28,2.75-7.61-2.17,10.28-1.72,20.45-1.29,30.28.21,4.76.41,9.25.33,13.74v.17s0,.16,0,.16c.27,9.16,0,18.72-.26,27.96-.22,7.81-.45,15.87-.35,23.72-.85.73-2.07,1.51-3.2,2.23-2.47,1.58-5.27,3.37-7.46,6.19l-1.18,1.52-.23,1.91c-.38,3.08.48,5.99,2.43,8.18,2.37,2.68,6.05,4.04,10.94,4.04,4.42,0,10.28-1.16,15.66-3.09,4.74-1.7,10.09-4.19,11.58-8.65,1.49,4.46,6.84,6.95,11.58,8.65,5.38,1.94,11.23,3.09,15.66,3.09,4.89,0,8.57-1.36,10.94-4.04,1.94-2.19,2.8-5.1,2.43-8.18l-.23-1.91-1.18-1.52c-2.19-2.83-4.99-4.62-7.46-6.19-1.12-.72-2.35-1.5-3.2-2.23.1-7.85-.13-15.9-.35-23.72-.26-9.24-.53-18.8-.26-27.96v-.17s0-.17,0-.17c-.08-4.49.12-8.99.33-13.75.43-9.83.88-20-1.29-30.28.88,2.32,1.8,4.85,2.75,7.61l.05.13c.03.67-.13,2.24-.25,3.41-.36,3.44-.8,7.73.17,12.19,2.76,12.68,11.21,13.66,13.73,13.66,4.58,0,9.14-2.48,12.5-6.79,3.62-4.64,5.02-10.42,3.75-15.46-1.37-5.45-3.53-9.96-5.61-14.31-.99-2.07-1.93-4.03-2.77-6.06-2.71-6.54-5.3-13.29-7.8-19.81-2.33-6.07-4.73-12.35-7.26-18.51-4.06-10.08-8.59-14.78-13.19-17.18,2.41-1.66,4.65-3.7,6.46-6.27,3.67-1.38,6.83-4.79,9.02-9.83,1.91-4.39,2.84-9.4,2.48-13.4-.37-4.16-2.11-7.04-4.4-8.76.02-.47.02-.94.02-1.4.03-8.25-3.61-16.88-9.98-23.69-6.56-7.01-15.21-11.13-23.74-11.31h-.07Z"/></g></g></g><g id="small"><path class="cls-5" d="m101.26,249.88c-4.11,0-13.24-2.55-13.32-5.28h0c-.36-3.34-2.31-36.71-2.81-46.25-.04,0-.22,0-.26,0-.51,9.54-2.45,42.91-2.81,46.25h0c-.08,2.73-9.21,5.28-13.32,5.28-1.97,0-3.36-.45-4.15-1.34-.39-.44-.82-1.21-.67-2.39l.03-.27.17-.22c.97-1.25,2.33-2.12,3.65-2.97,1.37-.87,2.66-1.7,3.4-2.85-.1-4.99.05-10.19.19-15.23.16-5.57.32-11.32.16-16.88.05-2.83-.08-5.69-.2-8.45-.25-5.72-.51-11.63.73-17.42.36-1.26,1.08-11.22.98-16.12-1.96,2.68-4.96,8.11-8.77,19.09l-.09.27c-.22.62-.09,1.89.05,3.23.19,1.83.43,4.11-.04,6.27-1.07,4.92-3.65,5.66-5.09,5.66-1.72,0-3.57-1.06-4.96-2.83-1.56-2-2.18-4.43-1.66-6.5.74-2.95,1.96-5.49,3.13-7.95.58-1.22,1.19-2.48,1.72-3.77,1.64-3.95,3.19-8,4.69-11.92,1.38-3.61,2.81-7.34,4.31-10.98,3.5-8.68,7.08-9.26,10.25-9.78,1.29-.21,2.35-.38,3.35-1.1-3.75-1.33-8.17-3.05-10.43-6.95-.03-.05-.07-.13-.11-.19h-.07s-.25-.01-.25-.01c-3.44-.62-5.71-6.96-5.37-10.77.19-2.11,1.24-3.41,2.81-3.51-.13-1-.19-1.94-.19-2.84-.04-8.92,8.23-17.53,17.02-17.72h3.29c8.65.18,17.09,8.96,17.04,17.73,0,.89-.06,1.83-.19,2.83,1.58.1,2.62,1.39,2.81,3.51.34,3.81-1.93,10.15-5.37,10.77l-.18.03-.13-.02c-.04.06-.08.13-.1.18-2.27,3.92-6.7,5.64-10.44,6.96,1,.72,2.07.89,3.35,1.1,3.16.52,6.74,1.1,10.25,9.79,1.49,3.64,2.92,7.37,4.3,10.98,1.5,3.92,3.06,7.97,4.69,11.92.54,1.29,1.14,2.56,1.72,3.78,1.18,2.46,2.39,5,3.13,7.95.52,2.07-.1,4.5-1.66,6.5-1.38,1.77-3.23,2.83-4.96,2.83h0c-1.44,0-4.02-.74-5.09-5.66-.47-2.16-.24-4.44-.05-6.27.14-1.34.27-2.61.05-3.23l-.09-.25c-3.08-8.88-6.13-15.52-8.77-19.11-.1,4.9.61,14.86.96,16.07,1.26,5.85,1,11.77.75,17.48-.12,2.76-.25,5.62-.2,8.41-.16,5.61,0,11.36.16,16.93.14,5.03.29,10.23.19,15.23.74,1.16,2.03,1.98,3.4,2.85,1.32.84,2.68,1.71,3.65,2.97l.17.22.03.27c.15,1.18-.29,1.95-.67,2.39-.79.89-2.18,1.34-4.15,1.34Z"/><path class="cls-4" d="m86.63,104.42c8.46.18,16.08,8.73,16.04,16.72,0,1.23-.12,2.46-.32,3.67-.03.17,0,.28.12.28.03,0,.06,0,.1-.01.26-.07.5-.1.72-.1,4.13,0,1.34,11.6-2.54,12.3-.09-.02-.17-.03-.25-.03-.45,0-.63.29-.86.71-2.18,3.77-6.59,5.34-10.5,6.72-.61.2-.59.2-.48.83,4.06,4.19,8.99-1.45,14.08,11.17,3.11,7.59,5.85,15.31,9,22.9,1.63,3.92,3.73,7.29,4.81,11.59.92,3.64-2.52,8.09-5.65,8.09-1.72,0-3.34-1.34-4.11-4.87-.8-3.68.61-7.78-.02-9.62-.87-2.49-5.73-16.81-10.61-21.51-.61,2.82.3,17.08.81,18.82,1.82,8.44.36,17.1.51,25.63-.31,10.75.57,21.87.34,32.4,1.53,2.74,5.37,3.72,7.27,6.17.23,1.91-1.46,2.61-3.83,2.61-4.77,0-12.28-2.83-12.32-4.31-.16-.54-2.21-34.64-2.85-46.94-.1-.19-.6-.28-1.1-.28s-1,.09-1.1.28c-.64,12.29-2.69,46.4-2.85,46.94-.04,1.48-7.55,4.31-12.32,4.31-2.37,0-4.07-.7-3.83-2.61,1.9-2.45,5.74-3.42,7.27-6.17-.23-10.54.65-21.66.34-32.4.15-8.53-1.31-17.18.51-25.63.5-1.73,1.41-16,.81-18.82-4.88,4.69-9.74,19.01-10.61,21.51-.64,1.84.78,5.93-.02,9.62-.77,3.53-2.4,4.87-4.11,4.87-3.13,0-6.57-4.45-5.65-8.09,1.08-4.29,3.18-7.66,4.81-11.59,3.15-7.59,5.89-15.31,9-22.9,5.09-12.62,10.02-6.98,14.08-11.17.11-.63.13-.62-.48-.83-3.9-1.37-8.31-2.94-10.5-6.72-.23-.41-.41-.71-.86-.71-.08,0-.16,0-.25.03-3.88-.7-6.67-12.3-2.54-12.3.22,0,.46.03.72.1.04,0,.07.01.1.01.13,0,.15-.11.12-.28-.2-1.21-.33-2.44-.32-3.67-.04-7.99,7.58-16.55,16.04-16.72h3.27m.02-2h-3.29c-9.34.19-18.09,9.3-18.04,18.73,0,.66.03,1.33.09,2.04-1.32.47-2.49,1.74-2.71,4.21-.37,4.12,2.07,10.98,6.08,11.82,1.96,3.17,5.17,4.93,8.29,6.19-.21.04-.43.07-.67.11-3.99.65-7.58,1.89-11.01,10.4-1.5,3.65-2.93,7.39-4.31,11-1.5,3.91-3.05,7.95-4.68,11.88-.53,1.27-1.12,2.52-1.7,3.73-1.2,2.5-2.44,5.09-3.2,8.14-.6,2.37.09,5.12,1.84,7.36,1.57,2.01,3.72,3.22,5.75,3.22,1.4,0,4.8-.63,6.07-6.44.51-2.32.26-4.69.06-6.59-.1-1.01-.25-2.38-.1-2.8l.09-.26c2.73-7.88,5.02-12.84,6.79-15.97-.13,4.87-.59,11.18-.89,12.32v.05s-.03.08-.03.08c-1.27,5.91-1.01,11.89-.75,17.67.12,2.75.25,5.59.2,8.34v.05s0,.05,0,.05c.16,5.53,0,11.27-.16,16.82-.14,4.94-.28,10.04-.2,14.95-.65.86-1.76,1.57-2.93,2.32-1.39.89-2.83,1.81-3.91,3.2l-.34.44-.07.55c-.19,1.55.39,2.58.92,3.17.99,1.11,2.63,1.68,4.9,1.68,2.4,0,5.62-.64,8.61-1.72,5-1.8,5.68-3.37,5.71-4.53h-.01c.31-3.04,1.24-18.45,1.96-30.9.72,12.45,1.65,27.87,1.96,30.9h-.01c.03,1.17.72,2.73,5.71,4.53,2.99,1.08,6.21,1.72,8.61,1.72,2.27,0,3.91-.56,4.9-1.68.52-.59,1.11-1.62.92-3.17l-.07-.55-.34-.44c-1.08-1.39-2.52-2.31-3.91-3.2-1.17-.74-2.27-1.45-2.93-2.32.09-4.92-.06-10.02-.2-14.95-.16-5.55-.32-11.29-.16-16.82v-.05s0-.05,0-.05c-.05-2.75.08-5.59.2-8.34.26-5.78.52-11.76-.75-17.67v-.07s-.03-.07-.03-.07c-.31-1.14-.76-7.45-.89-12.32,1.78,3.12,4.06,8.09,6.79,15.97l.09.26c.14.42,0,1.79-.1,2.8-.2,1.9-.44,4.27.06,6.59,1.27,5.82,4.67,6.44,6.07,6.44,2.03,0,4.18-1.2,5.75-3.22,1.75-2.24,2.44-5,1.84-7.36-.77-3.04-2-5.63-3.2-8.14-.58-1.21-1.18-2.46-1.7-3.73-1.63-3.93-3.18-7.98-4.68-11.89-1.39-3.61-2.82-7.35-4.32-11.01-3.43-8.5-7.01-9.74-11.01-10.39-.23-.04-.46-.07-.67-.11,3.15-1.27,6.35-3.02,8.3-6.19,4-.84,6.45-7.71,6.08-11.82-.22-2.47-1.4-3.74-2.71-4.21.07-.71.1-1.39.09-2.06.05-9.42-8.7-18.52-18-18.71h-.02Z"/></g><polygon class="cls-5" points="148.11 187.02 232.02 187.02 190.06 237.08 148.11 187.02"/><path class="cls-4" d="m221.31,192.02l-31.24,37.28-31.24-37.28h62.48m21.43-10h-105.33l52.67,62.85,52.67-62.85h0Z"/><path class="cls-4" d="m167.07,184.68h45.98c-28.29-28.21-13.89-91.08,0-153.55l-45.98-20c19.77,82.77,22.59,158.47,0,173.55Z"/></svg>