<?xml version="1.0" preserveAspectRatio="none" encoding="UTF-8"?><svg id="Label_SP-white" xmlns="http://www.w3.org/2000/svg" xmlns:xlink="http://www.w3.org/1999/xlink" viewBox="0 0 498 172"><defs><style>.cls-1{opacity:.5;}.cls-2,.cls-3,.cls-4{stroke-width:0px;}.cls-3{fill:#012257;}.cls-4{fill:#030c52;}</style><filter id="drop-shadow-1" filterUnits="userSpaceOnUse"><feOffset dx="-3" dy="3"/><feGaussianBlur result="blur" stdDeviation="0"/><feFlood flood-color="#fff" flood-opacity=".4"/><feComposite in2="blur" operator="in"/><feComposite in="SourceGraphic"/></filter></defs><g id="blue-drk"><polygon id="bg" class="cls-2" points="488.22 101.22 32.83 172 0 41.06 497.42 0 488.22 101.22"/><polygon id="main" class="cls-3" points="486.44 96.89 37.11 163.11 5.56 35.11 490.44 4.44 486.44 96.89"/><g id="dots" class="cls-1"><path class="cls-4" d="m420.47,47.4c-.06,5.42,4.02,9.64,9.38,9.7,5.32.05,9.56-4.07,9.62-9.35.06-5.29-4.09-9.59-9.32-9.67-5.26-.08-9.61,4.12-9.67,9.32Z"/><path class="cls-4" d="m415.24,41.53c5.31.06,9.57-4.06,9.64-9.33.06-5.3-4.08-9.6-9.31-9.69-5.28-.08-9.63,4.09-9.69,9.3-.06,5.42,4.02,9.65,9.36,9.72Z"/><path class="cls-4" d="m389.35,47.49c-.04,5.3,4.11,9.55,9.37,9.58,5.31.03,9.56-4.1,9.6-9.36.04-5.26-4.16-9.58-9.37-9.61-5.26-.04-9.56,4.17-9.6,9.39Z"/><path class="cls-4" d="m414.27,72.64c5.32.04,9.56-4.09,9.61-9.35.05-5.26-4.16-9.59-9.36-9.63-5.25-.04-9.57,4.17-9.61,9.38-.04,5.3,4.11,9.56,9.36,9.59Z"/><path class="cls-4" d="m399.75,25.7c5.1.02,9.29-4.09,9.3-9.11,0-2.7-1.11-5.11-2.89-6.82l-13.48.85c-1.29,1.57-2.07,3.57-2.08,5.74-.02,5.22,4,9.31,9.16,9.33Z"/><path class="cls-4" d="m421.71,16.33c-.04,5.22,3.96,9.33,9.13,9.37,5.1.04,9.31-4.06,9.33-9.07.02-3.9-2.28-7.22-5.59-8.65l-8.28.52c-2.71,1.58-4.56,4.5-4.58,7.83Z"/><path class="cls-4" d="m445.52,53.94c-5.01,0-9.16,4.1-9.2,9.08-.05,5.17,4.03,9.34,9.15,9.36,5.01.01,9.24-4.08,9.28-9,.04-5.22-4.08-9.44-9.22-9.44Z"/><path class="cls-4" d="m384.24,41.25c5.01-.02,9.21-4.14,9.22-9.06.01-5.18-4.05-9.35-9.15-9.38-5.06-.04-9.25,4.1-9.27,9.13-.01,5.18,4.08,9.32,9.2,9.31Z"/><path class="cls-4" d="m446.44,41.25c5.01.02,9.24-4.08,9.28-9,.04-5.22-4.07-9.44-9.22-9.44-5.01,0-9.15,4.09-9.2,9.08-.05,5.17,4.02,9.34,9.14,9.36Z"/><path class="cls-4" d="m429.71,69.53c-5.06.17-9.02,4.35-8.88,9.37.14,5.14,4.22,9.13,9.21,9.03,5.09-.11,9.26-4.36,9.11-9.3-.15-5.17-4.4-9.27-9.44-9.1Z"/><path class="cls-4" d="m383.53,72.32c5.23-.31,9.24-4.59,8.9-9.5-.37-5.21-4.66-9.16-9.58-8.81-5.11.36-9.01,4.6-8.68,9.43.35,5.24,4.49,9.16,9.36,8.87Z"/><path class="cls-4" d="m398.84,69.56c-4.95-.01-9.08,4.06-9.14,9.01-.06,5.11,4.02,9.3,9.08,9.32,4.97.02,9.22-4.16,9.22-9.08,0-5.07-4.12-9.25-9.16-9.26Z"/><path class="cls-4" d="m419.24,8.95l-6.8.43c.89.32,1.84.5,2.82.5,1.42,0,2.77-.34,3.98-.93Z"/><path class="cls-4" d="m461.01,56.51c4.88-.04,8.98-4.15,8.93-8.99-.04-4.87-4.12-8.88-8.96-8.8-4.81.08-8.79,4.02-8.79,8.72,0,4.99,4,9.11,8.82,9.08Z"/><path class="cls-4" d="m368.95,56.39c4.7-.1,8.59-4.2,8.5-8.97-.08-4.75-4.15-8.7-8.88-8.61-4.94.09-8.81,4.01-8.71,8.84.1,5,4.1,8.85,9.08,8.75Z"/><path class="cls-4" d="m414.18,85.53c-4.63,0-8.54,3.95-8.54,8.63,0,4.9,3.95,8.87,8.84,8.88,4.65,0,8.67-4.09,8.67-8.84,0-4.73-4.08-8.68-8.97-8.67Z"/><path class="cls-4" d="m452.76,6.83l-11.74.74c1.52,1.26,3.46,2.02,5.55,2,2.4-.02,4.61-1.09,6.19-2.74Z"/><path class="cls-4" d="m462.24,25.05c4.68-.06,8.44-3.91,8.41-8.6-.03-4.77-3.85-8.58-8.58-8.57-4.8,0-8.61,3.85-8.59,8.67.02,4.79,3.91,8.56,8.76,8.5Z"/><path class="cls-4" d="m368.71,25.05c4.72.03,8.57-3.83,8.56-8.57,0-1.77-.54-3.42-1.45-4.79l-14.81.94c-.58,1.17-.91,2.48-.91,3.88,0,4.73,3.82,8.51,8.61,8.54Z"/><path class="cls-4" d="m461.21,70.2c-4.77-.04-8.62,3.73-8.64,8.46-.02,4.74,3.69,8.52,8.4,8.56,4.81.04,8.61-3.68,8.63-8.44.03-4.7-3.72-8.53-8.39-8.58Z"/><path class="cls-4" d="m445.59,85.79c-4.66-.04-8.54,3.78-8.57,8.44-.03,4.69,3.76,8.52,8.44,8.55,4.7.03,8.53-3.74,8.56-8.42.03-4.69-3.74-8.52-8.43-8.56Z"/><path class="cls-4" d="m367.6,70.25c-4.43-.05-8.32,3.85-8.37,8.4-.05,4.69,3.7,8.47,8.46,8.52,4.61.05,8.43-3.72,8.48-8.36.06-4.71-3.74-8.49-8.57-8.55Z"/><path class="cls-4" d="m383.23,85.81c-4.57,0-8.43,3.87-8.43,8.45,0,4.62,3.77,8.44,8.39,8.48,4.68.04,8.53-3.76,8.55-8.44.02-4.67-3.82-8.49-8.5-8.5Z"/><path class="cls-4" d="m353.12,40.28c4.49-.02,8.27-3.78,8.24-8.19-.03-4.6-3.72-8.31-8.25-8.3-4.51.01-8.21,3.69-8.22,8.19-.02,4.55,3.73,8.33,8.23,8.31Z"/><path class="cls-4" d="m476.69,54.91c-4.51-.02-8.23,3.65-8.27,8.14-.04,4.56,3.67,8.35,8.19,8.35,4.48,0,8.29-3.74,8.28-8.14-.01-4.6-3.68-8.33-8.2-8.35Z"/><path class="cls-4" d="m477.55,40.28c4.47.03,8.31-3.72,8.32-8.11,0-4.59-3.66-8.35-8.17-8.38-4.51-.03-8.24,3.61-8.3,8.11-.06,4.55,3.64,8.36,8.16,8.39Z"/><path class="cls-4" d="m352.2,71.27c4.38-.01,7.99-3.58,8.01-7.91.02-4.73-3.48-8.31-8.11-8.31-4.42,0-8.06,3.69-8.05,8.17.01,4.44,3.69,8.07,8.16,8.06Z"/><path class="cls-4" d="m429.9,101.74c-3.13,0-5.87,1.86-7.2,4.55l13.19-1.94c-1.46-1.61-3.57-2.6-6-2.6Z"/><path class="cls-4" d="m398.93,101.78c-4.41-.07-8.09,3.5-8.15,7.92,0,.44.03.86.09,1.28l15.87-2.34c-.6-3.91-3.76-6.79-7.82-6.86Z"/><path class="cls-4" d="m484.66,47.49c-.03,2.85,1.42,5.28,3.64,6.6l.57-13.28c-2.48,1.21-4.18,3.73-4.21,6.68Z"/><path class="cls-4" d="m477.52,8.46c2.81.03,5.23-1.41,6.57-3.61l-12.38.78c1.41,1.83,3.57,2.85,5.81,2.83Z"/><path class="cls-4" d="m337.62,55.07c4.09-.09,7.43-3.46,7.42-7.49-.01-4.08-3.47-7.5-7.56-7.48-3.94.02-7.37,3.58-7.31,7.58.06,4.13,3.44,7.47,7.45,7.38Z"/><path class="cls-4" d="m476.54,86.79c-3.95.05-7.36,3.62-7.27,7.62.04,1.81.71,3.46,1.79,4.74l12.4-1.83c.44-.95.69-2,.68-3.1-.05-4.09-3.53-7.5-7.6-7.44Z"/><path class="cls-4" d="m352.13,86.96c-3.97,0-7.25,3.21-7.27,7.12-.03,4.25,3.16,7.48,7.41,7.5,3.93.02,7.19-3.23,7.2-7.18.01-4.18-3.2-7.45-7.33-7.45Z"/><path class="cls-4" d="m367.75,102.53c-4.03-.02-7.32,3.2-7.33,7.18,0,2.18.85,4.09,2.26,5.42l11.43-1.68c.57-1.02.91-2.19.92-3.41.03-4.2-3.15-7.48-7.27-7.51Z"/><path class="cls-4" d="m486.03,16.49c0,2.65,1.47,4.98,3.62,6.22l.55-12.75c-2.45,1.13-4.17,3.63-4.17,6.54Z"/><path class="cls-4" d="m337.48,23.59c3.75.05,7.1-3.22,7.13-6.99.01-1.04-.18-2.02-.54-2.9l-13.36.84c-.15.56-.25,1.15-.26,1.76-.08,4.03,3,7.23,7.02,7.28Z"/><path class="cls-4" d="m485.11,78.57c-.04,1.97.69,3.74,1.9,5.04l.44-10.2c-1.41,1.26-2.31,3.09-2.35,5.16Z"/><path class="cls-4" d="m336.62,71.75c-3.84,0-7,3.15-6.97,6.95.03,3.9,3.08,7.01,6.9,7.02,3.76.01,7.04-3.24,7-6.96-.03-3.86-3.16-7.02-6.93-7.01Z"/><path class="cls-4" d="m322.03,25.74c-3.48-.02-6.25,2.81-6.26,6.39,0,3.3,2.78,6.13,6.09,6.19,3.31.06,6.31-2.91,6.33-6.26.02-3.52-2.69-6.3-6.17-6.32Z"/><path class="cls-4" d="m321.21,57.05c-3.39-.07-6.22,2.59-6.29,5.92-.08,3.41,2.56,6.22,5.91,6.3,3.38.08,6.23-2.6,6.29-5.91.07-3.39-2.6-6.23-5.91-6.3Z"/><path class="cls-4" d="m336.46,104.28c-2.98.05-5.45,2.58-5.45,5.57,0,3.06,2.53,5.58,5.57,5.56,3.07-.02,5.59-2.53,5.57-5.56-.01-3.11-2.58-5.62-5.69-5.57Z"/><path class="cls-4" d="m321.07,89.19c-2.87.02-5.18,2.29-5.14,5.06.03,2.7,2.53,5.16,5.18,5.1,2.7-.06,5.04-2.46,5-5.12-.05-2.78-2.33-5.06-5.04-5.04Z"/><path class="cls-4" d="m306.48,42.84c-2.61-.02-4.76,2.13-4.78,4.8-.02,2.54,2.18,4.71,4.75,4.69,2.55-.02,4.77-2.22,4.76-4.72,0-2.51-2.22-4.75-4.73-4.77Z"/><path class="cls-4" d="m306.29,20.61c2.3.01,4.28-1.94,4.29-4.21,0-.2-.03-.38-.06-.57l-8.22.52s0,.02,0,.03c0,2.21,1.9,4.23,3.99,4.24Z"/><path class="cls-4" d="m305.45,74.83c-2.1-.03-3.89,1.71-3.9,3.81-.01,2.28,1.62,3.98,3.82,3.97,2.15,0,3.98-1.81,3.98-3.91,0-2.03-1.84-3.84-3.89-3.87Z"/><path class="cls-4" d="m290.9,29.64c-1.19-.01-2.38,1.12-2.41,2.29-.04,1.26,1.1,2.45,2.35,2.47,1.24.02,2.35-1.03,2.4-2.28.05-1.24-1.1-2.47-2.34-2.49Z"/><path class="cls-4" d="m289.79,60.98c-1.21.06-2.13,1.05-2.06,2.25.07,1.26,1.02,2.16,2.22,2.09,1.2-.07,2.15-1.08,2.11-2.25-.04-1.12-1.14-2.14-2.27-2.09Z"/><path class="cls-4" d="m305.48,107.9c-1.13-.02-1.93.72-1.97,1.81-.05,1.21.69,2.05,1.83,2.08,1.15.04,2.05-.77,2.07-1.87.02-1.14-.8-2.01-1.92-2.02Z"/></g><g id="dots-2" class="cls-1"><path class="cls-4" d="m80.57,142.85c-5.28-.08-9.63,4.09-9.69,9.3-.02,2.16.62,4.13,1.73,5.73l16.79-2.47c.3-.9.46-1.86.47-2.87.06-5.3-4.08-9.6-9.31-9.69Z"/><path class="cls-4" d="m58.78,159.92l7.62-1.12c-.78-.22-1.6-.35-2.45-.36-1.9-.01-3.67.53-5.17,1.48Z"/><path class="cls-4" d="m64.86,127.57c-5.07-.03-9.25,4.09-9.28,9.13-.02,5.22,4,9.31,9.16,9.33,5.1.02,9.29-4.09,9.3-9.11,0-5.18-4.07-9.33-9.18-9.36Z"/><path class="cls-4" d="m96.02,127.57c-5.08-.05-9.27,4.05-9.31,9.1-.04,5.22,3.96,9.33,9.13,9.37,5.1.04,9.31-4.06,9.33-9.07.02-5.18-4.04-9.35-9.15-9.4Z"/><path class="cls-4" d="m58.47,152.53c.01-5.18-4.05-9.35-9.15-9.38-5.06-.04-9.25,4.1-9.27,9.13-.01,4.76,3.44,8.63,7.97,9.22l4.96-.73c3.2-1.44,5.48-4.62,5.49-8.24Z"/><path class="cls-4" d="m111.5,143.15c-5.01,0-9.15,4.09-9.2,9.08,0,.43.03.85.08,1.27l18.19-2.68c-.78-4.37-4.52-7.66-9.06-7.66Z"/><path class="cls-4" d="m80.53,112.3c-4.96-.05-9.14,3.99-9.1,8.82.04,5,4.01,9.08,8.84,9.09,4.93.01,9-3.98,9.05-8.89.05-4.85-3.96-8.97-8.79-9.02Z"/><path class="cls-4" d="m36.23,159.53l.88,3.58,3.49-.51c-1.11-1.43-2.63-2.52-4.37-3.07Z"/><path class="cls-4" d="m111.48,112.58c-4.7.01-8.73,4.06-8.66,8.71.07,4.76,4.04,8.67,8.75,8.62,4.67-.05,8.62-4.02,8.62-8.64,0-4.71-4.01-8.7-8.7-8.69Z"/><path class="cls-4" d="m127.07,128.21c-4.8,0-8.61,3.85-8.59,8.67.02,4.79,3.91,8.56,8.76,8.5,4.68-.06,8.44-3.91,8.41-8.6-.03-4.77-3.85-8.58-8.58-8.57Z"/><path class="cls-4" d="m49.36,112.65c-4.78-.07-8.68,3.77-8.69,8.56-.01,4.81,3.8,8.61,8.66,8.61,4.68,0,8.47-3.8,8.5-8.5.03-4.76-3.73-8.6-8.47-8.67Z"/><path class="cls-4" d="m42.27,136.82c-.01-4.76-3.81-8.59-8.54-8.6-1.81,0-3.47.54-4.85,1.47l3.86,15.64c.32.04.65.06.99.06,4.72.03,8.57-3.83,8.56-8.57Z"/><path class="cls-4" d="m64.76,113.96c4.62,0,8.33-3.62,8.34-8.16.01-4.69-3.6-8.38-8.23-8.42-4.61-.03-8.3,3.6-8.31,8.18-.01,4.73,3.56,8.39,8.2,8.39Z"/><path class="cls-4" d="m95.91,97.39c-4.6,0-8.25,3.67-8.23,8.26.02,4.73,3.61,8.33,8.28,8.32,4.6-.02,8.27-3.68,8.26-8.24-.02-4.68-3.66-8.34-8.31-8.34Z"/><path class="cls-4" d="m142.7,144.12c-3.22-.02-6.02,1.83-7.4,4.52l13.25-1.95c-1.48-1.56-3.56-2.55-5.85-2.56Z"/><path class="cls-4" d="m80.3,97.73c4.13.08,7.61-3.29,7.7-7.45.09-4.22-3.27-7.71-7.5-7.78-4.23-.08-7.67,3.26-7.75,7.53-.08,4.22,3.25,7.62,7.54,7.71Z"/><path class="cls-4" d="m33.81,98.1c-4.21-.06-7.63,3.24-7.69,7.41-.06,4.32,3.19,7.66,7.48,7.71,4.21.05,7.59-3.25,7.63-7.45.04-4.23-3.24-7.62-7.42-7.67Z"/><path class="cls-4" d="m127.12,113.23c4.17,0,7.5-3.38,7.49-7.59,0-4.2-3.37-7.55-7.56-7.54-4.25,0-7.58,3.38-7.55,7.67.02,4.19,3.38,7.47,7.62,7.46Z"/><path class="cls-4" d="m142.73,113.67c-4.18-.04-7.67,3.23-7.64,7.33.03,4.88,3.62,7.83,7.43,7.79,4.23.05,7.6-3.22,7.66-7.45.06-4.22-3.26-7.63-7.44-7.68Z"/><path class="cls-4" d="m111.68,97.36c3.73.02,7.04-3.32,7.05-7.11,0-4.14-3.21-7.43-7.24-7.41-3.94.02-7.22,3.28-7.24,7.19-.02,3.91,3.43,7.3,7.43,7.33Z"/><path class="cls-4" d="m49.44,97.32c3.69-.04,6.95-3.42,6.93-7.2-.02-4.04-3.13-7.21-7.09-7.24-3.95-.03-7.26,3.29-7.25,7.26,0,3.82,3.51,7.21,7.41,7.17Z"/><path class="cls-4" d="m158.19,129.64c-3.94-.03-7.16,3.2-7.16,7.19,0,3.96,3.25,7.19,7.2,7.16,3.74-.03,7.02-3.35,7.03-7.12.01-4.08-3.04-7.2-7.06-7.23Z"/><path class="cls-4" d="m95.96,81.02c3.62-.05,6.53-2.98,6.47-6.51-.06-3.58-3-6.46-6.56-6.44-3.5.02-6.41,2.99-6.37,6.47.05,3.66,2.91,6.53,6.46,6.48Z"/><path class="cls-4" d="m64.83,81.02c3.62-.05,6.53-2.97,6.47-6.51-.06-3.58-3-6.46-6.56-6.44-3.5.02-6.41,2.98-6.37,6.47.05,3.66,2.9,6.53,6.46,6.48Z"/><path class="cls-4" d="m142.64,96.04c3.15,0,5.88-2.73,5.89-5.88,0-3.31-2.6-5.99-5.86-6.02-3.17-.02-5.94,2.6-5.97,5.65-.04,3.4,2.67,6.25,5.94,6.25Z"/><path class="cls-4" d="m24.02,90.14c0-3.31-2.62-5.99-5.88-5.99-.17,0-.33.01-.49.02l2.8,11.36c2.07-.93,3.57-3.05,3.57-5.39Z"/><path class="cls-4" d="m158.19,111.6c3.14.02,5.89-2.71,5.91-5.86.02-3.31-2.57-5.99-5.84-6.04-3.16-.04-5.95,2.58-5.99,5.63-.05,3.39,2.66,6.25,5.93,6.27Z"/><path class="cls-4" d="m126.96,80.11c3.06.05,5.63-2.42,5.67-5.46.05-3.1-2.47-5.65-5.59-5.67-2.97-.02-5.49,2.46-5.55,5.46-.06,3.04,2.43,5.62,5.46,5.67Z"/><path class="cls-4" d="m33.7,80.05c2.99-.03,5.51-2.54,5.5-5.49,0-3.04-2.57-5.58-5.59-5.53-2.98.05-5.46,2.59-5.43,5.56.03,3.01,2.53,5.48,5.51,5.45Z"/><path class="cls-4" d="m173.83,115.81c-2.93-.05-5.46,2.43-5.46,5.35,0,3,2.38,5.47,5.32,5.49,3,.02,5.42-2.42,5.45-5.49.03-2.91-2.34-5.3-5.31-5.35Z"/><path class="cls-4" d="m80.18,64.03c2.72.04,5.17-2.37,5.16-5.08-.01-2.82-2.24-5.05-4.99-5.01-2.78.04-5.05,2.31-5.03,5.02.02,2.74,2.22,5.02,4.86,5.06Z"/><path class="cls-4" d="m49.28,63.42c2.51,0,4.45-1.96,4.42-4.47-.02-2.43-1.99-4.41-4.38-4.41-2.41,0-4.45,2-4.45,4.35,0,2.45,2.03,4.53,4.42,4.53Z"/><path class="cls-4" d="m111.54,63.42c2.51,0,4.44-1.96,4.42-4.47-.03-2.43-1.99-4.41-4.39-4.4-2.41,0-4.45,2-4.45,4.36,0,2.45,2.03,4.53,4.42,4.52Z"/><path class="cls-4" d="m193.6,136.8c0-2.27-1.91-4.22-4.14-4.22-2.35,0-4.28,1.89-4.29,4.19,0,1.86,1.27,3.53,2.93,4.09l3.59-.53c1.14-.77,1.91-2.07,1.91-3.53Z"/><path class="cls-4" d="m158.15,77.67c1.65,0,3.19-1.48,3.19-3.06,0-1.66-1.57-3.22-3.2-3.18-1.64.04-3.08,1.55-3.04,3.19.05,1.6,1.5,3.06,3.05,3.05Z"/><path class="cls-4" d="m173.68,93.23c1.64.01,3.2-1.44,3.22-3.02.03-1.65-1.53-3.23-3.17-3.22-1.64.02-3.1,1.52-3.07,3.15.02,1.59,1.47,3.08,3.02,3.09Z"/><path class="cls-4" d="m64.67,46.21c1.54.07,2.85-1.09,2.95-2.61.1-1.5-1.12-2.89-2.61-2.96-1.67-.08-2.88,1-2.99,2.67-.1,1.51,1.1,2.82,2.64,2.9Z"/><path class="cls-4" d="m95.84,46.22c1.58.05,2.93-1.23,2.93-2.78,0-1.47-1.22-2.75-2.66-2.8-1.71-.06-2.94,1.12-2.96,2.84-.02,1.44,1.21,2.69,2.69,2.74Z"/><path class="cls-4" d="m18.09,56.33c-1.5,0-2.69,1.24-2.65,2.74.04,1.44,1.24,2.6,2.68,2.59,1.51-.01,2.72-1.24,2.68-2.72-.04-1.36-1.34-2.62-2.71-2.61Z"/><path class="cls-4" d="m142.62,61.65c1.51,0,2.73-1.23,2.69-2.71-.04-1.36-1.33-2.62-2.7-2.62-1.5,0-2.69,1.22-2.66,2.73.03,1.44,1.23,2.61,2.67,2.6Z"/><path class="cls-4" d="m189.29,103.18c-1.41.03-2.42,1.07-2.43,2.49,0,1.46,1.06,2.51,2.54,2.51,1.39,0,2.46-1.08,2.47-2.47,0-1.37-1.2-2.55-2.57-2.53Z"/><path class="cls-4" d="m127.02,45.16c.94,0,1.79-.84,1.78-1.77,0-.83-.91-1.74-1.71-1.73-.89,0-1.82.93-1.8,1.8.02.87.87,1.7,1.73,1.71Z"/><path class="cls-4" d="m33.63,45.16c.94.01,1.79-.82,1.79-1.76,0-.82-.89-1.74-1.69-1.75-.88,0-1.82.92-1.81,1.79.01.87.85,1.71,1.71,1.72Z"/></g></g></svg>