<?xml version="1.0" encoding="UTF-8"?><svg id="Icn_Junk-recycling" xmlns="http://www.w3.org/2000/svg" viewBox="0 0 72 72"><defs><style>.cls-1{fill:#fff;}.cls-2{fill:none;opacity:.7;}.cls-3{fill:#60cb3d;}</style></defs><g class="cls-2"><path class="cls-3" d="m28.86,59.82l10.54-11.17,4.11,4.72-6.39,5.07,2.13-.17c10.51-.81,17.46-1.34,20.7-5.39,2.26-2.83,2.78-7.45,1.68-14.96l-.08-.57,2.67,1.85.03.05c5.14,9.18,6.66,14.96,4.75,18.21-1.93,3.29-7.23,3.74-12.67,3.74-2.5,0-5.29-.11-8.25-.23-3.53-.14-7.17-.28-11.06-.28h-.16l5.77,5.44-4.73,4.82-9.03-11.14Zm-11.95,1.72c-7.92,0-12.37-1.29-13.99-4.07-2.33-3.99,1.48-10.75,6.3-19.29,1.6-2.83,3.39-6.02,5.11-9.36l-7.17,3.04-2.51-6.27,13.83-3.78,5.98,14.14-5.98,1.86-2.14-8.18-.91,2.16c-3.94,9.37-6.54,15.55-4.48,20.08,1.43,3.16,5.17,5.6,12.1,7.9l.55.18-2.79,1.5h-.06c-1.36.06-2.66.09-3.85.09Zm29.09-28.2l.77-6.21,9.06,1.54-1.63-2.05c-7.21-9.07-11.96-15.06-17.67-15.06-3.67,0-7.8,2.39-13.38,7.75l-.42.41v-3.47l.02-.05C27.82,5.53,31.91.76,36.04.76c4.98,0,9.48,7.24,15.18,16.4,1.73,2.78,3.51,5.65,5.48,8.61l.16-6.51,6.75.3-2.25,14.16-15.35-.38Z"/></g><path class="cls-1" d="m36.04,1.01c6.38,0,11.98,12.26,20.89,25.56l.17-7.05,6.21.28-2.18,13.67-14.85-.37.7-5.68,9.45,1.61c-8.58-10.73-13.56-17.71-19.9-17.71-3.72,0-7.9,2.39-13.55,7.82v-2.82C28.18,5.33,32.25,1.01,36.04,1.01m-17.69,21.09l5.78,13.69-5.47,1.7-2.26-8.64c-7.59,18.21-11.66,25.1,6.57,31.16l-2.23,1.2c-1.37.06-2.65.09-3.84.09-24.83,0-12.28-12.8-2.04-32.97l-7.56,3.21-2.31-5.78,13.35-3.65m43.53,15.8l2.15,1.49c10.52,18.77,4.93,21.57-7.69,21.57-5.39,0-12.06-.51-19.31-.51-.26,0-.52,0-.79,0l6.05,5.69-4.36,4.44-8.72-10.75,10.2-10.81,3.76,4.32-6.83,5.41c20.23-1.61,28.44-1.19,25.55-20.86M36.04.51h0c-4.24,0-8.41,4.81-13.51,15.59l-.05.1v4.11l.85-.81c5.53-5.31,9.6-7.68,13.2-7.68,5.59,0,10.32,5.96,17.48,14.97.4.5.8,1.01,1.22,1.53l-8.15-1.39-.52-.09-.06.52-.7,5.68-.07.55h.55s14.85.38,14.85.38h.44s.07-.42.07-.42l2.18-13.67.09-.55-.56-.02-6.21-.28-.51-.02v.51s-.14,5.46-.14,5.46c-1.79-2.73-3.44-5.37-5.04-7.94C45.47,7.44,41.16.51,36.04.51h0Zm-17.4,20.99l-.42.12-13.35,3.65-.54.15.21.52,2.31,5.78.19.47.47-.2,6.29-2.67c-1.62,3.11-3.29,6.08-4.79,8.73C3.95,47.01.3,53.48,2.71,57.6c1.67,2.86,6.18,4.19,14.21,4.19,1.2,0,2.5-.03,3.86-.09h.11s.1-.06.1-.06l2.23-1.2,1.02-.55-1.1-.37c-6.86-2.28-10.54-4.68-11.95-7.77-2.01-4.42.58-10.57,4.49-19.88.2-.48.41-.98.62-1.48l1.89,7.21.13.51.5-.16,5.47-1.7.53-.16-.21-.51-5.78-13.69-.17-.4h0Zm42.57,15.33l.17,1.14c1.09,7.44.59,11.99-1.63,14.77-3.17,3.96-10.07,4.49-20.52,5.29-.43.03-.87.07-1.32.1l5.54-4.39.41-.33-.34-.39-3.76-4.32-.36-.42-.38.4-10.2,10.81-.3.32.28.34,8.72,10.75.35.44.39-.4,4.36-4.44.36-.36-.37-.35-5.13-4.83c3.71.01,7.2.15,10.58.28,2.96.12,5.76.23,8.26.23,5.51,0,10.89-.47,12.88-3.86,1.98-3.37.51-9.07-4.75-18.45l-.06-.1-.09-.07-2.15-1.49-.95-.66h0Z"/></svg>