<?xml version="1.0" encoding="UTF-8"?><svg id="Icn_InventoryBG-Empty" xmlns="http://www.w3.org/2000/svg" viewBox="0 0 256 256"><defs><style>.cls-1{fill:#afc7d9;}.cls-2{fill:#90a8ba;}</style></defs><rect width="256" height="256"/><rect class="cls-1" x="9" y="9" width="238" height="238" transform="translate(-2.08 2.11) rotate(-.94)"/><g id="dots"><path class="cls-2" d="m111.44,21.99c-.6-.57-1.7-1.26-2.58-.84-.9-.18-1.17-.08-2.08.1-.46.48-.87,1.27-1.41,2.95-.08.87.1,1.29.44,2.55.02-.02.04-.04.06-.07.45.8,1.68,1.61,2.74,1.83.41.14.32.13-.14.29,1.12-.05,1.37-.76,1.95-1.05,1.31-.53,1.74-3.56,1.07-4.86.01-.18-.14-.33-.19-.35-.03-.1-.07,0,.15-.54Z"/><path class="cls-2" d="m105.71,26.85s.11-.05.14.08c-.02-.07-.03-.12-.05-.18-.05.06-.08.09-.09.1Z"/><path class="cls-2" d="m105.71,26.85s-.01.01,0,0h0Z"/><path class="cls-2" d="m112.39,10.58s-.02.02-.02.03c.02,0,.03,0,.02-.03Z"/><path class="cls-2" d="m112.39,10.58c.45-.57,1.25-.36,1.72-.63.28-.2.51-.47.72-.75l-4.91.08c.46.49,1.25.78,2.25,1.05-.07-.22.21.15.22.25Z"/><path class="cls-2" d="m93.28,24.82c-.1,0-.2,0-.29,0,0,.05.18.02.29,0Z"/><path class="cls-2" d="m93.18,16.76c-.89-.01-1.51.17-2.34.52-.89,1.75-1.77,3.66-.45,5.88.03.67,1.19,1.61,2.6,1.66,0-.03.05-.08.2-.16.58-.03.92-.27,1.85-.99,1.52-1,1.5-2.81.55-5.35-.58-.97-1.78-1.21-2.4-1.55Z"/><path class="cls-2" d="m124.87,10c-.07.47-.27,1.8.52,2.26-.53.2.05.37-.34.3.67,1.03,1.88,1.99,3.11,1.34.19.21-.09.28-.05.75.3-.28.96-.72,1.48-.91,1.35-.98,2.24-3.25,1.29-4.8l-5.85.1c-.06.29-.12.61-.16.97Z"/><path class="cls-2" d="m204.51,130.71s-.06.04-.09.06c.28-.1.32-.07.09-.06Z"/><path class="cls-2" d="m202.6,123.21c-.5.99-.93,1.48-1.56,2.19-.09,1.47-.11,2.57.62,3.42.96.55,1.86,1.48,2.68,1.89.08,0,.12,0,.17,0,.58-.43,1.7-.8,2.04-.84,1.21-1.24,1.7-3.82.52-5.17-.13-1.07-1.14-2.2-2.46-2.02-.9-.12-1.49.12-2.02.53Z"/><path class="cls-2" d="m192.48,100.28c-.38.16-1.58,0-1.99.71-.53.32-.86,1.04-1.39,2.73-.09.52.11,2.12.63,2.69.47,1.23,1.52,1.85,3.06,1.38-.03.01-.14.08-.38.45.48-.42,1.15-.32,1.69-.79,1.52-.98,2.41-3.56,1.16-5.18-.57-1.26-1.6-2.04-2.77-1.99Z"/><path class="cls-2" d="m178.48,78.98c-1.83.7-2.05,3.35-.98,4.87.46,1.48,1.62,1.64,3.11,1.51-.36.28-.04.41-.09.09.26.26.95.03,1.57-.28,1.39-1.19,1.82-3.39,1.33-5.18-.84-1.28-1.7-1.85-3.41-2.25-.32.63-.96.54-1.52,1.24Z"/><path class="cls-2" d="m214.84,145.45c-1.38,1.36-1.97,3.55-.84,5.57.45.86,1.4,1.85,3.06,1.81.24-.33.69-.42,1.26-.61,1.14-1.08,1.56-1.75,1.9-2.46.21-1.53-.05-2.32-.94-3.09-.39-.78-1.62-1.72-2.67-1.58-.59-.31-1-.26-1.77.36Z"/><path class="cls-2" d="m153.85,33.59c-.27,1.05-1.11,1.53-1.25,2.55,0,1.13.18,2.15.46,3.3.8.86,1.88,1.09,2.73,1.76.16-.04.26-.11.31-.19.64.1,1.37-.1,1.82-.72,1.55-1.26,1.89-3.71.52-5.49-.21-.83-1.63-1.4-2.26-1.94-.82.48-1.19.36-2.32.72Z"/><path class="cls-2" d="m231.56,169.08c-.41-1.75-1.76-1.83-2.61-2.46-.59.46-1.24.95-1.68,1.02-1.03.23-1.47,1.33-2,2.28.06,1,.3,1.84.48,3.23,1.12.93,1.66,1.07,3.36,1.61.02-.41-.02.14-.18-.18.32-.05,1.04-.58,1.82-.67,1.62-.79,1.67-3.78.82-4.83Z"/><path class="cls-2" d="m143.9,11.08c-1.04-.17-1.48-.41-1.74-.04-1.03.79-1.63,1.97-1.95,2.47.09,1.47.06,2.28.93,3.29.31.62,1.06,1.59,2.53,1.77,0,.01.01.02.03.03.01,0,.03-.02.05-.03.12.01.24.03.37.03-.15-.03-.25-.05-.32-.06.55-.32,1.53-.46,1.86-1.02.7-.38,1.49-.72,1.56-1.86-.35-1.06-.4-1.97-.65-3.28-.43-1.31-1.35-1.45-2.67-1.31Z"/><path class="cls-2" d="m105.3,46.73c-.19.1-.04.09,0,0h0Z"/><path class="cls-2" d="m103.47,40.01c-1.41.53-2.36,3.64-1.04,4.89.11,1.51,1.71,1.5,2.88,1.75.01.03,0,.05,0,.07.02,0,.03-.02.05-.03.21.34.92.24,1.69-.64,1.26-.82,1.53-3.18.91-5.31-.87-.91-1.78-1.31-2.83-1.35-.47-.23-1.6-.14-1.65.62Z"/><path class="cls-2" d="m124.12,24.61c-.28.35-1.14.62-1.59.72-.72.31-1.45,1.23-1.4,2.77-.15.77.13,1.8.12,2.69,1.21.98,2.01,1.8,3.02,1.6.39,0,.41.48.42-.19.55.38.89-.13,1.34-.46,1.66-.78,2.17-3.71,1.34-5.06-.96-1.45-1.72-1.51-3.25-2.06Z"/><path class="cls-2" d="m244.85,158.31c.9,1.37,1.74,2.22,2.71,2.41l-.12-7.55c-.66.12-1.12.2-1.42.44-1.36.69-1.77,3.22-1.16,4.7Z"/><path class="cls-2" d="m120.72,51.17c.89-.58,1.46-.24,1.88-1.01,1.63-1.42,1.79-3.19,1.05-5.62-.44-.59-1.9-1.55-2.65-1.52-1.05.21-1.32.65-1.69.94-.99.09-1.26,1.19-1.45,2.11-.3.86-.28,1.87.11,2.92.53.85,2.04,2.18,2.84,1.61.44.27.34-.15-.08.57Z"/><path class="cls-2" d="m208.86,200.98s-.05-.08,0,0h0Z"/><path class="cls-2" d="m208.92,201.07s.09.11.17.19c-.06-.07-.11-.12-.17-.19Z"/><path class="cls-2" d="m208.92,201.07s-.05-.07-.06-.09c0,0,0,0,0,.01.02.03.05.05.07.08Z"/><path class="cls-2" d="m203.35,205.46c-.05-.07-.09-.15-.14-.22-.27.07-.27-.04.14.22Z"/><path class="cls-2" d="m205.77,199.46c-.61-.2-1.27.12-1.55.43-.56.96-1.61,1.6-1.6,2.8.08.52.01,1.61.59,2.55.05-.01.09-.02.16-.05.11,1.06,1.74,1.48,2.37,2.04.12-.65.46-.01.08-.63.96.46,1.5.43,2.07-.62,1.53-.51,2.12-2.9.89-4.94.04-.01.06-.03.07-.04-1.06-1.18-1.53-1.62-3.08-1.53Z"/><path class="cls-2" d="m159.71,14.88c-.54.38-1.57-.1-1.99,1.03-.58.4-1.07,1.23-1.27,2.26-.45.72-.29,1.59.11,2.45.37,1.33,2.05,2.19,2.85,1.82.17.03.17.02.47.03.56.38.89.04,1.77-.19.88-1.15,1.76-3.91.94-5.69-1.16-1.25-1.98-1.98-2.88-1.72Z"/><path class="cls-2" d="m178.7,8.87s.49.31.32-.36c.37.54.8.15,1.53-.22.08-.04.15-.11.23-.17l-3.76.06c.56.33,1.24.48,1.68.68Z"/><path class="cls-2" d="m212.1,182.88c-.1-.91-1.35-1.93-2.29-1.66-.59.15-1.56.43-2.35.26-.13,1.12-.75,1.44-1.02,2.74-.62.95-.31,2.36-.01,3.16.64.68,2.26,1.53,3.32,1.7.47-.24,1.34-.73,1.94-.77,1.01-.92,1.31-3.97.42-5.42Z"/><path class="cls-2" d="m117.38,68.97c-.09,0-.18.01-.27.02.36.08.43.03.27-.02Z"/><path class="cls-2" d="m114.14,66.9c.72,1.77,1.67,2.01,2.89,2.03.17,0,.27.02.34.04.99-.07,1.41-.29,1.65-.21,1.49-1.42,1.73-3.54,1-5.23-.34-1.3-1.88-1.85-2.78-1.96-.53-.54-1.54.01-2.04.43-1.19.99-1.93,3.22-1.05,4.89Z"/><path class="cls-2" d="m134.97,48.18c-.8.37-1.37,1.14-1.6,1.7-.07,1.65.01,2.65.38,3.15.79,1.46,1.73,1.64,2.67,1.65.08.6-.07.45.48,0,.47.17,1.37.41,1.79.01,1.02-1.39,1.83-4.03.77-5.5-.87-1.06-1.92-1.95-2.52-1.97-.73.34-1.61.13-1.97.96Z"/><path class="cls-2" d="m242.8,171.47c-.69.61-1.09,1.5-1.49,2.6-.22.34.02,1.5.4,2.54-.06-.14-.1-.17-.07.08.26,1.39,1.55,1.72,3.06,1.79.24.18,1.04-.15,1.4-.4.96-.89,1.32-1.54,1.69-2.75v-.38c-.08-.85-.28-1.43-.43-2.27.13-.11-.13-.59-.46-.25-.52-.74-1.47-1.69-2.34-1.76-.84.35-1.11.12-1.76.8Z"/><path class="cls-2" d="m175.05,18.99c-.41.04-.83.62-1.64.88-.8.84-1.48,1.04-1.62,2.27-.27,1.05-.19,1.97.6,2.92.58,1,1.95,1.72,2.9,2.15,0,0,0,.02-.02.03.02,0,.04,0,.06-.01,0,0,.02,0,.03.01,0,0,0-.01,0-.02.78-.16,1.01-.62,1.78-1.21,1.4-.47,2.14-3.14.7-5.09-.48-.75-1.69-1.39-2.79-1.94Zm.27,8.15c-.13-.38.02-.17,0,0h0Z"/><path class="cls-2" d="m191.59,11.6c.88.78,1.71,1.91,2.91,1.95.28-.2,0-.48.28-.35.35-.08.86-.43,1.59-.56.62-.06.99-1.6,1.64-2.25.06-1.26-.28-2.11-.63-2.53l-6.07.1c-.38,1.09-.26,2.47.27,3.65Z"/><path class="cls-2" d="m192.08,202.11c1.58-.69,1.84-3.3.74-4.62-.27-1.11-1.58-1.77-2.29-1.86-.85-.07-1.31-.35-2.35.1-1.48,1.49-2.02,3.98-.69,5.25.67,1.3,1.46,2.13,3.14,2.27-.46-.47-.04-.08-.45-.38.5.19,1.47-.11,1.9-.76Z"/><path class="cls-2" d="m130.98,66.05c-.49.59-1.34,1.66-1.24,2.08-.5,1.06-.36,2.77.38,3.51.75,1.1,2.02,1.75,2.74,1.52-.05.05.51-.27.31.29.47-.23,1.43-.63,1.97-.64,1.23-1.21,1.4-3.7.88-5.8-.52-1.01-1.91-1.28-3.13-1.67-.26.29-.99.34-1.92.7Z"/><path class="cls-2" d="m171.97,37.47c-.59.3-1.26-.18-2.06.22-.5.97-1.28,2.09-1.68,2.41-.16,1.68.06,2.59.46,2.83.61,1.84,1.66,2.43,2.8,1.86.26.22.27.36.36,0,.35.43.91.15,1.89-.06,1.05-.96,1.62-3.74.94-5.76-.62-.53-1.73-1.8-2.71-1.5Z"/><path class="cls-2" d="m193.82,25.39c-.33-1.04-1.46-1.99-2.6-1.91-.6.3-1.23.38-1.8.89-1.07.6-1.16,1.09-1.76,2.28-.07.6-.15,2.23.56,3.12.33.84,1.4,1.79,2.64,1.92.32-.24.23-.33.22-.67.94.43,1.32.15,1.41-.21.7-.53,1.86-1.32,1.59-2,.59-1.68.51-2.32-.26-3.43Z"/><path class="cls-2" d="m210.15,9.83c-.45.24-1.39.11-2.01,1.05-.28.18-.71,1.03-1.2,2.26-.45.51.11,2.17.73,2.78.06.88,1.64,1.57,2.44,1.89.01-.03.02-.05.03-.07,0,.06-.02.16-.04.34,1.05-.59,1.46-.36,1.75-1.02,1.68-1.19,2.49-3.58,1.48-4.72-.63-1.5-1.68-2.57-3.17-2.52Z"/><path class="cls-2" d="m230.37,149.28c-.33.84-1.32,1.57-1.17,2.34-.2.97-.05,2.65.19,3.39.68.78,1.97,1.71,3.01,1.45.22.16.31.38.13-.16.85.02,1.25.33,1.99-.3,1.02-1.15,1.85-3.72.85-5.41-.95-1-1.82-1.89-2.84-1.3-.63-.6-1.2-.37-2.16-.01Z"/><path class="cls-2" d="m194.05,176.83c-.93.46-1.77.87-2.28,1-.36.57-.72,1.74-.97,2.69-.09.98-.24,1.71.36,2.62.28,1.4,1.47,1.81,3.07,1.38-.11.07-.18.11-.25.15.55-.11,1.42-.19,1.61-.38,1.41-.85,2.32-3.82,1.2-5.18-.66-.91-1.86-2.15-2.74-2.27Z"/><path class="cls-2" d="m193.97,184.66c-.06.01-.12.03-.17.04-.1.01-.1.1.17-.04Z"/><path class="cls-2" d="m234.39,131.61c-.75.23-1.49,1.5-2.03,2,.24,1.69.45,2.33.97,3.3.08.69,1.69,1.49,2.92,1.38-.47.37-.45.62-.28.4.85.04,1.4-.53,1.5-.59,1.47-1.51,2.44-3.58,1.02-5.67-.38-.65-1.23-1.09-2.76-1.09-.27-.4-.76-.45-1.34.29Z"/><path class="cls-2" d="m146.88,94.8c1.96-.93,1.93-3.29.93-4.99-.55-1.02-1.12-2.08-2.9-1.68-.29-.08-.77-.12-1.47.19-.69.78-1.28,1.38-1.84,2.2.2,1.17.23,2.26.68,3.58.5.64,1.51,1.33,2.7,1.51.45.08.39-.02-.02-.34.74.36,1.29.07,1.91-.47Z"/><path class="cls-2" d="m195.58,159.3c-.53,1.19-1.29,1.4-1.3,2.53-.63.97-.18,2.2.23,3.01.71,1.21,2.09,1.91,3.28,2.19-.22-.03-.26-.3-.38-.39.75.04,1.23-.21,1.63-.5,1.94-1.06,2.08-3.73,1.01-5.18-.42-1.08-1.43-2.23-2.34-1.6-.69-.37-1.62-.16-2.13-.05Z"/><path class="cls-2" d="m181.93,60.72c-.58.38-1.43.91-1.67,1.8.35,1.56.55,2.56.99,3.09.32,1.59,1.52,2.07,2.65,1.88-.06-.04-.15-.15.27-.29.37.69.96-.06,1.71-.02.97-.88,1.52-3.39.84-5.62-.7-.86-1.55-1.9-3.1-1.66-.68-.15-1.07.5-1.68.81Z"/><path class="cls-2" d="m201.28,46.99c-1.76.45-1.72,3.05-1.26,5.25.86.7,2.29,1.48,3.03,1.36.26.25.19.39.28.4.31-.15.84-.36,1.95-.46.95-1.32,1.71-3.53.67-5.25-.76-1.43-1.94-2.21-2.63-1.93-.91-.5-1.77.16-2.05.62Z"/><path class="cls-2" d="m220.38,33.1c-1.2,1.48-1.69,3.66-.95,5.01.87,1.47,1.81,1.81,2.81,1.89.37.1.56.34.51.34.43.01.68-.23,1.43-.24,1.27-1.06,1.78-4.17,1.09-5.67-.48-.69-1.54-1.71-2.78-1.96-1.05.4-1.42.63-2.1.63Z"/><path class="cls-2" d="m180.01,180.42c1.25-.88,1.64-3.71,1.26-5.75-1.05-.75-2.15-1.48-3.34-1.21-.39-.06-.78-.22-1.39.18-1.68,1.2-2.02,3.92-1.11,5.16.67,1.61,1.59,2.24,3.02,1.91,0,.06,0,.1,0,.15.5.19.92-.14,1.56-.43Z"/><path class="cls-2" d="m178.27,180.77c.21.38.18.31.18.09-.06-.02-.12-.05-.18-.09Z"/><path class="cls-2" d="m141.58,114.09c.49-.49,1.66-.42,1.76-.73,1.59-1.47,2.14-3.42,1.03-5.2-.44-1.19-1.9-2.41-2.55-1.85-1.16-.41-1.6.24-1.88.34-1.95,1.52-1.98,3.7-.99,5.37.13,1.3,1.65,1.62,3,1.79-.48.2-.14-.3-.37.28Z"/><path class="cls-2" d="m161.21,92.14c-.81.02-1.33.39-2.11.58-.66.35-1.17,1.61-1.72,2.65.3.8.55,1.75.98,2.89.63.67,1.69,1.62,2.35,1.22.09.28.05-.12.53-.11.48.15.72.42,1.79-.24,1.31-1.38,1.91-3.32.72-5.31-.53-.76-1.83-1.4-2.54-1.67Z"/><path class="cls-2" d="m196.72,69.84c.69,1.02,1.41,1.89,2.87,2.05,0,.05.04.18.24.35.58-.47,1.08-.49,1.29-.58,1.6-1.08,2.03-3.68,1.38-5.5-1.05-1.18-1.97-1.71-2.75-2.21-1.07.33-1.57.48-1.91.51-1.83,1.77-1.81,3.83-1.13,5.38Z"/><path class="cls-2" d="m217.29,51.48c-1.72.93-2.02,2.84-1.23,4.71.3,1.35,1.82,2.01,3.19,2.35.06-.29,1.03-.26,1.49-.96.53-.37.88-1,1.17-2.03.59-1.61.07-2.56-.44-3.4-.51-.59-1.49-1.62-2.73-1.79-.24.49-1.32.63-1.45,1.12Z"/><path class="cls-2" d="m238.37,37.12c-.67-.23-1.88.42-2.28.85-1.2.6-1.49,3.06-.72,4.8.21,1.25,1.59,2.22,3.1,2.32-.13-.13-.21-.21-.27-.25.77.05,1.36.03,1.77-.28,1.36-1.45,1.55-3.59,1.04-5.59-.82-1.32-2.01-1.65-2.64-1.85Zm-.43,7.71s.06,0,.1,0c-.02.02-.04.03-.1,0Z"/><path class="cls-2" d="m140.6,126.38c-.44-1.7-1.7-2.04-2.71-2.09-.45.04-.88.25-1.61.86-.48.25-1.2,1.17-1.6,2.03-.04,1.38.02,2.31.8,3.37.17,1.02,1.19,1.63,2.79,1.63.3-.04,1.1-.69,1.54-.76.35-.06.32-.16-.02-.16,1.8-.78,2.32-3.67.81-4.89Z"/><path class="cls-2" d="m155.33,111.23c-.64.39-.82,1.33-1.27,2.21-.03.9-.18,2.03.52,3.08.4,1,1.75,1.66,3.13,1.12-.16.44-.54.69-.24.61.89-.53,1.08-.69,1.58-1.16,1.36-.79,2.15-3.28,1.23-5.4-1.03-.54-1.57-1.48-2.85-1.61-.82.2-1.63.14-2.09,1.15Z"/><path class="cls-2" d="m194.04,82.63c-1.68,1.28-1.59,3.68-.72,5.82.19.55,1.81,1.15,2.99,1.53-.18-.08.03,0-.34-.12.78-.12,1.57-.15,1.93-.75,1.69-1.08,1.8-3.54.91-4.76-.89-1.46-1.71-2.13-2.95-1.94-.47-.22-1.47.19-1.83.21Z"/><path class="cls-2" d="m233.02,55.64c-.87.33-1.69,1.52-2.07,2.43-.09,1.06.54,1.63.51,2.64.87,1.12,1.68,2.09,3.18,1.67-.18,0,.1.27-.15.57.79-.42,1.56-.66,2-.77,1.12-1.16,1.44-3.23,1.08-5.46-.81-1.33-1.69-1.48-2.88-1.85-.62-.21-1.48.08-1.67.77Z"/><path class="cls-2" d="m243.12,95c-.42.2-1.29.12-1.79.62-.57.53-1.65,1.55-1.66,2.15-.23,1.04-.26,2.49.55,3.34.78,1.07,1.52,1.82,2.72,1.53.01.08.49.17.46-.22.65.44.89.47,1.54-.42.35-.26,1.36-1.25,1.6-2.4v-.24c-.09-.55-.61-1.69-.94-2.51-.05-.72-1.13-1.88-2.49-1.87Z"/><path class="cls-2" d="m152.16,128.8c-1.08,1.13-1.65,1.57-1.79,2.49,0,.99.37,2.59.25,3.47.65.7,2.31,1.64,2.94,1.21.27.35.53.33.33-.14.49.07,1.04-.04,1.47-.45,2.03-.47,2.33-2.95,1.1-4.75-.52-1.6-1.7-2.39-2.59-2.3-.95.09-1.63.19-1.71.47Z"/><path class="cls-2" d="m173.25,122c.82.49,1.47-.44,1.57-.62,1.29-.95,2.24-3.49.99-5.24-.33-1.23-1.61-1.88-2.73-1.85-.93.49-1.44.28-1.62.92-.72.01-1.16,1.21-1.84,2.52-.04,1.05.41,1.57.9,2.82.34.6,1.65,1.57,2.57,1.7.03-.09.13-.23.17-.24Z"/><path class="cls-2" d="m173.17,122.26s-.06-.01-.1-.02c-.02.06-.01.1.1.02Z"/><path class="cls-2" d="m211.39,86.47c-.45.02-1.29.16-1.48.96-1.61,1.08-2.07,3.63-.93,5.18.34,1.19,1.81,1.65,2.63,1.76.17-.38-.06-.05.23-.39.56.01.91.24,1.68-.2,1.78-1.17,1.76-3.52.84-5.47-.51-1.37-1.33-1.32-2.97-1.83Z"/><path class="cls-2" d="m229.16,73.58c-.82.42-1.34.94-1.52,2.07-.3.82.03,2.05.69,2.96.33.85,1.41,1.85,2.53,1.7.24.06-.07.12.12.47.63-.09,1.33-.29,2.04-.52,1.31-.95,1.39-3.74.75-5.4-.59-.93-1.39-2.18-2.76-1.59-.96-.4-1.5-.31-1.84.31Z"/><path class="cls-2" d="m221.69,109.79c-.07-.07-1.15,1.22-1.01,2.24-.54,1.14-.01,1.46.45,2.83.21,1.12,1.73,1.8,2.89,1.64-.09-.19.21-.1-.07.08.47-.37,1.41-.42,1.76-.37,1.15-1.02,2-3.9,1.18-5.45-.61-1.34-1.65-1.81-3.24-1.79-.26-.43-1.08.24-1.96.84Z"/><path class="cls-2" d="m213.42,69.46c-1.18.46-2.12,3.31-.81,4.78.38,1.54,1.67,2,2.53,1.66.81.2,1.41.09,2.12-.43.41-.62,1.11-.78,1.51-2.07.15-.9-.51-2.35-.97-2.96-.22-1.15-1.21-1.83-2.83-1.75-.29-.25-1.21-.15-1.54.77Z"/><path class="cls-2" d="m167.6,133.43c-1.53.7-1.55,3.13-1.13,5.14,1.02,1.16,1.84,1.41,3.18,2.04.18-.44-.02.1-.26-.61.8.26,1.19-.08,1.81-.01,1.86-1.52,2.08-3.67.95-5.8-.08-1.16-1.32-1.2-2.59-1.79-.83.33-1.65.71-1.96,1.04Z"/><path class="cls-2" d="m183.28,137.62c-.83.66-1.17,1.35-1.3,2.06,0,.97.18,2.01.17,2.74,1.13,1.3,2.27,2.29,2.89,1.69.13.22.45.23.24.36.73.19,1.27-.37,1.89-.36,1.29-1.65,1.82-3.52,1.11-5.84-.57-1.19-2.16-1.42-3.04-1.8-.93.51-1.26.88-1.96,1.14Z"/><path class="cls-2" d="m208.35,112.32c-.05,0-.11.02-.16.02.02.03.12.05.16-.02Z"/><path class="cls-2" d="m206.52,105.58c-1.7,1.01-2.04,3.2-1.3,5.19.9.96,2.04,1.65,3.05,1.2.12.21.12.3.09.35.49-.03,1.16-.34,1.45-.82.54.11,1.54-1.3,1.29-1.96.26-1.16.38-2.5,0-3.06-1.07-1.01-1.52-1.43-2.95-1.92-.75.33-1.07.03-1.62,1.03Z"/><path class="cls-2" d="m227.61,90.81c-.81-.14-1.62-.07-1.77.82-2.04.78-2.14,3.35-1.62,5.18.71,1.15,2.02,1.86,3.14,1.54-.03.02-.05.05-.07.07.67.27,1.33.18,2.17-.38,1.13-1.25,1.43-3.8.85-4.99-1.01-1.3-1.61-2.11-2.7-2.24Z"/><path class="cls-2" d="m227.29,98.43c-.05.09-.02.15,0,0h0Z"/><polygon class="cls-2" points="227.29 98.43 227.29 98.42 227.29 98.42 227.29 98.43"/><path class="cls-2" d="m243.52,80.54c-.36.4-.38,1.92.32,2.66.17.78,1.51,1.43,2.47,1.49l-.12-7.57c-.49.04-1.06.37-1.52.6-.31.83-1.36,1.21-1.14,2.82Z"/><path class="cls-2" d="m166.3,158.6s-.05-.01-.08-.02c-.07.29.04.26.08.02Z"/><path class="cls-2" d="m164.16,151.8c-1.71.83-2.01,3.11-1.23,4.64.72,1.43,1.58,1.84,3.28,2.14.02-.08.05-.17.1-.3.26.67.71.03,1.17-.05,1.78-1.05,2.17-3.51,1.12-5.36-.32-1.42-1.65-1.91-2.99-2.24-.4.26-1.08.13-1.45,1.17Z"/><path class="cls-2" d="m176.57,96.1c-.41.3-1.34.67-2,.83-1.5,1.02-1.72,3.42-.8,4.81.65,1.36,1.93,1.88,3.18,2.3-.07-.07-.13-.27.13-.45.38.53.79.14,1.62-.21,1.5-1.04,2.07-3.18.76-4.99-.31-1.56-1.58-2.11-2.89-2.29Z"/><path class="cls-2" d="m177.02,104.07s-.05-.02-.07-.02c.03.03.06.04.07.02Z"/><path class="cls-2" d="m188.53,118.55c-.13.14-.68.02-1.37,1.01-1.53.99-1.85,3.37-.9,5.13.61,1.24,1.39,1.22,2.71,1.88.14-.12-.11-.39-.25-.5.76.41,1.18-.03,1.78-.68,1.67-.66,2.24-3.03,1.49-5.16-1.11-.68-2.2-1.66-3.45-1.69Z"/><path class="cls-2" d="m227.07,191.66c1.55-.54,2-2.93.94-4.84-.7-1.4-1.33-1.83-2.55-1.83-.83-.17-1.54.21-2.08.92-.72.23-1.47,1.22-1.58,2.48.14.51.02,1.35.21,2.13.17.27.57.71.13.5.64.62,2.19,1.38,3.16,1.46-.26.37.22-.09-.2.46,1.1-.68,1.41-.26,1.97-1.28Z"/><path class="cls-2" d="m138.48,29.61c-.53.69-1.35,1.16-1.33,2.42-.17.59-.59,2.06-.17,2.7,1.07,1.03,2.13,1.83,3.17,1.72.08-.14-.1.1-.05-.1,1.01.19,1.58-.22,2.13,0,1.51-1.22,1.89-3.62.96-5.5-.49-1.53-2.12-1.95-3.02-1.58-.36-.45-1.36.03-1.68.33Z"/><path class="cls-2" d="m150.84,52.05c-1.94.97-2.32,3.3-1.4,5.04.61,1.18,1.61,1.82,3.01,1.95.02-.26-.02-.05.22-.06.32.3,1.04-.35,1.59-.37.45-.33.86-1.76,1.14-2.59.4-.73.46-2.05-.31-3.2-.36-.71-1.92-1.37-3.04-1.55-.56.44-.71.55-1.21.78Z"/><path class="cls-2" d="m214.79,170.27c1.74-1.08,1.93-3.95,1.15-5.16-.78-1.22-1.57-2.06-2.81-1.75-.64-.53-.95.11-2.14.01-.24.97-.9,1.85-.85,2.62-.47.75-.04,2.35-.18,3.21.81,1.12,2.36,1.41,3.54,1.83-.1-.16-.15-.23-.17-.26.81-.15,1.38-.11,1.47-.49Zm-1.79.56c.07-.02.14-.03.2-.04-.04.02-.1.04-.2.04Z"/><path class="cls-2" d="m162.35,74.29c-1.25,1.41-1.51,3.3-.55,5.18.66,1.49,1.82,1.9,2.79,1.75.22.03.15.37.02.27.69.16,1.43.13,1.83-.82,1.12-.81,1.83-3.01.98-4.68-.5-1.23-1.71-2.09-3.08-2.32-.5.25-.96.29-1.99.61Z"/><path class="cls-2" d="m168.23,63.45s-.05,0-.07,0c-.09.1.01.09.07,0Z"/><path class="cls-2" d="m166.55,56.19c-1.51.76-2.48,3.25-1,5.49.02,1.23,1.73,1.27,2.59,1.39.16.18.14.31.09.39.71.02,1.39-.48,1.48-.38,1.58-1.57,2.45-3.64,1.36-5.39-.75-1.49-2.11-1.83-3.16-1.69-.56-.61-1.02.05-1.37.2Z"/><path class="cls-2" d="m179.69,155.82c-.83.27-1.08.84-1.44,2.36-.06.52,0,1.98.61,2.33.28,1.36,1.64,1.97,2.67,1.79.19.3.36.58.35.53.76-.36,1.15-.06,1.85-.9.35-.34,1.17-1.58,1.04-1.98.44-1.02.39-2.42-.12-2.91-1.05-1.47-1.51-2.17-3.04-2.36-.7.09-1.14.7-1.92,1.14Z"/><path class="cls-2" d="m218.69,127.49c-1.42,1.45-1.99,3.46-1.67,5.39.69.71,2.29,1.53,3.13,1.76,1.01-.42,1.21-.56,1.85-.75.66-.28,1.06-1.48,1.18-1.97.69-1.68.4-2.47.21-3.27-.63-1.02-2.12-1.88-3.24-1.6-.68-.31-1.38.31-1.47.43Z"/><path class="cls-2" d="m239.25,112.93c-.61.2-.99-.02-1.6.84-1.2.67-1.67,3.28-1,4.75.47.96,1.63,1.99,2.86,2.24-.06,0-.14.02-.23.07.08-.02.15-.05.23-.07.05,0,.1.03.15.03,0-.03-.04-.05-.11-.05.7-.21,1.25-.47,2.03-.82.65-.62,1.12-1.36,1.19-2.37.17-.7-.22-1.83-.61-2.57-.38-1.2-1.68-1.77-2.91-2.06Z"/><path class="cls-2" d="m241.91,19.56c-1.09-.38-1.23-.06-1.91.56-1.51.58-1.95,3.08-1.33,4.61.83,1.47,1.74,2.29,3.07,2.4-.13-.5,0,.04-.17-.47.87.08,1.2-.17,1.62-.22,1.7-1.35,2.14-3.07.98-5.51-.61-.56-1.14-1.67-2.27-1.36Z"/><path class="cls-2" d="m127.66,84.01c-.74.7-.92,1.46-1.57,2.87-.22.56.01,2.18.72,2.95.27.9,1.61,1.24,2.63,1.83.47-.05,1.41-.51,1.93-1.1,1.54-.52,1.94-3.19.86-5.3-.65-.99-1.82-1.79-2.83-1.54-.45-.3-1.41.3-1.75.29Z"/><path class="cls-2" d="m242.54,7.11c.16,1.36,1.72,1.92,2.52,1.8l-.03-1.84-2.49.04Z"/><path class="cls-2" d="m226.3,22.21c-.12.05-.23.1-.35.15.03.33.26.12.35-.15Z"/><path class="cls-2" d="m225.87,14.54c-.38.05-1.42.36-1.79.37-.55.58-1.1,1.46-1.11,2.51-.11.92-.6,2.01-.15,2.64,1.08,1.54,1.71,2.21,3.48,2.13,0,0,0,.01,0,.02.45-.19.95-.43,1.76-.71,1.17-1.04,1.63-3.11.79-4.97-.89-1.01-1.54-1.43-2.97-1.98Z"/><path class="cls-2" d="m203.86,33.78c.84,1.56,1.42,1.72,3.12,1.89-.16.08-.25.07-.29.05.03.03.07.11.13.3.69-.59.87-.38,1.97-.46.11-.85.64-1.64,1.11-2.28.19-1.51.14-2.77-.31-3.62-.47-.6-1.64-1.65-2.59-1.2-.96.01-1.35.13-1.88.51-1.68.87-2.05,3.29-1.25,4.82Z"/><path class="cls-2" d="m206.7,35.72s-.03-.02,0,0h0Z"/><path class="cls-2" d="m147.02,69.95c-.88,1.06-1.1,1.93-1.62,2.85-.15.95-.16,1.9.72,2.94.34.73,1.62,1.51,2.69,1.33.95-.13,1.58.16,1.89-.48,1.22-.82,1.99-3.18,1.13-5.1-.75-1.16-1.69-1.76-3.11-1.51-.45-.57-1.28-.37-1.7-.04Z"/><path class="cls-2" d="m164.35,176.43c-.07-.02.23-.18.2-.14,1.01-.98,1.32-3.95.56-5.5-.58-1.08-1.61-1.91-2.48-1.98-.79-.05-1.54.92-2.04.8.06-.05-.29.42-.37.14-1.25.95-1.94,3.81-.66,4.84.8,1.24,1.49,2.05,2.62,2.24.63-.37,1.26-.49,2.18-.4Z"/><path class="cls-2" d="m187.73,41.77c-.66-.08-1.42-.04-1.94.66-.97.64-1.62,1.64-1.92,2.5-.02.7.16,1.93.76,2.94.35,1.2,1.63,1.52,2.98,1.49.03.05.08.13.19.24.55-.32,1.28-.55,1.46-.68,1.35-.99,1.99-3.43.93-5.44-.89-1.4-1.95-1.41-2.47-1.71Z"/><path class="cls-2" d="m198,147.01c1.01.76,2,1.76,2.82,1.31.35.54.42.27.3.31.73-.12,1.17-.43,1.94-.53,1.56-1.64,1.49-3.46.83-5.82-.92-.9-2.01-1.18-3.12-1.3-.22.16-.86.08-1.37.42-.97.86-1.69,1.65-1.47,2.38-.5,1.53-.23,2.48.06,3.23Z"/><path class="cls-2" d="m243.79,190.47c-.79-.77-1.61-1.53-2.73-1.34-.81-.17-1.34-.28-2.13.31-.64.58-1.14,1.28-1.11,2.1-.48,1.06-.42,2.52.42,3.45.22.85,1.46,1.3,2.87,1.3.72.22,1.42.07,1.55-.32.91-1.11,1.19-1.29,1.6-2.94-.03-.58.16-1.91-.48-2.56Z"/><path class="cls-2" d="m188.49,220.48s-.07.05-.1.07c.34.18.15.06.1-.07Z"/><path class="cls-2" d="m189.62,215.57s.06.04.1.07c-.04-.04-.09-.09-.13-.13-.07-.15-.13-.3-.22-.45.04.15.05.24.07.3-.91-.94-1.76-1.78-3.03-2.1-.62.77-.77.65-1.25.82-.46.36-.22.27-.42.5-1.54.7-1.59,3.11-.89,5.07.16-.2.23-.12.27-.47.46,1.78,1.51,2.25,2.53,2.42.93-.21,1.53-.81,1.83-1.2,0,.02,0,.05.01.08,1.44-.76,2.05-2.87,1.12-4.91Z"/><path class="cls-2" d="m200.37,217.84c-1.05,1.4-1.55,3.5-.57,5.29.03,1.41,1.67,1.84,2.86,1.95.15,0-.05.04-.42-.35.68.32,1.46.02,2.2-.36,1.11-1.01,1.8-3.51.99-5.01-.94-1.25-1.69-2.04-2.87-2.14-.49.44-1.46.19-2.19.63Z"/><path class="cls-2" d="m223.79,209.98c1.34-1.02,1.93-3.33.68-5.43-.64-1.18-1.43-1.47-2.97-1.12-.28-.63-.99-.35-1.44.13-.73,1.06-1.2,1.66-1.47,2.61-.07,1.08-.5,2.28.12,2.67.98,1.37,1.99,1.77,2.86,1.76.95.05,1.74-.32,2.22-.62Z"/><path class="cls-2" d="m197.05,236.26s.06-.03.11-.05c-.05,0-.09.03-.11.05Z"/><path class="cls-2" d="m196.75,236.35s.02-.03.02-.05c-.03.02-.04.04-.02.05Z"/><path class="cls-2" d="m196.92,236.41c.06-.06.08-.11.13-.15-.19.08-.28.1-.3.09-.43.86-.92,1.48-1.44,2.5.38.8.03,2.15.55,2.44.61,1.07,2.04,2.35,2.86,2.38.61-.51,1.22-.26,2.27-.85-.5-.2.06.19-.53-.13,1.84-.84,2.17-3.76,1.17-5.57-.4-1.01-1.58-1.31-2.64-1.83-.75.29-1.35.68-2.07,1.11Z"/><path class="cls-2" d="m217.86,228.61c.23.48.12.05.38.28.7-.16,1.27-.36,2.02-.45,1.32-1.48,1.5-3.64.32-5.28-.35-1.61-1.37-1.8-2.38-2.23-.52.61-1.61.91-2.25,1.3-.45.37-.99.94-1.01,1.72-.25,1.36-.3,2.09.16,2.99.57,1.49,1.73,2.05,2.75,1.68Z"/><path class="cls-2" d="m217.26,241.1c-.51-.85-1.55-1.53-2.8-1.71-.69.26-1.15,0-1.72.8-1.34.67-2.23,3.61-.89,4.95.07.18.18.34.28.5l4.89-.08c1.05-1.17,1.32-2.91.24-4.46Z"/><path class="cls-2" d="m235.7,231.88c1.45-1.54,1.52-3.61.67-5.33-.57-.94-1.28-1.48-2.57-1.72-.7-.12-1.28.44-1.84,1.03-.69,0-1.04.88-1.45,1.87-.07,1.04-.07,1.92.5,3.25.37,1,1.32,1.57,2.72,1.38.41.25.16,0,.25,0,.36-.25,1.43-.12,1.72-.48Z"/><path class="cls-2" d="m229.92,242.73c-.58.02-.88.2-1.35.55-.85.5-1.36,1.29-1.48,2.12l6.19-.1c-.08-.23-.17-.46-.29-.68-.91-.8-1.95-1.77-3.08-1.88Z"/><path class="cls-2" d="m239.14,214.1c1.35-1.27,2.19-4.06,1.26-5.89-.96-.62-1.76-1.08-3.26-1.19-.49-.43-1.3-.08-1.91.07-.31,1.04-1.09,2.12-.96,3.04-.34.61.05,2.03.38,2.6.56.88,1.77,1.99,2.44,1.87,0-.42.48-.48.17-.55.99.3,1.56-.08,1.88.04Z"/><path class="cls-2" d="m246.35,234.16c.67.75,1.39,1.39,2.43,1.78l-.12-7.3c-.41.22-.71.49-.78.73-1.78,1.07-2.56,2.92-1.53,4.79Z"/><path class="cls-2" d="m35.34,60.16c-.76.25-1.63.47-1.83.26-1.4,1.4-2.12,3.86-1.18,5.52.88,1.35,1.86,1.5,2.7,1.58,1.08-.02,1.39-.12,2.07-.13,1.06-1.39,1.99-3.5,1.13-5.28-.98-1.3-1.69-2.06-2.91-1.94Z"/><path class="cls-2" d="m54.58,53.06c.38.42,1.18.14,1.97-.51.15-.69.76-1.16,1.13-2.08.16-1.43.17-2.27-.62-2.92-.42-1.41-1.32-1.59-2.8-1.63-.29-.29-1.01-.06-1.99.8-1.46.75-1.4,2.93-.88,4.95.56,1.16,2.1,1.66,3.06,1.71.37-.39-.15-.17.13-.32Z"/><path class="cls-2" d="m75.49,38.72c1.65-1.36,1.79-3.58.98-5.94-.64-.62-1.34-1.35-2.69-1.49-.76-.34-1.67.62-2.05.53-.58.84-.82,1.52-1.19,2.35-.61,1.16-.31,2.27.51,3.34.42.64,1.79,1.63,2.69,1.24-.11-.15.19.18.03.33.93-.45,1.36-.44,1.72-.37Z"/><path class="cls-2" d="m17.62,80.96c1.41-1.05,1.83-3.08,1.1-4.59-.23-1.17-1.76-2.41-2.64-2.25-.68.28-1,.33-1.65.51-1.07,1.05-1.23,1.57-1.38,2.52-.54,1.38-.08,2.17.39,3.04.49.7,1.64,1.62,2.47,1.51.09.13.16.21.2.26.67-.25,1.07-.34,1.51-1Z"/><path class="cls-2" d="m16.11,81.96s0,0,0,0c.04.05.12.16,0,0Z"/><path class="cls-2" d="m77.43,20.71c.04.09.16.26.14.11.44.09,1.15-.07,1.26-.59.37.03.31-.07.08-.1,1.52-.85,2.21-3.53,1.33-5.17-.69-1.05-1.71-1.53-3.18-1.86-.46.41-1.4.35-1.48.47-.03-.15-.41-.04-.38-.02-1.21,1.34-1.83,3.99-.52,5.15.29,1.63,1.58,2.4,2.73,2.02Z"/><path class="cls-2" d="m58.17,35.23c-.14-.01-.28-.03-.44-.05.14.28.45.21.44.05Z"/><path class="cls-2" d="m59.86,34.43c1.32-1.11,1.68-3.69.94-5.01-.52-1.48-2-2.07-2.57-2.06-1.03.19-1.83.83-1.9.63-1.18,1.06-1.58,1.54-1.66,2.64-.39.82.29,2.39.55,3.02.33,1.03,1.83,1.32,2.9,1.45.04.05.06.09.06.13.76.07,1.13-.02,1.69-.8Z"/><path class="cls-2" d="m21.56,63.28c.35-.69,1.13-.93,1.46-2.6.05-1.08.03-1.65-.41-2.37-.97-1.31-2.23-2.2-2.74-1.94-1.16.24-1.27.67-2.08.57-1.25,1.16-2.1,3.93-1.08,5.39.57.88,1.4,1.97,2.62,2.01,1.06-.21,1.87-.67,2.23-1.07Z"/><path class="cls-2" d="m58.56,15.36c.84,1.02,1.99,1.47,3.08,1.81-.09-.07-.1-.18.14-.11.27.3,1.16-.44,1.5-.27,1.84-1.69,2.03-3.86,1.25-5.99-.24-.32-.54-.57-.86-.77l-3.81.06c-.07.04-.13.09-.21.12-1.29,1.08-2.11,3.73-1.09,5.14Z"/><path class="cls-2" d="m61.64,17.18s.1.06.16.05c-.05-.02-.11-.04-.16-.05Z"/><path class="cls-2" d="m45.61,28.63c.37-1.45.14-2.29-.47-2.87-.33-1.3-1.59-1.73-2.99-1.43-.7-.49-1.18.1-1.88.43-1.37,1.29-1.83,3.55-.7,4.89.69,1.57,1.36,2.11,2.67,2.22.43-.06.47-.3.08-.17.62-.19,1.28-.25,2.08-.72.35-.51,1.01-1.47,1.21-2.34Z"/><path class="cls-2" d="m22.89,46.4c.12,0,.18-.05.22-.1-.01,0-.03,0-.04,0-.06.03-.13.06-.18.1Z"/><path class="cls-2" d="m23.12,46.31s0,0,0-.01c0,0,0,0-.01.01,0,0,0,0,.01,0Z"/><path class="cls-2" d="m23.12,46.3s0-.02.01-.03c0,0-.01,0-.02,0,0,0,0,.01,0,.02Z"/><path class="cls-2" d="m25.99,40c-1.02-.76-1.89-1.55-2.61-1.18-1.15-.6-1.84.09-1.81.2-1.51,1.48-1.98,3.73-1.02,5.08.51,1.48,1.24,2.1,2.52,2.19.02,0,.03-.02.05-.03-.07-.35.09-.17.02,0,.68-.33,1.57-.39,1.68-.63.96-1,1.54-1.35,1.3-2.54.27-1.03.18-2.08-.12-3.1Z"/><path class="cls-2" d="m12.59,99.73c.79-.4.92-.53,1.44-.64,1.87-.96,1.97-3.69,1.09-5-.08-.03.4.09.35-.56-1.12-.58-2.19-1.19-3.29-1.36-.06-.28-.67.24-1.22.68-1.28.32-1.23,1.51-1.9,2.01.22,1.37.23,2.23.63,3.02-.09-.02-.17.07-.12.3.99,1.16,1.6,1.46,2.81,1.67-.01-.16,0-.5.21-.12Z"/><path class="cls-2" d="m28.75,83.76c.34.86,1.47,1.58,3.25,2.07.45-.49,1.18-.7,1.33-1.02,1.53-.61,2.17-3.1.96-4.67.3-.41.1-.25.02-.39-.38-1.35-1.33-1.6-2.75-2.04-.88.51-1.14.47-1.53,1.23-1.98.83-1.87,2.8-1.58,4.66.07-.12.65.29.29.16Z"/><path class="cls-2" d="m67.45,55.64c-.13-.11-.24-.23-.34-.35-.05.13.03.29.34.35Z"/><path class="cls-2" d="m71.89,56.52c1.73-.95,2.06-3.77.85-5.46-.48-.84-1.25-1.49-2.4-1.4-.64,0-1.46.45-1.85.19-1.13.53-1.68,1.48-1.72,2.96-.31.9-.28,1.75.34,2.49.03-.08.1-.15.23-.16.49,1.38,1.56,1.9,3,1.99,0,0,0,0,.02,0,.02,0,.05,0,.07,0,0,0,0,0,0,0,0,0,0,0,0,0,.68-.01,1.28,0,1.46-.61Z"/><path class="cls-2" d="m12.65,24.08c.6-.76,1.49-1.46,1.89-2.63-.22-.93-.41-1.73-.45-3.03-.68-.71-2.17-1.45-2.92-.99-.88-.03-1.27-.05-1.8.62-.54.22-1.25,1.47-1.82,2.49.08.47.04,2.11.57,2.9.56.39,2.02,1.59,2.98,1.32-.24-.43.26-.15.16.22.45-.45.96-.75,1.39-.9Z"/><path class="cls-2" d="m91.98,36.64c.04.07.06.14.09.21.13,0,.23-.14-.09-.21Z"/><path class="cls-2" d="m87.49,35.95s.07-.03.1-.04c-.15-.26-.33-.18-.1.04Z"/><path class="cls-2" d="m86.28,41.11c1.15,1.1,2.3,2.06,3.51,1.54-.49.22-.15-.07-.39.29.61.13,1.17-.23,1.57-.72-.01-.04-.02-.06-.03-.1,1.65-.67,1.95-3.49,1.13-5.27-.09,0-.19-.07-.18-.28-.31-.74-1.56-1.63-2.54-1.56-.42-.07-.87.6-1.76.9.03.05.06.09.08.17-1.38.58-1.72,3.45-1,5.01-.23.03.12-.05-.4.02Z"/><path class="cls-2" d="m91.05,42.15s-.05.05-.07.07c.09.31.14.28.07-.07Z"/><path class="cls-2" d="m48.03,69.7c.03.05.07.1.11.15-.18-.41-.34.11-.11-.15Z"/><path class="cls-2" d="m51.21,71.02c.07.58,1.22.2,1.51-.6,1.19-.71,1.88-3.16.81-4.73-.33-1.49-1.44-1.59-2.61-2.08-.38-.07-1.63.34-1.79.98-1.09.66-1.05,1.06-1.38,2.61-.63.71.05,1.34.41,2.69.68.94,1.82,1.36,2.85,1.77.08-.12.19.06.21-.63Z"/><path class="cls-2" d="m48.18,69.94s-.01-.04-.02-.06c0,0-.01-.02-.02-.03.01.03.02.05.04.08Z"/><path class="cls-2" d="m40.54,49.13c1.34-1.26,1.67-3.74.97-5.65-.54-.87-1.86-1.43-2.65-1.06-1.07-.43-1.23-.23-2.23.5-.97.78-1.9,3.52-.92,5.13,1.02.96,2.04,1.49,3.3,1.24.07.04.08.19-.09.41.86-.25,1.41-.07,1.64-.56Z"/><path class="cls-2" d="m9.37,42.14c1.3-1.51,1.86-3.92,1.22-5.65-.52-.67-2.05-1.16-3.12-1.41l.12,7.44s.02,0,.02,0c.01-.01.02-.02.03-.02-.01.05,0,.12.12.2.55-.37,1.35-.02,1.6-.57Z"/><path class="cls-2" d="m42.75,11.9c.52,1.11,1.68,1.47,3.26,1.39.04.06.13.13.27.23.37.16,1.22-.19,1.2-.55.89-.97,1.59-1.7,1.48-2.54.04-.05.07-.1.11-.15l-6.67.11c0,.53.11,1.05.36,1.52Z"/><path class="cls-2" d="m26.73,28.27c.86-.24,1.27-.4,2.06-1.09.56-.56.63-1.09,1.37-1.88.08-1.45-.36-2.64-.86-3.29-.52-1.1-1.82-1.64-2.35-1.6-1.07-.16-1.4.46-2.26.46-1.56,1.65-1.59,3.75-.88,5.33.87,1.4,1.46,1.71,2.67,2.01.18-.19.02-.3.24.05Z"/><path class="cls-2" d="m49.93,241.9c.9-.25,1.22-.43,2.2-.61,1.51-1.14,1.91-3.65.72-5.5-.23-.9-1.78-1.59-2.81-1.38-.85-.27-.88-.24-1.99.22-.2.72-1.11,1.33-1.24,2.51.12.85-.22,1.67.65,2.44.2,1.11,1.49,2.25,2.84,1.9-.1.07-.26.26-.36.43Z"/><path class="cls-2" d="m37.95,219.16c.34.44.37-.04.41.15.52-.09,1.15-.2,1.52-.77,1.4-1.06,1.95-3.53.78-5.05-.55-1.29-1.21-1.69-2.43-2.14-.92.23-1.33.81-2.1.54-.79,1.1-.99,1.61-1.33,2.53-.05.86-.36,2.2.03,3.06.8.6,1.79,1.83,3.13,1.67Z"/><path class="cls-2" d="m25.93,197.25c.74,0,1.04-.71,1.64-.86,1.82-.86,1.98-3.77,1.33-5.1-.81-1.35-1.54-1.96-3.09-1.99-.74.37-1.48.57-1.59.79-1.86.67-2.18,2.98-1.22,5.22.61.78,1.89,1.68,2.9,1.94.01-.2,0-.52.03,0Z"/><path class="cls-2" d="m152.09,153.69c.1-.01.06-.04,0,0h0Z"/><path class="cls-2" d="m151.97,153.92c.02-.14.07-.2.12-.23-.05,0-.13,0-.26-.01,1.46-.8,2.11-3.04,1.19-5.17-.41-1.09-1.66-1.79-2.8-1.95-.42-.01-1.34.21-1.97,1.18-.14-.68-.18-.03-.29.11-.57.03-1,.81-1.27,1.71-.24,1.35.05,2.02.48,2.74.65,1.7,1.66,2.28,3.18,1.89.24.09.13.01-.35.17.71.03,1.49-.46,1.98-.42Z"/><path class="cls-2" d="m130.71,168.85c.08.02.17.04.25.05.02-.07.03-.13.04-.18.92-.39,1.14-.07,1.84-.4,1.31-1.24,1.62-4.03.91-5.6-.85-1.21-1.6-2.23-2.98-2.15-.35.49-1.01.39-1.94.9-.27.31-.98,1.09-1.44,2.28.02.87.45,2.28.44,3.34.49.53,1.83,1.49,2.83,1.75,0,.02-.01.03-.02.04.03-.01.05-.02.07-.03Z"/><path class="cls-2" d="m134.16,244.96c1.55-1.23,1.68-3.16.84-5.16-.7-.85-1.69-2-2.91-1.61-.15-.46-.88.22-1.65.47-1.56.79-1.97,3.4-1.2,5.19,1.09,1.09,1.93,1.55,3.24,1.66-.08.01-.1-.04-.13-.08.76.46,1.06-.14,1.82-.47Z"/><path class="cls-2" d="m151.63,231.48c.9.27,1.4-.41,2.01-.23.5-.67.79-1.52.97-2.66.74-1.19.43-1.76-.22-2.96-.57-.71-1.31-1.65-2.6-1.78-.77-.33-1.35.02-2.25.45-1.02,1.55-1.48,3.74-.69,5.68.2.82,1.9,1.45,2.79,1.51Z"/><path class="cls-2" d="m171.39,217.01c.61.04,1.13.13,1.27-.54,1.73-.75,2.21-3.22,1.07-5.2-.7-.97-1.9-1.39-2.79-1.98-.51.71-1.52.9-1.94.97-.87.42-1.11,1.51-1.26,2.45-.51,1.22-.1,2.33.59,2.95.69.91,1.34,1.79,2.69,1.35-.2.54-.14.45.37,0Z"/><path class="cls-2" d="m10.74,116.82c1.62-1.02,2.11-3.2,1.04-5.24-.36-1.1-1.47-1.61-2.8-1.69-.1.02-.19.04-.29.06l.12,7.38c.12,0,.24.01.36,0-.04.03-.06.06-.09.08.95.02,1.33-.25,1.66-.6Z"/><path class="cls-2" d="m8.81,117.47c.09.06.12.1.13.12,0-.02.04-.08.14-.17-.08,0-.17,0-.27-.01v.06Z"/><path class="cls-2" d="m8.94,117.59s0,.02,0,0h0Z"/><path class="cls-2" d="m29.63,103.29c.64-.69,1.27-1.77,1.93-2.57.07-1.23-.23-2.19-.62-3.34-.65-.55-1.54-1.31-3.08-1.49-.33.27-.98.07-1.93.87-.63.59-.94,1.48-1.24,2.34-.11.7-.18,2.16.76,2.52.3,1.31,1.78,2.24,2.62,1.86.75-.22,1.54-.01,1.57-.19Z"/><path class="cls-2" d="m47.65,89.18c.6.47,1.25-.17,1.23-.66.68-.23,1.34-.89,1.34-1.73.58-1.32.63-2.39-.38-2.88-.34-1.1-1.55-2.22-2.67-1.97-.55-.14-1.24-.05-1.52.27-1.8,1.05-2.21,4.18-1.13,5.32.52,1.12,1.88,2.03,3.13,1.66Z"/><path class="cls-2" d="m66.86,75.33c.64-.09.8-.58,1.44-.64.82-.29,1.23-1.23,1.68-2.49-.14-1.19.03-1.9-.84-2.76-.72-.96-1.42-1.74-2.88-1.48-.18.05-1.02-.25-1.45.02-1.35,1.39-2.35,3.92-.86,5.61.05,1.15,1.73,1.36,2.86,1.68-.02.02-.04.03-.06.04.03,0,.07,0,.11.02Z"/><path class="cls-2" d="m66.75,75.31c-.25,0-.34.23,0,0h0Z"/><path class="cls-2" d="m83.19,59.01c.47,1.65,1.48,2.36,2.6,1.93.18.44.2.1.13.43.79-.75.94-.42,1.91-.89,1.31-.82,1.74-3.97.54-5.52-.21-.88-1.71-1.48-2.37-1.85-1.08.27-1.79.48-1.82.67-.75.44-1.5,1.38-1.4,2.74-.39.86-.43,1.93.4,2.47Z"/><path class="cls-2" d="m24.35,121.53c.59.03,1.51-.6,2.1-.6,1.07-1.16,2.04-3.22.72-4.96-.61-1.3-1.67-2.11-2.88-2.19-.5.46-1.03.39-1.66.4-1.63,1.36-1.75,3.53-.8,5.37.62.94,1.48,1.66,3.1,1.51-.24.56-.3.15-.57.48Z"/><path class="cls-2" d="m45.31,106.6c1.68-.68,2.37-3.15,1.23-5.14-.41-1.04-1.78-1.36-3.02-1.89-.64-.02-1.39.52-1.65.65-1.49,1.6-1.76,3.47-1.34,5.83.6.86,1.98,1.58,3.44,1.76-.48-.33-.26-.29-.04-.42.45,0,1.41.24,1.38-.8Z"/><path class="cls-2" d="m82.28,78.98c-.11.42.24.37.17-.02-.02,0-.04-.01-.06-.02-.04.02-.07.03-.11.04Z"/><path class="cls-2" d="m84.34,78.64c1.18-1.35,1.42-3.85.96-5.65-.62-1.06-2.23-1.07-3.04-1.27-.6.05-1.52-.15-2.09.35-.91,1.55-1.47,3.64-.83,5.57.81.84,1.83,1.81,2.94,1.34,0-.02,0-.04.02-.07.03.01.06.02.09.03.02,0,.04-.01.06-.02,0,.02,0,.03,0,.04.82.29,1.46.25,1.9-.31Z"/><path class="cls-2" d="m99.94,57.55c-.03.09-.05.16-.06.23,0-.03,0-.06-.02-.09-.67,1.05-1.19,1.81-1.53,2.49-.42,1.48-.05,2.18.34,3.4.85.73,1.98,1.36,3.01,1.49.17.19-.13-.09-.39.3.77-.2,1.81-.67,1.86-.78-.14-.37.06.09.24-.33,1.48-.68,1.64-3.11.83-5-.51-1.43-1.77-1.72-2.44-2.05-.72.47-1.3.47-1.83.35Z"/><path class="cls-2" d="m23.51,133.39c-.15-1.35-1.71-1.88-2.43-1.52-.52-.24-1.48.18-1.97.47-.45.7-.97,1.1-1.47,2.17-.3,1.32-.21,2.13.78,3.01.26,1.12,1.06,1.4,2.59,1.7-.02.08-.07.21-.23.36.66.02,1.37-.4,1.91-.92,1.76-.69,1.72-3.53.8-5.27Z"/><path class="cls-2" d="m42.02,124.78c.97-.23,1.14-1.03,1.48-1.88.28-1.35-.19-2.31-.45-3.45-.77-1.28-1.54-1.82-2.93-1.9-.41.16-1.15.78-2.02.96-1.25,1.16-2,3.74-.5,5.42.33.82,1.13,1.59,2.36,1.88.44-.43.08-.2.01-.6,1.02.35,1.23-.12,2.04-.43Z"/><path class="cls-2" d="m61.01,110.95c1.65-1.12,2.12-3.24,1.12-5.51-.75-.88-1.87-1.58-2.6-1.95-.72.29-1.52.51-2.15.96-.21.22-.72,1.67-1.54,2.26-.08,1.22.16,2.38.8,2.89.54,1.04,1.31,1.76,2.53,2.02-.01.05-.03.08-.03.15.74-.46,1.62-.21,1.87-.82Z"/><path class="cls-2" d="m78.92,97.19c.28-.13,1.14.15,1.43-.69,1.08-.15,1.22-1.14,1.75-2.26,0-.7-.24-1.85-.44-2.67-.89-.86-1.98-1.85-2.69-2.11-.94.58-1.4.54-2.16.89-.49.35-1.54,1.4-1.62,2.58-.22,1.05-.14,1.98.39,2.65.89.93,1.81,1.78,2.88,1.57.27.36.06.43.46.05Z"/><path class="cls-2" d="m96.41,75.83c-1.84,1.31-2.41,3.93-1.61,5.63.64,1.42,2.02,1.61,3.2,2.05-.21-.19.16-.62.08-.65.88.56,1.4.15,1.59.19,1.13-.88,1.5-1.61,1.61-2.72-.09-1,.22-2.44-.7-2.95-.54-1.11-1.72-2.07-2.38-2.2-.56.28-1.22.85-1.79.64Z"/><path class="cls-2" d="m176.65,198.52c1.53-1.43,1.78-3.51.57-5.63-.53-.81-1.47-1.52-2.46-1.46-.77-.16-1.53.29-2.05.71-.03-.06-.1-.15-.2-.33-1.44,1.18-1.7,3.88-.83,5.7.54.92,1.92,1.36,2.73,1.78.19-.47.36-.04.5-.2.66-.17.63-.5,1.76-.48-.56-.27.04-.28-.03-.09Z"/><path class="cls-2" d="m155.03,213.44c-.02-.39.29-.27.31.06.8-.43,1.45-.24,1.45-.97,2.04-1.09,2.23-3.35,1.4-5.08-.52-1.43-1.75-1.72-3-1.55-.72-.28-1.46.16-1.47.41-1.3.61-1.81,1.2-1.96,2.33.05,1.08.05,2.04.8,3.09.52.6,1.39,1.95,2.48,1.72Z"/><path class="cls-2" d="m17.54,156.66c.43.12,1.17.51,1.45-.19,1.95-1.15,2.35-3.45,1.15-5.52-.4-.78-1.72-1.74-2.82-1.08-.23-.42-1.44-.51-2.03-.12-.6.79-.66,2.05-1.31,2.39-.13,1.09-.03,2.32.67,3.12.39,1.13,1.91,1.79,2.69,1.61-.02.07.09.43.2-.2Z"/><path class="cls-2" d="m39.6,137.31c-.74-.69-1.62-1.17-2.95-1.77-.75.44-1.58.2-1.98.92-.57.41-1.24,1.7-1.45,2.71,0,.43-.01,1.41.7,2.68.62.77,1.68,1.87,2.67,1.57.01-.01.02-.02.03-.03-.03.08-.04.2.05.34.97-.06,1.1-.89,1.44-1.18,1.1-.14,1.83-1.25,1.67-1.74.41-1.54.01-2.54-.16-3.51Z"/><path class="cls-2" d="m58.94,123.99c-1.03-1.05-1.86-1.81-2.91-1.86-.76,0-1.38-.01-1.79.09-.83.93-1.56,1.98-1.75,2.72.05,1.04.02,2.06.73,2.62.45,1.15,1.75,2.29,2.77,2.2,0-.06,0-.11-.01-.16.75-.39,1.12-.54,1.77-.5,1.16-1.2,1.81-3.63,1.19-5.1Z"/><path class="cls-2" d="m119.57,235.67c-1.13-.93-1.8-1.52-2.92-2.16-.82.52-1.42.46-2.21.51-.88,1.74-1.52,4.21-.96,5.36.77,1.63,2,1.79,3.37,1.82.16.1,1.12.06,1.51-.26.54-.41,1.32-1.03,1.18-2.66.61-1.06.43-2.09.04-2.63Z"/><path class="cls-2" d="m94.79,101.25c.37.1.91.12,1.36-.46,1.33-1.34,2.29-3.29.73-5.28-.34-.94-1.49-1.84-2.23-2.06-.95.28-1.31.21-2.06.94-1.31,1.39-2.08,3.17-1.36,5.11.8.9,1.81,1.81,3.32,1.9.02.04-.25.34.23-.16Z"/><path class="cls-2" d="m113.76,87.24c-.09,0-.16.02-.26.02.34.2.33.09.26-.02Z"/><path class="cls-2" d="m111.92,80.12s-.07.04-.08.08c-.7.76-1.02,1.4-1.1,2.57-.52.51-.54,1.69-.25,3.02.89.64,2.32,1.2,3.12,1.37,0-.09.09,0,.14.08.71-.06,1.18-.25,2.07-.23-.1-.1-.23-.18-.33-.19,1.38-1.15,2.04-3.48,1.11-5.8-.64-.71-1.56-1.42-2.86-1.67-.98.58-1.37.77-1.78.85,0-.03-.01-.05-.02-.07.03-.04.07-.09.11-.16-.05.05-.09.09-.13.14Z"/><path class="cls-2" d="m97.2,247.5c-.07-.01-.14,0-.22.02h.28s-.04-.02-.06-.02Z"/><path class="cls-2" d="m159.18,194.85c.58.51,1.07.23,1.13-.14,1.71-1.57,1.96-3.67,1.22-5.62-.34-.78-1.86-1.47-2.78-1.74-.31.23-1.11.1-1.89.71-1.44,1.17-2.02,3.34-1.26,4.82.7,1.62,1.74,2.43,3.12,2.22.32.19.42.27.46-.25Z"/><path class="cls-2" d="m141.49,208.28c.65.23.82-.69,1.47-1.79-.3-1.42.14-2.69-.62-3.45-.82-.91-1.57-1.48-2.73-1.29-.95-.61-1.14-.38-1.87.42-1.26.72-1.97,3.29-1.32,5.27.62,1.05,1.76,1.69,3.06,1.39.07.06.1.1.12.14.03-.02.06-.04.11-.06.69,0,.82.47,1.78-.64Z"/><path class="cls-2" d="m139.6,208.97c-.17.11.07.14,0,0h0Z"/><path class="cls-2" d="m120.38,223.07s-.02,0-.03,0c-.33.03-.3.19.03,0Z"/><path class="cls-2" d="m121.83,222.69c.79-.19,1.05-1.5,1.59-2.4.4-1.21.09-1.73-.59-2.69-.23-1.12-1.23-2.3-2.91-2.04-.1-.29-1.34.04-1.58.48-1.67,1.07-2.18,3.81-1.41,5.49,1.22.76,2.23,1.96,3.48,1.52-.01,0-.02,0-.03.02.37.01,1.29-.03,1.45-.38Z"/><path class="cls-2" d="m100.77,236.92s-.02.02.07,0c.09,0,.18.01.26,0-.08-.02-.14-.02-.2-.02.04,0,.09-.02.15-.04.49.09,1.35-.07,1.52-.43.86-.42,1.19-1.41,1.64-2.29-.18-.95-.35-2.21-.63-2.87-.27-1.1-1.82-1.59-2.6-1.78-.61.11-1.24.32-2.31.62-.6.7-.78,1.19-1.09,2.3-.5,1.31.02,1.8.02,2.95.64.99,1.98,1.47,3.15,1.53Z"/><path class="cls-2" d="m84.3,244.65c-.62-.82-1.39-1.29-2.92-1.67-.76.51-1.35,0-1.56.43-1.08,1.19-1.05,1.38-1.46,2.45-.09.61-.02,1.28.11,1.96l6.4-.1c.15-1.04,0-2.2-.57-3.07Z"/><path class="cls-2" d="m29.48,179s-.08,0-.13.01c.31.12.5.37.13-.01Z"/><path class="cls-2" d="m31.11,178.91c1.78-1.44,1.82-3.56,1.46-5.74-1-.63-2.19-1.88-3.41-1.77-.33.17-1.24.72-1.62.42-.37.82-1.08,1.97-1.01,2.69-.25.84-.05,1.74.34,2.42.47,1.15,1.49,2.23,2.54,2.01.02.03.04.04.06.06,1.03-.09,1.08-.22,1.63-.09Z"/><path class="cls-2" d="m50.74,164.66c1.53-.99,1.78-3.47.99-5.02-1.08-1.28-2.01-1.89-3.06-1.94-.91.07-1.46.11-1.91.82-1.06.97-2.05,3.55-.99,5.06.64,1.2,2.04,2.2,3.26,2.12-.02-.08-.05-.14-.08-.19.03.02.05.03.08.05.21-.23,1.21,0,1.72-.91Z"/><path class="cls-2" d="m70.45,146.21c-.21-1.12-1.62-2.29-2.36-1.98-1.09.2-1.52.46-2.26.14-1.12,1.2-1.78,3.63-.74,5.32.78,1,1.47,2.41,3.13,2.16-.12.04-.18-.1-.47-.19.92-.11,1.36-.15,1.99-.79,1.64-.55,2.23-3,.71-4.67Z"/><path class="cls-2" d="m106.65,124.05c.38-.63.98-.27,1.78-.73.78-.36.89-1.39,1.35-2.28.5-1.55-.14-2.58-.6-2.97-.48-1.71-1.39-1.98-2.68-2.33-.49.45-1.52.28-1.68.97-1.68,1.4-2.06,3.22-1.34,5.46,1.02.64,1.87,1.68,2.88,1.84.15-.01.2-.03.21-.03,0,0,0,.03.07.06Z"/><path class="cls-2" d="m127.69,109.13c.09.02.12,0,0,0h0Z"/><path class="cls-2" d="m126.22,109.48c.48.28.96-.32,1.18-.5.05.05.11.08.16.11,1.78-.97,2.21-3.68.83-5.69-.06-.48-1.55-1.28-2.8-1.6-.14.16-1.04.45-1.41.84-.02,0-.04.03-.07.09-1.41,1.09-2.34,3.32-1.35,5.09.57.82,1.84,1.71,3.31,1.84-.34-.17-.31-.35.16-.17Z"/><path class="cls-2" d="m127.69,109.13s-.08-.02-.13-.04c-.03.02-.05.04-.08.06.11-.01.17-.01.22-.01Z"/><path class="cls-2" d="m47.98,178c-.49-1.58-1.61-2.04-2.77-2.09-.86.12-1.16.51-2,.73-1.11.66-1.58,3.22-.69,4.81.28,1.25,1.31,1.82,2.85,2.29-.04-.07-.05-.1-.08-.15.79-.31,1.48-.23,1.85-.3.97-1.2,1.73-3.81.83-5.29Z"/><path class="cls-2" d="m64.37,170.11c.67-.11,1.09-.58,2.02-.51.19-.99,1.21-1.76,1.37-2.39.22-1.47.01-2.14-.29-3.36-.77-1.3-1.83-1.77-3.09-1.37-.55-.59-1.55-.31-1.82.66-1.26.62-2.16,3.42-.99,4.76.3,1.49,1.68,1.7,2.79,2.21Z"/><path class="cls-2" d="m83.86,156.09s.01,0,.02,0c.03-.02.02,0-.02,0Z"/><path class="cls-2" d="m85.71,155.25c1.4-1.11,1.91-3.6,1.09-4.83-.62-1.46-2.21-2.28-2.92-2.18-.77.25-1.8.43-2.33.86-1.45,1.21-1.39,3.13-.62,5.38.35.8,1.28,1.32,2.7,1.57-.09-.06-.17-.18-.2-.43.73.5,1.3.41,2.27-.37Z"/><path class="cls-2" d="m83.86,156.09c-.08-.01-.15-.03-.23-.04.09.06.18.05.23.04Z"/><path class="cls-2" d="m103.28,141.96c.49-.18,1.05-.28,1.68-.5,1.53-1.46,2.08-3.41.73-5.63-.75-.6-1.86-1.52-2.76-1.69-.34.03-1.46.54-1.87.73-1.61,1.41-2.22,3.72-1.23,5.19,1.18,1.02,1.76,2.1,3.28,2.15.01-.49-.06-.36.17-.25Z"/><path class="cls-2" d="m122.56,127.69c.18.34.86.15,1.57-.55.48-.37,1.18-1.31,1.52-2.17.32-.86.11-2.27-.88-2.98-.52-1.45-1.09-2.14-2.66-1.82-.15.27-.84.26-1.46.42-1.56.97-1.86,3.45-1.03,5.18.09,1.56,1.76,2.44,2.59,1.98.18.26.36.35.35-.06Z"/><path class="cls-2" d="m149.78,166.74c-.91-.94-2.05-1.95-3.02-2.08-.51.28-1.65.58-1.69.68-.83.76-1.62,1.41-1.73,2.81-.19.62-.23,1.72.6,2.73.19,1.19,1.32,1.81,2.81,1.7-.18.41.2.3.08.06.78-.31,1.22-.49,1.59-.78,1.32-1.19,2.14-3.62,1.36-5.13Z"/><path class="cls-2" d="m129.46,186.59c1.23-1.16,1.91-4.03.97-5.55-1.04-1.14-2.23-2.21-3.21-2.27-.57.37-1.46.68-1.85.76-.31.58-1.21,1.33-1.14,2.78-.3,1.08-.18,1.75.19,2.82.65.93,1.44,1.68,2.99,1.77-.09-.05.01-.13.06,0,.05,0,.1.01.16.01-.07,0-.12,0-.16,0,.02.05.03.13.02.25.25-.18.86-.93,1.97-.57Z"/><path class="cls-2" d="m127.4,186.9s.04.02.07.02c0,0,0-.01,0-.02-.02,0-.04,0-.06,0Z"/><path class="cls-2" d="m43.66,200.88c.94-.82,1.62-3.6.49-5.51-.65-1.21-1.16-1.44-2.45-1.25-.78-.52-1.69-.47-2.21-.01-1.54,1.03-1.95,4-.75,5.09.86,1.38,1.88,1.94,3.07,2.3.08-.13-.07-.27-.14-.33.02.01.04.03.07.05.77-.02,1.22.23,1.91-.35Z"/><path class="cls-2" d="m164.78,233.89c.66.86,1.24,2.07,2.64,1.67.49-.03,1.49,0,1.71-.56,1.79-1.36,1.79-3.4,1.18-5.12-.8-1.36-1.91-2.28-2.65-2.01-.6-.22-1.28.15-2.15.34-.61.83-1.39,1.37-1.07,2.9-.57.82-.41,1.9,0,2.31.08.49-.15.73.35.46Z"/><path class="cls-2" d="m108.29,200.94s-.09-.02-.13-.03c.03.03.07.06.13.03Z"/><path class="cls-2" d="m110.9,195.3c-.59-1.53-1.88-2.36-3.04-2.46-.56.61-1.35.4-1.79.5-.42.78-1.46,1.38-1.37,2.77.12,1.28.06,2.34.12,2.56.99,1.21,2.12,2.03,3.34,2.24-.04-.04-.03-.1.04-.07.44-.21.93-.51,1.47-.6.52-.14,1.49-1.02,1.36-2.24.1-1.19.42-1.94-.13-2.71Z"/><path class="cls-2" d="m81.85,173.31c1.64-.79,2.32-3.18.74-4.79-.11-1.58-1.12-2.37-2.26-2.15-.69.46-1.79-.08-2.28.62-.23.22-.72,1.27-1.43,2.53-.13,1.19-.18,1.83.82,2.54.15,1.52,1.22,2.29,2.7,1.96.41.25,1.03-.45,1.7-.71Z"/><path class="cls-2" d="m88.55,214.47c.52.5,1.25.11,2,.02.39-.74.91-2.03,1.59-2.41-.11-1.13.03-2.59-.89-3.3-.09-1.43-1.76-1.48-2.66-1.92-.72.2-1.46.6-1.89.62-.9.63-1.1,1.28-1.01,2.38-.32.82-.08,2.25-.16,3.16,1.09.69,2.17,1.85,3.03,1.45Z"/><path class="cls-2" d="m120.29,145.5c1.84-.72,2.32-3.15,1.55-5.27-.67-1.22-2.1-1.89-2.91-2.07-.84-.06-1.18.64-1.91,1.18-.56.37-1.29,1.39-1.68,2.2-.35,1.33-.22,2.01.67,2.73.75,1.21,1.5,1.62,2.78,1.53.33-.03.08.31-.18.55,1.16-.3,1.26-.69,1.68-.86Z"/><path class="cls-2" d="m18.86,232.14c.61.57,1.26.3,1.78-.11,1.63-1.21,2.04-3.58.93-5.12-.48-1.36-1.65-2.1-2.45-2.09-1.07-.01-1.45.28-1.82.26-.85.97-1.28,1.58-1.95,2.3-.04,1.08.15,2.07.91,3.2.36.77,1.34,2.01,2.61,1.55Z"/><path class="cls-2" d="m57.56,205.99c-.12-.04-.24-.08-.35-.11-.08.17,0,.27.35.11Z"/><path class="cls-2" d="m59.31,205.56c1.4-1.55,1.82-4.04.55-5.87-.67-.73-1.69-1.45-2.7-1.59-.79.35-1,.44-1.65.88-1.26.61-2.33,3.65-1.25,4.65.53,1.42,1.75,1.87,2.95,2.26.01-.03.03-.06.05-.1,1,0,1.35.24,2.05-.22Z"/><path class="cls-2" d="m78.39,191.29c1.28-.65,2.07-3.5.94-5.05-.73-1.03-1.34-1.91-2.58-1.45-.96-.11-1.64-.15-1.86.26-1,.55-1.74,1.6-1.89,2.78-.05.55.08,1.67.34,2.55,1.07.86,2.11,1.48,3.42,1.99,0-.42.12.02.04-.53.62.59.81-.01,1.59-.55Z"/><path class="cls-2" d="m97.48,178.13c1.4-1.27,2.02-3.5.96-5.55-.21-1.53-1.47-2.24-2.3-1.92-1.24-.34-1.56.49-2.25.46-1.56.99-1.74,3.77-1.26,5.47.58.96,1.9,1.45,3.2,1.7-.03-.04-.07-.09-.12-.17.97.6,1.76-.17,1.78,0Z"/><path class="cls-2" d="m95.93,178.32s-.07-.01-.1-.02c.11.14.08.06.1.02Z"/><path class="cls-2" d="m95.93,178.32s.08.02.12.03c-.09-.06-.11-.05-.12-.03Z"/><path class="cls-2" d="m115.49,164.16c.06.59.77.23,1.6-.11,1.39-1.19,1.56-3.93.62-5.56-.32-1.36-1.2-1.66-2.62-1.48-.83-.1-1.54.04-1.63.54-1.71.47-2.08,3.45-1.52,5.26,1.15.63,2.06,1.24,3.4,1.53-.08-.06-.3-.16.15-.17Z"/><path class="cls-2" d="m136.99,144.69c-.22-1.12-1.3-2.14-2.44-2.08-.56-.09-1.26.16-2.16.42-1.5,1.03-1.89,4.15-.73,5.71.67,1.13,1.71,1.39,2.83,1.69.21.18.15-.08-.11-.05.9-.21,1.62-.41,1.91-.63,1.42-1.09,1.92-3.58.69-5.06Z"/><path class="cls-2" d="m69.45,228.51s0,0,0,0c.04.02.07.04.11.05.01-.04,0-.06,0-.1.5-.17,1.28-.18,1.33-.33,1.77-1.73,2.51-3.5,1.32-5.69-.71-1.01-1.71-1.79-2.69-2.15-.82-.03-1.55.59-2.25.94-.77.69-1.04,1.55-1.14,2.57-.16.4-.28,1.52.25,2.48.84,1.1,1.83,1.7,3.06,2.22,0,0,0,0,0,0Z"/><path class="cls-2" d="m62.46,187.07c.91-.31,1.44-1.29,1.64-1.75.04-1.13.33-2.38-.33-2.98-.56-1.55-1.69-2.17-2.91-2.35-.89.3-1.35.16-1.96.97-1.54,1.24-2.14,3.37-.65,5.26.56.76,1.4,1.39,2.78,1.62.33-.06,1.41-.2,1.42-.78Z"/><path class="cls-2" d="m18.4,244.23c-.91-1.37-1.77-1.72-3.45-1.44-.25-.28-.63-.52-1.43.35-1.84,1-1.86,3.12-1.18,5.03.24.25.48.5.74.72l4.97-.08c.85-.9.99-2.8.36-4.58Z"/><path class="cls-2" d="m31.02,247.27c-1.03-.09-1.17.3-2.26.29-.28.38-.44.75-.56,1.09l5.39-.09c-.66-.78-1.52-1.42-2.57-1.29Z"/><path class="cls-2" d="m56.46,217.89c-.83-1.21-1.31-1.93-2.7-1.49-1.02-.23-1.65-.09-2.06.2-1.53.95-1.92,3.7-.95,5.44.61,1.2,1.78,1.87,2.92,1.37.55.51,1.31.07,1.55.08.77-1.09,1.69-1.68,1.55-2.7.55-.94.09-1.89-.3-2.91Z"/><path class="cls-2" d="m76,204.09c-1.04-.38-2.13-1.13-2.82-1.75-1.15.59-1.86.55-2.39.95-1.02,1.31-1.61,3.46-.64,4.96.69,1.16,1.65,2.02,3.08,2.39-.02-.03-.03-.05-.04-.08.26-.11,1.07-.56,1.48-.56,1.71-1.07,2.22-4.05,1.32-5.91Zm-2.84,6.4c-.19-.38-.07-.45,0,0h0Z"/><path class="cls-2" d="m94.24,195.79c.82-.05,1.34-1.33,1.48-2.29.09-.92-.38-2.18-.5-2.6-.57-1.07-1.71-1.86-2.91-2.09-.86-.29-1.18.04-2.08.38-.39.81-.92,1.5-1.09,2.53-.68,1.01-.23,2.21.23,3.14.8.59,1.74,1.42,2.88,1.71.05.05.42-.07-.05-.4.9-.03,1.31.31,2.03-.39Z"/><path class="cls-2" d="m22.76,214.53c.42.29.78-.06,1.68-.4,1.35-.8,1.47-3.43.85-5.14-.74-1.51-1.82-1.9-2.83-1.76-.84-.23-1.22-.12-1.59.12-1.78,1.21-2.31,3.38-1.44,5.33.83,1.01,2.06,1.81,2.72,1.97.52.16.51.11.6-.12Z"/><path class="cls-2" d="m34.49,236.93s0,0,.01.01c.71.17,1.22.18,2.06-.32,1.43-1.35,1.87-3.32.7-5.07-.48-1.4-1.7-1.85-2.47-2.15-1.1.3-1.6.61-2.35.59-1.44.83-1.64,3.68-.85,4.91.58,1.56,1.44,2.12,2.92,2.04Z"/><path class="cls-2" d="m10.52,192.55c-.23-.05.03.12,0,0h0Z"/><path class="cls-2" d="m13.18,187.01c-.73-1.24-1.37-2.1-2.97-2.2-.09.01-.19.04-.3.08l.12,7.51c.15.04.3.08.45.09.02.03.02.05.03.07.03,0,.06.01.1.02.14-.11,1.05-.35,1.75-.75,1.36-.93,1.67-3.39.81-4.82Z"/><path class="cls-2" d="m14.13,174.45c.51.44.79.27,1.6-.14,1.22-1.08,1.75-3.25,1.19-5.29-.69-1.38-1.58-1.61-3.14-1.63-.83-.44-1.05-.05-1.43.41-1.66,1.34-2.05,3.43-1.5,4.82.55,1.6,1.84,1.96,2.95,2.12.25-.31-.07.24.32-.28Z"/><path class="cls-2" d="m150.9,243.95c-.71-1.15-1.49-1.49-2.58-1.53-1.09-.56-1.82-.46-2.03.6-.55.64-1.39.8-1.67,2.03.09.53.17,1.14.28,1.69l6.41-.1c.07-.86-.09-1.78-.4-2.68Z"/><path class="cls-2" d="m101.45,159.25c.25,0,1.07-.64,1.07-2.1.26-.99.37-2.1-.25-2.5-.91-1.19-1.88-2.38-3.07-1.89-.18-.64-.89-.44-1.57.47-1.34.85-2.15,3.51-1.3,5.16.56,1.37,1.51,1.98,3.03,1.64-.02.01-.04.02-.07.04,1.03.4,1.75-.06,2.17-.81Zm-1.78.7c-.06.05-.06.03-.06.01.02,0,.04,0,.06-.01Z"/><path class="cls-2" d="m63.32,93.43c.55.07,1.02-.37,1.22-.7,1.39-1.07,2.1-3.63.91-5.12-.62-1.43-1.28-1.88-2.4-1.95-.87.21-1.52.12-2.09.51-.63,1.03-1.04,1.66-1.24,2.36,0,.89.05,2.18.04,3.18.94.89,1.79,1.49,3.55,1.72Z"/><path class="cls-2" d="m137.61,226.68c1.53-.74,2.37-3.01,1.33-4.96-.94-1.27-1.63-1.78-3.09-2.2-.89.38-1.41.26-1.54,1.04-2.01.58-2.24,3.13-1.44,5.18.79.64,1.81,1.71,2.78,1.69.51.2.35.1-.01-.34,1.1.38,1.92-.01,1.96-.42Z"/><path class="cls-2" d="m77.2,115.19c.67-.57,1.19-1.72,1.38-2.57-.09-.75-.11-2.53-.52-3.3-.76-.73-2.14-1.61-3.09-1.12-.83-.68-.84-.23-1.95-.02-.69.67-1.05,1.56-1.23,2.95-.04,1-.28,1.61.29,2.64.97,1.27,1.59,1.72,2.88,1.8.18.05.53.31.09-.02.8.21,1.39-.12,2.16-.37Z"/><path class="cls-2" d="m113.31,182.12c1.51-.8,1.96-3.39,1.28-5.12-.77-1.8-1.55-2.46-2.77-2.22-.81.23-1.29.17-1.8.69-1.09.91-1.72,1.61-1.96,2.3.01,1.53.48,2.09.79,3.38.67.95,1.22,1.41,2.67,1.81.75-.18,1.37-.4,1.78-.83Z"/><path class="cls-2" d="m67.64,245.53c.7.1.94-1.2,1.5-2.32,0-.47.06-1.48-.21-2.87-.68-1.09-1.91-1.96-3.2-1.49-.91.13-1.07.17-1.63.62-1.86.93-1.8,3.1-1.03,4.74.58,1.3,1.35,1.91,2.64,1.88,0-.03-.02-.07-.02-.12.09.04.19.07.28.09,0,0-.02,0-.03.02.02,0,.04,0,.06,0,0-.01,0-.01-.01-.01.69.19,1.37.14,1.66-.53Z"/><path class="cls-2" d="m65.93,246.08c-.08,0-.15,0-.22,0,.05.17.16.05.22,0Z"/><path class="cls-2" d="m84.94,232.72c.31-.15.03-.16.58-.25.41-.05.72.13,1.23.1.76-.87,1.61-1.36,1.62-2.51.2-.96.09-1.98-.55-3.12-.82-1.44-1.29-1.52-3.02-1.81-.33-.26-1.3.16-1.68.46-1.28,1.31-2.13,3.96-1.25,5.34,1.14,1.36,2,1.71,3.07,1.79Z"/><path class="cls-2" d="m101.73,217.04c.64,1.59,1.74,2.25,2.62,1.73.23.58.19-.06.26.48.64-.29.79-.75,1.88-.51,1.41-1.52,1.66-3.73,1.06-5.59-1.23-1.38-1.96-1.64-3.44-1.47-.2-.17-1.05-.16-1.55.14-.38.38-.97,1.31-1.62,2.45-.02.97-.16,2.35.79,2.77Z"/><path class="cls-2" d="m143.44,190.66c.12-.07,1.03.48,1.41-.35.83-.72,1.31-1.07,1.33-2.53.53-.85.18-1.83-.4-2.99-.39-1.07-1.8-1.44-2.68-1.25-.68-.04-1.1-.4-1.68.03-1.83,1.59-2.18,3.83-1.24,5.75.58,1.01,2.03,1.99,2.71,1.84.54-.01-.01-.06.56-.5Z"/><path class="cls-2" d="m87.32,137.7c.23.02.13.3.25.22.43.1,1.29-.02,1.36-1.01,1.49-.89,2.05-3.27,1-5.06-.72-.88-1.25-1.48-2.97-1.99-.41.65-.89.33-1.47.7-1.51,1.6-2.19,3.69-1.26,5.11.95,1.31,1.72,2.39,3.08,2.03Z"/><path class="cls-2" d="m111.92,105.17c1.69-1.28,1.91-3.89,1.08-5.9-.93-1.11-1.89-1.35-2.99-1.69-.34.21-.88.6-1.39.93-1.89,1.2-1.96,3.29-1.67,5.07,1.01,1.02,2.13,1.84,3.22,2.11.19-.51.22-.22.15-.04.39-.45.91-.37,1.6-.48Z"/><path class="cls-2" d="m91.13,119.77c.61-.21,1.08-.12,1.18-.37,1.25-1.15,1.33-1.4,1.99-2.4.16-1.09-.53-2.15-.73-2.97-.37-1.1-1.41-2.37-2.58-1.74-.91-.08-1.2.22-2.27.38-1.22.89-1.68,3.59-.93,5.31.44,1.3,1.71,1.38,2.97,1.8.09.19.31-.06.36,0Z"/><path class="cls-2" d="m71.82,133.98c.57-.55.91-.43,1.27-.55,1.52-1.52,2.19-3.63,1.24-5.48-.81-1.45-1.95-1.86-3.04-2.04-.5-.21-1.1.18-1.58.89-.49.18-.97,1.05-1.36,1.96-.44.96-.43,2.35.53,3.33.35,1.02,1.47,1.32,2.62,1.81.21-.03-.01-.59.31.08Z"/><path class="cls-2" d="m54.18,146.77c.83-.24,1.15-.74,1.17-1.93.02-.92.13-2.1-.02-3.24-1.16-1.04-1.8-1.33-2.95-1.96-.76.31-1.59.69-1.85.78-1.55,1.27-2.29,3.96-1.16,5.47.34,1.16,2.04,1.99,3.24,1.68-.15.02-.25.04-.32.07.95-.01,1.55-.14,1.9-.86Z"/><path class="cls-2" d="m52.07,147.63c.01.07.05.04.21,0-.07,0-.13,0-.21,0Z"/><path class="cls-2" d="m32.8,161.43c1.04.14,1.66-.6,2.38-.54,1.12-.94,1.49-3.64.38-5.54-.36-.7-1.21-1.82-2.35-1.4-.59-.27-1.32-.33-1.68.62-.69.32-1.67.79-1.71,2.15-.25.82-.37,2.25.54,2.41.14,1.59,1.62,2.03,2.94,2.13-.02.34-.33-.18-.5.17Z"/><path class="cls-2" d="m123.82,205.13c.52-.49,1.1-.1,1.7-.85.87-.34,1.28-1.03,1.37-2.16.52-1.21.4-2.36-.62-3.33-.13-.75-1.27-1.5-2.72-1.44-.33.2-.93-.18-1.87.71-1.33.67-1.56,3.18-.72,5.15.72,1.05,1.29,2.04,2.74,2.07.16-.04.09.02.11-.14Z"/><path class="cls-2" d="m162.47,246.45l1.31-.02c-.59-.47-.92-.42-1.31.02Z"/><path class="cls-2" d="m163.87,246.43l1.16-.02c-.36-.17-.75-.18-1.16.02Z"/><path class="cls-2" d="m183.41,239.25c.35.14,1.05-.05,1.54-.44,1.44-1.23,2.01-3.29.87-5.09-.68-1.11-1.62-2.08-2.68-1.75-.64-.31-1.43-.08-2.13.41-.25.39-.67,1.31-1.05,2.12-.62,1.54-.01,2.23.28,3.19.31,1.1,1.44,1.69,3.16,1.56Z"/></g></svg>