<?xml version="1.0" encoding="UTF-8"?><svg id="Icn_InventoryBG-Circle-Orange" xmlns="http://www.w3.org/2000/svg" viewBox="0 0 256 256"><defs><style>.cls-1{fill:#ffc369;}.cls-2{fill:#ff8500;}</style></defs><rect x="0" y="0" width="256" height="256" rx="128" ry="128"/><rect class="cls-2" x="15.91" y="7" width="233.09" height="233.09" rx="116.55" ry="116.55" transform="translate(-2 2.18) rotate(-.94)"/><g id="dots"><path class="cls-1" d="m157.62,71c-.08,1.27.07,2.55.11,3.77-.28.12-.48.26-.54.22-3.93-2.97-8.08-3.88-12.4-.99-4.38,2.93-4.59,7.3-3.73,11.94.45.75.91,1.5,1.36,2.26,2.94,2.26,6.14,3.82,10.71,3.24-1.96,3.2-2.96,6.08-2.54,9.32-10.99-3.21-17.21,2.25-14.89,12.69.42.75.84,1.49,1.26,2.24,2.89,2.51,6.11,4.16,11.36,2.94-3.28,4.28-3.61,7.85-2.35,11.57.49.8.97,1.6,1.46,2.41,2.93,2.97,6.51,3.87,10.55,3.29,1.65-.65,3.14-1.56,4.43-2.77,1.85-2.73,2.95-5.7,2.34-9.86,3.06,2.3,5.86,2.51,8.6,3.06-.03.75.01,1.22-.07,1.66-1.84,9.59,3.43,14.75,13.17,12.88.98-.26,1.81-.77,2.48-1.53,2.85-2.78,3.86-6.28,3.26-10.89,4.5,2.94,8.39,3.28,12.38,1.26,3.58-2.68,4.98-6.33,4.53-10.76,9.94,1.76,14.56-.46,15.4-7.25.81-6.57-3.61-10.19-12.75-10.45-.13-.75.49-1.12.83-1.62,2.44-3.68,2.68-7.48.19-11.15-2.37-3.49-5.84-4.69-9.98-3.99-.64.11-1.3.15-1.95.23-.92.25-1.69.73-2.33,1.44-2.53,2.89-3.29,6.49-3.58,10.64-2.87-2.27-5.73-2.72-9.2-2.69,2.22-3.86,1.69-7.37.6-10.88-.1-.18-.19-.36-.28-.54-3.27-3.2-6.94-5.34-12.78-3.5,3.78-4.67,3.83-8.67,2.2-12.82-1.08-.97-2.07-2.09-3.28-2.86-6.24-3.96-14.13.1-14.57,7.47Zm40.42,30.19c3.58,2.1,6.85,2.76,11.47,1.54-3.18,3.59-3.68,7.07-3.8,11.07-3.55-2.45-6.89-2.67-10.72-1.66,2.69-3.05,3.37-6.64,3.05-10.94Zm-36.45,17.57c-2.95-2.52-6.13-2.31-9.99-2.72,2.81-2.71,2.91-5.66,2.98-8.9,3.29,1.55,6.17,1.93,10.15,1.09-2.67,3.56-3,6.77-3.14,10.53Zm-4.1-29.89c2.06-3.64,2.88-6.88,2.13-10.67,3.15,2.63,6.6,3.2,11.06,2.51-2.71,3.31-3.5,6.53-3.2,10.34-3.26-2.05-6.24-2.64-10-2.18Zm24.24,23.64c3.85,1.87,7.18,2.21,10.76,1.29-2.74,3.04-2.77,6.71-3.28,10.48-2.66-1.82-5.13-2.73-8.48-2.34.82-3.31,1.84-5.93,1-9.43Zm-2.45-14.31c-.78,2.99-1.67,5.69-1.08,9.05-3.61-1.37-6.57-1.82-10.26-1.41,2.39-3.26,2.92-6.24,2.56-10,2.96,1.89,5.54,2.8,8.78,2.36Z"/><path class="cls-1" d="m175.41,66.24c.02.05.04.1.06.15.02.02.04.04.06.06l-.12-.21Z"/><path class="cls-1" d="m204.62,129.71s-.04.02-.06.03c-.03.02-.06.05-.09.08l.15-.1Z"/><path class="cls-1" d="m172.94,149.75c.46-1.11.65-1.75.97-2.32,3.46-6.24-1.52-14.23-8.62-13.92-.96.04-1.98.25-2.87-.37-1.3,1.21-2.79,2.12-4.43,2.77-.26.77-.45,1.57-.79,2.3-3.37,7.41.35,13.75,8.45,14.37.79.06,1.64-.12,2.32.57.37,1.21-.46,2.19-.7,3.29-.91,4.18.38,7.87,3.6,10.07,3.04,2.08,7.23,2.08,10.31,0,3.22-2.17,4.54-5.82,3.68-10.05-.19-.91-.9-1.75-.49-2.76-3.24-2.65-6.77-4.58-11.41-3.96Z"/><path class="cls-1" d="m184.36,153.7c.06.05.11.09.17.14l-.14-.23s-.02.06-.03.09Z"/><path class="cls-1" d="m175.54,66.35s-.09-.07-.13-.11l.12.21s0-.06.02-.09Z"/><path class="cls-1" d="m188.29,69.83c-4.31,4.5-3.24,8.7-2.24,12.88.09.18.18.36.28.54,3.7,2.49,7.62,4.04,12.18,2.93.63-.71,1.41-1.19,2.33-1.44.54-.83,1.14-1.62,1.62-2.48,4.02-7.1-.27-14.51-8.48-14.66-.82-.01-1.65.11-2.53.17-.47-1.48.82-2.37,1.15-3.56,1.13-4.14.11-7.87-3.03-10.31-2.9-2.26-7.16-2.53-10.33-.66-3.34,1.97-4.99,5.75-4.33,9.85.18,1.1.93,2.1.63,3.28,3.36,2.86,7.03,4.89,12.74,3.48Z"/><path class="cls-1" d="m133.67,127.3c-.52.39-1.04.77-1.56,1.16-.14,1.43-1.37,2.22-1.97,3.39-1.9,3.73-1.58,7.77.89,10.71,2.42,2.88,6.84,4.07,10.38,2.8,3.64-1.31,5.87-4.59,6.13-8.81.08-1.32-.66-2.6-.12-3.92-.49-.8-.97-1.6-1.46-2.41-3.67-2.78-7.91-3.12-12.29-2.91Z"/><path class="cls-1" d="m140.14,85.58c-3.56-2.83-7.46-3.81-11.53-1.4-4.28,2.54-5.21,6.59-4.25,11.24.06.3-.09.65-.14.97l1.38,2.2c.58.3,1.2.55,1.74.92,3.6,2.46,7.38,3.05,11.13.59,3.73-2.45,4.78-6.13,3.95-10.42-.09-.47,0-.98,0-1.48-.45-.75-.91-1.5-1.36-2.26-.31-.12-.67-.17-.92-.36Z"/><path class="cls-1" d="m136.96,115.7c-.42-.75-.84-1.49-1.26-2.24-1.26-.08-1.97-1.14-2.97-1.67-3.88-2.06-8.09-1.68-11.07.98-2.94,2.62-3.91,7.29-2.25,10.87,1.69,3.64,5.35,5.63,9.77,5.27.98-.08,1.95-.29,2.92-.44.52-.39,1.04-.77,1.56-1.16,3.44-3.2,3.66-7.32,3.29-11.6Z"/><path class="cls-1" d="m201.24,143.35s.09.09.13.14l-.15-.21s.01.05.02.07Z"/><path class="cls-1" d="m184.53,153.84c-.02-.05-.04-.1-.06-.15-.03-.02-.06-.05-.09-.08l.14.23Z"/><path class="cls-1" d="m188.93,139.36c-.67.76-1.5,1.27-2.48,1.53-2.57,3.99-3.78,8.17-1.97,12.81.97.83,1.87,1.77,2.94,2.42,3.34,2.05,6.85,2.52,10.33.38,3.49-2.14,4.65-5.48,4.34-9.38-.1-1.27-.55-2.51-.85-3.76-3.32-3.68-7.6-4.5-12.31-4Z"/><path class="cls-1" d="m204.54,129.8s.05-.06.08-.09l-.15.1s.04,0,.07-.01Z"/><path class="cls-1" d="m201.37,143.49c-.02-.06-.04-.12-.06-.19-.03,0-.06-.02-.09-.03l.15.21Z"/><path class="cls-1" d="m201.31,143.31c1.19.26,1.7,1.41,2.59,2.06,3.62,2.66,8.13,2.72,11.49.12,3.15-2.44,4.4-7.01,2.92-10.71-1.57-3.93-5.6-6.28-9.98-5.73-1.28.16-2.54.49-3.8.75-3.78,3.86-4.92,8.35-3.23,13.51Z"/><path class="cls-1" d="m157.42,155.5c1.19-5.03-1.72-9.74-6.74-10.93-5.01-1.19-9.75,1.73-10.94,6.74-1.19,5.01,1.74,9.75,6.75,10.94,5.01,1.19,9.75-1.74,10.93-6.75Z"/><path class="cls-1" d="m158.45,45.84c-4.74-.95-9.45,2.11-10.52,6.85-1.12,4.92,2.08,9.83,7.03,10.82,4.76.95,9.44-2.1,10.52-6.84,1.12-4.92-2.07-9.83-7.03-10.82Z"/><path class="cls-1" d="m121.23,94.63c-3.93-1.71-8.13-.66-10.78,2.6-2.63,3.23-2.68,7.7-.14,11.06,2.52,3.34,6.86,4.5,10.69,2.85,3.89-1.67,5.94-5.31,5.36-9.67-.13-.98-.49-1.92-.75-2.88l-1.38-2.2c-.99-.6-1.94-1.31-2.99-1.77Z"/><path class="cls-1" d="m228.37,119.04c-4.75-.96-9.52,2.16-10.55,6.89-1.03,4.73,2.03,9.55,6.74,10.64,4.91,1.14,9.92-2.13,10.85-7.08.89-4.75-2.3-9.5-7.04-10.45Z"/><path class="cls-1" d="m114.34,73.16c-1.2,4.63,1.67,9.58,6.29,10.86,4.8,1.32,9.96-1.76,11.07-6.63,1.07-4.68-1.93-9.54-6.59-10.68-4.66-1.14-9.56,1.8-10.77,6.44Z"/><path class="cls-1" d="m223.4,98.43c-1.05,4.71,2.05,9.61,6.75,10.65,4.71,1.05,9.61-2.05,10.65-6.75,1.05-4.71-2.05-9.61-6.75-10.65-4.71-1.05-9.61,2.05-10.65,6.75Z"/><path class="cls-1" d="m202.59,64.77c-1.06,4.91,2.18,9.8,7.12,10.73,4.74.89,9.42-2.22,10.44-6.93,1.06-4.9-2.19-9.81-7.12-10.74-4.74-.89-9.42,2.22-10.44,6.93Z"/><path class="cls-1" d="m141.94,56.26c-4.79-1.14-9.56,1.7-10.81,6.45-1.31,4.96,1.65,9.93,6.63,11.11,4.82,1.15,9.54-1.67,10.81-6.44,1.32-4.96-1.65-9.93-6.63-11.12Z"/><path class="cls-1" d="m213.03,81.2c-1.31,4.94,1.65,9.91,6.62,11.09,4.76,1.13,9.55-1.72,10.8-6.43,1.31-4.92-1.67-9.92-6.62-11.1-4.76-1.13-9.55,1.72-10.8,6.44Z"/><path class="cls-1" d="m164.99,42.21c-1.13,4.58,1.98,9.63,6.58,10.68,4.62,1.05,9.62-2.12,10.59-6.73.94-4.45-2-9.22-6.4-10.38-4.56-1.2-9.64,1.83-10.77,6.43Z"/><path class="cls-1" d="m156.97,178.88c4.46,1.01,9.26-1.86,10.5-6.28,1.28-4.55-1.7-9.68-6.31-10.89-4.59-1.2-9.66,1.83-10.8,6.46-1.13,4.62,1.98,9.65,6.61,10.7Z"/><path class="cls-1" d="m201.41,174.02c4.49.93,9.29-2.08,10.37-6.52,1.13-4.62-2.07-9.71-6.71-10.67-4.49-.93-9.29,2.09-10.37,6.53-1.13,4.62,2.07,9.71,6.71,10.67Z"/><path class="cls-1" d="m129.97,148.76c.93-4.46-2.02-9.22-6.42-10.37-4.56-1.19-9.64,1.86-10.76,6.46-1.12,4.59,2,9.63,6.61,10.67,4.62,1.04,9.62-2.15,10.57-6.76Z"/><path class="cls-1" d="m192.5,47.62c-1.2,4.57,1.93,9.71,6.54,10.75,4.45,1.01,9.29-1.94,10.45-6.36,1.2-4.57-1.93-9.71-6.54-10.75-4.45-1.01-9.29,1.94-10.45,6.36Z"/><path class="cls-1" d="m221.76,146.48c-4.68-.86-9.56,2.55-10.25,7.16-.68,4.56,2.52,9.17,6.94,9.98,4.68.86,9.57-2.55,10.25-7.16.68-4.56-2.53-9.17-6.94-9.98Z"/><path class="cls-1" d="m108.72,138.55c4.56,1.25,9.71-1.83,10.81-6.45,1.05-4.43-1.85-9.3-6.27-10.51-4.36-1.2-9.32,1.57-10.68,5.97-1.39,4.48,1.54,9.73,6.14,10.99Z"/><path class="cls-1" d="m129.61,172.14c4.49,1.14,9.32-1.74,10.46-6.25,1.14-4.49-1.74-9.32-6.25-10.46-4.49-1.14-9.32,1.74-10.46,6.25-1.14,4.49,1.74,9.32,6.25,10.46Z"/><path class="cls-1" d="m97.85,83.67c-1.15,4.52,1.66,9.23,6.19,10.38,4.52,1.15,9.23-1.66,10.38-6.19,1.15-4.52-1.66-9.23-6.19-10.38-4.52-1.15-9.23,1.66-10.38,6.19Z"/><path class="cls-1" d="m244.56,108.97c-4.52-1.15-9.2,1.64-10.36,6.17-1.15,4.52,1.64,9.2,6.17,10.36,3.25.83,6.57-.39,8.61-2.81,0-.35,0-.69,0-1.04h0c-.06-3.57-.29-7.09-.66-10.57-1.03-.98-2.3-1.73-3.77-2.1Z"/><path class="cls-1" d="m188.51,167.43c-4.49-1.15-9.32,1.73-10.47,6.24-1.15,4.48,1.73,9.32,6.24,10.47,4.48,1.15,9.32-1.73,10.47-6.24,1.15-4.48-1.73-9.32-6.24-10.47Z"/><path class="cls-1" d="m167.45,194.04c4.54,1.18,8.81-1.3,9.98-5.81,1.18-4.55-1.29-8.8-5.81-9.98-4.54-1.18-8.81,1.3-9.98,5.81-1.18,4.55,1.29,8.8,5.81,9.98Z"/><path class="cls-1" d="m131.08,40.02c-4.51-.91-8.67,1.8-9.71,6.32-1.07,4.68,1.77,9.05,6.5,10.01,4.51.91,8.67-1.8,9.71-6.32,1.07-4.68-1.77-9.05-6.5-10.01Z"/><path class="cls-1" d="m230.55,71.22c-1.09,4.53,1.48,8.8,5.98,9.95,1.57.4,3.11.35,4.5-.05-2.01-5.15-4.38-10.13-7.08-14.89-1.64,1.11-2.89,2.83-3.41,5Z"/><path class="cls-1" d="m114.38,50.58c-4.55-1.02-8.71,1.64-9.73,6.21-1.02,4.55,1.64,8.71,6.21,9.73,4.55,1.02,8.71-1.64,9.73-6.21,1.02-4.55-1.64-8.71-6.21-9.73Z"/><path class="cls-1" d="m138.34,35.75c-1.16,4.53,1.32,8.82,5.8,10.03,4.71,1.27,9.16-1.39,10.24-6.13,1.04-4.54-1.57-8.75-6.1-9.85-4.54-1.1-8.79,1.44-9.94,5.95Z"/><path class="cls-1" d="m228.79,143.09c-.9,4.51,1.82,8.67,6.33,9.7,4.68,1.06,9.05-1.78,10-6.52.9-4.51-1.82-8.67-6.33-9.7-4.68-1.06-9.05,1.78-10,6.52Z"/><path class="cls-1" d="m220.24,54.36c-1.1,4.52,1.43,8.75,5.92,9.9,2.25.58,4.43.25,6.2-.76-2.85-4.73-6.02-9.25-9.5-13.51-1.25,1.08-2.18,2.57-2.62,4.37Z"/><path class="cls-1" d="m108.72,115.52c1.29-4.58-1.34-9.2-5.92-10.42-4.6-1.23-9.17,1.46-10.33,6.07-1.16,4.61,1.59,9.14,6.22,10.24,4.43,1.05,8.8-1.51,10.03-5.88Z"/><path class="cls-1" d="m188.43,41.91c4.52,1.11,8.75-1.39,9.91-5.88,1.17-4.51-1.28-8.79-5.73-10-4.69-1.28-9.12,1.35-10.21,6.06-1.05,4.52,1.52,8.71,6.03,9.82Z"/><path class="cls-1" d="m246.1,97.63c-.98-4.3-2.19-8.5-3.62-12.6-.66.89-1.15,1.93-1.43,3.11-.99,4.19,1.14,8.08,5.06,9.49Z"/><path class="cls-1" d="m92.11,148.16c4.4,1.15,8.88-1.61,9.83-6.06.91-4.25-1.78-8.47-6.02-9.44-4.25-.97-8.49,1.64-9.53,5.87-1.04,4.23,1.51,8.52,5.72,9.62Z"/><path class="cls-1" d="m246.02,132.64c-.55,2.56.25,5.12,1.88,6.96.52-3.79.86-7.63,1.01-11.53-1.43,1.11-2.49,2.7-2.89,4.57Z"/><path class="cls-1" d="m216.37,47.35c1.41.27,2.79.16,4.05-.26-3.17-3.64-6.55-7.08-10.14-10.3-.1.3-.2.6-.27.92-.99,4.49,1.82,8.76,6.36,9.63Z"/><path class="cls-1" d="m232.35,164.18c-4.19-1.02-8.58,1.64-9.6,5.84-1.02,4.19,1.64,8.58,5.84,9.6,2.5.61,5.06-.1,6.95-1.66,1.01-1.9,1.97-3.83,2.87-5.8.1-3.64-2.4-7.09-6.05-7.99Z"/><path class="cls-1" d="m215.12,174.43c-4.27-.82-8.43,1.96-9.32,6.22-.89,4.26,1.82,8.46,6.07,9.41,4.44.99,8.83-1.93,9.61-6.4.75-4.28-2.1-8.41-6.36-9.23Z"/><path class="cls-1" d="m161.6,35.35c4.48.92,8.65-1.9,9.52-6.44.82-4.29-1.81-8.31-6.1-9.31-4.48-1.05-8.71,1.63-9.7,6.14-.98,4.48,1.77,8.68,6.29,9.61Z"/><path class="cls-1" d="m82.47,94.45c-1.09,4.44,1.63,8.79,6.11,9.75,4.27.92,8.41-1.68,9.45-5.93,1.09-4.44-1.63-8.79-6.11-9.75-4.27-.92-8.41,1.68-9.45,5.93Z"/><path class="cls-1" d="m140.29,188.57c4.54,1.03,8.7-1.59,9.74-6.14,1.04-4.54-1.59-8.7-6.14-9.74-4.54-1.03-8.7,1.59-9.74,6.14-1.03,4.54,1.59,8.7,6.14,9.74Z"/><path class="cls-1" d="m112.31,159.04c.96-4.28-1.67-8.5-5.94-9.52-4.27-1.03-8.53,1.54-9.62,5.79-1.09,4.25,1.41,8.56,5.64,9.71,4.43,1.21,8.91-1.5,9.92-5.97Z"/><path class="cls-1" d="m97.51,61.16c-4.21-.94-8.55,1.81-9.49,6.02-.94,4.21,1.81,8.55,6.02,9.49,4.21.94,8.55-1.81,9.49-6.02.94-4.21-1.81-8.55-6.02-9.49Z"/><path class="cls-1" d="m112.8,181.78c4.07,1.12,8.58-1.47,9.71-5.57,1.12-4.07-1.47-8.58-5.57-9.71-4.07-1.12-8.58,1.47-9.71,5.57-1.12,4.07,1.47,8.58,5.57,9.71Z"/><path class="cls-1" d="m198.48,184.92c-4.18-.93-8.62,1.94-9.47,6.11-.85,4.2,2.09,8.6,6.26,9.38,4.21.78,8.57-2.23,9.27-6.41.68-4.05-2.1-8.19-6.07-9.07Z"/><path class="cls-1" d="m91.43,125.2c.86-4.14-2.17-8.63-6.28-9.32-4-.67-8.22,2.17-9.03,6.09-.86,4.14,2.17,8.63,6.28,9.33,4,.67,8.22-2.17,9.03-6.09Z"/><path class="cls-1" d="m178.31,24.63c3.38.77,7.05-1.1,8.64-4.12-4.53-2.4-9.23-4.51-14.08-6.3-.17.41-.31.83-.4,1.27-.82,3.97,1.93,8.26,5.85,9.15Z"/><path class="cls-1" d="m239.77,159.82c-.48,2.11.08,4.33,1.29,6.08,1.48-3.78,2.76-7.66,3.84-11.62-2.48.88-4.55,2.95-5.13,5.54Z"/><path class="cls-1" d="m160.26,198.4c1.02-4.07-1.83-8.65-5.93-9.52-3.94-.83-8.24,1.85-9.22,5.75-1.02,4.07,1.83,8.65,5.93,9.52,3.94.83,8.24-1.85,9.22-5.75Z"/><path class="cls-1" d="m132.63,192.39c.76-4.1-2.03-8.11-6.13-8.8-3.93-.66-7.75,1.9-8.61,5.77-.9,4.07,1.76,8.17,5.83,9,4.08.83,8.15-1.9,8.91-5.97Z"/><path class="cls-1" d="m182,195.74c-3.96-1.16-8.29,1.28-9.39,5.29-1.09,3.99,1.41,8.27,5.44,9.3,4.02,1.02,8.26-1.55,9.21-5.59.91-3.85-1.45-7.89-5.25-9Z"/><path class="cls-1" d="m117.23,38.71c3.95,1.01,8.24-1.54,9.26-5.51,1.01-3.95-1.54-8.24-5.51-9.26-3.95-1.01-8.24,1.54-9.26,5.51-1.01,3.95,1.54,8.24,5.51,9.26Z"/><path class="cls-1" d="m134.1,28.3c4.01,1.03,8.27-1.56,9.23-5.59.91-3.84-1.46-7.9-5.26-9.02-3.95-1.16-8.31,1.29-9.41,5.29-1.1,3.98,1.42,8.29,5.44,9.32Z"/><path class="cls-1" d="m66.36,105.03c-.98,4.07,1.27,7.76,5.34,8.75,4.07.98,7.76-1.27,8.75-5.34.98-4.07-1.27-7.76-5.34-8.75-4.07-.98-7.76,1.27-8.75,5.34Z"/><path class="cls-1" d="m81.78,72.39c-3.96-1.04-7.8,1.1-8.95,4.99-1.22,4.12,1.04,8.17,5.17,9.25,4.15,1.09,8.11-1.3,9.07-5.48.92-3.99-1.34-7.73-5.29-8.77Z"/><path class="cls-1" d="m95.01,40.27c-.8,3.99,1.6,7.7,5.58,8.62,4.17.97,8.08-1.56,8.92-5.76.8-3.99-1.6-7.7-5.58-8.62-4.17-.97-8.08,1.56-8.92,5.76Z"/><path class="cls-1" d="m217.14,197.45c-.46,1.9-.14,3.79.78,5.32,3.01-3.25,5.84-6.67,8.47-10.25-.28-.1-.57-.19-.87-.26-3.79-.86-7.46,1.41-8.38,5.19Z"/><path class="cls-1" d="m76.03,157.75c3.94.73,7.62-1.93,8.23-5.94.57-3.77-1.94-7.24-5.73-7.94-3.76-.69-7.31,1.69-8.13,5.45-.86,3.94,1.65,7.69,5.63,8.43Z"/><path class="cls-1" d="m151.3,17.66c4.07.89,7.68-1.45,8.58-5.54.14-.62.18-1.23.17-1.83-4.54-1.1-9.18-1.94-13.9-2.49-.16.4-.29.83-.39,1.28-.89,4.07,1.45,7.68,5.54,8.58Z"/><path class="cls-1" d="m78.52,50.49c-.91,3.97,1.54,7.72,5.56,8.5,3.78.74,7.34-1.59,8.21-5.37.91-3.97-1.54-7.72-5.56-8.5-3.78-.74-7.34,1.59-8.21,5.37Z"/><path class="cls-1" d="m86.25,174.6c3.99.82,7.69-1.72,8.39-5.78.66-3.81-1.75-7.31-5.59-8.1-3.99-.82-7.69,1.72-8.39,5.78-.66,3.81,1.75,7.31,5.59,8.1Z"/><path class="cls-1" d="m164.51,206.51c-3.74-.8-7.42,1.54-8.29,5.27-.87,3.73,1.41,7.45,5.12,8.38,3.9.98,7.81-1.51,8.59-5.46.74-3.74-1.68-7.39-5.42-8.2Z"/><path class="cls-1" d="m96.57,191.34c3.71.79,7.49-1.67,8.27-5.38.79-3.71-1.67-7.49-5.38-8.27-3.71-.79-7.49,1.67-8.27,5.38-.79,3.71,1.67,7.49,5.38,8.27Z"/><path class="cls-1" d="m208.91,202.74c-3.65-.97-7.56,1.31-8.53,4.96-.83,3.13.73,6.45,3.5,7.94,3.42-2.65,6.68-5.5,9.77-8.5-.77-2.08-2.49-3.8-4.74-4.4Z"/><path class="cls-1" d="m142.48,209.14c.7-3.7-1.77-7.38-5.47-8.14-3.7-.76-7.4,1.63-8.23,5.32-.83,3.68,1.5,7.43,5.17,8.32,3.86.94,7.8-1.6,8.53-5.5Z"/><path class="cls-1" d="m64.25,83.16c-3.66-.62-7.49,2.15-7.96,5.75-.45,3.52,2.13,7.1,5.53,7.69,3.66.62,7.49-2.15,7.96-5.76.45-3.52-2.13-7.1-5.53-7.68Z"/><path class="cls-1" d="m114.92,202.8c.76-3.5-1.63-7.22-5.11-7.98-3.5-.76-7.22,1.63-7.98,5.11-.76,3.5,1.63,7.22,5.11,7.98,3.5.76,7.22-1.63,7.98-5.11Z"/><path class="cls-1" d="m65.5,140.72c3.67.76,7.53-1.82,8.21-5.47.65-3.49-1.7-7.15-5.14-8-3.63-.9-7.57,1.53-8.4,5.17-.83,3.65,1.67,7.55,5.32,8.3Z"/><path class="cls-1" d="m191.46,213.25c-3.54-.61-7.2,1.93-7.79,5.41-.53,3.11,1.36,6.3,4.18,7.44,3.11-1.68,6.14-3.5,9.07-5.45.36-3.42-2.11-6.83-5.46-7.4Z"/><path class="cls-1" d="m62.11,60.78c-.89,3.44,1.33,7.2,4.79,8.1,3.44.89,7.2-1.34,8.1-4.79.89-3.44-1.34-7.2-4.79-8.1-3.44-.89-7.2,1.34-8.1,4.79Z"/><path class="cls-1" d="m124.24,10.58c2.94.61,5.97-.99,7.28-3.56-.32,0-.65,0-.97,0h0c-3.52.06-7,.28-10.44.64.93,1.45,2.38,2.56,4.13,2.92Z"/><path class="cls-1" d="m107.33,20.99c3.5.75,7.18-1.62,7.93-5.1.6-2.78-.78-5.67-3.12-7.12-2.99.53-5.94,1.17-8.85,1.91-.51.7-.88,1.5-1.06,2.37-.75,3.5,1.62,7.18,5.1,7.93Z"/><path class="cls-1" d="m50.3,115.75c-.75,3.48,1.31,6.75,4.78,7.57,3.65.86,7.11-1.41,7.77-5.11.62-3.48-1.59-6.69-5.08-7.38-3.48-.69-6.72,1.44-7.47,4.93Z"/><path class="cls-1" d="m152.25,225.27c.88-3.49-1.04-6.71-4.52-7.58-3.49-.88-6.71,1.04-7.58,4.52-.88,3.49,1.04,6.71,4.52,7.58,3.49.88,6.71-1.04,7.58-4.52Z"/><path class="cls-1" d="m90.66,31.13c3.49.69,6.74-1.46,7.49-4.94.75-3.48-1.32-6.77-4.79-7.59-3.47-.82-6.79,1.19-7.68,4.64-.93,3.64,1.29,7.16,4.97,7.89Z"/><path class="cls-1" d="m71.93,172.11c-3.42-.66-6.65,1.68-7.11,5.15-.43,3.24,1.83,6.23,5.09,6.73,3.23.49,6.27-1.71,6.83-4.95.56-3.24-1.57-6.3-4.81-6.93Z"/><path class="cls-1" d="m119.82,212.26c-3.29-.61-6.33,1.47-7.01,4.77-.67,3.28,1.33,6.36,4.62,7.1,3.28.73,6.39-1.2,7.19-4.47.84-3.46-1.3-6.75-4.8-7.4Z"/><path class="cls-1" d="m174.73,224.3c-3.3-.73-6.4,1.2-7.2,4.49-.5,2.07.05,4.08,1.34,5.5,3.63-1.19,7.17-2.55,10.63-4.08.03-2.82-1.86-5.26-4.77-5.91Z"/><path class="cls-1" d="m66.26,162.53c.75-3.23-1.25-6.44-4.48-7.19-3.23-.75-6.44,1.25-7.19,4.48-.75,3.23,1.26,6.44,4.48,7.19,3.23.75,6.44-1.26,7.19-4.48Z"/><path class="cls-1" d="m73.84,41.15c3.31.68,6.37-1.32,7.11-4.63.74-3.3-1.19-6.41-4.48-7.21-3.3-.8-6.44,1.06-7.3,4.33-.91,3.47,1.15,6.79,4.66,7.51Z"/><path class="cls-1" d="m51.15,78.79c3.18.84,6.53-1.16,7.31-4.37.77-3.2-1.3-6.51-4.52-7.21-3.03-.66-6.15,1.2-7.01,4.18-.91,3.15,1.04,6.56,4.22,7.4Z"/><path class="cls-1" d="m55.72,145.66c.69-2.89-1.32-6.22-4.2-6.98-2.85-.75-6.24,1.19-7.07,4.05-.81,2.81,1.06,6.26,3.9,7.16,2.97.94,6.64-1.16,7.37-4.23Z"/><path class="cls-1" d="m44.93,105.99c2.92.63,6.17-1.36,6.94-4.25.82-3.11-1.3-6.56-4.44-7.24-2.92-.63-6.17,1.36-6.94,4.25-.82,3.11,1.3,6.56,4.44,7.24Z"/><path class="cls-1" d="m82.7,189.16c-3.11-.84-6.51,1.16-7.28,4.3-.77,3.13,1.3,6.49,4.45,7.19,2.95.66,6.12-1.21,6.98-4.12.91-3.07-1.04-6.53-4.15-7.37Z"/><path class="cls-1" d="m92.49,206.29c-2.85-.5-5.72,1.42-6.35,4.24-.67,3.01,1.39,6.12,4.42,6.65,2.85.5,5.72-1.42,6.35-4.24.67-3.01-1.39-6.12-4.42-6.65Z"/><path class="cls-1" d="m56.75,50.99c2.96.79,6.27-1.23,6.91-4.23.61-2.81-1.26-5.87-4.05-6.61-2.76-.74-5.91,1-6.79,3.75-.93,2.9.95,6.3,3.92,7.09Z"/><path class="cls-1" d="m134.19,236.26c.72-3.04-.93-5.64-4-6.29-2.86-.61-5.3.86-6.09,3.67-.8,2.86.53,5.41,3.23,6.33,1.16.05,2.33.09,3.5.1,1.64-.51,2.89-1.86,3.35-3.81Z"/><path class="cls-1" d="m40.5,122.3c-3-.5-5.54,1.41-5.98,4.48-.43,3.01,1.52,5.49,4.62,5.87,2.84.35,5.16-1.38,5.7-4.26.56-3.01-1.26-5.58-4.33-6.09Z"/><path class="cls-1" d="m151.71,238.5c2.89-.48,5.74-1.07,8.55-1.75-.67-.62-1.52-1.09-2.54-1.32-2.65-.6-5.04.68-6.01,3.07Z"/><path class="cls-1" d="m102.91,223.76c-2.46-.51-5.14,1.15-5.78,3.58-.69,2.62,1.1,5.53,3.76,6.08,2.46.51,5.14-1.15,5.78-3.58.69-2.62-1.1-5.53-3.76-6.08Z"/><path class="cls-1" d="m34.95,88.27c2.45.43,5.04-1.25,5.66-3.66.67-2.61-1.06-5.45-3.69-6.05-2.63-.6-5.43,1.2-5.96,3.84-.53,2.64,1.35,5.41,3.99,5.87Z"/><path class="cls-1" d="m40.22,60.64c2.34.55,5.16-1.15,5.78-3.48.67-2.52-1.26-5.55-3.81-5.99-.36-.06-.72-.06-1.08-.03-1.52,1.92-2.99,3.89-4.39,5.91.49,1.68,1.84,3.19,3.5,3.58Z"/><path class="cls-1" d="m33.87,111.58c.47-2.25-1.11-4.84-3.33-5.45-2.23-.61-4.88.82-5.62,3.03-.78,2.32.81,5.27,3.2,5.93,2.43.66,5.23-1.05,5.75-3.51Z"/><path class="cls-1" d="m54.91,183.83c-2.4-.5-5.13,1.32-5.56,3.71-.43,2.38,1.51,5.11,3.86,5.46,2.24.34,4.73-1.34,5.26-3.53.58-2.4-1.16-5.14-3.56-5.65Z"/><path class="cls-1" d="m44.44,167.01c-2.49-.46-5.09,1.42-5.42,3.91-.3,2.35,1.39,4.71,3.7,5.14,2.49.46,5.1-1.42,5.42-3.91.3-2.35-1.4-4.71-3.7-5.14Z"/><path class="cls-1" d="m39.22,193.48c.74.98,1.49,1.96,2.26,2.91-.04-.52-.21-1.05-.52-1.54-.44-.69-1.06-1.17-1.74-1.38Z"/><path class="cls-1" d="m29.99,179.12c.66,1.21,1.33,2.4,2.03,3.58.02-.08.04-.15.05-.22.18-1.42-.76-2.88-2.08-3.36Z"/><path class="cls-1" d="m65.01,201c-2.51-.37-4.19.74-4.87,3.18-.69,2.47.71,4.7,3.22,5.27,2.51.57,4.68-.85,5.18-3.38.5-2.5-.98-4.7-3.53-5.08Z"/><path class="cls-1" d="m34.1,150.6c-2.31-.51-4.29.68-4.92,2.95-.69,2.5.6,4.65,3.13,5.21,2.31.51,4.29-.67,4.92-2.95.69-2.5-.61-4.66-3.13-5.22Z"/><path class="cls-1" d="m78.53,222.88c.37-2.29-.72-3.78-2.8-4.63-2.28-.37-3.94.46-4.79,2.58-.2.51-.27,1.04-.22,1.57,1.82,1.14,3.67,2.23,5.55,3.27,1.14-.51,2.05-1.51,2.26-2.79Z"/><path class="cls-1" d="m23.77,134.23c-1.8-.57-4.17.94-4.58,2.79-.41,1.85,1.11,4.16,2.96,4.49,1.88.34,4.23-1.24,4.37-3.11.15-2.02-.77-3.54-2.76-4.17Z"/><path class="cls-1" d="m22.27,94.59c.44-1.76-.2-3.16-1.68-3.85-.62,2.12-1.18,4.28-1.68,6.45,1.69.02,2.92-.8,3.36-2.6Z"/></g></svg>