<?xml version="1.0" encoding="UTF-8"?><svg id="Icn_InventoryBG-Circle-Empty" xmlns="http://www.w3.org/2000/svg" viewBox="0 0 256 256"><defs><style>.cls-1{fill:#afc7d9;}.cls-2{fill:#90a8ba;}.cls-3{fill:none;stroke:#90a8ba;stroke-linecap:round;stroke-linejoin:round;stroke-width:0px;}</style></defs><rect x="0" y="0" width="256" height="256" rx="128" ry="128"/><rect class="cls-1" x="15.91" y="7" width="233.09" height="233.09" rx="116.55" ry="116.55" transform="translate(-2 2.18) rotate(-.94)"/><g id="dots"><path class="cls-2" d="m105.74,24.71c.45.8,1.68,1.61,2.74,1.83.41.14.32.13-.14.29,1.12-.05,1.37-.76,1.95-1.05,1.31-.53,1.74-3.56,1.07-4.86.01-.18-.14-.33-.19-.35-.03-.1-.07,0,.15-.54-.6-.57-1.7-1.26-2.58-.84-.9-.18-1.17-.08-2.08.1-.46.48-.87,1.27-1.41,2.95-.08.87.1,1.29.44,2.55.02-.02.04-.04.06-.07Z"/><path class="cls-2" d="m105.73,24.95c-.02-.07-.03-.12-.05-.18-.05.06-.08.09-.09.1.03-.02.11-.05.14.08Z"/><path class="cls-2" d="m93.16,22.83c-.1,0-.2,0-.29,0,0,.05.18.02.29,0Z"/><path class="cls-2" d="m92.86,22.83s.05-.08.2-.16c.58-.03.92-.27,1.85-.99,1.52-1,1.5-2.81.55-5.35-.58-.97-1.78-1.21-2.4-1.55-.89-.01-1.51.17-2.34.52-.89,1.75-1.77,3.66-.45,5.88.03.67,1.19,1.61,2.6,1.66Z"/><path class="cls-2" d="m125.27,10.27c-.53.2.05.37-.34.3.67,1.03,1.88,1.99,3.11,1.34.19.21-.09.28-.05.75.3-.28.96-.72,1.48-.91,1.34-.97,2.21-3.19,1.31-4.74-.08,0-.16,0-.24,0h0c-1.9.03-3.79.11-5.67.23-.05.24-.09.49-.13.77-.07.47-.27,1.8.52,2.26Z"/><path class="cls-2" d="m204.39,128.72s-.06.04-.09.06c.28-.1.32-.07.09-.06Z"/><path class="cls-2" d="m206.95,122.72c-.13-1.07-1.14-2.2-2.46-2.02-.9-.12-1.49.12-2.02.53-.5.99-.93,1.48-1.56,2.19-.09,1.47-.11,2.57.62,3.42.96.55,1.86,1.48,2.68,1.89.08,0,.12,0,.17,0,.58-.43,1.7-.8,2.04-.84,1.21-1.24,1.7-3.82.52-5.17Z"/><path class="cls-2" d="m190.37,99.01c-.53.32-.86,1.04-1.39,2.73-.09.52.11,2.12.63,2.69.47,1.23,1.52,1.85,3.06,1.38-.03.01-.14.08-.38.45.48-.42,1.15-.32,1.69-.79,1.52-.98,2.41-3.56,1.16-5.18-.57-1.26-1.6-2.04-2.77-1.99-.38.16-1.58,0-1.99.71Z"/><path class="cls-2" d="m177.37,81.87c.46,1.48,1.62,1.64,3.11,1.51-.36.28-.04.41-.09.09.26.26.95.03,1.57-.28,1.39-1.19,1.82-3.39,1.33-5.18-.84-1.28-1.7-1.85-3.41-2.25-.32.63-.96.54-1.52,1.24-1.83.7-2.05,3.35-.98,4.87Z"/><path class="cls-2" d="m219.15,144.69c-.39-.78-1.62-1.72-2.67-1.58-.59-.31-1-.26-1.77.36-1.38,1.36-1.97,3.55-.84,5.57.45.86,1.4,1.85,3.06,1.81.24-.33.69-.42,1.26-.61,1.14-1.08,1.56-1.75,1.9-2.46.21-1.53-.05-2.32-.94-3.09Z"/><path class="cls-2" d="m155.66,39.22c.16-.04.26-.11.31-.19.64.1,1.37-.1,1.82-.72,1.55-1.26,1.89-3.71.52-5.49-.21-.83-1.63-1.4-2.26-1.94-.82.48-1.19.36-2.32.72-.27,1.05-1.11,1.53-1.25,2.55,0,1.13.18,2.15.46,3.3.8.86,1.88,1.09,2.73,1.76Z"/><path class="cls-2" d="m228.82,164.63c-.59.46-1.24.95-1.68,1.02-1.03.23-1.47,1.33-2,2.28.06,1,.3,1.84.48,3.23,1.12.93,1.66,1.07,3.36,1.61.02-.41-.02.14-.18-.18.32-.05,1.04-.58,1.82-.67,1.62-.79,1.67-3.78.82-4.83-.41-1.75-1.76-1.83-2.61-2.46Z"/><path class="cls-2" d="m143.55,16.59s.01.02.03.03c.01,0,.03-.02.05-.03.12.01.24.03.37.03-.15-.03-.25-.05-.32-.06.55-.32,1.53-.46,1.86-1.02.7-.38,1.49-.72,1.56-1.86-.35-1.06-.4-1.97-.65-3.28-.43-1.31-1.35-1.45-2.67-1.31-1.04-.17-1.48-.41-1.74-.04-1.03.79-1.63,1.97-1.95,2.47.09,1.47.06,2.28.93,3.29.31.62,1.06,1.59,2.53,1.77Z"/><path class="cls-2" d="m105.18,44.75c-.19.1-.04.09,0,0h0Z"/><path class="cls-2" d="m105.19,44.67s0,.05,0,.07c.02,0,.03-.02.05-.03.21.34.92.24,1.69-.64,1.26-.82,1.53-3.18.91-5.31-.87-.91-1.78-1.31-2.83-1.35-.47-.23-1.6-.14-1.65.62-1.41.53-2.36,3.64-1.04,4.89.11,1.51,1.71,1.5,2.88,1.75Z"/><path class="cls-2" d="m124.15,30.4c.39,0,.41.48.42-.19.55.38.89-.13,1.34-.46,1.66-.78,2.17-3.71,1.34-5.06-.96-1.45-1.72-1.51-3.25-2.06-.28.35-1.14.62-1.59.72-.72.31-1.45,1.23-1.4,2.77-.15.77.13,1.8.12,2.69,1.21.98,2.01,1.8,3.02,1.6Z"/><path class="cls-2" d="m244.53,155.61c.35-1.23.68-2.48,1-3.73-.89.77-1.24,2.42-1,3.73Z"/><path class="cls-2" d="m120.68,48.62c.44.27.34-.15-.08.57.89-.58,1.46-.24,1.88-1.01,1.63-1.42,1.79-3.19,1.05-5.62-.44-.59-1.9-1.55-2.65-1.52-1.05.21-1.32.65-1.69.94-.99.09-1.26,1.19-1.45,2.11-.3.86-.28,1.87.11,2.92.53.85,2.04,2.18,2.84,1.61Z"/><path class="cls-3" d="m208.72,198.95s.02.02.01.05"/><path class="cls-3" d="m208.8,199.09s.09.11.17.19"/><path class="cls-2" d="m208.73,199s0,0,0,.01c.02.03.05.05.07.08-.03-.04-.05-.07-.06-.09Z"/><path class="cls-2" d="m203.23,203.48c-.05-.07-.09-.15-.14-.22-.27.07-.27-.04.14.22Z"/><path class="cls-2" d="m208.73,199.01c-1.06-1.18-1.53-1.62-3.08-1.53-.61-.2-1.27.12-1.55.43-.56.96-1.61,1.6-1.6,2.8.08.52.01,1.61.59,2.55.05-.01.09-.02.16-.05.11,1.06,1.74,1.48,2.37,2.04.12-.65.46-.01.08-.63.96.46,1.5.43,2.07-.62,1.53-.51,2.12-2.9.89-4.94.04-.01.06-.03.07-.04Z"/><path class="cls-2" d="m159.29,20.46c.17.03.17.02.47.03.56.38.89.04,1.77-.19.88-1.15,1.76-3.91.94-5.69-1.16-1.25-1.98-1.98-2.88-1.72-.54.38-1.57-.1-1.99,1.03-.58.4-1.07,1.23-1.27,2.26-.45.72-.29,1.59.11,2.45.37,1.33,2.05,2.19,2.85,1.82Z"/><path class="cls-2" d="m209.69,179.24c-.59.15-1.56.43-2.35.26-.13,1.12-.75,1.44-1.02,2.74-.62.95-.31,2.36-.01,3.16.64.68,2.26,1.53,3.32,1.7.47-.24,1.34-.73,1.94-.77,1.01-.92,1.31-3.97.42-5.42-.1-.91-1.35-1.93-2.29-1.66Z"/><path class="cls-2" d="m117.26,66.99c-.09,0-.18.01-.27.02.36.08.43.03.27-.02Z"/><path class="cls-2" d="m116.91,66.95c.17,0,.27.02.34.04.99-.07,1.41-.29,1.65-.21,1.49-1.42,1.73-3.54,1-5.23-.34-1.3-1.88-1.85-2.78-1.96-.53-.54-1.54.01-2.04.43-1.19.99-1.93,3.22-1.05,4.89.72,1.77,1.67,2.01,2.89,2.03Z"/><path class="cls-2" d="m136.3,52.69c.08.6-.07.45.48,0,.47.17,1.37.41,1.79.01,1.02-1.39,1.83-4.03.77-5.5-.87-1.06-1.92-1.95-2.52-1.97-.73.34-1.61.13-1.97.96-.8.37-1.37,1.14-1.6,1.7-.07,1.65.01,2.65.38,3.15.79,1.46,1.73,1.64,2.67,1.65Z"/><path class="cls-2" d="m175.18,25.23s0,.02-.02.03c.02,0,.04,0,.06-.01,0,0,.02,0,.03.01,0,0,0-.01,0-.02.78-.16,1.01-.62,1.78-1.21,1.4-.47,2.14-3.14.7-5.09-.48-.75-1.69-1.39-2.79-1.94-.41.04-.83.62-1.64.88-.8.84-1.48,1.04-1.62,2.27-.27,1.05-.19,1.97.6,2.92.58,1,1.95,1.72,2.9,2.15Zm.03-.08c-.13-.38.02-.17,0,0h0Z"/><path class="cls-2" d="m190.41,193.65c-.85-.07-1.31-.35-2.35.1-1.48,1.49-2.02,3.98-.69,5.25.67,1.3,1.46,2.13,3.14,2.27-.46-.47-.04-.08-.45-.38.5.19,1.47-.11,1.9-.76,1.58-.69,1.84-3.3.74-4.62-.27-1.11-1.58-1.77-2.29-1.86Z"/><path class="cls-2" d="m132.74,71.18c-.05.05.51-.27.31.29.47-.23,1.43-.63,1.97-.64,1.23-1.21,1.4-3.7.88-5.8-.52-1.01-1.91-1.28-3.13-1.67-.26.29-.99.34-1.92.7-.49.59-1.34,1.66-1.24,2.08-.5,1.06-.36,2.77.38,3.51.75,1.1,2.02,1.75,2.74,1.52Z"/><path class="cls-2" d="m168.57,40.95c.61,1.84,1.66,2.43,2.8,1.86.26.22.27.36.36,0,.35.43.91.15,1.89-.06,1.05-.96,1.62-3.74.94-5.76-.62-.53-1.73-1.8-2.71-1.5-.59.3-1.26-.18-2.06.22-.5.97-1.28,2.09-1.68,2.41-.16,1.68.06,2.59.46,2.83Z"/><path class="cls-2" d="m187.54,24.67c-.07.6-.15,2.23.56,3.12.33.84,1.4,1.79,2.64,1.92.32-.24.23-.33.22-.67.94.43,1.32.15,1.41-.21.7-.53,1.86-1.32,1.59-2,.32-.92.44-1.53.35-2.08-1.49-.94-3.01-1.84-4.54-2.71-.16.09-.32.19-.47.33-1.07.6-1.16,1.09-1.76,2.28Z"/><path class="cls-2" d="m232.41,147.32c-.63-.6-1.2-.37-2.16-.01-.33.84-1.32,1.57-1.17,2.34-.2.97-.05,2.65.19,3.39.68.78,1.97,1.71,3.01,1.45.22.16.31.38.13-.16.85.02,1.25.33,1.99-.3,1.02-1.15,1.85-3.72.85-5.41-.95-1-1.82-1.89-2.84-1.3Z"/><path class="cls-2" d="m193.93,174.84c-.93.46-1.77.87-2.28,1-.36.57-.72,1.74-.97,2.69-.09.98-.24,1.71.36,2.62.28,1.4,1.47,1.81,3.07,1.38-.11.07-.18.11-.25.15.55-.11,1.42-.19,1.61-.38,1.41-.85,2.32-3.82,1.2-5.18-.66-.91-1.86-2.15-2.74-2.27Z"/><path class="cls-2" d="m193.85,182.68c-.06.01-.12.03-.17.04-.1.01-.1.1.17-.04Z"/><path class="cls-2" d="m232.24,131.62c.24,1.69.45,2.33.97,3.3.08.69,1.69,1.49,2.92,1.38-.47.37-.45.62-.28.4.85.04,1.4-.53,1.5-.59,1.47-1.51,2.44-3.58,1.02-5.67-.38-.65-1.23-1.09-2.76-1.09-.27-.4-.76-.45-1.34.29-.75.23-1.49,1.5-2.03,2Z"/><path class="cls-2" d="m144.79,86.15c-.29-.08-.77-.12-1.47.19-.69.78-1.28,1.38-1.84,2.2.2,1.17.23,2.26.68,3.58.5.64,1.51,1.33,2.7,1.51.45.08.39-.02-.02-.34.74.36,1.29.07,1.91-.47,1.96-.93,1.93-3.29.93-4.99-.55-1.02-1.12-2.08-2.9-1.68Z"/><path class="cls-2" d="m197.59,157.37c-.69-.37-1.62-.16-2.13-.05-.53,1.19-1.29,1.4-1.3,2.53-.63.97-.18,2.2.23,3.01.71,1.21,2.09,1.91,3.28,2.19-.22-.03-.26-.3-.38-.39.75.04,1.23-.21,1.63-.5,1.94-1.06,2.08-3.73,1.01-5.18-.42-1.08-1.43-2.23-2.34-1.6Z"/><path class="cls-2" d="m183.78,65.51c-.06-.04-.15-.15.27-.29.37.69.96-.06,1.71-.02.97-.88,1.52-3.39.84-5.62-.7-.86-1.55-1.9-3.1-1.66-.68-.15-1.07.5-1.68.81-.58.38-1.43.91-1.67,1.8.35,1.56.55,2.56.99,3.09.32,1.59,1.52,2.07,2.65,1.88Z"/><path class="cls-2" d="m202.94,51.62c.26.25.19.39.28.4.31-.15.84-.36,1.95-.46.95-1.32,1.71-3.53.67-5.25-.76-1.43-1.94-2.21-2.63-1.93-.91-.5-1.77.16-2.05.62-1.76.45-1.72,3.05-1.26,5.25.86.7,2.29,1.48,3.03,1.36Z"/><path class="cls-2" d="m177.81,171.47c-.39-.06-.78-.22-1.39.18-1.68,1.2-2.02,3.92-1.11,5.16.67,1.61,1.59,2.24,3.02,1.91,0,.06,0,.1,0,.15.5.19.92-.14,1.56-.43,1.25-.88,1.64-3.71,1.26-5.75-1.05-.75-2.15-1.48-3.34-1.21Z"/><path class="cls-2" d="m178.33,178.87c-.06-.02-.12-.05-.18-.09.21.38.18.31.18.09Z"/><path class="cls-2" d="m139.82,104.66c-1.95,1.52-1.98,3.7-.99,5.37.13,1.3,1.65,1.62,3,1.79-.48.2-.14-.3-.37.28.49-.49,1.66-.42,1.76-.73,1.59-1.47,2.14-3.42,1.03-5.2-.44-1.19-1.9-2.41-2.55-1.85-1.16-.41-1.6.24-1.88.34Z"/><path class="cls-2" d="m161.09,90.16c-.81.02-1.33.39-2.11.58-.66.35-1.17,1.61-1.72,2.65.3.8.55,1.75.98,2.89.63.67,1.69,1.62,2.35,1.22.09.28.05-.12.53-.11.48.15.72.42,1.79-.24,1.31-1.38,1.91-3.32.72-5.31-.53-.76-1.83-1.4-2.54-1.67Z"/><path class="cls-2" d="m199.48,69.91c0,.05.04.18.24.35.58-.47,1.08-.49,1.29-.58,1.6-1.08,2.03-3.68,1.38-5.5-1.05-1.18-1.97-1.71-2.75-2.21-1.07.33-1.57.48-1.91.51-1.83,1.77-1.81,3.83-1.13,5.38.69,1.02,1.41,1.89,2.87,2.05Z"/><path class="cls-2" d="m219.13,56.57c.06-.29,1.03-.26,1.49-.96.53-.37.88-1,1.17-2.03.59-1.61.07-2.56-.44-3.4-.51-.59-1.49-1.62-2.73-1.79-.24.49-1.32.63-1.45,1.12-1.72.93-2.02,2.84-1.23,4.71.3,1.35,1.82,2.01,3.19,2.35Z"/><path class="cls-2" d="m136.15,123.17c-.48.25-1.2,1.17-1.6,2.03-.04,1.38.02,2.31.8,3.37.17,1.02,1.19,1.63,2.79,1.63.3-.04,1.1-.69,1.54-.76.35-.06.32-.16-.02-.16,1.8-.78,2.32-3.67.81-4.89-.44-1.7-1.7-2.04-2.71-2.09-.45.04-.88.25-1.61.86Z"/><path class="cls-2" d="m155.21,109.25c-.64.39-.82,1.33-1.27,2.21-.03.9-.18,2.03.52,3.08.4,1,1.75,1.66,3.13,1.12-.16.44-.54.69-.24.61.89-.53,1.08-.69,1.58-1.16,1.36-.79,2.15-3.28,1.23-5.4-1.03-.54-1.57-1.48-2.85-1.61-.82.2-1.63.14-2.09,1.15Z"/><path class="cls-2" d="m196.19,88c-.18-.08.03,0-.34-.12.78-.12,1.57-.15,1.93-.75,1.69-1.08,1.8-3.54.91-4.76-.89-1.46-1.71-2.13-2.95-1.94-.47-.22-1.47.19-1.83.21-1.68,1.28-1.59,3.68-.72,5.82.19.55,1.81,1.15,2.99,1.53Z"/><path class="cls-2" d="m243,93.01c-.42.2-1.29.12-1.79.62-.57.53-1.65,1.55-1.66,2.15-.23,1.04-.26,2.49.55,3.34.78,1.07,1.52,1.82,2.72,1.53.01.08.49.17.46-.22.65.44.89.47,1.54-.42.29-.21,1.02-.93,1.41-1.82-.29-1.29-.6-2.56-.93-3.83-.36-.65-1.25-1.37-2.31-1.36Z"/><path class="cls-2" d="m152.04,126.82c-1.08,1.13-1.65,1.57-1.79,2.49,0,.99.37,2.59.25,3.47.65.7,2.31,1.64,2.94,1.21.27.35.53.33.33-.14.49.07,1.04-.04,1.47-.45,2.03-.47,2.33-2.95,1.1-4.75-.52-1.6-1.7-2.39-2.59-2.3-.95.09-1.63.19-1.71.47Z"/><path class="cls-2" d="m171.34,113.22c-.72.01-1.16,1.21-1.84,2.52-.04,1.05.41,1.57.9,2.82.34.6,1.65,1.57,2.57,1.7.03-.09.13-.23.17-.24.82.49,1.47-.44,1.57-.62,1.29-.95,2.24-3.49.99-5.24-.33-1.23-1.61-1.88-2.73-1.85-.93.49-1.44.28-1.62.92Z"/><path class="cls-2" d="m173.05,120.28s-.06-.01-.1-.02c-.02.06-.01.1.1.02Z"/><path class="cls-2" d="m211.49,92.39c.17-.38-.06-.05.23-.39.56.01.91.24,1.68-.2,1.78-1.17,1.76-3.52.84-5.47-.51-1.37-1.33-1.32-2.97-1.83-.45.02-1.29.16-1.48.96-1.61,1.08-2.07,3.63-.93,5.18.34,1.19,1.81,1.65,2.63,1.76Z"/><path class="cls-2" d="m230.74,78.34c.24.06-.07.12.12.47.63-.09,1.33-.29,2.04-.52,1.31-.95,1.39-3.74.75-5.4-.59-.93-1.39-2.18-2.76-1.59-.96-.4-1.5-.31-1.84.31-.82.42-1.34.94-1.52,2.07-.3.82.03,2.05.69,2.96.33.85,1.41,1.85,2.53,1.7Z"/><path class="cls-2" d="m220.55,110.05c-.54,1.14-.01,1.46.45,2.83.21,1.12,1.73,1.8,2.89,1.64-.09-.19.21-.1-.07.08.47-.37,1.41-.42,1.76-.37,1.15-1.02,2-3.9,1.18-5.45-.61-1.34-1.65-1.81-3.24-1.79-.26-.43-1.08.24-1.96.84-.07-.07-1.15,1.22-1.01,2.24Z"/><path class="cls-2" d="m215.01,73.92c.81.2,1.41.09,2.12-.43.41-.62,1.11-.78,1.51-2.07.15-.9-.51-2.35-.97-2.96-.22-1.15-1.21-1.83-2.83-1.75-.29-.25-1.21-.15-1.54.77-1.18.46-2.12,3.31-.81,4.78.38,1.54,1.67,2,2.53,1.66Z"/><path class="cls-2" d="m167.48,131.44c-1.53.7-1.55,3.13-1.13,5.14,1.02,1.16,1.84,1.41,3.18,2.04.18-.44-.02.1-.26-.61.8.26,1.19-.08,1.81-.01,1.86-1.52,2.08-3.67.95-5.8-.08-1.16-1.32-1.2-2.59-1.79-.83.33-1.65.71-1.96,1.04Z"/><path class="cls-2" d="m183.16,135.64c-.83.66-1.17,1.35-1.3,2.06,0,.97.18,2.01.17,2.74,1.13,1.3,2.27,2.29,2.89,1.69.13.22.45.23.24.36.73.19,1.27-.37,1.89-.36,1.29-1.65,1.82-3.52,1.11-5.84-.57-1.19-2.16-1.42-3.04-1.8-.93.51-1.26.88-1.96,1.14Z"/><path class="cls-2" d="m208.23,110.34c-.05,0-.11.02-.16.02.02.03.12.05.16-.02Z"/><path class="cls-2" d="m205.1,108.79c.9.96,2.04,1.65,3.05,1.2.12.21.12.3.09.35.49-.03,1.16-.34,1.45-.82.54.11,1.54-1.3,1.29-1.96.26-1.16.38-2.5,0-3.06-1.07-1.01-1.52-1.43-2.95-1.92-.75.33-1.07.03-1.62,1.03-1.7,1.01-2.04,3.2-1.3,5.19Z"/><path class="cls-2" d="m227.24,96.37s-.05.05-.07.07c.67.27,1.33.18,2.17-.38,1.13-1.25,1.43-3.8.85-4.99-1.01-1.3-1.61-2.11-2.7-2.24-.81-.14-1.62-.07-1.77.82-2.04.78-2.14,3.35-1.62,5.18.71,1.15,2.02,1.86,3.14,1.54Z"/><path class="cls-2" d="m227.17,96.45c-.05.09-.02.15,0,0h0Z"/><polygon class="cls-2" points="227.17 96.45 227.17 96.44 227.17 96.44 227.17 96.45"/><path class="cls-2" d="m166.18,156.61s-.05-.01-.08-.02c-.07.29.04.26.08.02Z"/><path class="cls-2" d="m164.04,149.82c-1.71.83-2.01,3.11-1.23,4.64.72,1.43,1.58,1.84,3.28,2.14.02-.08.05-.17.1-.3.26.67.71.03,1.17-.05,1.78-1.05,2.17-3.51,1.12-5.36-.32-1.42-1.65-1.91-2.99-2.24-.4.26-1.08.13-1.45,1.17Z"/><path class="cls-2" d="m176.96,101.61c.38.53.79.14,1.62-.21,1.5-1.04,2.07-3.18.76-4.99-.31-1.56-1.58-2.11-2.89-2.29-.41.3-1.34.67-2,.83-1.5,1.02-1.72,3.42-.8,4.81.65,1.36,1.93,1.88,3.18,2.3-.07-.07-.13-.27.13-.45Z"/><path class="cls-3" d="m176.89,102.08s-.05-.02-.07-.02"/><path class="cls-2" d="m190.37,123.41c1.67-.66,2.24-3.03,1.49-5.16-1.11-.68-2.2-1.66-3.45-1.69-.13.14-.68.02-1.37,1.01-1.53.99-1.85,3.37-.9,5.13.61,1.24,1.39,1.22,2.71,1.88.14-.12-.11-.39-.25-.5.76.41,1.18-.03,1.78-.68Z"/><path class="cls-2" d="m225.34,183.01c-.83-.17-1.54.21-2.08.92-.72.23-1.47,1.22-1.58,2.48.14.51.02,1.35.21,2.13.17.27.57.71.13.5.64.62,2.19,1.38,3.16,1.46-.26.37.22-.09-.2.46,1.1-.68,1.41-.26,1.97-1.28,1.55-.54,2-2.93.94-4.84-.7-1.4-1.33-1.83-2.55-1.83Z"/><path class="cls-2" d="m140.02,34.47c.08-.14-.1.1-.05-.1,1.01.19,1.58-.22,2.13,0,1.51-1.22,1.89-3.62.96-5.5-.49-1.53-2.12-1.95-3.02-1.58-.36-.45-1.36.03-1.68.33-.53.69-1.35,1.16-1.33,2.42-.17.59-.59,2.06-.17,2.7,1.07,1.03,2.13,1.83,3.17,1.72Z"/><path class="cls-2" d="m152.33,57.06c.02-.26-.02-.05.22-.06.32.3,1.04-.35,1.59-.37.45-.33.86-1.76,1.14-2.59.4-.73.46-2.05-.31-3.2-.36-.71-1.92-1.37-3.04-1.55-.56.44-.71.55-1.21.78-1.94.97-2.32,3.3-1.4,5.04.61,1.18,1.61,1.82,3.01,1.95Z"/><path class="cls-2" d="m213,161.37c-.64-.53-.95.11-2.14.01-.24.97-.9,1.85-.85,2.62-.47.75-.04,2.35-.18,3.21.81,1.12,2.36,1.41,3.54,1.83-.1-.16-.15-.23-.17-.26.81-.15,1.38-.11,1.47-.49,1.74-1.08,1.93-3.95,1.15-5.16-.78-1.22-1.57-2.06-2.81-1.75Zm-.13,7.48c.07-.02.14-.03.2-.04-.04.02-.1.04-.2.04Z"/><path class="cls-2" d="m161.69,77.49c.66,1.49,1.82,1.9,2.79,1.75.22.03.15.37.02.27.69.16,1.43.13,1.83-.82,1.12-.81,1.83-3.01.98-4.68-.5-1.23-1.71-2.09-3.08-2.32-.5.25-.96.29-1.99.61-1.25,1.41-1.51,3.3-.55,5.18Z"/><path class="cls-2" d="m168.11,61.47s-.05,0-.07,0c-.09.1.01.09.07,0Z"/><path class="cls-2" d="m168.02,61.08c.16.18.14.31.09.39.71.02,1.39-.48,1.48-.38,1.58-1.57,2.45-3.64,1.36-5.39-.75-1.49-2.11-1.83-3.16-1.69-.56-.61-1.02.05-1.37.2-1.51.76-2.48,3.25-1,5.49.02,1.23,1.73,1.27,2.59,1.39Z"/><path class="cls-2" d="m183.6,159.94c.35-.34,1.17-1.58,1.04-1.98.44-1.02.39-2.42-.12-2.91-1.05-1.47-1.51-2.17-3.04-2.36-.7.09-1.14.7-1.92,1.14-.83.27-1.08.84-1.44,2.36-.06.52,0,1.98.61,2.33.28,1.36,1.64,1.97,2.67,1.79.19.3.36.58.35.53.76-.36,1.15-.06,1.85-.9Z"/><path class="cls-2" d="m220.04,132.66c1.01-.42,1.21-.56,1.85-.75.66-.28,1.06-1.48,1.18-1.97.69-1.68.4-2.47.21-3.27-.63-1.02-2.12-1.88-3.24-1.6-.68-.31-1.38.31-1.47.43-1.42,1.45-1.99,3.46-1.67,5.39.69.71,2.29,1.53,3.13,1.76Z"/><path class="cls-2" d="m239.38,118.77c-.06,0-.14.02-.23.07.08-.02.15-.05.23-.07.05,0,.1.03.15.03,0-.03-.04-.05-.11-.05.7-.21,1.25-.47,2.03-.82.65-.62,1.12-1.36,1.19-2.37.17-.7-.22-1.83-.61-2.57-.38-1.2-1.68-1.77-2.91-2.06-.61.2-.99-.02-1.6.84-1.2.67-1.67,3.28-1,4.75.47.96,1.63,1.99,2.86,2.24Z"/><path class="cls-2" d="m125.96,84.9c-.22.56.01,2.18.72,2.95.27.9,1.61,1.24,2.63,1.83.47-.05,1.41-.51,1.93-1.1,1.54-.52,1.94-3.19.86-5.3-.65-.99-1.82-1.79-2.83-1.54-.45-.3-1.41.3-1.75.29-.74.7-.92,1.46-1.57,2.87Z"/><path class="cls-2" d="m206.64,33.67c-1.04-.86-2.09-1.69-3.15-2.51.06.23.15.44.25.65.8,1.48,1.37,1.7,2.9,1.87Z"/><path class="cls-2" d="m206.57,33.74s.07.11.13.3c.07-.06.14-.11.2-.15-.06-.05-.12-.09-.17-.14-.07.02-.13.01-.15,0Z"/><path class="cls-3" d="m206.55,33.72s0,0,.02.02"/><path class="cls-2" d="m145.28,70.82c-.15.95-.16,1.9.72,2.94.34.73,1.62,1.51,2.69,1.33.95-.13,1.58.16,1.89-.48,1.22-.82,1.99-3.18,1.13-5.1-.75-1.16-1.69-1.76-3.11-1.51-.45-.57-1.28-.37-1.7-.04-.88,1.06-1.1,1.93-1.62,2.85Z"/><path class="cls-2" d="m164.43,174.3c1.01-.98,1.32-3.95.56-5.5-.58-1.08-1.61-1.91-2.48-1.98-.79-.05-1.54.92-2.04.8.06-.05-.29.42-.37.14-1.25.95-1.94,3.81-.66,4.84.8,1.24,1.49,2.05,2.62,2.24.63-.37,1.26-.49,2.18-.4-.07-.02.23-.18.2-.14Z"/><path class="cls-2" d="m187.49,47.38c.03.05.08.13.19.24.55-.32,1.28-.55,1.46-.68,1.35-.99,1.99-3.43.93-5.44-.89-1.4-1.95-1.41-2.47-1.71-.66-.08-1.42-.04-1.94.66-.97.64-1.62,1.64-1.92,2.5-.02.7.16,1.93.76,2.94.35,1.2,1.63,1.52,2.98,1.49Z"/><path class="cls-2" d="m203.78,140.3c-.92-.9-2.01-1.18-3.12-1.3-.22.16-.86.08-1.37.42-.97.86-1.69,1.65-1.47,2.38-.5,1.53-.23,2.48.06,3.23,1.01.76,2,1.76,2.82,1.31.35.54.42.27.3.31.73-.12,1.17-.43,1.94-.53,1.56-1.64,1.49-3.46.83-5.82Z"/><path class="cls-2" d="m188.37,218.49s-.07.05-.1.07c.34.18.15.06.1-.07Z"/><path class="cls-2" d="m189.59,213.66s-.09-.09-.13-.13c-.07-.15-.13-.3-.22-.45.04.15.05.24.07.3-.91-.94-1.76-1.78-3.03-2.1-.62.77-.77.65-1.25.82-.46.36-.22.27-.42.5-1.54.7-1.59,3.11-.89,5.07.16-.2.23-.12.27-.47.46,1.78,1.51,2.25,2.53,2.42.93-.21,1.53-.81,1.83-1.2,0,.02,0,.05.01.08,1.44-.76,2.05-2.87,1.12-4.91.03.02.06.04.1.07Z"/><path class="cls-2" d="m200.25,215.86c-.67.89-1.11,2.07-1.09,3.27,1.56-1.09,3.1-2.22,4.6-3.39-.39-.28-.82-.45-1.32-.5-.49.44-1.46.19-2.19.63Z"/><path class="cls-2" d="m34.91,65.53c1.08-.02,1.39-.12,2.07-.13,1.06-1.39,1.99-3.5,1.13-5.28-.77-1.02-1.38-1.7-2.19-1.89-1.28,1.89-2.51,3.82-3.68,5.78.86,1.3,1.83,1.45,2.66,1.53Z"/><path class="cls-2" d="m54.33,51.4c.37-.39-.15-.17.13-.32.38.42,1.18.14,1.97-.51.15-.69.76-1.16,1.13-2.08.16-1.43.17-2.27-.62-2.92-.42-1.41-1.32-1.59-2.8-1.63-.29-.29-1.01-.06-1.99.8-1.46.75-1.4,2.93-.88,4.95.56,1.16,2.1,1.66,3.06,1.71Z"/><path class="cls-2" d="m73.62,36.79c-.11-.15.19.18.03.33.93-.45,1.36-.44,1.72-.37,1.65-1.36,1.79-3.58.98-5.94-.64-.62-1.34-1.35-2.69-1.49-.76-.34-1.67.62-2.05.53-.58.84-.82,1.52-1.19,2.35-.61,1.16-.31,2.27.51,3.34.42.64,1.79,1.63,2.69,1.24Z"/><path class="cls-2" d="m59.69,32.51c-.3.24-.59.47-.89.71.31-.08.57-.28.89-.71Z"/><path class="cls-2" d="m28.62,81.78c.34.86,1.47,1.58,3.25,2.07.45-.49,1.18-.7,1.33-1.02,1.53-.61,2.17-3.1.96-4.67.3-.41.1-.25.02-.39-.38-1.35-1.33-1.6-2.75-2.04-.88.51-1.14.47-1.53,1.23-1.98.83-1.87,2.8-1.58,4.66.07-.12.65.29.29.16Z"/><path class="cls-2" d="m67.33,53.65c-.13-.11-.24-.23-.34-.35-.05.13.03.29.34.35Z"/><path class="cls-2" d="m67.21,53.15c.49,1.38,1.56,1.9,3,1.99,0,0,0,0,.02,0,.02,0,.05,0,.07,0,0,0,0,0,0,0,0,0,0,0,0,0,.68-.01,1.28,0,1.46-.61,1.73-.95,2.06-3.77.85-5.46-.48-.84-1.25-1.49-2.4-1.4-.64,0-1.46.45-1.85.19-1.13.53-1.68,1.48-1.72,2.96-.31.9-.28,1.75.34,2.49.03-.08.1-.15.23-.16Z"/><path class="cls-2" d="m91.86,34.66c.04.07.06.14.09.21.13,0,.23-.14-.09-.21Z"/><path class="cls-2" d="m87.37,33.96s.07-.03.1-.04c-.15-.26-.33-.18-.1.04Z"/><path class="cls-2" d="m86.16,39.13c1.15,1.1,2.3,2.06,3.51,1.54-.49.22-.15-.07-.39.29.61.13,1.17-.23,1.57-.72-.01-.04-.02-.06-.03-.1,1.65-.67,1.95-3.49,1.13-5.27-.09,0-.19-.07-.18-.28-.31-.74-1.56-1.63-2.54-1.56-.42-.07-.87.6-1.76.9.03.05.06.09.08.17-1.38.58-1.72,3.45-1,5.01-.23.03.12-.05-.4.02Z"/><path class="cls-2" d="m90.92,40.17s-.05.05-.07.07c.09.31.14.28.07-.07Z"/><path class="cls-2" d="m47.9,67.72s0,0,.01,0c0,0,0,0,0-.01,0,0,0,0,0,0Z"/><path class="cls-2" d="m47.91,67.73s.07.09.1.14c-.04-.08-.07-.12-.1-.14Z"/><path class="cls-2" d="m47.9,67.72c-.12-.06-.18.2,0,0h0Z"/><path class="cls-2" d="m50.88,69.66c.08-.12.19.06.21-.63.07.58,1.22.2,1.51-.6,1.19-.71,1.88-3.16.81-4.73-.33-1.49-1.44-1.59-2.61-2.08-.38-.07-1.63.34-1.79.98-1.09.66-1.05,1.06-1.38,2.61-.63.71.05,1.34.41,2.69.68.94,1.82,1.36,2.85,1.77Z"/><path class="cls-2" d="m48.05,67.95s-.01-.04-.02-.06c0,0-.01-.02-.02-.03.01.03.02.05.04.08Z"/><path class="cls-3" d="m152.03,151.69s-.01.01-.06.02"/><path class="cls-2" d="m148.14,145.75c-.14-.68-.18-.03-.29.11-.57.03-1,.81-1.27,1.71-.24,1.35.05,2.02.48,2.74.65,1.7,1.66,2.28,3.18,1.89.24.09.13.01-.35.17.71.03,1.49-.46,1.98-.42.02-.14.07-.2.12-.23-.05,0-.13,0-.26-.01,1.46-.8,2.11-3.04,1.19-5.17-.41-1.09-1.66-1.79-2.8-1.95-.42-.01-1.34.21-1.97,1.18Z"/><path class="cls-2" d="m133.63,160.74c-.85-1.21-1.6-2.23-2.98-2.15-.35.49-1.01.39-1.94.9-.27.31-.98,1.09-1.44,2.28.02.87.45,2.28.44,3.34.49.53,1.83,1.49,2.83,1.75,0,.02-.01.03-.02.04.03-.01.05-.02.07-.03.08.02.17.04.25.05.02-.07.03-.13.04-.18.92-.39,1.14-.07,1.84-.4,1.31-1.24,1.62-4.03.91-5.6Z"/><path class="cls-2" d="m134.87,237.82c-.7-.85-1.69-2-2.91-1.61-.15-.46-.88.22-1.65.47-1.07.54-1.59,1.95-1.56,3.35,1.86.06,3.73.08,5.61.05h0c.34,0,.68-.02,1.03-.03-.01-.71-.19-1.46-.51-2.23Z"/><path class="cls-2" d="m151.66,221.87c-.77-.33-1.35.02-2.25.45-1.02,1.55-1.48,3.74-.69,5.68.2.82,1.9,1.45,2.79,1.51.9.27,1.4-.41,2.01-.23.5-.67.79-1.52.97-2.66.74-1.19.43-1.76-.22-2.96-.57-.71-1.31-1.65-2.6-1.78Z"/><path class="cls-2" d="m170.82,207.31c-.51.71-1.52.9-1.94.97-.87.42-1.11,1.51-1.26,2.45-.51,1.22-.1,2.33.59,2.95.69.91,1.34,1.79,2.69,1.35-.2.54-.14.45.37,0,.61.04,1.13.13,1.27-.54,1.73-.75,2.21-3.22,1.07-5.2-.7-.97-1.9-1.39-2.79-1.98Z"/><path class="cls-2" d="m30.81,95.4c-.65-.55-1.54-1.31-3.08-1.49-.33.27-.98.07-1.93.87-.63.59-.94,1.48-1.24,2.34-.11.7-.18,2.16.76,2.52.3,1.31,1.78,2.24,2.62,1.86.75-.22,1.54-.01,1.57-.19.64-.69,1.27-1.77,1.93-2.57.07-1.23-.23-2.19-.62-3.34Z"/><path class="cls-2" d="m47.53,87.2c.6.47,1.25-.17,1.23-.66.68-.23,1.34-.89,1.34-1.73.58-1.32.63-2.39-.38-2.88-.34-1.1-1.55-2.22-2.67-1.97-.55-.14-1.24-.05-1.52.27-1.8,1.05-2.21,4.18-1.13,5.32.52,1.12,1.88,2.03,3.13,1.66Z"/><path class="cls-2" d="m66.69,73.29s-.04.03-.06.04c.03,0,.07,0,.11.02.64-.09.8-.58,1.44-.64.82-.29,1.23-1.23,1.68-2.49-.14-1.19.03-1.9-.84-2.76-.72-.96-1.42-1.74-2.88-1.48-.18.05-1.02-.25-1.45.02-1.35,1.39-2.35,3.92-.86,5.61.05,1.15,1.73,1.36,2.86,1.68Z"/><path class="cls-2" d="m66.63,73.33c-.25,0-.34.23,0,0h0Z"/><path class="cls-2" d="m83.07,57.02c.47,1.65,1.48,2.36,2.6,1.93.18.44.2.1.13.43.79-.75.94-.42,1.91-.89,1.31-.82,1.74-3.97.54-5.52-.21-.88-1.71-1.48-2.37-1.85-1.08.27-1.79.48-1.82.67-.75.44-1.5,1.38-1.4,2.74-.39.86-.43,1.93.4,2.47Z"/><path class="cls-2" d="m24.16,111.78c-.5.46-1.03.39-1.66.4-1.63,1.36-1.75,3.53-.8,5.37.62.94,1.48,1.66,3.1,1.51-.24.56-.3.15-.57.48.59.03,1.51-.6,2.1-.6,1.07-1.16,2.04-3.22.72-4.96-.61-1.3-1.67-2.11-2.88-2.19Z"/><path class="cls-2" d="m43.85,105.84c-.48-.33-.26-.29-.04-.42.45,0,1.41.24,1.38-.8,1.68-.68,2.37-3.15,1.23-5.14-.41-1.04-1.78-1.36-3.02-1.89-.64-.02-1.39.52-1.65.65-1.49,1.6-1.76,3.47-1.34,5.83.6.86,1.98,1.58,3.44,1.76Z"/><path class="cls-2" d="m82.15,77c-.11.42.24.37.17-.02-.02,0-.04-.01-.06-.02-.04.02-.07.03-.11.04Z"/><path class="cls-2" d="m82.15,77s0-.04.02-.07c.03.01.06.02.09.03.02,0,.04-.01.06-.02,0,.02,0,.03,0,.04.82.29,1.46.25,1.9-.31,1.18-1.35,1.42-3.85.96-5.65-.62-1.06-2.23-1.07-3.04-1.27-.6.05-1.52-.15-2.09.35-.91,1.55-1.47,3.64-.83,5.57.81.84,1.83,1.81,2.94,1.34Z"/><path class="cls-2" d="m101.56,63.06c.17.19-.13-.09-.39.3.77-.2,1.81-.67,1.86-.78-.14-.37.06.09.24-.33,1.48-.68,1.64-3.11.83-5-.51-1.43-1.77-1.72-2.44-2.05-.72.47-1.3.47-1.83.35-.03.09-.05.16-.06.23,0-.03,0-.06-.02-.09-.67,1.05-1.19,1.81-1.53,2.49-.42,1.48-.05,2.18.34,3.4.85.73,1.98,1.36,3.01,1.49Z"/><path class="cls-2" d="m20.96,129.89c-.52-.24-1.48.18-1.97.47-.45.7-.97,1.1-1.47,2.17-.3,1.32-.21,2.13.78,3.01.26,1.12,1.06,1.4,2.59,1.7-.02.08-.07.21-.23.36.66.02,1.37-.4,1.91-.92,1.76-.69,1.72-3.53.8-5.27-.15-1.35-1.71-1.88-2.43-1.52Z"/><path class="cls-2" d="m37.48,121.95c.33.82,1.13,1.59,2.36,1.88.44-.43.08-.2.01-.6,1.02.35,1.23-.12,2.04-.43.97-.23,1.14-1.03,1.48-1.88.28-1.35-.19-2.31-.45-3.45-.77-1.28-1.54-1.82-2.93-1.9-.41.16-1.15.78-2.02.96-1.25,1.16-2,3.74-.5,5.42Z"/><path class="cls-2" d="m55.72,104.73c-.08,1.22.16,2.38.8,2.89.54,1.04,1.31,1.76,2.53,2.02-.01.05-.03.08-.03.15.74-.46,1.62-.21,1.87-.82,1.65-1.12,2.12-3.24,1.12-5.51-.75-.88-1.87-1.58-2.6-1.95-.72.29-1.52.51-2.15.96-.21.22-.72,1.67-1.54,2.26Z"/><path class="cls-2" d="m75.07,90.94c-.22,1.05-.14,1.98.39,2.65.89.93,1.81,1.78,2.88,1.57.27.36.06.43.46.05.28-.13,1.14.15,1.43-.69,1.08-.15,1.22-1.14,1.75-2.26,0-.7-.24-1.85-.44-2.67-.89-.86-1.98-1.85-2.69-2.11-.94.58-1.4.54-2.16.89-.49.35-1.54,1.4-1.62,2.58Z"/><path class="cls-2" d="m94.67,79.47c.64,1.42,2.02,1.61,3.2,2.05-.21-.19.16-.62.08-.65.88.56,1.4.15,1.59.19,1.13-.88,1.5-1.61,1.61-2.72-.09-1,.22-2.44-.7-2.95-.54-1.11-1.72-2.07-2.38-2.2-.56.28-1.22.85-1.79.64-1.84,1.31-2.41,3.93-1.61,5.63Z"/><path class="cls-2" d="m176.53,196.53c1.53-1.43,1.78-3.51.57-5.63-.53-.81-1.47-1.52-2.46-1.46-.77-.16-1.53.29-2.05.71-.03-.06-.1-.15-.2-.33-1.44,1.18-1.7,3.88-.83,5.7.54.92,1.92,1.36,2.73,1.78.19-.47.36-.04.5-.2.66-.17.63-.5,1.76-.48-.56-.27.04-.28-.03-.09Z"/><path class="cls-2" d="m155.06,203.91c-.72-.28-1.46.16-1.47.41-1.3.61-1.81,1.2-1.96,2.33.05,1.08.05,2.04.8,3.09.52.6,1.39,1.95,2.48,1.72-.02-.39.29-.27.31.06.8-.43,1.45-.24,1.45-.97,2.04-1.09,2.23-3.35,1.4-5.08-.52-1.43-1.75-1.72-3-1.55Z"/><path class="cls-2" d="m20.02,148.96c-.26-.49-.88-1.06-1.59-1.24.42,2,.89,3.97,1.41,5.93,1.05-1.24,1.13-3.03.17-4.69Z"/><path class="cls-2" d="m39.48,135.32c-.74-.69-1.62-1.17-2.95-1.77-.75.44-1.58.2-1.98.92-.57.41-1.24,1.7-1.45,2.71,0,.43-.01,1.41.7,2.68.62.77,1.68,1.87,2.67,1.57.01-.01.02-.02.03-.03-.03.08-.04.2.05.34.97-.06,1.1-.89,1.44-1.18,1.1-.14,1.83-1.25,1.67-1.74.41-1.54.01-2.54-.16-3.51Z"/><path class="cls-2" d="m58.82,122.01c-1.03-1.05-1.86-1.81-2.91-1.86-.76,0-1.38-.01-1.79.09-.83.93-1.56,1.98-1.75,2.72.05,1.04.02,2.06.73,2.62.45,1.15,1.75,2.29,2.77,2.2,0-.06,0-.11-.01-.16.75-.39,1.12-.54,1.77-.5,1.16-1.2,1.81-3.63,1.19-5.1Z"/><path class="cls-2" d="m119.41,236.32c.61-1.06.43-2.09.04-2.63-1.13-.93-1.8-1.52-2.92-2.16-.82.52-1.42.46-2.21.51-.88,1.74-1.52,4.21-.96,5.36.3.63.66,1.03,1.08,1.3,1.12.17,2.24.33,3.37.47.17-.05.33-.11.43-.2.54-.41,1.32-1.03,1.18-2.66Z"/><path class="cls-2" d="m94.53,91.47c-.95.28-1.31.21-2.06.94-1.31,1.39-2.08,3.17-1.36,5.11.8.9,1.81,1.81,3.32,1.9.02.04-.25.34.23-.16.37.1.91.12,1.36-.46,1.33-1.34,2.29-3.29.73-5.28-.34-.94-1.49-1.84-2.23-2.06Z"/><path class="cls-2" d="m113.63,85.26c-.09,0-.16.02-.26.02.34.2.33.09.26-.02Z"/><path class="cls-2" d="m110.38,83.81c.89.64,2.32,1.2,3.12,1.37,0-.09.09,0,.14.08.71-.06,1.18-.25,2.07-.23-.1-.1-.23-.18-.33-.19,1.38-1.15,2.04-3.48,1.11-5.8-.64-.71-1.56-1.42-2.86-1.67-.98.58-1.37.77-1.78.85,0-.03-.01-.05-.02-.07.03-.04.07-.09.11-.16-.05.05-.09.09-.13.14-.03-.01-.07.04-.08.08-.7.76-1.02,1.4-1.1,2.57-.52.51-.54,1.69-.25,3.02Z"/><path class="cls-2" d="m158.63,185.38c-.31.23-1.11.1-1.89.71-1.44,1.17-2.02,3.34-1.26,4.82.7,1.62,1.74,2.43,3.12,2.22.32.19.42.27.46-.25.58.51,1.07.23,1.13-.14,1.71-1.57,1.96-3.67,1.22-5.62-.34-.78-1.86-1.47-2.78-1.74Z"/><path class="cls-2" d="m139.49,199.77c-.95-.61-1.14-.38-1.87.42-1.26.72-1.97,3.29-1.32,5.27.62,1.05,1.76,1.69,3.06,1.39.07.06.1.1.12.14.03-.02.06-.04.11-.06.69,0,.82.47,1.78-.64.65.23.82-.69,1.47-1.79-.3-1.42.14-2.69-.62-3.45-.82-.91-1.57-1.48-2.73-1.29Z"/><path class="cls-2" d="m139.47,206.99c-.17.11.07.14,0,0h0Z"/><path class="cls-2" d="m120.26,221.09s-.02,0-.03,0c-.33.03-.3.19.03,0Z"/><path class="cls-2" d="m119.79,213.57c-.1-.29-1.34.04-1.58.48-1.67,1.07-2.18,3.81-1.41,5.49,1.22.76,2.23,1.96,3.48,1.52-.01,0-.02,0-.03.02.37.01,1.29-.03,1.45-.38.79-.19,1.05-1.5,1.59-2.4.4-1.21.09-1.73-.59-2.69-.23-1.12-1.23-2.3-2.91-2.04Z"/><path class="cls-2" d="m100.87,227.53c-.61.11-1.24.32-2.31.62-.6.7-.78,1.19-1.09,2.3-.5,1.31.02,1.8.02,2.95.64.99,1.98,1.47,3.15,1.53-.04,0-.02.02.07,0,.09,0,.18.01.26,0-.08-.02-.14-.02-.2-.02.04,0,.09-.02.15-.04.49.09,1.35-.07,1.52-.43.86-.42,1.19-1.41,1.64-2.29-.18-.95-.35-2.21-.63-2.87-.27-1.1-1.82-1.59-2.6-1.78Z"/><path class="cls-2" d="m29.36,177.02s-.08,0-.13.01c.31.12.5.37.13-.01Z"/><path class="cls-2" d="m29.3,176.96s.04.04.06.06c1.03-.09,1.08-.22,1.63-.09,1.78-1.44,1.82-3.56,1.46-5.74-1-.63-2.19-1.88-3.41-1.77-.33.17-1.24.72-1.62.42-.3.66-.8,1.52-.96,2.22.76,1.66,1.56,3.3,2.39,4.92.15.02.29.02.44-.01Z"/><path class="cls-2" d="m48.55,155.72c-.91.07-1.46.11-1.91.82-1.06.97-2.05,3.55-.99,5.06.64,1.2,2.04,2.2,3.26,2.12-.02-.08-.05-.14-.08-.19.03.02.05.03.08.05.21-.23,1.21,0,1.72-.91,1.53-.99,1.78-3.47.99-5.02-1.08-1.28-2.01-1.89-3.06-1.94Z"/><path class="cls-2" d="m70.33,144.23c-.21-1.12-1.62-2.29-2.36-1.98-1.09.2-1.52.46-2.26.14-1.12,1.2-1.78,3.63-.74,5.32.78,1,1.47,2.41,3.13,2.16-.12.04-.18-.1-.47-.19.92-.11,1.36-.15,1.99-.79,1.64-.55,2.23-3,.71-4.67Z"/><path class="cls-2" d="m104.7,114.74c-1.68,1.4-2.06,3.22-1.34,5.46,1.02.64,1.87,1.68,2.88,1.84.15-.01.2-.03.21-.03,0,0,0,.03.07.06.38-.63.98-.27,1.78-.73.78-.36.89-1.39,1.35-2.28.5-1.55-.14-2.58-.6-2.97-.48-1.71-1.39-1.98-2.68-2.33-.49.45-1.52.28-1.68.97Z"/><path class="cls-3" d="m127.65,107.16s-.03,0-.08,0"/><path class="cls-2" d="m128.27,101.41c-.06-.48-1.55-1.28-2.8-1.6-.14.16-1.04.45-1.41.84-.02,0-.04.03-.07.09-1.41,1.09-2.34,3.32-1.35,5.09.57.82,1.84,1.71,3.31,1.84-.34-.17-.31-.35.16-.17.48.28.96-.32,1.18-.5.05.05.11.08.16.11,1.78-.97,2.21-3.68.83-5.69Z"/><path class="cls-2" d="m127.57,107.15s-.08-.02-.13-.04c-.03.02-.05.04-.08.06.11-.01.17-.01.22-.01Z"/><path class="cls-2" d="m45.08,173.93c-.86.12-1.16.51-2,.73-1.11.66-1.58,3.22-.69,4.81.28,1.25,1.31,1.82,2.85,2.29-.04-.07-.05-.1-.08-.15.79-.31,1.48-.23,1.85-.3.97-1.2,1.73-3.81.83-5.29-.49-1.58-1.61-2.04-2.77-2.09Z"/><path class="cls-2" d="m64.26,160.5c-.55-.59-1.55-.31-1.82.66-1.26.62-2.16,3.42-.99,4.76.3,1.49,1.68,1.7,2.79,2.21.67-.11,1.09-.58,2.02-.51.19-.99,1.21-1.76,1.37-2.39.22-1.47.01-2.14-.29-3.36-.77-1.3-1.83-1.77-3.09-1.37Z"/><path class="cls-2" d="m83.74,154.11s.01,0,.02,0c.03-.02.02,0-.02,0Z"/><path class="cls-2" d="m86.67,148.44c-.62-1.46-2.21-2.28-2.92-2.18-.77.25-1.8.43-2.33.86-1.45,1.21-1.39,3.13-.62,5.38.35.8,1.28,1.32,2.7,1.57-.09-.06-.17-.18-.2-.43.73.5,1.3.41,2.27-.37,1.4-1.11,1.91-3.6,1.09-4.83Z"/><path class="cls-2" d="m83.74,154.11c-.08-.01-.15-.03-.23-.04.09.06.18.05.23.04Z"/><path class="cls-2" d="m100.94,132.89c-1.61,1.41-2.22,3.72-1.23,5.19,1.18,1.02,1.76,2.1,3.28,2.15.01-.49-.06-.36.17-.25.49-.18,1.05-.28,1.68-.5,1.53-1.46,2.08-3.41.73-5.63-.75-.6-1.86-1.52-2.76-1.69-.34.03-1.46.54-1.87.73Z"/><path class="cls-2" d="m120.54,118.61c-1.56.97-1.86,3.45-1.03,5.18.09,1.56,1.76,2.44,2.59,1.98.18.26.36.35.35-.06.18.34.86.15,1.57-.55.48-.37,1.18-1.31,1.52-2.17.32-.86.11-2.27-.88-2.98-.52-1.45-1.09-2.14-2.66-1.82-.15.27-.84.26-1.46.42Z"/><path class="cls-2" d="m149.66,164.76c-.91-.94-2.05-1.95-3.02-2.08-.51.28-1.65.58-1.69.68-.83.76-1.62,1.41-1.73,2.81-.19.62-.23,1.72.6,2.73.19,1.19,1.32,1.81,2.81,1.7-.18.41.2.3.08.06.78-.31,1.22-.49,1.59-.78,1.32-1.19,2.14-3.62,1.36-5.13Z"/><path class="cls-2" d="m127.09,176.79c-.57.37-1.46.68-1.85.76-.31.58-1.21,1.33-1.14,2.78-.3,1.08-.18,1.75.19,2.82.65.93,1.44,1.68,2.99,1.77-.09-.05.01-.13.06,0,.05,0,.1.01.16.01-.07,0-.12,0-.16,0,.02.05.03.13.02.25.25-.18.86-.93,1.97-.57,1.23-1.16,1.91-4.03.97-5.55-1.04-1.14-2.23-2.21-3.21-2.27Z"/><path class="cls-2" d="m127.28,184.92s.04.02.07.02c0,0,0-.01,0-.02-.02,0-.04,0-.06,0Z"/><path class="cls-2" d="m44.03,193.4c-.65-1.21-1.16-1.44-2.45-1.25-.78-.52-1.69-.47-2.21-.01-.25.17-.47.41-.66.67,1.54,2.09,3.16,4.12,4.83,6.1.93-.82,1.61-3.6.48-5.5Z"/><path class="cls-2" d="m167.54,225.89c-.6-.22-1.28.15-2.15.34-.61.83-1.39,1.37-1.07,2.9-.57.82-.41,1.9,0,2.31.08.49-.15.73.35.46.66.86,1.24,2.07,2.64,1.67.49-.03,1.49,0,1.71-.56,1.79-1.36,1.79-3.4,1.18-5.12-.8-1.36-1.91-2.28-2.65-2.01Z"/><path class="cls-2" d="m108.17,198.95s-.09-.02-.13-.03c.03.03.07.06.13.03Z"/><path class="cls-2" d="m110.77,193.32c-.59-1.53-1.88-2.36-3.04-2.46-.56.61-1.35.4-1.79.5-.42.78-1.46,1.38-1.37,2.77.12,1.28.06,2.34.12,2.56.99,1.21,2.12,2.03,3.34,2.24-.04-.04-.03-.1.04-.07.44-.21.93-.51,1.47-.6.52-.14,1.49-1.02,1.36-2.24.1-1.19.42-1.94-.13-2.71Z"/><path class="cls-2" d="m80.21,164.38c-.69.46-1.79-.08-2.28.62-.23.22-.72,1.27-1.43,2.53-.13,1.19-.18,1.83.82,2.54.15,1.52,1.22,2.29,2.7,1.96.41.25,1.03-.45,1.7-.71,1.64-.79,2.32-3.18.74-4.79-.11-1.58-1.12-2.37-2.26-2.15Z"/><path class="cls-2" d="m88.46,204.88c-.72.2-1.46.6-1.89.62-.9.63-1.1,1.28-1.01,2.38-.32.82-.08,2.25-.16,3.16,1.09.69,2.17,1.85,3.03,1.45.52.5,1.25.11,2,.02.39-.74.91-2.03,1.59-2.41-.11-1.13.03-2.59-.89-3.3-.09-1.43-1.76-1.48-2.66-1.92Z"/><path class="cls-2" d="m116.9,137.36c-.56.37-1.29,1.39-1.68,2.2-.35,1.33-.22,2.01.67,2.73.75,1.21,1.5,1.62,2.78,1.53.33-.03.08.31-.18.55,1.16-.3,1.26-.69,1.68-.86,1.84-.72,2.32-3.15,1.55-5.27-.67-1.22-2.1-1.89-2.91-2.07-.84-.06-1.18.64-1.91,1.18Z"/><path class="cls-2" d="m57.44,204.01c-.12-.04-.24-.08-.35-.11-.08.17,0,.27.35.11Z"/><path class="cls-2" d="m57.03,196.11c-.79.35-1,.44-1.65.88-1.26.61-2.33,3.65-1.25,4.65.53,1.42,1.75,1.87,2.95,2.26.01-.03.03-.06.05-.1,1,0,1.35.24,2.05-.22,1.4-1.55,1.82-4.04.55-5.87-.67-.73-1.69-1.45-2.7-1.59Z"/><path class="cls-2" d="m76.63,182.81c-.96-.11-1.64-.15-1.86.26-1,.55-1.74,1.6-1.89,2.78-.05.55.08,1.67.34,2.55,1.07.86,2.11,1.48,3.42,1.99,0-.42.12.02.04-.53.62.59.81-.01,1.59-.55,1.28-.65,2.07-3.5.94-5.05-.73-1.03-1.34-1.91-2.58-1.45Z"/><path class="cls-2" d="m97.36,176.15c1.4-1.27,2.02-3.5.96-5.55-.21-1.53-1.47-2.24-2.3-1.92-1.24-.34-1.56.49-2.25.46-1.56.99-1.74,3.77-1.26,5.47.58.96,1.9,1.45,3.2,1.7-.03-.04-.07-.09-.12-.17.97.6,1.76-.17,1.78,0Z"/><path class="cls-2" d="m95.8,176.34s-.07-.01-.1-.02c.11.14.08.06.1.02Z"/><path class="cls-2" d="m95.8,176.34s.08.02.12.03c-.09-.06-.11-.05-.12-.03Z"/><path class="cls-2" d="m117.59,156.51c-.32-1.36-1.2-1.66-2.62-1.48-.83-.1-1.54.04-1.63.54-1.71.47-2.08,3.45-1.52,5.26,1.15.63,2.06,1.24,3.4,1.53-.08-.06-.3-.16.15-.17.06.59.77.23,1.6-.11,1.39-1.19,1.56-3.93.62-5.56Z"/><path class="cls-2" d="m132.27,141.05c-1.5,1.03-1.89,4.15-.73,5.71.67,1.13,1.71,1.39,2.83,1.69.21.18.15-.08-.11-.05.9-.21,1.62-.41,1.91-.63,1.42-1.09,1.92-3.58.69-5.06-.22-1.12-1.3-2.14-2.44-2.08-.56-.09-1.26.16-2.16.42Z"/><path class="cls-2" d="m72.1,220.46c-.71-1.01-1.71-1.79-2.69-2.15-.82-.03-1.55.59-2.25.94-.18.16-.33.34-.46.52,1.91,1.31,3.86,2.55,5.84,3.74.27-.94.17-1.95-.44-3.06Z"/><path class="cls-2" d="m60.74,178.01c-.89.3-1.35.16-1.96.97-1.54,1.24-2.14,3.37-.65,5.26.56.76,1.4,1.39,2.78,1.62.33-.06,1.41-.2,1.42-.78.91-.31,1.44-1.29,1.64-1.75.04-1.13.33-2.38-.33-2.98-.56-1.55-1.69-2.17-2.91-2.35Z"/><path class="cls-2" d="m73.07,200.36c-1.15.59-1.86.55-2.39.95-1.02,1.31-1.61,3.46-.64,4.96.69,1.16,1.65,2.02,3.08,2.39-.02-.03-.03-.05-.04-.08.26-.11,1.07-.56,1.48-.56,1.71-1.07,2.22-4.05,1.32-5.91-1.04-.38-2.13-1.13-2.82-1.75Zm-.02,8.15c-.19-.38-.07-.45,0,0h0Z"/><path class="cls-2" d="m92.19,186.83c-.86-.29-1.18.04-2.08.38-.39.81-.92,1.5-1.09,2.53-.68,1.01-.23,2.21.23,3.14.8.59,1.74,1.42,2.88,1.71.05.05.42-.07-.05-.4.9-.03,1.31.31,2.03-.39.82-.05,1.34-1.33,1.48-2.29.09-.92-.38-2.18-.5-2.6-.57-1.07-1.71-1.86-2.91-2.09Z"/><path class="cls-2" d="m97.5,151.24c-1.34.85-2.15,3.51-1.3,5.16.56,1.37,1.51,1.98,3.03,1.64-.02.01-.04.02-.07.04,1.03.4,1.75-.06,2.17-.81.25,0,1.07-.64,1.07-2.1.26-.99.37-2.1-.25-2.5-.91-1.19-1.88-2.38-3.07-1.89-.18-.64-.89-.44-1.57.47Zm2.05,6.72c-.06.05-.06.03-.06.01.02,0,.04,0,.06-.01Z"/><path class="cls-2" d="m63.2,91.44c.55.07,1.02-.37,1.22-.7,1.39-1.07,2.1-3.63.91-5.12-.62-1.43-1.28-1.88-2.4-1.95-.87.21-1.52.12-2.09.51-.63,1.03-1.04,1.66-1.24,2.36,0,.89.05,2.18.04,3.18.94.89,1.79,1.49,3.55,1.72Z"/><path class="cls-2" d="m135.73,217.54c-.89.38-1.41.26-1.54,1.04-2.01.58-2.24,3.13-1.44,5.18.79.64,1.81,1.71,2.78,1.69.51.2.35.1-.01-.34,1.1.38,1.92-.01,1.96-.42,1.53-.74,2.37-3.01,1.33-4.96-.94-1.27-1.63-1.78-3.09-2.2Z"/><path class="cls-2" d="m77.08,113.21c.67-.57,1.19-1.72,1.38-2.57-.09-.75-.11-2.53-.52-3.3-.76-.73-2.14-1.61-3.09-1.12-.83-.68-.84-.23-1.95-.02-.69.67-1.05,1.56-1.23,2.95-.04,1-.28,1.61.29,2.64.97,1.27,1.59,1.72,2.88,1.8.18.05.53.31.09-.02.8.21,1.39-.12,2.16-.37Z"/><path class="cls-2" d="m111.71,172.79c-.81.23-1.29.17-1.8.69-1.09.91-1.72,1.61-1.96,2.3.01,1.53.48,2.09.79,3.38.67.95,1.22,1.41,2.67,1.81.75-.18,1.37-.4,1.78-.83,1.51-.8,1.96-3.39,1.28-5.12-.77-1.8-1.55-2.46-2.77-2.22Z"/><path class="cls-2" d="m88.25,228.07c.2-.96.09-1.98-.55-3.12-.82-1.44-1.29-1.52-3.02-1.81-.33-.26-1.3.16-1.68.46-1.12,1.15-1.92,3.33-1.49,4.78,1.56.76,3.13,1.49,4.73,2.18.12.02.25.03.4.02.76-.87,1.61-1.36,1.62-2.51Z"/><path class="cls-2" d="m103.98,209.69c-.2-.17-1.05-.16-1.55.14-.38.38-.97,1.31-1.62,2.45-.02.97-.16,2.35.79,2.77.64,1.59,1.74,2.25,2.62,1.73.23.58.19-.06.26.48.64-.29.79-.75,1.88-.51,1.41-1.52,1.66-3.73,1.06-5.59-1.23-1.38-1.96-1.64-3.44-1.47Z"/><path class="cls-2" d="m142.97,181.56c-.68-.04-1.1-.4-1.68.03-1.83,1.59-2.18,3.83-1.24,5.75.58,1.01,2.03,1.99,2.71,1.84.54-.01-.01-.06.56-.5.12-.07,1.03.48,1.41-.35.83-.72,1.31-1.07,1.33-2.53.53-.85.18-1.83-.4-2.99-.39-1.07-1.8-1.44-2.68-1.25Z"/><path class="cls-2" d="m85.37,128.58c-1.51,1.6-2.19,3.69-1.26,5.11.95,1.31,1.72,2.39,3.08,2.03.23.02.13.3.25.22.43.1,1.29-.02,1.36-1.01,1.49-.89,2.05-3.27,1-5.06-.72-.88-1.25-1.48-2.97-1.99-.41.65-.89.33-1.47.7Z"/><path class="cls-2" d="m111.8,103.19c1.69-1.28,1.91-3.89,1.08-5.9-.93-1.11-1.89-1.35-2.99-1.69-.34.21-.88.6-1.39.93-1.89,1.2-1.96,3.29-1.67,5.07,1.01,1.02,2.13,1.84,3.22,2.11.19-.51.22-.22.15-.04.39-.45.91-.37,1.6-.48Z"/><path class="cls-2" d="m88.6,110.68c-1.22.89-1.68,3.59-.93,5.31.44,1.3,1.71,1.38,2.97,1.8.09.19.31-.06.36,0,.61-.21,1.08-.12,1.18-.37,1.25-1.15,1.33-1.4,1.99-2.4.16-1.09-.53-2.15-.73-2.97-.37-1.1-1.41-2.37-2.58-1.74-.91-.08-1.2.22-2.27.38Z"/><path class="cls-2" d="m69.59,124.82c-.49.18-.97,1.05-1.36,1.96-.44.96-.43,2.35.53,3.33.35,1.02,1.47,1.32,2.62,1.81.21-.03-.01-.59.31.08.57-.55.91-.43,1.27-.55,1.52-1.52,2.19-3.63,1.24-5.48-.81-1.45-1.95-1.86-3.04-2.04-.5-.21-1.1.18-1.58.89Z"/><path class="cls-2" d="m54.05,144.79c.83-.24,1.15-.74,1.17-1.93.02-.92.13-2.1-.02-3.24-1.16-1.04-1.8-1.33-2.95-1.96-.76.31-1.59.69-1.85.78-1.55,1.27-2.29,3.96-1.16,5.47.34,1.16,2.04,1.99,3.24,1.68-.15.02-.25.04-.32.07.95-.01,1.55-.14,1.9-.86Z"/><path class="cls-2" d="m52.15,145.64c-.07,0-.13,0-.21,0,.01.07.05.04.21,0Z"/><path class="cls-2" d="m33.09,151.97c-.59-.27-1.32-.33-1.68.62-.69.32-1.67.79-1.71,2.15-.25.82-.37,2.25.54,2.41.14,1.59,1.62,2.03,2.94,2.13-.02.34-.33-.18-.5.17,1.04.14,1.66-.6,2.38-.54,1.12-.94,1.49-3.64.38-5.54-.36-.7-1.21-1.82-2.35-1.4Z"/><path class="cls-2" d="m123.42,195.36c-.33.2-.93-.18-1.87.71-1.33.67-1.56,3.18-.72,5.15.72,1.05,1.29,2.04,2.74,2.07.16-.04.09.02.11-.14.52-.49,1.1-.1,1.7-.85.87-.34,1.28-1.03,1.37-2.16.52-1.21.4-2.36-.62-3.33-.13-.75-1.27-1.5-2.72-1.44Z"/></g></svg>