<?xml version="1.0" encoding="UTF-8"?><svg id="Icn_InventoryBG-Red" xmlns="http://www.w3.org/2000/svg" viewBox="0 0 256 256"><defs><style>.cls-1{fill:#ff3c3f;}.cls-2{fill:#ff6a6e;}</style></defs><rect width="256" height="256"/><rect class="cls-1" x="9" y="9" width="238" height="238" transform="translate(-2.08 2.11) rotate(-.94)"/><g id="dots"><path class="cls-2" d="m66.43,132.93c-.6,4.61.41,8.11,3.26,10.89.67.76,1.5,1.27,2.49,1.53,9.75,1.88,15.02-3.29,13.18-12.89-.09-.44-.04-.91-.07-1.66,2.74-.56,5.55-.76,8.61-3.06-.61,4.15.49,7.13,2.34,9.86,1.3,1.21,2.79,2.12,4.44,2.77,4.04.58,7.62-.32,10.56-3.29.49-.8.97-1.61,1.46-2.41,1.26-3.73.92-7.3-2.36-11.58,5.25,1.22,8.47-.43,11.36-2.94.42-.75.84-1.49,1.26-2.24,2.33-10.45-3.9-15.91-14.9-12.7.42-3.24-.58-6.13-2.54-9.33,4.57.58,7.77-.98,10.72-3.24.45-.75.91-1.51,1.36-2.26.86-4.64.65-9.02-3.74-11.95-4.33-2.89-8.48-1.98-12.41.99-.06.04-.26-.1-.54-.22.04-1.22.19-2.51.11-3.78-.44-7.37-8.33-11.43-14.57-7.47-1.21.77-2.2,1.89-3.28,2.86-1.63,4.15-1.57,8.16,2.2,12.83-5.84-1.84-9.51.3-12.79,3.5-.09.18-.18.36-.28.54-1.09,3.52-1.62,7.03.6,10.89-3.47-.03-6.34.42-9.21,2.69-.29-4.16-1.05-7.75-3.59-10.65-.63-.71-1.41-1.2-2.33-1.45-.65-.07-1.31-.12-1.95-.23-4.14-.69-7.61.5-9.98,4-2.49,3.68-2.26,7.48.19,11.16.34.51.96.88.83,1.62-9.14.26-13.57,3.89-12.76,10.46.84,6.8,5.46,9.01,15.41,7.25-.46,4.43.95,8.08,4.53,10.76,3.99,2.02,7.88,1.67,12.38-1.26Zm37.63-21.34c.07,3.25.17,6.2,2.98,8.91-3.86.41-7.04.19-9.99,2.72-.13-3.76-.47-6.97-3.14-10.54,3.98.84,6.86.46,10.15-1.09Zm-5.05-28.96c-.75,3.8.07,7.04,2.13,10.68-3.76-.46-6.74.14-10,2.18.3-3.81-.49-7.04-3.2-10.35,4.47.69,7.92.12,11.07-2.51Zm-10.89,17.66c-.36,3.76.17,6.74,2.56,10-3.69-.42-6.65.03-10.27,1.41.6-3.35-.3-6.06-1.08-9.05,3.24.44,5.82-.46,8.78-2.36Zm-11.23,16.68c-.84,3.5.18,6.12,1,9.43-3.36-.39-5.83.52-8.49,2.35-.51-3.78-.53-7.44-3.28-10.49,3.58.92,6.92.58,10.77-1.29Zm-27.79-9.79c4.61,1.23,7.89.57,11.47-1.54-.32,4.3.36,7.9,3.06,10.95-3.84-1.01-7.18-.79-10.73,1.66-.11-4-.61-7.48-3.8-11.07Z"/><path class="cls-2" d="m83.17,70.81c.02-.05.04-.1.06-.15l-.12.21s.04-.04.06-.06Z"/><path class="cls-2" d="m54.05,134.2s-.04-.02-.06-.03l.15.1s-.06-.05-.09-.08Z"/><path class="cls-2" d="m87.78,170.99c3.22-2.2,4.51-5.89,3.6-10.07-.24-1.1-1.08-2.09-.7-3.29.68-.69,1.53-.51,2.32-.57,8.11-.62,11.83-6.96,8.46-14.38-.33-.73-.53-1.53-.79-2.3-1.65-.65-3.14-1.56-4.44-2.77-.89.62-1.91.41-2.88.37-7.11-.3-12.09,7.69-8.63,13.93.32.57.51,1.21.97,2.32-4.65-.62-8.18,1.31-11.42,3.96.41,1.01-.3,1.85-.49,2.76-.86,4.23.46,7.88,3.68,10.06,3.08,2.08,7.27,2.07,10.31,0Z"/><path class="cls-2" d="m74.1,158.32c.06-.05.11-.09.17-.14-.01-.03-.02-.06-.03-.09l-.14.23Z"/><path class="cls-2" d="m83.22,70.66s-.09.07-.13.11c0,.03,0,.06.02.09l.12-.21Z"/><path class="cls-2" d="m72.3,87.68c.1-.18.19-.36.28-.54,1-4.19,2.06-8.39-2.24-12.89,5.71,1.42,9.39-.61,12.75-3.48-.29-1.19.46-2.18.63-3.28.66-4.11-.99-7.89-4.33-9.86-3.17-1.87-7.44-1.59-10.34.67-3.14,2.45-4.15,6.17-3.03,10.32.32,1.19,1.62,2.09,1.15,3.57-.89-.06-1.71-.19-2.54-.17-8.22.14-12.51,7.56-8.49,14.67.49.86,1.08,1.66,1.63,2.49.92.25,1.69.73,2.33,1.45,4.57,1.11,8.49-.44,12.19-2.93Z"/><path class="cls-2" d="m112.68,134.67c-.49.8-.97,1.61-1.46,2.41.55,1.32-.2,2.6-.12,3.92.27,4.23,2.5,7.51,6.14,8.82,3.54,1.27,7.96.08,10.38-2.8,2.47-2.94,2.79-6.99.89-10.71-.6-1.17-1.83-1.96-1.97-3.39-.52-.39-1.04-.77-1.56-1.16-4.38-.21-8.63.14-12.3,2.91Z"/><path class="cls-2" d="m116.23,94.11c-.83,4.3.22,7.98,3.95,10.43,3.75,2.47,7.54,1.88,11.14-.59.54-.37,1.16-.62,1.74-.92.46-.73.92-1.47,1.39-2.2-.05-.33-.21-.67-.14-.97.96-4.66.04-8.71-4.25-11.25-4.08-2.41-7.97-1.43-11.54,1.4-.25.2-.61.24-.92.36-.45.75-.91,1.51-1.36,2.26,0,.49.09,1,0,1.48Z"/><path class="cls-2" d="m124.98,131.76c.52.39,1.04.77,1.56,1.16.98.15,1.95.36,2.93.44,4.42.36,8.09-1.63,9.77-5.27,1.66-3.58.69-8.25-2.25-10.88-2.98-2.66-7.19-3.04-11.08-.98-1,.53-1.71,1.59-2.97,1.67-.42.75-.84,1.49-1.26,2.24-.38,4.29-.15,8.4,3.29,11.61Z"/><path class="cls-2" d="m57.24,147.96s.09-.09.13-.14c0-.02.01-.05.02-.07l-.15.21Z"/><path class="cls-2" d="m74.15,158.17c-.02.05-.03.1-.06.15l.14-.23s-.06.05-.09.08Z"/><path class="cls-2" d="m72.18,145.35c-.98-.26-1.81-.77-2.49-1.53-4.72-.5-8.99.31-12.32,4-.3,1.25-.75,2.49-.85,3.76-.32,3.91.85,7.25,4.34,9.39,3.49,2.14,6.99,1.67,10.34-.38,1.07-.66,1.97-1.6,2.95-2.43,1.81-4.64.6-8.83-1.97-12.82Z"/><path class="cls-2" d="m53.99,134.17s.06.06.08.09c.02,0,.04,0,.07.01l-.15-.1Z"/><path class="cls-2" d="m57.3,147.78c-.02.06-.04.12-.06.19l.15-.21s-.06.02-.09.03Z"/><path class="cls-2" d="m54.07,134.26c-1.27-.26-2.53-.59-3.81-.75-4.38-.55-8.41,1.8-9.98,5.73-1.48,3.7-.23,8.27,2.93,10.71,3.36,2.6,7.88,2.54,11.5-.12.89-.65,1.4-1.8,2.59-2.06,1.69-5.16.56-9.65-3.23-13.52Z"/><path class="cls-2" d="m107.97,149.05c-5.03,1.19-7.94,5.91-6.75,10.94,1.19,5.02,5.93,7.94,10.94,6.76,5.02-1.19,7.94-5.93,6.75-10.94-1.19-5.02-5.93-7.94-10.94-6.75Z"/><path class="cls-2" d="m100.2,50.24c-4.96.99-8.15,5.91-7.03,10.83,1.08,4.75,5.76,7.8,10.53,6.85,4.96-.99,8.15-5.91,7.03-10.83-1.07-4.73-5.78-7.8-10.53-6.85Z"/><path class="cls-2" d="m132.31,105.92c-.58,4.37,1.46,8.01,5.36,9.68,3.84,1.65,8.18.49,10.7-2.85,2.54-3.37,2.48-7.84-.14-11.07-2.65-3.26-6.86-4.31-10.79-2.6-1.05.46-2,1.17-2.99,1.77-.46.73-.92,1.47-1.39,2.2-.26.96-.62,1.9-.75,2.88Z"/><path class="cls-2" d="m34.04,141.03c4.72-1.09,7.77-5.91,6.75-10.65-1.03-4.73-5.8-7.86-10.55-6.9-4.74.96-7.94,5.7-7.04,10.46.93,4.95,5.94,8.22,10.85,7.08Z"/><path class="cls-2" d="m133.56,71.14c-4.66,1.14-7.67,6-6.6,10.68,1.11,4.87,6.27,7.96,11.07,6.63,4.63-1.28,7.5-6.24,6.3-10.87-1.21-4.65-6.12-7.59-10.77-6.45Z"/><path class="cls-2" d="m28.45,113.53c4.7-1.05,7.8-5.95,6.75-10.66-1.05-4.7-5.95-7.8-10.66-6.75-4.7,1.05-7.8,5.95-6.75,10.66,1.05,4.7,5.95,7.8,10.66,6.75Z"/><path class="cls-2" d="m45.58,62.25c-4.93.93-8.19,5.84-7.12,10.74,1.02,4.72,5.71,7.83,10.45,6.94,4.94-.93,8.19-5.83,7.12-10.74-1.02-4.72-5.71-7.83-10.45-6.94Z"/><path class="cls-2" d="m116.72,60.67c-4.99,1.19-7.95,6.16-6.63,11.12,1.27,4.77,6,7.59,10.82,6.45,4.99-1.19,7.95-6.15,6.64-11.12-1.26-4.75-6.02-7.59-10.82-6.45Z"/><path class="cls-2" d="m28.15,90.29c1.25,4.72,6.05,7.57,10.81,6.44,4.97-1.18,7.93-6.16,6.62-11.1-1.25-4.72-6.04-7.58-10.8-6.44-4.95,1.18-7.93,6.18-6.62,11.11Z"/><path class="cls-2" d="m82.86,40.18c-4.4,1.16-7.34,5.93-6.4,10.39.97,4.61,5.97,7.79,10.6,6.74,4.6-1.05,7.72-6.1,6.59-10.69-1.13-4.6-6.22-7.64-10.78-6.44Z"/><path class="cls-2" d="m101.67,183.37c4.63-1.05,7.75-6.09,6.62-10.71-1.13-4.63-6.21-7.67-10.8-6.47-4.62,1.21-7.59,6.34-6.32,10.9,1.24,4.42,6.04,7.29,10.5,6.28Z"/><path class="cls-2" d="m57.2,178.51c4.64-.97,7.84-6.06,6.71-10.68-1.08-4.44-5.89-7.46-10.38-6.53-4.64.97-7.84,6.06-6.71,10.68,1.08,4.44,5.89,7.46,10.38,6.53Z"/><path class="cls-2" d="m135.11,142.86c-4.4,1.15-7.35,5.91-6.43,10.37.96,4.61,5.95,7.8,10.58,6.76,4.61-1.04,7.73-6.08,6.61-10.67-1.12-4.6-6.2-7.65-10.77-6.46Z"/><path class="cls-2" d="m59.57,62.79c4.62-1.05,7.75-6.19,6.55-10.76-1.16-4.42-6.01-7.37-10.46-6.36-4.62,1.05-7.75,6.19-6.55,10.76,1.16,4.42,6.01,7.37,10.46,6.36Z"/><path class="cls-2" d="m40.16,168.1c4.42-.81,7.63-5.42,6.95-9.99-.69-4.61-5.58-8.03-10.26-7.17-4.42.81-7.63,5.42-6.95,9.99.69,4.61,5.58,8.03,10.26,7.17Z"/><path class="cls-2" d="m149.96,143.02c4.61-1.26,7.54-6.51,6.14-11-1.37-4.4-6.32-7.17-10.69-5.97-4.42,1.21-7.32,6.09-6.27,10.52,1.1,4.62,6.26,7.7,10.82,6.46Z"/><path class="cls-2" d="m129.05,176.62c4.51-1.15,7.39-5.98,6.25-10.47-1.15-4.51-5.98-7.39-10.47-6.25-4.51,1.15-7.39,5.98-6.25,10.47,1.15,4.51,5.98,7.39,10.47,6.25Z"/><path class="cls-2" d="m160.83,88.11c-1.15-4.53-5.87-7.35-10.39-6.2-4.53,1.15-7.35,5.87-6.2,10.39,1.15,4.53,5.87,7.35,10.39,6.2,4.53-1.15,7.35-5.87,6.2-10.39Z"/><path class="cls-2" d="m18.21,129.95c4.54-1.15,7.33-5.84,6.18-10.36-1.15-4.54-5.84-7.33-10.36-6.18-2.26.58-4.09,2.03-5.22,3.91l.15,8.96c1.94,2.99,5.65,4.58,9.26,3.66Z"/><path class="cls-2" d="m74.35,188.63c4.51-1.15,7.39-5.99,6.24-10.48-1.15-4.51-5.99-7.39-10.48-6.24-4.51,1.15-7.39,5.99-6.24,10.48,1.15,4.51,5.99,7.39,10.48,6.24Z"/><path class="cls-2" d="m91.18,198.54c4.52-1.17,6.99-5.43,5.81-9.98-1.17-4.5-5.44-6.99-9.98-5.81-4.52,1.17-6.99,5.43-5.81,9.98,1.17,4.5,5.44,6.99,9.98,5.81Z"/><path class="cls-2" d="m127.58,44.43c-4.74.96-7.58,5.33-6.51,10.01,1.03,4.52,5.2,7.23,9.71,6.32,4.74-.96,7.58-5.33,6.51-10.01-1.03-4.52-5.2-7.23-9.71-6.32Z"/><path class="cls-2" d="m22.06,85.6c4.51-1.15,7.08-5.42,5.99-9.95-1.09-4.54-5.32-7.17-9.86-6.14-4.56,1.03-7.26,5.22-6.29,9.77,1.02,4.78,5.43,7.53,10.16,6.32Z"/><path class="cls-2" d="m144.29,54.99c-4.57,1.02-7.23,5.18-6.21,9.73,1.02,4.57,5.18,7.23,9.73,6.21,4.57-1.02,7.23-5.18,6.21-9.73-1.02-4.57-5.18-7.23-9.73-6.21Z"/><path class="cls-2" d="m114.51,50.19c4.48-1.21,6.97-5.5,5.8-10.04-1.15-4.51-5.41-7.05-9.95-5.95-4.53,1.1-7.14,5.31-6.1,9.85,1.08,4.74,5.53,7.41,10.25,6.14Z"/><path class="cls-2" d="m23.47,157.27c4.52-1.03,7.24-5.19,6.34-9.7-.95-4.74-5.32-7.59-10-6.52-4.52,1.03-7.24,5.19-6.34,9.7.95,4.74,5.32,7.59,10,6.52Z"/><path class="cls-2" d="m28.55,52.7c-4.55,1.04-7.2,5.18-6.22,9.72,1.03,4.76,5.4,7.46,10.11,6.26,4.5-1.15,7.02-5.38,5.92-9.9-1.1-4.52-5.28-7.11-9.81-6.07Z"/><path class="cls-2" d="m159.99,125.86c4.62-1.09,7.38-5.64,6.22-10.24-1.16-4.61-5.74-7.3-10.34-6.07-4.58,1.22-7.21,5.85-5.92,10.43,1.23,4.37,5.6,6.94,10.04,5.89Z"/><path class="cls-2" d="m70.19,46.31c4.51-1.11,7.08-5.3,6.03-9.83-1.1-4.72-5.52-7.35-10.22-6.07-4.46,1.22-6.91,5.49-5.73,10.01,1.16,4.49,5.39,7,9.92,5.88Z"/><path class="cls-2" d="m11.5,102.37c4.54-1.07,7.12-5.26,6.04-9.79-1.03-4.35-4.92-6.9-9.24-6.15l.26,16.12c.94.1,1.93.05,2.93-.18Z"/><path class="cls-2" d="m166.57,152.63c4.21-1.11,6.77-5.4,5.73-9.63-1.04-4.23-5.29-6.85-9.54-5.88-4.24.97-6.93,5.19-6.03,9.45.95,4.45,5.44,7.22,9.84,6.06Z"/><path class="cls-2" d="m12.56,137.1c-.46-2.14-1.78-3.9-3.51-5.01l.22,13.25c2.57-1.79,3.99-5.02,3.3-8.24Z"/><path class="cls-2" d="m42.23,51.76c4.54-.87,7.36-5.14,6.36-9.63-.96-4.32-5.02-7.01-9.33-6.18-4.54.87-7.36,5.14-6.36,9.63.96,4.32,5.02,7.01,9.33,6.18Z"/><path class="cls-2" d="m26.25,168.67c-4.2,1.03-6.87,5.42-5.84,9.61,1.03,4.2,5.42,6.87,9.61,5.84,4.2-1.03,6.87-5.42,5.84-9.61-1.03-4.2-5.42-6.87-9.61-5.84Z"/><path class="cls-2" d="m46.74,194.56c4.25-.95,6.96-5.16,6.07-9.42-.89-4.26-5.06-7.04-9.33-6.22-4.27.82-7.12,4.95-6.37,9.23.79,4.48,5.18,7.4,9.62,6.41Z"/><path class="cls-2" d="m97.04,39.75c4.52-.93,7.27-5.14,6.29-9.62-.99-4.51-5.23-7.19-9.71-6.14-4.29,1-6.93,5.02-6.11,9.32.87,4.53,5.04,7.36,9.52,6.44Z"/><path class="cls-2" d="m166.76,92.96c-4.48.96-7.21,5.31-6.11,9.76,1.04,4.25,5.18,6.85,9.46,5.93,4.48-.96,7.2-5.31,6.11-9.76-1.04-4.25-5.18-6.85-9.46-5.93Z"/><path class="cls-2" d="m118.36,193.07c4.55-1.04,7.18-5.2,6.15-9.74-1.04-4.55-5.2-7.18-9.74-6.15-4.55,1.04-7.18,5.2-6.15,9.74,1.04,4.56,5.2,7.18,9.74,6.15Z"/><path class="cls-2" d="m156.29,169.5c4.23-1.15,6.73-5.46,5.64-9.71-1.09-4.25-5.35-6.82-9.62-5.79-4.27,1.03-6.9,5.24-5.94,9.53,1,4.48,5.49,7.18,9.92,5.97Z"/><path class="cls-2" d="m161.17,65.58c-4.21.94-6.96,5.28-6.02,9.5.94,4.21,5.28,6.96,9.5,6.02,4.21-.94,6.96-5.28,6.02-9.5-.94-4.21-5.28-6.96-9.5-6.02Z"/><path class="cls-2" d="m145.87,186.28c4.1-1.13,6.69-5.64,5.57-9.72-1.13-4.1-5.64-6.69-9.72-5.57-4.1,1.13-6.69,5.64-5.57,9.72,1.13,4.1,5.64,6.69,9.72,5.57Z"/><path class="cls-2" d="m63.34,204.91c4.18-.77,7.12-5.18,6.27-9.38-.85-4.18-5.29-7.04-9.47-6.11-3.97.88-6.75,5.03-6.07,9.08.7,4.18,5.06,7.2,9.28,6.42Z"/><path class="cls-2" d="m176.3,135.76c4.12-.69,7.14-5.19,6.29-9.33-.81-3.92-5.04-6.77-9.04-6.09-4.12.69-7.14,5.19-6.29,9.33.81,3.92,5.03,6.77,9.04,6.09Z"/><path class="cls-2" d="m80.32,29.03c3.93-.89,6.67-5.19,5.85-9.16-.81-3.93-5.07-6.75-9.07-6-4.12.77-7.05,5.36-6.04,9.46.97,3.92,5.31,6.6,9.25,5.7Z"/><path class="cls-2" d="m12.62,173.65c4.13-.69,7.13-5.21,6.2-9.35-.88-3.93-5.18-6.68-9.15-5.86-.06.01-.12.03-.19.05l.25,15.06c.94.22,1.92.27,2.89.11Z"/><path class="cls-2" d="m113.54,199.13c-.98-3.9-5.29-6.58-9.23-5.75-4.11.87-6.96,5.45-5.93,9.53.98,3.9,5.29,6.58,9.23,5.75,4.11-.87,6.96-5.45,5.93-9.53Z"/><path class="cls-2" d="m53.08,34.44c3.91-1.05,6.48-5.38,5.52-9.29-.97-3.92-5.26-6.56-9.2-5.67-4.11.94-6.86,5.56-5.7,9.59,1.12,3.9,5.51,6.4,9.38,5.37Z"/><path class="cls-2" d="m134.94,202.87c4.07-.83,6.73-4.93,5.83-9.01-.86-3.88-4.68-6.44-8.61-5.78-4.1.69-6.89,4.7-6.13,8.8.76,4.08,4.83,6.81,8.91,5.98Z"/><path class="cls-2" d="m86.02,205.53c-1.1-4.01-5.44-6.45-9.4-5.29-3.8,1.11-6.16,5.16-5.26,9.01.95,4.04,5.19,6.62,9.21,5.59,4.03-1.03,6.54-5.31,5.44-9.31Z"/><path class="cls-2" d="m141.43,43.12c3.97-1.02,6.52-5.32,5.51-9.27-1.02-3.97-5.31-6.52-9.27-5.51-3.97,1.02-6.52,5.31-5.51,9.27,1.02,3.97,5.32,6.52,9.27,5.51Z"/><path class="cls-2" d="m10.51,65.47c-.39-1.66-1.35-3.07-2.61-4.09l.19,11.53c2.03-1.8,3.08-4.67,2.42-7.44Z"/><path class="cls-2" d="m15.06,57.69c4.08-.86,6.69-4.94,5.76-9.02-.93-4.07-5.05-6.61-9.11-5.61-1.67.41-3.08,1.37-4.08,2.63l.16,9.51c1.73,2.02,4.49,3.08,7.27,2.49Z"/><path class="cls-2" d="m124.56,32.7c4.02-1.03,6.54-5.34,5.45-9.33-1.1-4.01-5.47-6.46-9.42-5.3-3.8,1.12-6.17,5.18-5.26,9.03.96,4.04,5.22,6.62,9.24,5.6Z"/><path class="cls-2" d="m187,118.23c4.07-.98,6.32-4.68,5.34-8.75-.98-4.07-4.68-6.32-8.75-5.34-4.07.98-6.32,4.68-5.34,8.75.98,4.07,4.68,6.32,8.75,5.34Z"/><path class="cls-2" d="m176.91,76.81c-3.95,1.04-6.21,4.79-5.29,8.78.96,4.18,4.93,6.57,9.08,5.48,4.13-1.09,6.4-5.14,5.18-9.26-1.15-3.9-5-6.04-8.96-5Z"/><path class="cls-2" d="m154.75,38.9c-3.98.93-6.38,4.63-5.58,8.63.84,4.21,4.76,6.74,8.93,5.77,3.98-.93,6.38-4.63,5.58-8.63-.84-4.21-4.76-6.74-8.93-5.77Z"/><path class="cls-2" d="m41.46,201.96c-.92-3.78-4.59-6.06-8.39-5.2-3.99.9-6.33,4.84-5.23,8.78,1.04,3.73,4.81,5.88,8.57,4.9,3.76-.98,5.97-4.7,5.05-8.48Z"/><path class="cls-2" d="m25.43,40.48c4.05-.91,6.35-4.52,5.45-8.55-.91-4.05-4.52-6.35-8.55-5.45-4.05.91-6.35,4.52-5.45,8.55.91,4.05,4.52,6.35,8.55,5.45Z"/><path class="cls-2" d="m54.78,12.28c.71,4.04,4.52,6.59,8.5,5.68,3.7-.84,6.02-4.32,5.39-8.01l-13.95.23c-.08.68-.07,1.39.05,2.1Z"/><path class="cls-2" d="m182.66,162.22c3.99-.74,6.5-4.49,5.64-8.43-.82-3.76-4.38-6.15-8.14-5.45-3.79.7-6.3,4.18-5.73,7.95.6,4.01,4.29,6.67,8.23,5.94Z"/><path class="cls-2" d="m98.76,16.5c.89,4.09,4.51,6.43,8.58,5.54,4.1-.89,6.43-4.51,5.54-8.58-.38-1.76-1.28-3.2-2.49-4.19l-9.29.15c-2.02,1.63-2.96,4.24-2.35,7.08Z"/><path class="cls-2" d="m166.4,58.04c.87,3.79,4.42,6.12,8.21,5.38,4.02-.79,6.47-4.54,5.56-8.51-.87-3.79-4.43-6.12-8.21-5.37-4.02.79-6.47,4.54-5.56,8.51Z"/><path class="cls-2" d="m172.44,179.09c3.84-.79,6.25-4.29,5.59-8.1-.71-4.06-4.4-6.61-8.4-5.78-3.84.79-6.25,4.29-5.59,8.1.7,4.06,4.4,6.61,8.4,5.78Z"/><path class="cls-2" d="m94.12,211.02c-3.74.8-6.16,4.46-5.43,8.2.78,3.95,4.69,6.44,8.59,5.46,3.72-.93,6-4.65,5.13-8.39-.87-3.74-4.55-6.08-8.29-5.28Z"/><path class="cls-2" d="m162.11,195.84c3.71-.79,6.17-4.57,5.38-8.28-.79-3.71-4.57-6.17-8.28-5.38-3.71.79-6.17,4.57-5.38,8.28.79,3.71,4.57,6.17,8.28,5.38Z"/><path class="cls-2" d="m24.61,191.77c-.81-3.74-4.48-6.15-8.22-5.4-3.95.79-6.42,4.71-5.43,8.61.94,3.72,4.67,5.98,8.4,5.1,3.73-.88,6.06-4.57,5.25-8.31Z"/><path class="cls-2" d="m58.23,212.22c-.97-3.65-4.89-5.93-8.53-4.96-3.65.97-5.93,4.88-4.96,8.53.97,3.65,4.89,5.93,8.53,4.96,3.65-.97,5.93-4.89,4.96-8.53Z"/><path class="cls-2" d="m129.88,210.83c-.83-3.69-4.54-6.09-8.24-5.32-3.7.76-6.17,4.44-5.47,8.15.73,3.9,4.67,6.44,8.54,5.51,3.67-.89,6-4.64,5.17-8.33Z"/><path class="cls-2" d="m194.45,87.59c-3.41.58-5.99,4.16-5.54,7.69.46,3.61,4.3,6.38,7.96,5.76,3.41-.58,5.99-4.17,5.54-7.69-.46-3.61-4.3-6.38-7.96-5.76Z"/><path class="cls-2" d="m90.09,11.46c1.41-.22,2.68-.93,3.67-1.92l-9.4.15c1.54,1.36,3.65,2.09,5.74,1.76Z"/><path class="cls-2" d="m27.57,18.31c.92,3.6,4.93,5.95,8.5,4.97,3.58-.99,5.87-5.07,4.82-8.59-.56-1.87-1.97-3.38-3.69-4.22l-6.19.1c-2.64,1.49-4.2,4.73-3.43,7.74Z"/><path class="cls-2" d="m156.84,204.44c-.75-3.49-4.48-5.87-7.98-5.11-3.49.75-5.87,4.48-5.11,7.98.75,3.49,4.48,5.87,7.98,5.11,3.48-.75,5.87-4.48,5.11-7.98Z"/><path class="cls-2" d="m193.2,145.19c3.65-.75,6.16-4.66,5.33-8.31-.83-3.65-4.77-6.08-8.4-5.18-3.44.85-5.79,4.52-5.14,8.01.68,3.65,4.55,6.23,8.22,5.48Z"/><path class="cls-2" d="m67.16,217.77c-3.48.6-6.02,4.25-5.42,7.8.59,3.48,4.25,6.02,7.8,5.42,3.48-.59,6.02-4.25,5.42-7.8-.6-3.48-4.25-6.02-7.8-5.42Z"/><path class="cls-2" d="m188.49,60.4c-3.46.9-5.69,4.66-4.8,8.1.9,3.46,4.66,5.69,8.1,4.79,3.46-.9,5.69-4.66,4.79-8.1-.9-3.46-4.66-5.69-8.1-4.79Z"/><path class="cls-2" d="m134.42,14.96c2.92-.6,5.05-3.27,5.22-6.17l-13.17.22c.02.24.04.48.09.72.65,3.52,4.32,5.96,7.86,5.23Z"/><path class="cls-2" d="m151.34,25.38c3.48-.75,5.85-4.43,5.1-7.93-.75-3.48-4.43-5.85-7.93-5.1-3.48.75-5.85,4.43-5.1,7.93.75,3.48,4.43,5.85,7.93,5.1Z"/><path class="cls-2" d="m203.63,127.77c3.47-.82,5.53-4.09,4.78-7.57-.76-3.49-3.99-5.62-7.48-4.93-3.49.69-5.7,3.91-5.08,7.39.66,3.7,4.12,5.98,7.78,5.11Z"/><path class="cls-2" d="m110.92,222.2c-3.49.88-5.4,4.09-4.52,7.59.88,3.48,4.09,5.4,7.59,4.53,3.48-.88,5.4-4.09,4.53-7.59-.88-3.48-4.09-5.4-7.59-4.52Z"/><path class="cls-2" d="m168.02,35.53c3.69-.73,5.91-4.25,4.98-7.89-.89-3.45-4.22-5.46-7.68-4.64-3.47.82-5.55,4.11-4.79,7.59.75,3.48,4.01,5.63,7.5,4.94Z"/><path class="cls-2" d="m193.89,181.75c-.46-3.47-3.69-5.81-7.12-5.15-3.24.63-5.37,3.69-4.82,6.93.56,3.24,3.6,5.45,6.84,4.95,3.26-.5,5.52-3.49,5.09-6.73Z"/><path class="cls-2" d="m12.94,21.36c-.79-2.74-3.09-4.43-5.78-4.44l.2,12.36c.42-.03.84-.1,1.27-.22,3.44-.92,5.29-4.24,4.3-7.7Z"/><path class="cls-2" d="m138.85,216.77c-3.51.65-5.65,3.94-4.81,7.4.8,3.27,3.91,5.21,7.2,4.47,3.29-.74,5.29-3.82,4.62-7.1-.68-3.31-3.72-5.38-7.01-4.77Z"/><path class="cls-2" d="m83.9,228.82c-3.31.74-5.32,3.8-4.64,7.11.72,3.52,4.03,5.59,7.5,4.68,3.27-.86,5.14-4,4.34-7.3-.8-3.29-3.9-5.23-7.2-4.49Z"/><path class="cls-2" d="m204.12,164.3c-.75-3.23-3.97-5.23-7.2-4.48s-5.23,3.97-4.48,7.2c.75,3.23,3.97,5.23,7.2,4.49,3.23-.75,5.23-3.97,4.48-7.2Z"/><path class="cls-2" d="m184.85,45.56c3.52-.72,5.58-4.04,4.67-7.51-.86-3.27-4-5.14-7.3-4.33-3.29.8-5.22,3.91-4.48,7.21.74,3.31,3.81,5.31,7.12,4.63Z"/><path class="cls-2" d="m207.56,83.22c3.18-.84,5.13-4.25,4.22-7.4-.86-2.98-3.98-4.85-7.01-4.19-3.22.7-5.29,4.02-4.52,7.22.77,3.21,4.12,5.21,7.31,4.37Z"/><path class="cls-2" d="m13.15,208.67c-.41-1.62-1.51-2.94-2.91-3.72l.17,10.28c2.17-1.32,3.39-4,2.74-6.56Z"/><path class="cls-2" d="m18.79,11.95c.86-.21,1.64-.64,2.31-1.22l-7.22.12c1.39,1.04,3.2,1.52,4.92,1.1Z"/><path class="cls-2" d="m22.69,214.71c-3.18.85-5.08,4.15-4.23,7.34.85,3.18,4.15,5.08,7.34,4.23,3.18-.85,5.08-4.16,4.23-7.34-.85-3.18-4.15-5.08-7.34-4.23Z"/><path class="cls-2" d="m214.25,147.2c-.83-2.86-4.22-4.8-7.07-4.05-2.88.76-4.88,4.09-4.2,6.98.73,3.07,4.4,5.18,7.37,4.23,2.83-.9,4.71-4.35,3.9-7.16Z"/><path class="cls-2" d="m39.76,225.13c-3.15.74-5.21,4.23-4.32,7.33.84,2.93,4.07,4.83,7.03,4.14,3.14-.74,5.21-4.24,4.32-7.33-.83-2.9-4.1-4.83-7.03-4.14Z"/><path class="cls-2" d="m213.78,110.44c3.14-.68,5.26-4.14,4.44-7.24-.77-2.89-4.02-4.89-6.95-4.26-3.14.68-5.26,4.14-4.44,7.25.77,2.89,4.02,4.89,6.95,4.26Z"/><path class="cls-2" d="m183.28,197.97c-.78-3.14-4.17-5.15-7.29-4.31-3.11.84-5.07,4.31-4.16,7.38.86,2.91,4.03,4.78,6.99,4.12,3.15-.7,5.23-4.06,4.45-7.19Z"/><path class="cls-2" d="m56.93,235.85c-2.88.56-4.86,3.43-4.37,6.32.53,3.09,3.66,5.15,6.71,4.41,2.87-.7,4.7-3.62,4.07-6.51-.63-2.88-3.51-4.78-6.41-4.22Z"/><path class="cls-2" d="m166.19,210.8c-3.03.53-5.1,3.64-4.42,6.65.63,2.82,3.51,4.74,6.36,4.24,3.03-.53,5.1-3.64,4.42-6.66-.63-2.82-3.51-4.74-6.36-4.24Z"/><path class="cls-2" d="m195.04,51.17c.64,3,3.96,5.02,6.92,4.23,2.98-.8,4.85-4.19,3.93-7.1-.88-2.75-4.03-4.49-6.79-3.75-2.78.74-4.65,3.8-4.05,6.61Z"/><path class="cls-2" d="m128.48,234.5c-3.07.66-4.72,3.25-4.01,6.3.72,3.05,3.35,4.64,6.39,3.86,3.02-.77,4.55-3.45,3.71-6.48-.79-2.81-3.23-4.29-6.09-3.67Z"/><path class="cls-2" d="m172.15,13.44c.67,3.07,3.28,4.68,6.32,3.89,2.79-.73,4.31-3.2,3.7-6.03-.3-1.39-1.02-2.47-1.99-3.17l-6.11.1c-1.62,1.13-2.39,3.07-1.92,5.21Z"/><path class="cls-2" d="m219.58,137.12c3.1-.38,5.06-2.87,4.62-5.88-.44-3.08-2.99-4.98-5.99-4.48-3.07.51-4.9,3.08-4.33,6.1.54,2.88,2.86,4.62,5.7,4.27Z"/><path class="cls-2" d="m107.24,243.97c-.67-2.99-3.33-4.68-6.31-4.01-2.99.67-4.68,3.33-4.01,6.31.1.45.26.86.44,1.24l9.56-.16c.45-1,.59-2.16.31-3.39Z"/><path class="cls-2" d="m155.77,228.28c-2.66.55-4.46,3.46-3.76,6.09.64,2.43,3.33,4.09,5.79,3.58,2.66-.55,4.46-3.46,3.76-6.09-.64-2.43-3.33-4.09-5.79-3.58Z"/><path class="cls-2" d="m218.11,89.05c.62,2.41,3.21,4.08,5.66,3.66,2.64-.46,4.52-3.22,3.99-5.87-.53-2.64-3.33-4.44-5.96-3.84-2.63.6-4.36,3.44-3.69,6.05Z"/><path class="cls-2" d="m73.45,246.85c-.7.21-1.32.6-1.85,1.09l6.36-.1c-1.24-1.01-2.94-1.45-4.51-.98Z"/><path class="cls-2" d="m194.97,27.54c2.61-.5,4.49-3.54,3.77-6.1-.67-2.38-3.51-4.03-5.89-3.43-2.39.6-4.11,3.4-3.58,5.8.53,2.4,3.28,4.2,5.71,3.73Z"/><path class="cls-2" d="m212.71,61.58c.62,2.33,3.44,4.03,5.79,3.48,2.35-.55,4.11-3.32,3.63-5.69-.48-2.34-3.22-4.19-5.6-3.78-2.55.44-4.48,3.47-3.81,5.99Z"/><path class="cls-2" d="m228.18,110.58c-2.22.61-3.8,3.2-3.33,5.45.52,2.47,3.32,4.18,5.75,3.51,2.39-.65,3.99-3.61,3.2-5.93-.74-2.21-3.4-3.64-5.63-3.03Z"/><path class="cls-2" d="m203.8,188.33c-2.41.51-4.14,3.25-3.56,5.65.53,2.19,3.02,3.86,5.26,3.53,2.35-.35,4.29-3.09,3.86-5.47-.43-2.39-3.16-4.22-5.56-3.71Z"/><path class="cls-2" d="m14.77,241.79c2.37-.47,3.98-2.83,3.57-5.21-.41-2.36-2.73-4.05-5.11-3.7-.98.14-1.84.61-2.51,1.28l.11,6.49c1.04.95,2.5,1.43,3.94,1.14Z"/><path class="cls-2" d="m219.7,175.41c-.32-2.49-2.93-4.38-5.42-3.91-2.3.43-4,2.79-3.7,5.15.32,2.49,2.93,4.38,5.42,3.91,2.3-.43,4-2.79,3.7-5.15Z"/><path class="cls-2" d="m220.21,197.86c-.18,0-.35.02-.51.05-.75.16-1.46.68-1.94,1.44-.48.76-.66,1.64-.48,2.39.31,1.29,1.82,2.42,3.22,2.42.12,0,.24,0,.36-.03.7-.1,1.43-.6,1.95-1.33.54-.76.79-1.65.65-2.39-.25-1.36-1.77-2.56-3.26-2.56Z"/><path class="cls-2" d="m229.63,183.44c-.17,0-.33.01-.49.04-1.53.28-2.69,1.91-2.49,3.48.19,1.45,1.64,2.67,3.17,2.67.17,0,.33-.02.49-.04,1.53-.28,2.69-1.91,2.49-3.48-.19-1.45-1.64-2.67-3.16-2.67Z"/><path class="cls-2" d="m34.9,246.85c-.53-2.5-2.68-3.86-5.16-3.26-2.42.58-3.74,2.7-3.14,5.08l8.35-.14c.08-.53.08-1.1-.05-1.68Z"/><path class="cls-2" d="m193.69,205.5c-2.55.37-4.03,2.58-3.53,5.08.51,2.53,2.68,3.95,5.18,3.38,2.51-.57,3.91-2.8,3.22-5.27-.68-2.44-2.36-3.55-4.87-3.18Z"/><path class="cls-2" d="m229.54,158.03c-.63-2.27-2.61-3.46-4.92-2.95-2.52.56-3.82,2.72-3.13,5.22.63,2.28,2.6,3.46,4.92,2.95,2.53-.56,3.82-2.71,3.13-5.22Z"/><path class="cls-2" d="m212.18,37.02c2.19-.7,3.29-2.83,2.64-5.06-.65-2.22-2.71-3.38-4.97-2.79-2.23.58-3.46,2.63-2.94,4.88.57,2.44,2.88,3.74,5.27,2.97Z"/><path class="cls-2" d="m182.97,222.77c-2.09.84-3.18,2.34-2.8,4.63.35,2.19,2.74,3.61,4.88,3.03,2.14-.58,3.52-3.04,2.71-5.08-.84-2.12-2.51-2.95-4.79-2.59Z"/><path class="cls-2" d="m145.48,246.11c-.56.15-1.04.37-1.45.64l4.61-.08c-.9-.62-2.04-.87-3.17-.56Z"/><path class="cls-2" d="m234.96,138.69c-1.98.63-2.91,2.15-2.76,4.17.14,1.87,2.49,3.46,4.38,3.11,1.85-.34,3.37-2.64,2.96-4.5-.41-1.85-2.78-3.36-4.58-2.79Z"/><path class="cls-2" d="m229.62,71.62c.2,1.86,2.58,3.38,4.43,2.99,1.84-.39,3.3-2.71,2.84-4.55-.46-1.84-2.86-3.3-4.63-2.67-1.94.68-2.86,2.2-2.64,4.22Z"/><path class="cls-2" d="m238.94,94.88c-2.05.51-3,2.09-2.49,4.14.51,2.06,2.06,2.85,4.14,2.53,2.02-.71,3-2.13,2.49-4.19-.51-2.05-2.09-3-4.14-2.49Z"/><path class="cls-2" d="m205.29,8.67c.53-.27.99-.59,1.33-.97l-4.4.07c.68.85,1.78,1.15,3.07.9Z"/><path class="cls-2" d="m228.24,46.48c1.95-.33,2.78-1.63,2.52-3.63-.55-1.87-1.77-2.76-3.73-2.31-1.7.39-2.55,1.59-2.29,3.31.29,1.92,1.51,2.97,3.5,2.63Z"/><path class="cls-2" d="m176.65,242.7c-.62-1.89-1.89-2.69-3.8-2.18-1.91.51-2.66,1.87-2.16,3.76.26.99.75,1.66,1.43,2.01l2.9-.05c1.47-.61,1.96-1.87,1.63-3.54Z"/><path class="cls-2" d="m245.42,122.81c-1.58.55-2.37,1.95-1.76,3.59.5,1.34,1.73,2.12,3.21,1.74.05-.01.1-.04.15-.05l-.09-5.36c-.45-.11-.95-.11-1.51.09Z"/></g></svg>