<?xml version="1.0" encoding="UTF-8"?><svg id="Btn_personalRoom-Edit" xmlns="http://www.w3.org/2000/svg" xmlns:xlink="http://www.w3.org/1999/xlink" viewBox="0 0 255.38 255.38"><defs><style>.cls-1{fill:#fff;}.cls-2{fill:#ff8400;}.cls-3{fill:#ff440a;}.cls-4{fill:none;filter:url(#drop-shadow-27);}</style><symbol id="Btn_orange" viewBox="0 0 255.38 255.38"><circle id="Black" cx="127.69" cy="127.69" r="127.69"/><circle id="Orange" class="cls-2" cx="119.94" cy="130.44" r="114.94"/><path id="Shadow" class="cls-3" d="m139.94,215.38c-63.48,0-114.94-51.46-114.94-114.94,0-17.1,7.53-33.32,14.22-47.9-18.89,20.48-30.67,47.84-30.67,77.9,0,63.48,48,108.61,111.39,114.94,46.16,4.61,86.35-27.48,104.51-67.04-21,22.77-51.09,37.04-84.51,37.04Z"/></symbol><filter id="drop-shadow-27" filterUnits="userSpaceOnUse"><feOffset dx="12" dy="-4"/><feGaussianBlur result="blur" stdDeviation="0"/><feFlood flood-color="#000" flood-opacity=".6"/><feComposite in2="blur" operator="in"/><feComposite in="SourceGraphic"/></filter></defs><use width="255.38" height="255.38" xlink:href="#Btn_orange"/><g id="icon" class="cls-4"><path id="lamp" class="cls-1" d="m140.08,63.09s5.56-12.13,22.8-13.25c17.24-1.11,24.3,4.73,24.3,4.73,0,0-5.93,5.56-1.45,18.68,4.48,13.12,15.31,12.86,15.31,12.86-7.29,4.58-19.77,8.13-32.42,9.88l3.09,81.72c.13.01.26.02.39.04,15.36,1.53,27.39,7.12,26.85,12.47-.53,5.35-13.42,8.45-28.79,6.92-15.36-1.53-27.39-7.12-26.85-12.47.49-4.88,11.23-7.88,24.76-7.22l-6.86-80.65c-11.1.9-21.57.26-27.89-2.44,3.02-1.09,20.25-21.3,6.75-31.27Z"/><path id="chair" class="cls-1" d="m46.33,89.23l25.29.85c11.35.42,15.16,11.57,15.22,16.77-1.58,15.11-1,33.25-1,33.25-.1,3.36-1.28,6.04-4.07,7.76l-1.01,5.53c5.42-.16,10.86.16,16.24,1.02l26.23,4.15c7.89,1.44,4.28,12.37,3.09,12.16l-2.76,1.36,9.81,32.52-4.23-.77-11.47-28.83-7.47,3.7c-4.61,2.34-9.73,4.23-15.11,5.44l1.22,14.86-4.27-1.18-2.56-12.69c-3.15.41-6.35.56-9.56.43l-4.53,35.94-5.33-.98,2.93-35.71c-6.68-1.19-13.26-3.76-19.31-8.12l-6.73-3.96-5.85,29.62-4.95-.91,4.83-32.23-1.27-.75c-1.99-3.11-3.24-5.74-.41-8.44l1.4-7.64c-4.22-.59-4.13-2.46-4.43-5.6,0,0-1.73-30.11-4.08-41.9-.65-6.62,5.12-15.82,14.12-15.65Zm16.69,66.52c4.13-.99,8.33-1.68,12.54-2.05l.79-4.31c-10.43.71-18.97,1.56-30.44,2.76l-1.16,6.32,18.27-2.72Z"/></g></svg>