<?xml version="1.0" encoding="UTF-8"?><svg id="Btn_magnifyingGlass" xmlns="http://www.w3.org/2000/svg" xmlns:xlink="http://www.w3.org/1999/xlink" viewBox="0 0 256 256"><defs><style>.cls-1{fill:#fff;}.cls-2{fill:none;mix-blend-mode:multiply;opacity:.6;}.cls-3{fill:#ff8400;}.cls-4{fill:#ff440a;}</style><symbol id="Btn_orange" viewBox="0 0 255.38 255.38"><circle id="Black" cx="127.69" cy="127.69" r="127.69"/><circle id="Orange" class="cls-3" cx="119.94" cy="130.44" r="114.94"/><path id="Shadow" class="cls-4" d="m139.94,215.38c-63.48,0-114.94-51.46-114.94-114.94,0-17.1,7.53-33.32,14.22-47.9-18.89,20.48-30.67,47.84-30.67,77.9,0,63.48,48,108.61,111.39,114.94,46.16,4.61,86.35-27.48,104.51-67.04-21,22.77-51.09,37.04-84.51,37.04Z"/></symbol><symbol id="magnifying_glass" viewBox="0 0 147.03 185.42"><g id="icon"><g class="cls-2"><path d="m102.42,109.13c24.24-12.93,38.36-42.44,28.5-68.83C119.61,10.06,84.62-6.81,52.76,2.61,20.9,12.04,4.23,44.2,15.54,74.44c10.65,28.47,42.28,45.09,72.54,39.07l31.53,67.9,27.43-1.17-44.61-71.11ZM28.94,70.48c-8.68-23.22,4.11-47.91,28.57-55.15,24.46-7.24,51.33,5.72,60.01,28.94,8.68,23.22-4.11,47.91-28.57,55.15-24.46,7.24-51.33-5.72-60.01-28.94Z"/></g><path class="cls-1" d="m90.42,113.13c24.24-12.93,38.36-42.44,28.5-68.83C107.61,14.06,72.62-2.81,40.76,6.61,8.9,16.04-7.77,48.2,3.54,78.44c10.65,28.47,42.28,45.09,72.54,39.07l31.53,67.9,27.43-1.17-44.61-71.11ZM16.94,74.48c-8.68-23.22,4.11-47.91,28.57-55.15,24.46-7.24,51.33,5.72,60.01,28.94,8.68,23.22-4.11,47.91-28.57,55.15-24.46,7.24-51.33-5.72-60.01-28.94Z"/></g></symbol></defs><use width="255.38" height="255.38" transform="translate(.31 .31)" xlink:href="#Btn_orange"/><use width="147.03" height="185.42" transform="translate(44.48 35.29)" xlink:href="#magnifying_glass"/></svg>