<?xml version="1.0" encoding="UTF-8"?><svg id="Btn_question" xmlns="http://www.w3.org/2000/svg" xmlns:xlink="http://www.w3.org/1999/xlink" viewBox="0 0 256 256"><defs><style>.cls-1{fill:#fff;}.cls-2{fill:none;mix-blend-mode:multiply;opacity:.6;}.cls-3{fill:#4187e6;}.cls-4{fill:#3b56fd;}</style><symbol id="Btn_blue" viewBox="0 0 255.38 255.38"><circle id="Black" cx="127.69" cy="127.69" r="127.69"/><circle id="Orange" class="cls-3" cx="119.94" cy="130.44" r="114.94"/><path id="Shadow" class="cls-4" d="m139.94,215.38c-63.48,0-114.94-51.46-114.94-114.94,0-17.1,7.53-33.32,14.22-47.9-18.89,20.48-30.67,47.84-30.67,77.9,0,63.48,48,108.61,111.39,114.94,46.16,4.61,86.35-27.48,104.51-67.04-21,22.77-51.09,37.04-84.51,37.04Z"/></symbol><symbol id="question_mark" viewBox="0 0 129.49 197.15"><g id="question"><g class="cls-2"><path d="m48.41,169.07c-.21,12.27,12.07,24.15,24.49,24.08,11.48-.06,22.85-11.02,22.72-21.9-.16-13.82-10.73-25.18-23.35-25.09-13.99-1.4-23.67,12.02-23.85,22.91Z"/><path d="m112.5,91.49c10-6.98,14.55-16.82,16.31-28.48,1.87-12.39-.33-24.4-3.73-36.13-3.41-11.75-11.55-19.66-23.24-23.18C88.98-.16,75.66-.79,62.42.85c-15.74,1.96-31.37,4.81-47.07,7.06-3.43.49-3.9,1.93-2.85,4.75,5.16,13.9,10.28,27.82,15.47,41.71.48,1.27,1.33,2.41,2.28,4.09,3.99-3.4,7.44-6.6,11.14-9.45,8.55-6.59,17.87-10.95,29.11-9.64,9.89,1.15,15.73,8.79,13.8,18.52-1.88,9.53-7.59,16.67-14.99,22.45-15.97,12.47-18.23,29.64-17.1,48.13.21,3.43,2.07,4.13,4.99,3.9,4.18-.33,8.37-.57,12.55-.86,8.61-.59,17.22-1.19,26.58-1.84-.32-1.73-.45-3.15-.86-4.48-1.39-4.45-.97-8.64.63-13.05,3.2-8.78,8.95-15.44,16.41-20.64Z"/></g><path class="cls-1" d="m36.41,173.07c-.21,12.27,12.07,24.15,24.49,24.08,11.48-.06,22.85-11.02,22.72-21.9-.16-13.82-10.73-25.18-23.35-25.09-13.99-1.4-23.67,12.02-23.85,22.91Z"/><path class="cls-1" d="m100.5,95.49c10-6.98,14.55-16.82,16.31-28.48,1.87-12.39-.33-24.4-3.73-36.13-3.41-11.75-11.55-19.66-23.24-23.18-12.85-3.86-26.18-4.5-39.41-2.85-15.74,1.96-31.37,4.81-47.07,7.06-3.43.49-3.9,1.93-2.85,4.75,5.16,13.9,10.28,27.82,15.47,41.71.48,1.27,1.33,2.41,2.28,4.09,3.99-3.4,7.44-6.6,11.14-9.45,8.55-6.59,17.87-10.95,29.11-9.64,9.89,1.15,15.73,8.79,13.8,18.52-1.88,9.53-7.59,16.67-14.99,22.45-15.97,12.47-18.23,29.64-17.1,48.13.21,3.43,2.07,4.13,4.99,3.9,4.18-.33,8.37-.57,12.55-.86,8.61-.59,17.22-1.19,26.58-1.84-.32-1.73-.45-3.15-.86-4.48-1.39-4.45-.97-8.64.63-13.05,3.2-8.78,8.95-15.44,16.41-20.64Z"/></g></symbol></defs><use width="255.38" height="255.38" transform="translate(.31 .31)" xlink:href="#Btn_blue"/><use width="129.49" height="197.15" transform="translate(61.51 37.51)" xlink:href="#question_mark"/></svg>