<?xml version="1.0" encoding="UTF-8"?><svg id="Btn_Phone-friend-add" xmlns="http://www.w3.org/2000/svg" xmlns:xlink="http://www.w3.org/1999/xlink" viewBox="0 0 256 256"><defs><style>.cls-1,.cls-2{fill:#fff;}.cls-2,.cls-3{fill-rule:evenodd;}.cls-4{fill:none;mix-blend-mode:multiply;opacity:.6;}.cls-5{fill:#29a25a;}.cls-6{fill:#60cb3d;}</style><symbol id="Btn-Plus" viewBox="0 0 125.87 116.19"><g id="plus"><g class="cls-4"><path d="m51.9,1.7h31.03v41.36l37.93-6.89,3.45,31.02-41.37-3.45,3.45,48.26h-34.48l3.45-48.26-44.82,13.79v-34.47h44.82L51.9,1.7Z"/><path d="m50.11.06c10.89-.18,22.04.04,32.82.5,0,0,1.14.05,1.14.05v1.09s.04,41.36.04,41.36l-1.39-1.16s37.93-6.88,37.93-6.88l1.23-.22.15,1.24,3.66,31,.2,1.66-1.69-.13-41.4-3.19s1.77-1.75,1.77-1.75l3.75,48.24s.16,2.07.16,2.07h-2.1s-34.48.24-34.48.24l-2.32.02.15-2.34,3.16-48.28,3.17,2.52c-5.57,1.75-16.81,5.24-22.39,6.95-1.78.55-24.62,7.55-25.67,7.88,0,0,.02-3.39.02-3.39l.25-34.47.02-2.29,2.23.03c13.03.22,31.99.45,44.82.88,0,0-1.37,1.48-1.37,1.48-1.57-14.2-2.9-28.78-3.87-43.12h0Zm3.57,3.29c1.33,13.24,2.29,26.24,3.03,39.61,0,0,.08,1.44.08,1.44l-1.45.05c-12.77.4-31.89.7-44.82.88,0,0,2.25-2.25,2.25-2.25l.25,34.47-3.23-2.39,22.41-6.91c5.59-1.73,16.83-5.15,22.43-6.84,0,0,3.45-1.05,3.45-1.05l-.28,3.57-3.74,48.24-2.16-2.32,34.48.23-1.94,2.08-3.15-48.28-.13-1.92,1.9.17,41.35,3.7-1.49,1.53-3.23-31.05,1.37,1.02-37.92,6.9-1.39.25v-1.41s.04-41.36.04-41.36l1.14,1.14c-9.9.44-19.44.68-29.24.5h0Z"/></g><path class="cls-1" d="m43.9,3.7h31.03v41.36l37.93-6.89,3.45,31.02-41.37-3.45,3.45,48.26h-34.48l3.45-48.26L2.52,79.54v-34.47h44.82l-3.45-41.36Z"/><path d="m42.11,2.06c10.89-.18,22.04.04,32.82.5,0,0,1.14.05,1.14.05v1.09s.04,41.36.04,41.36l-1.39-1.16s37.93-6.88,37.93-6.88l1.23-.22.15,1.24,3.66,31,.2,1.66-1.69-.13-41.4-3.19s1.77-1.75,1.77-1.75l3.75,48.24s.16,2.07.16,2.07h-2.1s-34.48.24-34.48.24l-2.32.02.15-2.34,3.16-48.28,3.17,2.52c-5.57,1.75-16.81,5.24-22.39,6.95-1.78.55-24.62,7.55-25.67,7.88,0,0,.02-3.39.02-3.39l.25-34.47.02-2.29,2.23.03c13.03.22,31.99.45,44.82.88,0,0-1.37,1.48-1.37,1.48-1.57-14.2-2.9-28.78-3.87-43.12h0Zm3.57,3.29c1.33,13.24,2.29,26.24,3.03,39.61,0,0,.08,1.44.08,1.44l-1.45.05c-12.77.4-31.89.7-44.82.88,0,0,2.25-2.25,2.25-2.25l.25,34.47-3.23-2.39,22.41-6.91c5.59-1.73,16.83-5.15,22.43-6.84,0,0,3.45-1.05,3.45-1.05l-.28,3.57-3.74,48.24-2.16-2.32,34.48.23-1.94,2.08-3.15-48.28-.13-1.92,1.9.17,41.35,3.7-1.49,1.53-3.23-31.05,1.37,1.02-37.92,6.9-1.39.25v-1.41s.04-41.36.04-41.36l1.14,1.14c-9.9.44-19.44.68-29.24.5h0Z"/></g></symbol><symbol id="Btn_green" viewBox="0 0 255.38 255.38"><circle id="Black" cx="127.69" cy="127.69" r="127.69"/><circle id="Red" class="cls-6" cx="119.94" cy="130.44" r="114.94"/><path id="Shadow" class="cls-5" d="m139.94,215.38c-63.48,0-114.94-51.46-114.94-114.94,0-17.1,7.53-33.32,14.22-47.9-18.89,20.48-30.67,47.84-30.67,77.9,0,63.48,48,108.61,111.39,114.94,46.16,4.61,86.35-27.48,104.51-67.04-21,22.77-51.09,37.04-84.51,37.04Z"/></symbol><symbol id="Friend" viewBox="0 0 173.93 177.59"><g id="icon"><g class="cls-4"><path class="cls-3" d="m63.34,108.74c4.47-3.89,10.98-6.25,17.48-7.67-6.86-8.53-13.24-20.56-13.12-35.74.19-23.13,11.22-42.71,27.28-51.7C88.36,5.37,79.26.11,68.73,0,46.95.22,31.22,22.51,31.01,47.8c-.22,27.13,25.15,42.77,25.15,42.77,0,0-23.78-.21-32.69,7.55-12.39,10.79-12.87,42.93-10.06,50.32,1.46,3.82,18.82,5.97,35.36,6.93-.34-15.05,3-36.56,14.57-46.63Z"/><path class="cls-3" d="m172.52,163.52c-2.1,5.51-39.75,10.06-57.84,10.06s-53.23-2.04-55.32-7.55c-2.81-7.38-2.34-39.53,10.06-50.32,8.91-7.76,32.69-7.55,32.69-7.55,0,0-25.37-15.64-25.15-42.77.2-25.29,15.94-47.58,37.72-47.8,21.78.22,37.52,22.51,37.72,47.8.22,27.13-22.63,40.25-22.63,40.25,0,0,23.78-.21,32.69,7.55,12.39,10.79,12.87,42.93,10.06,50.32Z"/></g><path class="cls-2" d="m51.34,112.74c4.47-3.89,10.98-6.25,17.48-7.67-6.86-8.53-13.24-20.56-13.12-35.74.19-23.13,11.22-42.71,27.28-51.7-6.63-8.26-15.73-13.52-26.26-13.63-21.78.22-37.52,22.51-37.72,47.8-.22,27.13,25.15,42.77,25.15,42.77,0,0-23.78-.21-32.69,7.55C-.93,112.91-1.4,145.06,1.41,152.44c1.46,3.82,18.82,5.97,35.36,6.93-.34-15.05,3-36.56,14.57-46.63Z"/><use width="115.98" height="155.99" transform="translate(45.95 21.6)" xlink:href="#Person"/></g></symbol><symbol id="Person" viewBox="0 0 115.98 155.99"><path class="cls-2" d="m114.57,145.92c-2.1,5.51-39.75,10.06-57.84,10.06s-53.23-2.04-55.32-7.55c-2.81-7.38-2.34-39.53,10.06-50.32,8.91-7.76,32.69-7.55,32.69-7.55,0,0-25.37-15.64-25.15-42.77C19.22,22.51,34.95.22,56.73,0c21.78.22,37.52,22.51,37.72,47.8.22,27.13-22.63,40.25-22.63,40.25,0,0,23.78-.21,32.69,7.55,12.39,10.79,12.87,42.93,10.06,50.32Z"/></symbol></defs><use width="255.38" height="255.38" transform="translate(.31 .31)" xlink:href="#Btn_green"/><use width="173.93" height="177.59" transform="translate(37.03 37.21)" xlink:href="#Friend"/><use width="125.87" height="116.19" transform="translate(130.9 139.93)" xlink:href="#Btn-Plus"/></svg>