<?xml version="1.0" encoding="UTF-8"?><svg id="Btn_pagination-grey" xmlns="http://www.w3.org/2000/svg" xmlns:xlink="http://www.w3.org/1999/xlink" viewBox="0 0 256 256"><defs><style>.cls-1{fill:#fff;}.cls-2{fill:#90a8b9;}.cls-3{fill:url(#linear-gradient);}</style><linearGradient id="linear-gradient" x1="234.47" y1="7.33" x2="33.11" y2="208.68" gradientUnits="userSpaceOnUse"><stop offset="0" stop-color="#798d9c"/><stop offset=".31" stop-color="#758997"/><stop offset=".63" stop-color="#6c7e8b"/><stop offset=".95" stop-color="#5b6b76"/><stop offset="1" stop-color="#596873"/></linearGradient></defs><polygon id="bg" points="256 229.54 21.73 229.54 1.89 0 236.16 0 256 229.54"/><g id="shadow"><polyline class="cls-3" points="18.77 4.52 230.85 3.7 248.81 211.49 36.73 212.3"/></g><polyline id="main" class="cls-2" points="33.42 6.48 230.85 5.72 247.58 199.38 50.16 200.14"/><path id="highlight" class="cls-1" d="m234.4,70.69c-1.22-15.26-4.93-44.72-6.09-52.92-1.16-8.2-.42-10.22-9.03-10.22-16.93,0-170.78.68-170.78.68-19.74,0-8.48,21.36-8.48,21.36-.49-9.95,43.43-15.07,90.46-16.75,30.73-1.1,64.76-.61,79.17,3.73s17.76,39.28,19.26,51.77c16.69,138.88,17.91,139.88,5.49,2.35Z"/></svg>