<?xml version="1.0" encoding="UTF-8"?><svg id="Btn_Phone-chats-direct-selected" xmlns="http://www.w3.org/2000/svg" xmlns:xlink="http://www.w3.org/1999/xlink" viewBox="0 0 256 256"><defs><style>.cls-1{fill:#fff;}.cls-2{fill:none;mix-blend-mode:multiply;opacity:.6;}.cls-3{fill:#ff8400;}.cls-4{fill:#ff440a;}</style><symbol id="Btn_orange" viewBox="0 0 255.38 255.38"><circle id="Black" cx="127.69" cy="127.69" r="127.69"/><circle id="Orange" class="cls-3" cx="119.94" cy="130.44" r="114.94"/><path id="Shadow" class="cls-4" d="m139.94,215.38c-63.48,0-114.94-51.46-114.94-114.94,0-17.1,7.53-33.32,14.22-47.9-18.89,20.48-30.67,47.84-30.67,77.9,0,63.48,48,108.61,111.39,114.94,46.16,4.61,86.35-27.48,104.51-67.04-21,22.77-51.09,37.04-84.51,37.04Z"/></symbol><symbol id="message" viewBox="0 0 198 157.61"><g class="cls-2"><path d="m105,0C53.64,0,12,30.43,12,67.96c0,15.87,7.44,30.47,19.92,42.04l-4.48,19.48-5.54,24.13,28.19-14.12,18.14-9.09c11.28,3.55,23.71,5.52,36.77,5.52,51.36,0,93-30.43,93-67.96S156.36,0,105,0Zm-48.79,85.54c-9.94,0-18-8.06-18-18s8.06-18,18-18,18,8.06,18,18-8.06,18-18,18Zm48.47,0c-9.94,0-18-8.06-18-18s8.06-18,18-18,18,8.06,18,18-8.06,18-18,18Zm48.47,0c-9.94,0-18-8.06-18-18s8.06-18,18-18,18,8.06,18,18-8.06,18-18,18Z"/></g><path class="cls-1" d="m93,4C41.64,4,0,34.43,0,71.96c0,15.87,7.44,30.47,19.92,42.04l-4.48,19.48-5.54,24.13,28.19-14.12,18.14-9.09c11.28,3.55,23.71,5.52,36.77,5.52,51.36,0,93-30.43,93-67.96S144.36,4,93,4Zm-48.79,85.54c-9.94,0-18-8.06-18-18s8.06-18,18-18,18,8.06,18,18-8.06,18-18,18Zm48.47,0c-9.94,0-18-8.06-18-18s8.06-18,18-18,18,8.06,18,18-8.06,18-18,18Zm48.47,0c-9.94,0-18-8.06-18-18s8.06-18,18-18,18,8.06,18,18-8.06,18-18,18Z"/></symbol></defs><use width="255.38" height="255.38" transform="translate(.31 .31)" xlink:href="#Btn_orange"/><use width="198" height="157.61" transform="translate(29 49.19)" xlink:href="#message"/></svg>