<?xml version="1.0" encoding="UTF-8"?><svg id="Btn_redo" xmlns="http://www.w3.org/2000/svg" xmlns:xlink="http://www.w3.org/1999/xlink" viewBox="0 0 256 256"><defs><style>.cls-1{fill:#fff;}.cls-2{fill:none;mix-blend-mode:multiply;opacity:.6;}.cls-3{fill:#29a25a;}.cls-4{fill:#60cb3d;}</style><symbol id="Arrow-redo" viewBox="0 0 197.28 246.4"><g id="arrow"><g class="cls-2"><path d="m186.55,70.21c0-5.19-7.25-11.01-7.25-11.01L122.45,2.38s-3.41-3.88-10.44-1.74c-7.03,2.14-6.38,9.57-6.38,9.57l-1.16,27.54S-1.22,58.77,13.39,156.59c12.2,81.73,87.59,85.8,87.6,85.8,94.61.93,96.3-84.35,96.3-84.35,0,0-16.32,62.47-80.34,58.84.45.45-42.27,1.97-54.53-52.47-4.54-50.81,42.93-58.26,42.93-58.26l-.66,26.02s-.6,8.96,7.04,10.79c7.64,1.83,11.63-4.41,11.63-4.41l57.4-58.2s5.8-4.96,5.8-10.15Z"/></g><path class="cls-1" d="m174.55,74.21c0-5.19-7.25-11.01-7.25-11.01L110.45,6.38s-3.41-3.88-10.44-1.74c-7.03,2.14-6.38,9.57-6.38,9.57l-1.16,27.54S-13.22,62.77,1.39,160.59c12.2,81.73,87.59,85.8,87.6,85.8,94.61.93,96.3-84.35,96.3-84.35,0,0-16.32,62.47-80.34,58.84.45.45-42.27,1.97-54.53-52.47-4.54-50.81,42.93-58.26,42.93-58.26l-.66,26.02s-.6,8.96,7.04,10.79c7.64,1.83,11.63-4.41,11.63-4.41l57.4-58.2s5.8-4.96,5.8-10.15Z"/></g></symbol><symbol id="Btn_green" viewBox="0 0 255.38 255.38"><circle id="Black" cx="127.69" cy="127.69" r="127.69"/><circle id="Red" class="cls-4" cx="119.94" cy="130.44" r="114.94"/><path id="Shadow" class="cls-3" d="m139.94,215.38c-63.48,0-114.94-51.46-114.94-114.94,0-17.1,7.53-33.32,14.22-47.9-18.89,20.48-30.67,47.84-30.67,77.9,0,63.48,48,108.61,111.39,114.94,46.16,4.61,86.35-27.48,104.51-67.04-21,22.77-51.09,37.04-84.51,37.04Z"/></symbol></defs><use width="255.38" height="255.38" transform="translate(.31 .31)" xlink:href="#Btn_green"/><use width="197.28" height="246.4" transform="translate(33.6 27.38) scale(.81)" xlink:href="#Arrow-redo"/></svg>