<?xml version="1.0" encoding="UTF-8"?><svg id="Icn_Stat-Power" xmlns="http://www.w3.org/2000/svg" xmlns:xlink="http://www.w3.org/1999/xlink" viewBox="0 0 256 256"><defs><style>.cls-1{fill:#fc0;opacity:.8;}.cls-2{fill:#fef399;}.cls-3{fill:none;}</style><clipPath id="clippath"><path class="cls-3" d="m1403-4V255.98h130V-4h-130Zm83.79,198.38c-.8-3.68.61-7.78-.03-9.62-.87-2.49-5.73-16.81-10.61-21.51-.61,2.82.3,17.08.81,18.82,1.82,8.44.36,17.1.51,25.63-.31,10.75.57,21.87.34,32.4,1.53,2.74,5.37,3.72,7.27,6.17.7,5.75-16.09.52-16.16-1.7-.16-.54-2.21-34.64-2.85-46.94-.19-.38-2-.38-2.19,0-.64,12.29-2.69,46.4-2.85,46.94-.07,2.22-16.86,7.45-16.16,1.7,1.9-2.45,5.74-3.42,7.27-6.17-.23-10.54.65-21.66.34-32.4.15-8.53-1.31-17.18.51-25.63.5-1.73,1.41-16,.81-18.82-4.88,4.69-9.74,19.01-10.61,21.51-.64,1.84.78,5.93-.03,9.62-2.18,9.99-11.18,2.42-9.76-3.22,1.08-4.29,3.18-7.66,4.81-11.59,3.15-7.59,5.89-15.31,9-22.9,5.09-12.62,10.02-6.98,14.08-11.17.11-.63.13-.62-.48-.83-3.9-1.37-8.31-2.94-10.5-6.72-.27-.48-.46-.8-1.11-.68-4.08-.74-6.96-13.56-1.83-12.2.22.06.26-.06.22-.26-.2-1.21-.33-2.44-.32-3.67-.04-7.99,7.58-16.55,16.04-16.72h3.27c8.46.18,16.08,8.73,16.04,16.72,0,1.23-.12,2.46-.32,3.67-.03.2,0,.32.22.26,5.14-1.36,2.26,11.46-1.83,12.2-.65-.12-.84.2-1.11.68-2.18,3.77-6.59,5.34-10.5,6.72-.61.2-.59.2-.48.83,4.06,4.19,8.99-1.45,14.08,11.17,3.11,7.59,5.85,15.31,9,22.9,1.63,3.92,3.73,7.29,4.81,11.59,1.42,5.64-7.58,13.21-9.76,3.22Z"/></clipPath></defs><polygon class="cls-1" points="171.19 125.98 99.79 119.14 145.21 5.44 239.25 17.14 175.37 80.97 247 101.01 131.81 232.36 171.19 125.98"/><path class="cls-2" d="m148.42,10.88l80.05,9.96-50.59,50.54-12.1,12.09,16.48,4.61,55.74,15.59-92.11,105.03,27.73-74.91,4.51-12.19-12.94-1.24-58.29-5.58L148.42,10.88m-6.42-10.88l-49.32,123.48,71.57,6.85-46.53,125.67,138.28-157.67-71.04-19.88L250.03,13.44,142,0h0Z"/><polygon class="cls-1" points="76.41 165.38 33.04 154.31 8.28 126.73 52.11 65.11 60.45 120.77 96.88 132.97 109.16 228.61 76.41 165.38"/><path class="cls-2" d="m49.01,78.1l6.05,40.38.91,6.06,5.81,1.94,30.56,10.23,8.28,64.5-18.73-36.15-2.06-3.98-4.34-1.11-39.73-10.14-21.07-23.47,34.33-48.26m6.22-25.99L1.89,127.09l28.44,31.69,42.67,10.89,44.72,86.33-16.28-126.78-36.5-12.22-9.72-64.89h0Z"/></svg>