<?xml version="1.0" encoding="UTF-8"?><svg  preserveAspectRatio="none" id="Title-Tech_sm" xmlns="http://www.w3.org/2000/svg" xmlns:xlink="http://www.w3.org/1999/xlink" viewBox="0 0 500 90"><defs><style>.cls-1{fill:#444957;}.cls-2{fill:url(#linear-gradient-2);fill-opacity:.8;}.cls-3,.cls-4{fill:none;}.cls-4{clip-path:url(#clippath);}.cls-5{fill:url(#linear-gradient);}.cls-6{fill:#31435a;}.cls-7{fill:#c1d6ef;}</style><clipPath id="clippath"><polygon class="cls-3" points="500 90 0 90 59 0 440 0 500 90"/></clipPath><linearGradient id="linear-gradient" x1="250" y1="90" x2="250" y2="0" gradientUnits="userSpaceOnUse"><stop offset="0" stop-color="#5c83b6"/><stop offset="1" stop-color="#81a5d3"/></linearGradient><linearGradient id="linear-gradient-2" x1="57" y1="45" x2="500" y2="45" gradientUnits="userSpaceOnUse"><stop offset="0" stop-color="#d8e1ed"/><stop offset="1" stop-color="#fff"/></linearGradient><filter id="drop-shadow-1" filterUnits="userSpaceOnUse"><feOffset dx="-3" dy="3"/><feGaussianBlur result="blur" stdDeviation="0"/><feFlood flood-color="#fff" flood-opacity=".4"/><feComposite in2="blur" operator="in"/><feComposite in="SourceGraphic"/></filter></defs><g class="cls-4"><polygon id="BG" class="cls-5" points="500 90 0 90 59 0 440 0 500 90"/><rect id="shadow" class="cls-6" x="-1" y="89" width="502" height="1"/><rect id="shadow-2" class="cls-6" x="-24.24" y="43.81" width="108.88" height="1.5" transform="translate(-23.63 45.27) rotate(-56.62)"/><polygon id="highlight" class="cls-2" points="500 90 440 0 57 0 57 3 438.37 3 496.49 90 500 90"/><rect id="line2-hi" class="cls-7" x="14" y="49" width="463" height="2"/><rect id="line2-lo" class="cls-1" x="14" y="47" width="463" height="2"/><rect id="line1-hi" class="cls-7" x="31" y="38" width="438" height="2"/><rect id="line1-lo" class="cls-1" x="31" y="36" width="438" height="2"/></g></svg>